<?xml version="1.0" encoding="utf-8"?>
<!-- Generator: Adobe Illustrator 28.0.0, SVG Export Plug-In . SVG Version: 6.00 Build 0)  -->
<svg version="1.1" id="Layer_1" xmlns="http://www.w3.org/2000/svg" xmlns:xlink="http://www.w3.org/1999/xlink" x="0px" y="0px"
	 viewBox="0 0 520 282" style="enable-background:new 0 0 520 282;" xml:space="preserve">
<style type="text/css">
	.st0{fill:#FFFFFF;stroke:#000000;}
	.st1{font-family:'ArialMT';}
	.st2{font-size:9.6px;}
	.st3{fill:none;stroke:#000000;stroke-miterlimit:10;}
	.st4{fill:none;}
</style>
<g>
	<rect x="150.5" y="190.5" pointer-events="all" class="st0" width="230" height="80"/>
	<g transform="rotate(90,265,230)">
	</g>
	<g transform="rotate(90,265,230)">
	</g>
	<g transform="rotate(90,265,230)">
		<text transform="matrix(1 0 0 1 235 140.3008)" class="st1 st2">+3.3V</text>
	</g>
	<g transform="rotate(90,265,230)">
	</g>
	<g transform="rotate(90,265,230)">
	</g>
	<g transform="rotate(90,265,230)">
	</g>
	<g transform="rotate(90,265,230)">
	</g>
	<g transform="rotate(90,265,230)">
	</g>
	<g transform="rotate(90,265,230)">
	</g>
	<g transform="rotate(90,265,230)">
	</g>
	<g transform="rotate(90,265,230)">
	</g>
	<g transform="rotate(90,265,230)">
	</g>
	<g transform="rotate(90,265,230)">
	</g>
	<g transform="rotate(90,265,230)">
	</g>
	<g transform="rotate(90,265,230)">
		<text transform="matrix(1 0 0 1 235 230.3008)" class="st1 st2">SDA</text>
	</g>
	<g transform="rotate(90,265,230)">
	</g>
	<g transform="rotate(90,265,230)">
		<text transform="matrix(1 0 0 1 235 245.3008)" class="st1 st2">SCL</text>
	</g>
	<g transform="rotate(90,265,230)">
	</g>
	<g transform="rotate(90,265,230)">
	</g>
	<g transform="rotate(90,265,230)">
	</g>
	<g transform="rotate(90,265,230)">
	</g>
	<g transform="rotate(90,265,230)">
	</g>
	<g transform="rotate(90,265,230)">
	</g>
	<g transform="rotate(90,265,230)">
	</g>
	<g transform="rotate(90,265,230)">
	</g>
	<g transform="rotate(90,265,230)">
	</g>
	<g transform="rotate(90,265,230)">
		<text transform="matrix(1 0 0 1 235 320.3008)" class="st1 st2">GND</text>
	</g>
	<g transform="rotate(90,265,230)">
	</g>
	<g transform="rotate(90,265,230)">
		<text transform="matrix(1 0 0 1 235 335.3008)" class="st1 st2">Vin</text>
	</g>
	<g transform="rotate(90,265,230)">
	</g>
	<path pointer-events="all" class="st3" d="M373,180.5v10 M373,270.5v10 M358,180.5v10 M358,270.5v10 M343,180.5v10 M343,270.5v10
		 M328,180.5v10 M328,270.5v10 M313,180.5v10 M313,270.5v10 M298,180.5v10 M298,270.5v10 M283,180.5v10 M283,270.5v10 M268,180.5v10
		 M268,270.5v10 M253,180.5v10 M253,270.5v10 M238,180.5v10 M238,270.5v10 M223,180.5v10 M223,270.5v10 M208,180.5v10 M208,270.5v10
		 M193,180.5v10 M193,270.5v10 M178,180.5v10 M178,270.5v10 M163,180.5v10 M163,270.5v10"/>
	<g transform="translate(-0.5 -0.5)">
		
			<image style="overflow:visible;enable-background:new    ;" width="912" height="172" xlink:href="95D87BC9AED4A9BD.png"  transform="matrix(0.25 0 0 0.25 151.5 238)">
		</image>
	</g>
	<rect x="150.5" y="10.5" pointer-events="all" class="st0" width="90" height="90"/>
	<g transform="rotate(270,195,55)">
		<text transform="matrix(1 0 0 1 158.9999 21.3)" class="st1 st2">Vin</text>
	</g>
	<g transform="rotate(270,195,55)">
	</g>
	<g transform="rotate(270,195,55)">
	</g>
	<g transform="rotate(270,195,55)">
	</g>
	<g transform="rotate(270,195,55)">
		<text transform="matrix(1 0 0 1 158.9999 51.3)" class="st1 st2">GND</text>
	</g>
	<g transform="rotate(270,195,55)">
	</g>
	<g transform="rotate(270,195,55)">
		<text transform="matrix(1 0 0 1 158.9999 66.3)" class="st1 st2">SDA</text>
	</g>
	<g transform="rotate(270,195,55)">
	</g>
	<g transform="rotate(270,195,55)">
		<text transform="matrix(1 0 0 1 158.9999 81.3)" class="st1 st2">SCL</text>
	</g>
	<g transform="rotate(270,195,55)">
	</g>
	<g transform="rotate(270,195,55)">
	</g>
	<g transform="rotate(270,195,55)">
	</g>
	<path pointer-events="all" class="st3" d="M158,110.5v-10 M173,110.5v-10 M173,10.5v-10 M188,110.5v-10 M188,10.5v-10 M203,110.5
		v-10 M203,10.5v-10 M218,110.5v-10 M218,10.5v-10 M233,110.5v-10"/>
	<g transform="translate(-0.5 -0.5)">
		
			<image style="overflow:visible;enable-background:new    ;" width="344" height="232" xlink:href="95D87BC9AED4A9BF.png"  transform="matrix(0.25 0 0 0.25 152.5 9)">
		</image>
	</g>
	<path pointer-events="stroke" class="st3" d="M203,110.5l0,35h65l0,35"/>
	<path pointer-events="stroke" class="st3" d="M218,110.5l0,50h35l0,20"/>
	<path pointer-events="stroke" class="st3" d="M358,180.5l0-50H158l0-20"/>
	<rect x="10.5" y="137.5" pointer-events="all" class="st0" width="90" height="70"/>
	<g>
		<text transform="matrix(1 0 0 1 79.8609 148.3)" class="st1 st2">5v</text>
	</g>
	<g>
		<text transform="matrix(1 0 0 1 68.6672 163.3)" class="st1 st2">GND</text>
	</g>
	<path pointer-events="all" class="st3" d="M100.5,145h10 M100.5,160h10 M100.5,175h10 M100.5,190h10"/>
	<g transform="translate(-0.5 -0.5)">
		
			<image style="overflow:visible;enable-background:new    ;" width="488" height="232" xlink:href="95D87BC9AED4A9BA.png"  transform="matrix(0.25 0 0 0.25 -5.5 157)">
		</image>
	</g>
	<path pointer-events="stroke" class="st3" d="M110.5,145l52.5,0l0,35.5"/>
	<path pointer-events="stroke" class="st3" d="M110.5,160l67.5,0l0,20.5"/>
	<path pointer-events="all" class="st3" d="M380.5,235v-10h30v-10.5l19,15.5l-19,15.5V235H380.5z"/>
	<rect x="25.5" y="250.5" pointer-events="all" class="st4" width="60" height="30"/>
	<g transform="translate(-0.5 -0.5)">
		
			<image style="overflow:visible;enable-background:new    ;" width="232" height="68" xlink:href="95D87BC9AED4A9BB.png"  transform="matrix(0.25 0 0 0.25 26.5 259)">
		</image>
	</g>
	<path pointer-events="all" class="st3" d="M60.5,137.3l-10,0.1l-0.2-20l-10.5,0.1L55,98.4l15.7,18.8l-10.5,0.1L60.5,137.3z"/>
	<rect x="25.5" y="57.5" pointer-events="all" class="st4" width="60" height="30"/>
	<g transform="translate(-0.5 -0.5)">
		
			<image style="overflow:visible;enable-background:new    ;" width="232" height="128" xlink:href="95D87BC9AED4A9C5.png"  transform="matrix(0.25 0 0 0.25 26.5 58.5)">
		</image>
	</g>
	<path pointer-events="all" class="st3" d="M50,207.7l10-0.1l0.2,20l10.5-0.1l-15.3,19.2l-15.7-18.8l10.5-0.1L50,207.7z"/>
	<rect x="439.5" y="200.5" pointer-events="all" class="st4" width="80" height="60"/>
	<g transform="translate(-0.5 -0.5)">
		
			<image style="overflow:visible;enable-background:new    ;" width="312" height="128" xlink:href="95D87BC9AED4A9C7.png"  transform="matrix(0.25 0 0 0.25 440.5 216.5)">
		</image>
	</g>
	<path pointer-events="stroke" class="st3" d="M188,110.5l0,35h-10l0,35"/>
</g>
</svg>
