<?xml version="1.0" encoding="utf-8"?>
<!-- Generator: Adobe Illustrator 28.0.0, SVG Export Plug-In . SVG Version: 6.00 Build 0)  -->
<svg version="1.1" id="Layer_1" xmlns="http://www.w3.org/2000/svg" xmlns:xlink="http://www.w3.org/1999/xlink" x="0px" y="0px"
	 viewBox="0 0 419.53 297.64" style="enable-background:new 0 0 419.53 297.64;" xml:space="preserve">
<g>
	<g>
		<defs>
			<rect id="SVGID_1_" x="97" y="114.64" width="224.82" height="69.45"/>
		</defs>
		<clipPath id="SVGID_00000156570858199830264630000013512600310667593881_">
			<use xlink:href="#SVGID_1_"  style="overflow:visible;"/>
		</clipPath>
		<g style="clip-path:url(#SVGID_00000156570858199830264630000013512600310667593881_);">
			<path style="fill:#A1C038;" d="M97,128.48c0,0,0-1.38,1.23-1.99l23.05-11.53c0,0,1.23-0.62,2.52-0.13l48.44,18.18
				c0,0,1.29,0.48,1.29,1.86v35.55c0,0,0,1.38-1.23,1.99l-23.05,11.53c0,0-1.23,0.62-1.23-0.76V163.6c0,0,0-1.38-1.23-0.76
				l-23.05,11.53c0,0-1.23,0.62-1.23-0.76v-19.59c0,0,0-1.38-1.23-0.76L98.23,164.8c0,0-1.23,0.62-1.23-0.76V128.48L97,128.48z"/>
		</g>
	</g>
	<g>
		<path d="M193.63,119.35c0,0.09-0.07,0.16-0.16,0.16h-2.17v9.22c0,0.09-0.09,0.16-0.17,0.16h-0.61c-0.09,0-0.17-0.07-0.17-0.16
			v-9.22h-2.17c-0.09,0-0.16-0.07-0.16-0.16v-0.64c0-0.09,0.07-0.15,0.16-0.15h5.31c0.09,0,0.16,0.06,0.16,0.15V119.35z"/>
		<path d="M200.55,128.72c0,0.09-0.06,0.16-0.15,0.16h-4.7c-0.07,0-0.16-0.07-0.16-0.16v-10.02c0-0.09,0.09-0.15,0.16-0.15h4.7
			c0.09,0,0.15,0.06,0.15,0.15v0.64c0,0.09-0.06,0.16-0.15,0.16h-3.91v3.74h3.59c0.07,0,0.16,0.07,0.16,0.16v0.62
			c0,0.09-0.09,0.16-0.16,0.16h-3.59v3.75h3.91c0.09,0,0.15,0.06,0.15,0.15V128.72z"/>
		<path d="M207.63,126.7c0,1.3-1.04,2.35-2.35,2.35h-0.46c-1.29,0-2.35-1.04-2.35-2.35v-5.96c0-1.29,1.06-2.35,2.35-2.35h0.46
			c1.3,0,2.35,1.06,2.35,2.35v0.32c0,0.07-0.06,0.16-0.15,0.16h-0.64c-0.09,0-0.16-0.09-0.16-0.16v-0.32c0-0.77-0.62-1.41-1.41-1.41
			h-0.46c-0.77,0-1.41,0.64-1.41,1.41v5.96c0,0.77,0.64,1.41,1.41,1.41h0.46c0.78,0,1.41-0.64,1.41-1.41v-0.46
			c0-0.09,0.07-0.16,0.16-0.16h0.64c0.09,0,0.15,0.07,0.15,0.16V126.7z"/>
		<path d="M214.56,128.72c0,0.09-0.07,0.16-0.16,0.16h-0.62c-0.09,0-0.16-0.07-0.16-0.16v-4.54h-3.13v4.54
			c0,0.09-0.07,0.16-0.16,0.16h-0.62c-0.09,0-0.16-0.07-0.16-0.16v-10.02c0-0.09,0.07-0.15,0.16-0.15h0.62
			c0.09,0,0.16,0.06,0.16,0.15v4.54h3.13v-4.54c0-0.09,0.07-0.15,0.16-0.15h0.62c0.09,0,0.16,0.06,0.16,0.15V128.72z"/>
	</g>
	<g>
		<path d="M222.44,128.72c0,0.09-0.09,0.16-0.16,0.16h-1.35c-0.06,0-0.12-0.03-0.15-0.1l-2.46-7.89c-0.1-0.3-0.19-1-0.2-1.15h-0.29
			c0.01,0.15,0.1,0.84,0.1,1.15v7.83c0,0.09-0.09,0.16-0.14,0.16h-0.64c-0.07,0-0.16-0.07-0.16-0.16v-10.02
			c0-0.09,0.09-0.15,0.16-0.15h1.35c0.04,0,0.13,0.03,0.16,0.12l2.45,7.86c0.1,0.32,0.19,1,0.2,1.15h0.29
			c-0.01-0.15-0.1-0.83-0.1-1.15v-7.83c0-0.09,0.09-0.15,0.14-0.15h0.64c0.07,0,0.16,0.06,0.16,0.15V128.72z"/>
		<path d="M229.73,128.72c0,0.09-0.06,0.16-0.14,0.16h-5.02c-0.09,0-0.15-0.07-0.15-0.16v-0.62c0-0.09,0.06-0.15,0.15-0.15h2.03
			v-8.45h-1.87c-0.09,0-0.16-0.07-0.16-0.16v-0.64c0-0.09,0.07-0.15,0.16-0.15h4.7c0.09,0,0.16,0.06,0.16,0.15v0.64
			c0,0.09-0.07,0.16-0.16,0.16h-1.87v8.45h2.03c0.09,0,0.14,0.06,0.14,0.15V128.72z"/>
		<path d="M237.72,128.64c0.07,0.13,0.03,0.25-0.13,0.25h-0.77c-0.04,0-0.09-0.01-0.13-0.07l-3.17-4.58l-0.64,0.9v3.59
			c0,0.09-0.07,0.16-0.16,0.16h-0.62c-0.09,0-0.16-0.07-0.16-0.16v-10.02c0-0.09,0.07-0.15,0.16-0.15h0.62
			c0.09,0,0.16,0.06,0.16,0.15v4.78l3.46-4.86c0.04-0.06,0.09-0.07,0.13-0.07h0.8c0.15,0,0.22,0.1,0.13,0.23l-3.31,4.64
			L237.72,128.64z"/>
	</g>
	<g>
		<path d="M193.01,145.88c-0.27,0-0.48-0.21-0.48-0.48V141h-2.59v4.4c0,0.27-0.21,0.48-0.48,0.48h-0.67c-0.27,0-0.48-0.21-0.48-0.48
			v-10.44c0-0.27,0.21-0.48,0.48-0.48h0.67c0.27,0,0.48,0.21,0.48,0.48v4.4h2.59v-4.4c0-0.27,0.21-0.48,0.48-0.48h0.67
			c0.27,0,0.48,0.21,0.48,0.48v10.44c0,0.27-0.21,0.48-0.48,0.48H193.01z"/>
		<path d="M196.65,137.08c0-1.54,1.25-2.77,2.77-2.77h0.48c1.52,0,2.77,1.23,2.77,2.77v6.21c0,1.52-1.25,2.77-2.77,2.77h-0.48
			c-1.52,0-2.77-1.25-2.77-2.77V137.08z M198.28,143.29c0,0.62,0.5,1.14,1.14,1.14h0.48c0.64,0,1.14-0.51,1.14-1.14v-6.21
			c0-0.62-0.5-1.14-1.14-1.14h-0.48c-0.64,0-1.14,0.51-1.14,1.14V143.29z"/>
		<path d="M207.92,146.06c-1.52,0-2.77-1.23-2.77-2.77v-6.21c0-1.52,1.25-2.77,2.77-2.77h0.5c1.54,0,2.79,1.25,2.79,2.77v0.34
			c0,0.27-0.21,0.48-0.48,0.48h-0.67c-0.27,0-0.48-0.21-0.48-0.48v-0.34c0-0.62-0.51-1.14-1.15-1.14h-0.5
			c-0.62,0-1.14,0.51-1.14,1.14v6.21c0,0.62,0.51,1.14,1.14,1.14h0.5c0.64,0,1.15-0.51,1.15-1.14v-0.51c0-0.27,0.21-0.48,0.48-0.48
			h0.67c0.27,0,0.48,0.21,0.48,0.48v0.51c0,1.54-1.25,2.77-2.79,2.77H207.92z"/>
		<path d="M218.3,145.88c-0.27,0-0.48-0.21-0.48-0.48V141h-2.59v4.4c0,0.27-0.21,0.48-0.48,0.48h-0.67c-0.27,0-0.48-0.21-0.48-0.48
			v-10.44c0-0.27,0.21-0.48,0.48-0.48h0.67c0.27,0,0.48,0.21,0.48,0.48v4.4h2.59v-4.4c0-0.27,0.21-0.48,0.48-0.48h0.67
			c0.27,0,0.48,0.21,0.48,0.48v10.44c0,0.27-0.21,0.48-0.48,0.48H218.3z"/>
		<path d="M224.64,146.06c-1.54,0-2.77-1.25-2.77-2.77v-0.35c0-0.27,0.21-0.48,0.48-0.48h0.67c0.27,0,0.48,0.21,0.48,0.48v0.35
			c0,0.62,0.5,1.14,1.14,1.14h0.64c0.64,0,1.14-0.51,1.14-1.14v-0.51c0-2.22-4.4-1.84-4.4-5.2v-0.5c0-1.52,1.25-2.77,2.77-2.77h0.35
			c1.52,0,2.77,1.25,2.77,2.77v0.34c0,0.27-0.21,0.48-0.48,0.48h-0.67c-0.27,0-0.48-0.21-0.48-0.48v-0.34
			c0-0.62-0.51-1.14-1.14-1.14h-0.35c-0.62,0-1.14,0.51-1.14,1.14v0.5c0,2.05,4.4,1.74,4.4,5.2v0.51c0,1.52-1.23,2.77-2.77,2.77
			H224.64z"/>
		<path d="M233.21,146.06c-1.52,0-2.77-1.23-2.77-2.77v-6.21c0-1.52,1.25-2.77,2.77-2.77h0.5c1.54,0,2.79,1.25,2.79,2.77v0.34
			c0,0.27-0.21,0.48-0.48,0.48h-0.67c-0.27,0-0.48-0.21-0.48-0.48v-0.34c0-0.62-0.51-1.14-1.15-1.14h-0.5
			c-0.62,0-1.14,0.51-1.14,1.14v6.21c0,0.62,0.51,1.14,1.14,1.14h0.5c0.64,0,1.15-0.51,1.15-1.14v-0.51c0-0.27,0.21-0.48,0.48-0.48
			h0.67c0.27,0,0.48,0.21,0.48,0.48v0.51c0,1.54-1.25,2.77-2.79,2.77H233.21z"/>
		<path d="M243.6,145.88c-0.27,0-0.48-0.21-0.48-0.48V141h-2.59v4.4c0,0.27-0.21,0.48-0.48,0.48h-0.67c-0.27,0-0.48-0.21-0.48-0.48
			v-10.44c0-0.27,0.21-0.48,0.48-0.48h0.67c0.27,0,0.48,0.21,0.48,0.48v4.4h2.59v-4.4c0-0.27,0.21-0.48,0.48-0.48h0.67
			c0.27,0,0.48,0.21,0.48,0.48v10.44c0,0.27-0.21,0.48-0.48,0.48H243.6z"/>
	</g>
	<g>
		<path d="M249.96,146.06c-1.52,0-2.75-1.25-2.75-2.77v-8.32c0-0.27,0.21-0.48,0.48-0.48h0.66c0.27,0,0.48,0.21,0.48,0.48v8.32
			c0,0.62,0.51,1.14,1.14,1.14h0.35c0.62,0,1.14-0.51,1.14-1.14v-8.32c0-0.27,0.21-0.48,0.48-0.48h0.66c0.27,0,0.48,0.21,0.48,0.48
			v8.32c0,1.52-1.23,2.77-2.75,2.77H249.96z"/>
		<path d="M256.41,145.88c-0.27,0-0.48-0.21-0.48-0.48v-10.44c0-0.27,0.21-0.48,0.48-0.48h0.67c0.27,0,0.48,0.21,0.48,0.48v9.28
			h3.42c0.27,0,0.48,0.21,0.48,0.48v0.67c0,0.27-0.21,0.48-0.48,0.48H256.41z"/>
	</g>
	<g>
		<path d="M264.34,145.88c-0.27,0-0.48-0.21-0.48-0.48v-10.45c0-0.26,0.21-0.46,0.48-0.46h4.9c0.27,0,0.5,0.21,0.5,0.48v0.67
			c0,0.26-0.22,0.48-0.5,0.48h-3.75v3.25h3.41c0.27,0,0.5,0.21,0.5,0.48v0.67c0,0.27-0.22,0.48-0.5,0.48h-3.41v3.25h3.76
			c0.27,0,0.48,0.21,0.48,0.48v0.67c0,0.27-0.21,0.48-0.48,0.48H264.34z"/>
	</g>
	<g>
		<path d="M284.31,145.88c-0.27,0-0.48-0.21-0.48-0.48v-7.19c0-0.4,0.11-1.73,0.13-1.89h-0.37c-0.02,0.16-0.18,1.49-0.29,1.89
			l-0.82,2.79c-0.06,0.22-0.26,0.32-0.46,0.32h-0.83c-0.21,0-0.4-0.1-0.46-0.32l-0.82-2.79c-0.11-0.4-0.27-1.73-0.29-1.89h-0.37
			c0.02,0.16,0.13,1.49,0.13,1.89v7.19c0,0.27-0.21,0.48-0.48,0.48h-0.67c-0.29,0-0.48-0.21-0.48-0.48v-10.44
			c0-0.27,0.21-0.48,0.48-0.48h1.84c0.21,0,0.4,0.11,0.45,0.3l0.91,3.76c0.08,0.3,0.16,1.07,0.18,1.25c0.02-0.18,0.1-0.94,0.18-1.25
			l0.91-3.76c0.05-0.19,0.24-0.3,0.45-0.3h1.84c0.27,0,0.48,0.21,0.48,0.48v10.44c0,0.27-0.21,0.48-0.48,0.48H284.31z"/>
		<path d="M293.85,145.4c0,0.27-0.21,0.48-0.48,0.48h-0.67c-0.27,0-0.48-0.21-0.48-0.48v-3.09h-3.27v3.09
			c0,0.27-0.19,0.48-0.46,0.48h-0.69c-0.27,0-0.48-0.21-0.48-0.48v-3.97c0-0.02,0-0.05,0.02-0.1l1.71-6.5
			c0.06-0.24,0.26-0.35,0.48-0.35h2.11c0.22,0,0.42,0.11,0.48,0.35l1.71,6.5c0.02,0.05,0.02,0.08,0.02,0.1V145.4z M290.77,136.12
			h-0.38l-1.18,4.56h2.75L290.77,136.12z"/>
	</g>
	<g>
		<path d="M296.55,145.88c-0.27,0-0.48-0.21-0.48-0.48v-0.67c0-0.27,0.21-0.48,0.48-0.48h1.81v-8.13h-1.63
			c-0.27,0-0.48-0.21-0.48-0.48v-0.67c0-0.27,0.21-0.48,0.48-0.48h4.9c0.27,0,0.48,0.21,0.48,0.48v0.67c0,0.27-0.21,0.48-0.48,0.48
			h-1.63v8.13h1.81c0.27,0,0.48,0.21,0.48,0.48v0.67c0,0.27-0.21,0.48-0.48,0.48H296.55z"/>
		<path d="M309.21,145.88c-0.19,0-0.4-0.1-0.46-0.32l-2.16-7.35c-0.13-0.4-0.35-1.74-0.37-1.9h-0.38c0.02,0.16,0.14,1.5,0.14,1.9
			v7.19c0,0.27-0.21,0.48-0.48,0.48h-0.67c-0.27,0-0.48-0.21-0.48-0.48v-10.44c0-0.27,0.22-0.48,0.5-0.48h1.84
			c0.19,0,0.4,0.08,0.46,0.3l2.16,7.35c0.13,0.42,0.35,1.76,0.37,1.92h0.38c-0.02-0.16-0.14-1.5-0.14-1.92v-7.17
			c0-0.27,0.21-0.48,0.48-0.48h0.67c0.27,0,0.48,0.21,0.48,0.48v10.44c0,0.27-0.21,0.48-0.48,0.48H309.21z"/>
	</g>
	<g>
		<path d="M314.17,145.88c-0.27,0-0.48-0.21-0.48-0.48v-0.58c0-0.27,0.03-0.34,0.13-0.54l3.79-8.16h-3.26c-0.27,0-0.5-0.21-0.5-0.48
			v-0.67c0-0.27,0.21-0.48,0.48-0.48h4.74c0.27,0,0.48,0.21,0.48,0.48v0.66c0,0.03-0.02,0.26-0.13,0.5l-3.79,8.13h3.78
			c0.27,0,0.48,0.21,0.48,0.48v0.67c0,0.27-0.21,0.48-0.48,0.48H314.17z"/>
	</g>
	<g>
		<path d="M193.33,160.7c0,1.3-1.06,2.35-2.35,2.35h-0.32c-1.29,0-2.35-1.04-2.35-2.35v-7.99c0-0.09,0.07-0.15,0.16-0.15h0.62
			c0.09,0,0.16,0.06,0.16,0.15v7.99c0,0.77,0.64,1.41,1.41,1.41h0.32c0.77,0,1.41-0.64,1.41-1.41v-7.99c0-0.09,0.07-0.15,0.16-0.15
			h0.62c0.09,0,0.16,0.06,0.16,0.15V160.7z"/>
		<path d="M200.84,162.72c0,0.09-0.09,0.16-0.16,0.16h-1.35c-0.06,0-0.12-0.03-0.15-0.1l-2.46-7.89c-0.1-0.3-0.19-1-0.2-1.15h-0.29
			c0.01,0.15,0.1,0.84,0.1,1.15v7.83c0,0.09-0.09,0.16-0.15,0.16h-0.64c-0.07,0-0.16-0.07-0.16-0.16v-10.02
			c0-0.09,0.09-0.15,0.16-0.15h1.35c0.04,0,0.13,0.03,0.16,0.12l2.45,7.86c0.1,0.32,0.19,1,0.2,1.15H200
			c-0.01-0.14-0.1-0.83-0.1-1.15v-7.83c0-0.09,0.09-0.15,0.15-0.15h0.64c0.07,0,0.16,0.06,0.16,0.15V162.72z"/>
		<path d="M208.06,162.72c0,0.09-0.06,0.16-0.15,0.16h-5.02c-0.09,0-0.15-0.07-0.15-0.16v-0.62c0-0.09,0.06-0.14,0.15-0.14h2.03
			v-8.45h-1.87c-0.09,0-0.16-0.07-0.16-0.16v-0.64c0-0.09,0.07-0.15,0.16-0.15h4.7c0.09,0,0.16,0.06,0.16,0.15v0.64
			c0,0.09-0.07,0.16-0.16,0.16h-1.87v8.45h2.03c0.09,0,0.15,0.06,0.15,0.14V162.72z"/>
		<path d="M213.25,162.75c-0.01,0.07-0.07,0.13-0.14,0.13h-0.83c-0.07,0-0.13-0.06-0.15-0.13l-2.17-10.02
			c-0.03-0.1,0.04-0.17,0.15-0.17h0.65c0.06,0,0.13,0.03,0.15,0.1l1.8,8.61l1.8-8.61c0.01-0.07,0.09-0.1,0.14-0.1h0.65
			c0.1,0,0.17,0.07,0.15,0.17L213.25,162.75z"/>
		<path d="M222.65,162.72c0,0.09-0.06,0.16-0.14,0.16h-4.7c-0.07,0-0.16-0.07-0.16-0.16v-10.02c0-0.09,0.09-0.15,0.16-0.15h4.7
			c0.09,0,0.14,0.06,0.14,0.15v0.64c0,0.09-0.06,0.16-0.14,0.16h-3.91v3.74h3.59c0.07,0,0.16,0.07,0.16,0.16v0.62
			c0,0.09-0.09,0.16-0.16,0.16h-3.59v3.75h3.91c0.09,0,0.14,0.06,0.14,0.15V162.72z"/>
		<path d="M229.96,162.67c0.04,0.12-0.01,0.22-0.14,0.22h-0.67c-0.07,0-0.13-0.04-0.16-0.1l-1.42-3.33h-1.71v3.28
			c0,0.09-0.09,0.16-0.16,0.16h-0.64c-0.07,0-0.15-0.07-0.15-0.16v-10.02c0-0.09,0.07-0.15,0.15-0.15h2.51
			c1.29,0,2.35,1.04,2.35,2.33v2.2c0,0.96-0.58,1.78-1.41,2.13L229.96,162.67z M228.97,154.9c0-0.78-0.62-1.39-1.41-1.39h-1.71v5
			h1.71c0.78,0,1.41-0.64,1.41-1.41V154.9z"/>
		<path d="M237.25,160.7c0,1.3-1.06,2.35-2.36,2.35h-0.61c-1.3,0-2.36-1.04-2.36-2.35v-0.32c0-0.09,0.06-0.14,0.15-0.14h0.64
			c0.09,0,0.16,0.06,0.16,0.14v0.32c0,0.77,0.64,1.41,1.42,1.41h0.61c0.78,0,1.42-0.64,1.42-1.41v-0.46c0-2.44-4.23-2-4.23-5.02
			v-0.48c0-1.29,1.06-2.35,2.35-2.35h0.32c1.29,0,2.35,1.06,2.35,2.35v0.32c0,0.07-0.07,0.16-0.16,0.16h-0.62
			c-0.09,0-0.16-0.09-0.16-0.16v-0.32c0-0.77-0.64-1.41-1.41-1.41h-0.32c-0.77,0-1.41,0.64-1.41,1.41v0.48
			c0,2.28,4.23,1.87,4.23,5.02V160.7z"/>
		<path d="M244.53,162.72c0,0.09-0.06,0.16-0.14,0.16h-5.02c-0.09,0-0.15-0.07-0.15-0.16v-0.62c0-0.09,0.06-0.14,0.15-0.14h2.03
			v-8.45h-1.87c-0.09,0-0.16-0.07-0.16-0.16v-0.64c0-0.09,0.07-0.15,0.16-0.15h4.7c0.09,0,0.16,0.06,0.16,0.15v0.64
			c0,0.09-0.07,0.16-0.16,0.16h-1.87v8.45h2.03c0.09,0,0.14,0.06,0.14,0.14V162.72z"/>
		<path d="M251.98,153.35c0,0.09-0.07,0.16-0.16,0.16h-2.17v9.22c0,0.09-0.09,0.16-0.17,0.16h-0.61c-0.09,0-0.17-0.07-0.17-0.16
			v-9.22h-2.17c-0.09,0-0.16-0.07-0.16-0.16v-0.64c0-0.09,0.07-0.15,0.16-0.15h5.31c0.09,0,0.16,0.06,0.16,0.15V153.35z"/>
		<path d="M256.94,158.36v4.36c0,0.09-0.09,0.16-0.17,0.16h-0.61c-0.09,0-0.17-0.07-0.17-0.16v-4.36l-2.16-5.6
			c-0.06-0.13,0.01-0.2,0.13-0.2h0.68c0.06,0,0.12,0.01,0.15,0.09l1.68,4.46l1.68-4.46c0.03-0.07,0.09-0.09,0.14-0.09h0.68
			c0.12,0,0.19,0.07,0.13,0.2L256.94,158.36z"/>
	</g>
	<g>
		<path d="M270.74,160.7c0,1.3-1.04,2.35-2.35,2.35h-0.46c-1.3,0-2.35-1.04-2.35-2.35v-5.96c0-1.29,1.04-2.35,2.35-2.35h0.46
			c1.3,0,2.35,1.06,2.35,2.35V160.7z M269.79,154.74c0-0.77-0.62-1.41-1.41-1.41h-0.46c-0.78,0-1.41,0.64-1.41,1.41v5.96
			c0,0.77,0.62,1.41,1.41,1.41h0.46c0.78,0,1.41-0.64,1.41-1.41V154.74z"/>
		<path d="M278.26,153.35c0,0.09-0.07,0.16-0.16,0.16h-3.9v3.74h3.59c0.09,0,0.16,0.07,0.16,0.16v0.62c0,0.09-0.07,0.16-0.16,0.16
			h-3.59v4.54c0,0.09-0.07,0.16-0.16,0.16h-0.62c-0.09,0-0.16-0.07-0.16-0.16v-10.02c0-0.09,0.07-0.15,0.16-0.15h4.68
			c0.09,0,0.16,0.06,0.16,0.15V153.35z"/>
	</g>
	<g>
		<path d="M193.33,179.73c0,0.09-0.07,0.16-0.16,0.16h-0.62c-0.09,0-0.16-0.07-0.16-0.16v-3.28h-3.13v3.28
			c0,0.09-0.07,0.16-0.16,0.16h-0.62c-0.09,0-0.16-0.07-0.16-0.16v-3.84l1.62-6.17c0.03-0.1,0.1-0.15,0.17-0.15h1.42
			c0.07,0,0.15,0.04,0.17,0.15l1.62,6.17V179.73z M190.94,170.51h-0.23l-1.3,5h2.84L190.94,170.51z"/>
		<path d="M201.03,174.11c0,1.29-1.06,2.35-2.35,2.35h-1.71v3.28c0,0.09-0.09,0.16-0.16,0.16h-0.64c-0.07,0-0.15-0.07-0.15-0.16
			v-10.02c0-0.09,0.07-0.15,0.15-0.15h2.51c1.29,0,2.35,1.04,2.35,2.33V174.11z M200.09,171.9c0-0.78-0.62-1.39-1.41-1.39h-1.71v5
			h1.71c0.78,0,1.41-0.64,1.41-1.41V171.9z"/>
	</g>
	<g>
		<path d="M208.33,174.11c0,1.29-1.06,2.35-2.35,2.35h-1.71v3.28c0,0.09-0.09,0.16-0.16,0.16h-0.64c-0.07,0-0.15-0.07-0.15-0.16
			v-10.02c0-0.09,0.07-0.15,0.15-0.15h2.51c1.29,0,2.35,1.04,2.35,2.33V174.11z M207.39,171.9c0-0.78-0.62-1.39-1.41-1.39h-1.71v5
			h1.71c0.78,0,1.41-0.64,1.41-1.41V171.9z"/>
	</g>
	<g>
		<path d="M215.52,179.73c0,0.09-0.07,0.16-0.16,0.16H211c-0.09,0-0.16-0.07-0.16-0.16v-10.02c0-0.09,0.07-0.15,0.16-0.15h0.61
			c0.09,0,0.17,0.06,0.17,0.15v9.23h3.58c0.09,0,0.16,0.06,0.16,0.15V179.73z"/>
		<path d="M222.65,179.73c0,0.09-0.06,0.16-0.14,0.16h-5.02c-0.09,0-0.15-0.07-0.15-0.16v-0.62c0-0.09,0.06-0.14,0.15-0.14h2.03
			v-8.45h-1.87c-0.09,0-0.16-0.07-0.16-0.16v-0.64c0-0.09,0.07-0.15,0.16-0.15h4.7c0.09,0,0.16,0.06,0.16,0.15v0.64
			c0,0.09-0.07,0.16-0.16,0.16h-1.87v8.45h2.03c0.09,0,0.14,0.06,0.14,0.14V179.73z"/>
		<path d="M229.95,179.73c0,0.09-0.06,0.16-0.14,0.16h-4.7c-0.07,0-0.16-0.07-0.16-0.16v-10.02c0-0.09,0.09-0.15,0.16-0.15h4.7
			c0.09,0,0.14,0.06,0.14,0.15v0.64c0,0.09-0.06,0.16-0.14,0.16h-3.91v3.74h3.59c0.07,0,0.16,0.07,0.16,0.16v0.62
			c0,0.09-0.09,0.16-0.16,0.16h-3.59v3.75h3.91c0.09,0,0.14,0.06,0.14,0.15V179.73z"/>
		<path d="M237.21,177.54c0,1.29-1.06,2.35-2.35,2.35h-2.51c-0.07,0-0.15-0.07-0.15-0.16v-10.02c0-0.09,0.07-0.15,0.15-0.15h2.51
			c1.29,0,2.35,1.04,2.35,2.33V177.54z M236.27,171.9c0-0.78-0.62-1.39-1.41-1.39h-1.71v8.44h1.71c0.78,0,1.41-0.62,1.41-1.41V171.9
			z"/>
	</g>
	<g>
		<path d="M249.52,177.7c0,1.3-1.06,2.35-2.36,2.35h-0.61c-1.3,0-2.36-1.04-2.36-2.35v-0.32c0-0.09,0.06-0.14,0.15-0.14h0.64
			c0.09,0,0.16,0.06,0.16,0.14v0.32c0,0.77,0.64,1.41,1.42,1.41h0.61c0.78,0,1.42-0.64,1.42-1.41v-0.46c0-2.44-4.23-2-4.23-5.02
			v-0.48c0-1.29,1.06-2.35,2.35-2.35h0.32c1.29,0,2.35,1.06,2.35,2.35v0.32c0,0.07-0.07,0.16-0.16,0.16h-0.62
			c-0.09,0-0.16-0.09-0.16-0.16v-0.32c0-0.77-0.64-1.41-1.41-1.41h-0.32c-0.77,0-1.41,0.64-1.41,1.41v0.48
			c0,2.28,4.23,1.87,4.23,5.02V177.7z"/>
		<path d="M256.8,177.7c0,1.3-1.04,2.35-2.35,2.35h-0.46c-1.29,0-2.35-1.04-2.35-2.35v-5.96c0-1.29,1.06-2.35,2.35-2.35h0.46
			c1.3,0,2.35,1.06,2.35,2.35v0.32c0,0.07-0.06,0.16-0.14,0.16h-0.64c-0.09,0-0.16-0.09-0.16-0.16v-0.32c0-0.77-0.62-1.41-1.41-1.41
			h-0.46c-0.77,0-1.41,0.64-1.41,1.41v5.96c0,0.77,0.64,1.41,1.41,1.41h0.46c0.78,0,1.41-0.64,1.41-1.41v-0.46
			c0-0.09,0.07-0.16,0.16-0.16h0.64c0.09,0,0.14,0.07,0.14,0.16V177.7z"/>
	</g>
	<g>
		<path d="M264.39,179.73c0,0.09-0.06,0.16-0.14,0.16h-5.02c-0.09,0-0.15-0.07-0.15-0.16v-0.62c0-0.09,0.06-0.14,0.15-0.14h2.03
			v-8.45h-1.87c-0.09,0-0.16-0.07-0.16-0.16v-0.64c0-0.09,0.07-0.15,0.16-0.15h4.7c0.09,0,0.16,0.06,0.16,0.15v0.64
			c0,0.09-0.07,0.16-0.16,0.16h-1.87v8.45h2.03c0.09,0,0.14,0.06,0.14,0.14V179.73z"/>
		<path d="M271.68,179.73c0,0.09-0.06,0.16-0.14,0.16h-4.7c-0.07,0-0.16-0.07-0.16-0.16v-10.02c0-0.09,0.09-0.15,0.16-0.15h4.7
			c0.09,0,0.14,0.06,0.14,0.15v0.64c0,0.09-0.06,0.16-0.14,0.16h-3.91v3.74h3.59c0.07,0,0.16,0.07,0.16,0.16v0.62
			c0,0.09-0.09,0.16-0.16,0.16h-3.59v3.75h3.91c0.09,0,0.14,0.06,0.14,0.15V179.73z"/>
		<path d="M279.05,179.73c0,0.09-0.09,0.16-0.16,0.16h-1.35c-0.06,0-0.12-0.03-0.15-0.1l-2.46-7.89c-0.1-0.3-0.19-1-0.2-1.15h-0.29
			c0.01,0.15,0.1,0.84,0.1,1.15v7.83c0,0.09-0.09,0.16-0.14,0.16h-0.64c-0.07,0-0.16-0.07-0.16-0.16v-10.02
			c0-0.09,0.09-0.15,0.16-0.15h1.35c0.04,0,0.13,0.03,0.16,0.12l2.45,7.86c0.1,0.32,0.19,1,0.2,1.15h0.29
			c-0.01-0.14-0.1-0.83-0.1-1.15v-7.83c0-0.09,0.09-0.15,0.14-0.15h0.64c0.07,0,0.16,0.06,0.16,0.15V179.73z"/>
		<path d="M286.27,177.7c0,1.3-1.04,2.35-2.35,2.35h-0.46c-1.29,0-2.35-1.04-2.35-2.35v-5.96c0-1.29,1.06-2.35,2.35-2.35h0.46
			c1.3,0,2.35,1.06,2.35,2.35v0.32c0,0.07-0.06,0.16-0.14,0.16h-0.64c-0.09,0-0.16-0.09-0.16-0.16v-0.32c0-0.77-0.62-1.41-1.41-1.41
			h-0.46c-0.77,0-1.41,0.64-1.41,1.41v5.96c0,0.77,0.64,1.41,1.41,1.41h0.46c0.78,0,1.41-0.64,1.41-1.41v-0.46
			c0-0.09,0.07-0.16,0.16-0.16h0.64c0.09,0,0.14,0.07,0.14,0.16V177.7z"/>
		<path d="M293.56,179.73c0,0.09-0.06,0.16-0.14,0.16h-4.7c-0.07,0-0.16-0.07-0.16-0.16v-10.02c0-0.09,0.09-0.15,0.16-0.15h4.7
			c0.09,0,0.14,0.06,0.14,0.15v0.64c0,0.09-0.06,0.16-0.14,0.16h-3.91v3.74h3.59c0.07,0,0.16,0.07,0.16,0.16v0.62
			c0,0.09-0.09,0.16-0.16,0.16h-3.59v3.75h3.91c0.09,0,0.14,0.06,0.14,0.15V179.73z"/>
		<path d="M300.87,177.7c0,1.3-1.06,2.35-2.36,2.35h-0.61c-1.3,0-2.36-1.04-2.36-2.35v-0.32c0-0.09,0.06-0.14,0.15-0.14h0.64
			c0.09,0,0.16,0.06,0.16,0.14v0.32c0,0.77,0.64,1.41,1.42,1.41h0.61c0.78,0,1.42-0.64,1.42-1.41v-0.46c0-2.44-4.23-2-4.23-5.02
			v-0.48c0-1.29,1.06-2.35,2.35-2.35h0.32c1.29,0,2.35,1.06,2.35,2.35v0.32c0,0.07-0.07,0.16-0.16,0.16h-0.62
			c-0.09,0-0.16-0.09-0.16-0.16v-0.32c0-0.77-0.64-1.41-1.41-1.41h-0.32c-0.77,0-1.41,0.64-1.41,1.41v0.48
			c0,2.28,4.23,1.87,4.23,5.02V177.7z"/>
	</g>
</g>
</svg>
