<?xml version="1.0" encoding="UTF-8"?>
<svg xmlns="http://www.w3.org/2000/svg" xmlns:xlink="http://www.w3.org/1999/xlink" width="400" height="400" viewBox="0 0 400 400">
<path fill-rule="nonzero" fill="rgb(96.862745%, 67.843137%, 0%)" fill-opacity="1" stroke-width="2" stroke-linecap="butt" stroke-linejoin="miter" stroke="rgb(100%, 100%, 100%)" stroke-opacity="1" stroke-miterlimit="10" d="M 50.082031 10 L 90.082031 10 L 90.082031 22 L 50.082031 22 Z M 50.082031 10 "/>
<path fill-rule="nonzero" fill="rgb(40%, 40%, 40%)" fill-opacity="1" d="M 101.375 18.300781 L 101.375 11.871094 L 100.234375 11.871094 L 100.234375 18.132812 C 100.234375 18.605469 100.136719 18.980469 99.941406 19.261719 C 99.746094 19.542969 99.386719 19.679688 98.867188 19.679688 C 98.585938 19.679688 98.355469 19.640625 98.175781 19.554688 C 97.996094 19.472656 97.855469 19.351562 97.757812 19.203125 C 97.65625 19.050781 97.585938 18.871094 97.546875 18.660156 C 97.507812 18.453125 97.484375 18.226562 97.484375 17.976562 L 97.484375 17.617188 L 96.347656 17.617188 L 96.347656 18.144531 C 96.347656 18.960938 96.5625 19.578125 96.992188 20 C 97.425781 20.417969 98.042969 20.628906 98.84375 20.628906 C 99.324219 20.628906 99.722656 20.5625 100.046875 20.429688 C 100.371094 20.300781 100.632812 20.125 100.828125 19.902344 C 101.023438 19.683594 101.164062 19.433594 101.246094 19.152344 C 101.332031 18.875 101.375 18.589844 101.375 18.300781 Z M 108.574219 20.414062 C 108.398438 20.519531 108.152344 20.570312 107.839844 20.570312 C 107.578125 20.570312 107.367188 20.496094 107.210938 20.347656 C 107.054688 20.199219 106.976562 19.957031 106.976562 19.621094 C 106.695312 19.957031 106.371094 20.199219 106 20.347656 C 105.628906 20.496094 105.222656 20.570312 104.792969 20.570312 C 104.511719 20.570312 104.246094 20.539062 103.996094 20.472656 C 103.742188 20.410156 103.523438 20.308594 103.339844 20.171875 C 103.15625 20.035156 103.011719 19.859375 102.902344 19.640625 C 102.792969 19.417969 102.742188 19.152344 102.742188 18.839844 C 102.742188 18.488281 102.800781 18.203125 102.921875 17.976562 C 103.042969 17.753906 103.199219 17.570312 103.394531 17.429688 C 103.589844 17.289062 103.816406 17.183594 104.066406 17.113281 C 104.320312 17.042969 104.578125 16.980469 104.839844 16.933594 C 105.121094 16.878906 105.386719 16.835938 105.636719 16.808594 C 105.890625 16.78125 106.113281 16.738281 106.304688 16.6875 C 106.496094 16.636719 106.648438 16.558594 106.761719 16.460938 C 106.871094 16.359375 106.929688 16.214844 106.929688 16.023438 C 106.929688 15.796875 106.886719 15.617188 106.800781 15.480469 C 106.71875 15.34375 106.609375 15.242188 106.480469 15.167969 C 106.347656 15.097656 106.199219 15.050781 106.035156 15.027344 C 105.871094 15.003906 105.707031 14.988281 105.546875 14.988281 C 105.117188 14.988281 104.757812 15.070312 104.46875 15.234375 C 104.179688 15.398438 104.023438 15.710938 104 16.164062 L 102.980469 16.164062 C 102.996094 15.78125 103.078125 15.457031 103.21875 15.195312 C 103.363281 14.929688 103.554688 14.714844 103.796875 14.550781 C 104.035156 14.386719 104.3125 14.269531 104.617188 14.199219 C 104.925781 14.125 105.257812 14.089844 105.609375 14.089844 C 105.890625 14.089844 106.167969 14.109375 106.441406 14.148438 C 106.71875 14.1875 106.96875 14.273438 107.191406 14.394531 C 107.417969 14.519531 107.597656 14.695312 107.734375 14.917969 C 107.871094 15.140625 107.9375 15.433594 107.9375 15.792969 L 107.9375 18.984375 C 107.9375 19.226562 107.949219 19.402344 107.980469 19.511719 C 108.007812 19.625 108.101562 19.679688 108.261719 19.679688 C 108.347656 19.679688 108.453125 19.660156 108.574219 19.621094 Z M 106.917969 17.234375 C 106.789062 17.328125 106.621094 17.398438 106.414062 17.445312 C 106.207031 17.488281 105.988281 17.523438 105.757812 17.550781 C 105.53125 17.578125 105.300781 17.613281 105.070312 17.648438 C 104.835938 17.683594 104.628906 17.742188 104.445312 17.820312 C 104.261719 17.902344 104.109375 18.015625 103.996094 18.164062 C 103.878906 18.3125 103.820312 18.511719 103.820312 18.769531 C 103.820312 18.9375 103.855469 19.078125 103.921875 19.195312 C 103.992188 19.3125 104.078125 19.40625 104.1875 19.476562 C 104.292969 19.550781 104.421875 19.601562 104.566406 19.632812 C 104.710938 19.664062 104.859375 19.679688 105.019531 19.679688 C 105.355469 19.679688 105.644531 19.636719 105.882812 19.542969 C 106.125 19.453125 106.320312 19.335938 106.472656 19.195312 C 106.625 19.054688 106.738281 18.902344 106.808594 18.738281 C 106.878906 18.574219 106.917969 18.421875 106.917969 18.277344 Z M 112.316406 20.4375 L 114.585938 14.234375 L 113.519531 14.234375 L 111.824219 19.40625 L 111.800781 19.40625 L 110.0625 14.234375 L 108.921875 14.234375 L 111.226562 20.4375 Z M 121.019531 20.414062 C 120.84375 20.519531 120.597656 20.570312 120.285156 20.570312 C 120.023438 20.570312 119.8125 20.496094 119.65625 20.347656 C 119.5 20.199219 119.421875 19.957031 119.421875 19.621094 C 119.140625 19.957031 118.816406 20.199219 118.445312 20.347656 C 118.074219 20.496094 117.667969 20.570312 117.238281 20.570312 C 116.957031 20.570312 116.691406 20.539062 116.441406 20.472656 C 116.1875 20.410156 115.96875 20.308594 115.785156 20.171875 C 115.601562 20.035156 115.457031 19.859375 115.347656 19.640625 C 115.238281 19.417969 115.1875 19.152344 115.1875 18.839844 C 115.1875 18.488281 115.246094 18.203125 115.367188 17.976562 C 115.488281 17.753906 115.644531 17.570312 115.839844 17.429688 C 116.035156 17.289062 116.261719 17.183594 116.511719 17.113281 C 116.765625 17.042969 117.023438 16.980469 117.285156 16.933594 C 117.566406 16.878906 117.832031 16.835938 118.082031 16.808594 C 118.335938 16.78125 118.558594 16.738281 118.75 16.6875 C 118.941406 16.636719 119.09375 16.558594 119.207031 16.460938 C 119.316406 16.359375 119.375 16.214844 119.375 16.023438 C 119.375 15.796875 119.332031 15.617188 119.246094 15.480469 C 119.164062 15.34375 119.054688 15.242188 118.925781 15.167969 C 118.792969 15.097656 118.644531 15.050781 118.480469 15.027344 C 118.316406 15.003906 118.152344 14.988281 117.992188 14.988281 C 117.5625 14.988281 117.203125 15.070312 116.914062 15.234375 C 116.625 15.398438 116.46875 15.710938 116.445312 16.164062 L 115.425781 16.164062 C 115.441406 15.78125 115.523438 15.457031 115.664062 15.195312 C 115.808594 14.929688 116 14.714844 116.242188 14.550781 C 116.480469 14.386719 116.757812 14.269531 117.0625 14.199219 C 117.371094 14.125 117.703125 14.089844 118.054688 14.089844 C 118.335938 14.089844 118.613281 14.109375 118.886719 14.148438 C 119.164062 14.1875 119.414062 14.273438 119.636719 14.394531 C 119.863281 14.519531 120.042969 14.695312 120.179688 14.917969 C 120.316406 15.140625 120.382812 15.433594 120.382812 15.792969 L 120.382812 18.984375 C 120.382812 19.226562 120.394531 19.402344 120.425781 19.511719 C 120.453125 19.625 120.546875 19.679688 120.707031 19.679688 C 120.792969 19.679688 120.898438 19.660156 121.019531 19.621094 Z M 119.363281 17.234375 C 119.234375 17.328125 119.066406 17.398438 118.859375 17.445312 C 118.652344 17.488281 118.433594 17.523438 118.203125 17.550781 C 117.976562 17.578125 117.746094 17.613281 117.515625 17.648438 C 117.28125 17.683594 117.074219 17.742188 116.890625 17.820312 C 116.707031 17.902344 116.554688 18.015625 116.441406 18.164062 C 116.324219 18.3125 116.265625 18.511719 116.265625 18.769531 C 116.265625 18.9375 116.300781 19.078125 116.367188 19.195312 C 116.4375 19.3125 116.523438 19.40625 116.632812 19.476562 C 116.738281 19.550781 116.867188 19.601562 117.011719 19.632812 C 117.15625 19.664062 117.304688 19.679688 117.464844 19.679688 C 117.800781 19.679688 118.089844 19.636719 118.328125 19.542969 C 118.570312 19.453125 118.765625 19.335938 118.917969 19.195312 C 119.070312 19.054688 119.183594 18.902344 119.253906 18.738281 C 119.324219 18.574219 119.363281 18.421875 119.363281 18.277344 Z M 127.089844 14.378906 L 128.171875 14.378906 C 128.15625 13.90625 128.066406 13.5 127.902344 13.160156 C 127.738281 12.820312 127.511719 12.539062 127.230469 12.3125 C 126.945312 12.089844 126.613281 11.925781 126.238281 11.820312 C 125.863281 11.71875 125.457031 11.664062 125.015625 11.664062 C 124.625 11.664062 124.242188 11.714844 123.871094 11.816406 C 123.496094 11.914062 123.164062 12.066406 122.875 12.273438 C 122.582031 12.476562 122.347656 12.734375 122.171875 13.050781 C 121.996094 13.367188 121.90625 13.742188 121.90625 14.171875 C 121.90625 14.566406 121.984375 14.890625 122.140625 15.152344 C 122.296875 15.410156 122.503906 15.625 122.765625 15.789062 C 123.023438 15.953125 123.320312 16.082031 123.648438 16.183594 C 123.976562 16.285156 124.308594 16.371094 124.648438 16.449219 C 124.988281 16.523438 125.324219 16.597656 125.652344 16.667969 C 125.980469 16.742188 126.273438 16.835938 126.535156 16.953125 C 126.792969 17.066406 127 17.21875 127.15625 17.402344 C 127.3125 17.585938 127.390625 17.824219 127.390625 18.121094 C 127.390625 18.433594 127.328125 18.691406 127.199219 18.890625 C 127.070312 19.089844 126.902344 19.246094 126.695312 19.363281 C 126.488281 19.480469 126.253906 19.5625 125.992188 19.609375 C 125.734375 19.65625 125.476562 19.679688 125.21875 19.679688 C 124.898438 19.679688 124.585938 19.640625 124.285156 19.5625 C 123.980469 19.480469 123.714844 19.359375 123.484375 19.191406 C 123.257812 19.023438 123.074219 18.808594 122.933594 18.546875 C 122.792969 18.289062 122.722656 17.976562 122.722656 17.617188 L 121.644531 17.617188 C 121.644531 18.136719 121.738281 18.585938 121.925781 18.96875 C 122.113281 19.347656 122.371094 19.660156 122.691406 19.902344 C 123.015625 20.148438 123.394531 20.328125 123.820312 20.449219 C 124.25 20.570312 124.703125 20.628906 125.183594 20.628906 C 125.574219 20.628906 125.96875 20.582031 126.363281 20.492188 C 126.761719 20.398438 127.121094 20.25 127.4375 20.046875 C 127.757812 19.84375 128.019531 19.578125 128.226562 19.253906 C 128.429688 18.929688 128.53125 18.542969 128.53125 18.085938 C 128.53125 17.660156 128.453125 17.308594 128.296875 17.03125 C 128.140625 16.75 127.933594 16.515625 127.671875 16.332031 C 127.414062 16.148438 127.121094 16.003906 126.792969 15.894531 C 126.464844 15.789062 126.128906 15.695312 125.789062 15.613281 C 125.449219 15.535156 125.113281 15.460938 124.789062 15.390625 C 124.460938 15.324219 124.164062 15.238281 123.90625 15.132812 C 123.644531 15.027344 123.4375 14.894531 123.28125 14.730469 C 123.125 14.566406 123.046875 14.351562 123.046875 14.089844 C 123.046875 13.808594 123.101562 13.574219 123.210938 13.386719 C 123.316406 13.199219 123.460938 13.050781 123.640625 12.9375 C 123.820312 12.824219 124.027344 12.746094 124.257812 12.699219 C 124.492188 12.648438 124.726562 12.625 124.96875 12.625 C 125.558594 12.625 126.046875 12.761719 126.425781 13.039062 C 126.804688 13.316406 127.027344 13.761719 127.089844 14.378906 Z M 133.957031 16.226562 L 135.011719 16.226562 C 134.972656 15.859375 134.875 15.539062 134.722656 15.273438 C 134.570312 15.003906 134.378906 14.78125 134.140625 14.605469 C 133.90625 14.429688 133.632812 14.300781 133.328125 14.214844 C 133.019531 14.132812 132.6875 14.089844 132.335938 14.089844 C 131.847656 14.089844 131.421875 14.175781 131.050781 14.347656 C 130.683594 14.519531 130.378906 14.753906 130.132812 15.054688 C 129.890625 15.355469 129.707031 15.707031 129.589844 16.113281 C 129.46875 16.515625 129.410156 16.949219 129.410156 17.414062 C 129.410156 17.878906 129.46875 18.304688 129.59375 18.691406 C 129.71875 19.078125 129.902344 19.414062 130.148438 19.695312 C 130.390625 19.972656 130.695312 20.191406 131.058594 20.339844 C 131.421875 20.492188 131.839844 20.570312 132.3125 20.570312 C 133.105469 20.570312 133.730469 20.363281 134.191406 19.945312 C 134.652344 19.53125 134.9375 18.9375 135.046875 18.167969 L 134.003906 18.167969 C 133.941406 18.648438 133.765625 19.023438 133.484375 19.285156 C 133.199219 19.550781 132.804688 19.679688 132.300781 19.679688 C 131.980469 19.679688 131.703125 19.617188 131.472656 19.488281 C 131.242188 19.359375 131.050781 19.191406 130.910156 18.980469 C 130.765625 18.769531 130.660156 18.527344 130.589844 18.253906 C 130.523438 17.980469 130.488281 17.703125 130.488281 17.414062 C 130.488281 17.101562 130.519531 16.800781 130.585938 16.507812 C 130.648438 16.214844 130.753906 15.957031 130.902344 15.734375 C 131.050781 15.511719 131.25 15.328125 131.496094 15.195312 C 131.746094 15.058594 132.050781 14.988281 132.421875 14.988281 C 132.851562 14.988281 133.195312 15.097656 133.453125 15.3125 C 133.707031 15.527344 133.875 15.832031 133.957031 16.226562 Z M 136.148438 14.234375 L 136.148438 20.4375 L 137.171875 20.4375 L 137.171875 17.675781 C 137.171875 17.277344 137.210938 16.921875 137.289062 16.617188 C 137.371094 16.308594 137.496094 16.046875 137.675781 15.828125 C 137.851562 15.613281 138.082031 15.449219 138.371094 15.335938 C 138.660156 15.226562 139.007812 15.167969 139.414062 15.167969 L 139.414062 14.089844 C 138.863281 14.074219 138.40625 14.183594 138.046875 14.425781 C 137.6875 14.664062 137.382812 15.039062 137.132812 15.542969 L 137.109375 15.542969 L 137.109375 14.234375 Z M 141.261719 13.117188 L 141.261719 11.871094 L 140.242188 11.871094 L 140.242188 13.117188 Z M 140.242188 14.234375 L 140.242188 20.4375 L 141.261719 20.4375 L 141.261719 14.234375 Z M 142.882812 14.234375 L 142.882812 22.800781 L 143.902344 22.800781 L 143.902344 19.609375 L 143.925781 19.609375 C 144.039062 19.792969 144.175781 19.949219 144.339844 20.070312 C 144.503906 20.195312 144.679688 20.292969 144.863281 20.367188 C 145.046875 20.4375 145.230469 20.488281 145.421875 20.523438 C 145.609375 20.554688 145.777344 20.570312 145.929688 20.570312 C 146.402344 20.570312 146.816406 20.484375 147.171875 20.316406 C 147.527344 20.148438 147.824219 19.917969 148.058594 19.628906 C 148.296875 19.335938 148.472656 18.992188 148.589844 18.601562 C 148.703125 18.210938 148.761719 17.792969 148.761719 17.351562 C 148.761719 16.914062 148.703125 16.496094 148.582031 16.105469 C 148.460938 15.714844 148.285156 15.367188 148.046875 15.066406 C 147.8125 14.765625 147.515625 14.53125 147.160156 14.351562 C 146.804688 14.175781 146.386719 14.089844 145.90625 14.089844 C 145.472656 14.089844 145.078125 14.167969 144.71875 14.324219 C 144.359375 14.480469 144.09375 14.730469 143.925781 15.074219 L 143.902344 15.074219 L 143.902344 14.234375 Z M 147.683594 17.28125 C 147.683594 17.585938 147.648438 17.882812 147.585938 18.167969 C 147.523438 18.457031 147.417969 18.714844 147.273438 18.9375 C 147.128906 19.160156 146.941406 19.339844 146.703125 19.476562 C 146.46875 19.613281 146.175781 19.679688 145.820312 19.679688 C 145.46875 19.679688 145.171875 19.617188 144.921875 19.484375 C 144.675781 19.351562 144.472656 19.175781 144.316406 18.960938 C 144.160156 18.746094 144.046875 18.496094 143.972656 18.210938 C 143.902344 17.925781 143.867188 17.632812 143.867188 17.328125 C 143.867188 17.042969 143.898438 16.757812 143.96875 16.476562 C 144.035156 16.195312 144.144531 15.949219 144.296875 15.726562 C 144.449219 15.507812 144.644531 15.328125 144.886719 15.195312 C 145.125 15.058594 145.417969 14.988281 145.761719 14.988281 C 146.089844 14.988281 146.375 15.054688 146.621094 15.179688 C 146.863281 15.308594 147.0625 15.480469 147.21875 15.699219 C 147.375 15.914062 147.492188 16.160156 147.566406 16.433594 C 147.644531 16.710938 147.683594 16.992188 147.683594 17.28125 Z M 151.378906 14.234375 L 151.378906 12.375 L 150.359375 12.375 L 150.359375 14.234375 L 149.304688 14.234375 L 149.304688 15.132812 L 150.359375 15.132812 L 150.359375 19.082031 C 150.359375 19.371094 150.386719 19.601562 150.441406 19.777344 C 150.5 19.953125 150.585938 20.089844 150.703125 20.183594 C 150.816406 20.28125 150.96875 20.347656 151.15625 20.382812 C 151.34375 20.417969 151.570312 20.4375 151.835938 20.4375 L 152.617188 20.4375 L 152.617188 19.539062 L 152.148438 19.539062 C 151.988281 19.539062 151.855469 19.53125 151.757812 19.519531 C 151.65625 19.507812 151.578125 19.480469 151.523438 19.441406 C 151.46875 19.402344 151.429688 19.34375 151.410156 19.273438 C 151.390625 19.203125 151.378906 19.105469 151.378906 18.984375 L 151.378906 15.132812 L 152.617188 15.132812 L 152.617188 14.234375 Z M 158.761719 22.800781 L 159.539062 22.800781 C 158.972656 21.882812 158.566406 20.96875 158.324219 20.066406 C 158.078125 19.160156 157.957031 18.207031 157.957031 17.199219 C 157.957031 16.214844 158.078125 15.273438 158.316406 14.378906 C 158.554688 13.480469 158.964844 12.578125 159.539062 11.664062 L 158.761719 11.664062 C 158.136719 12.488281 157.667969 13.382812 157.351562 14.339844 C 157.035156 15.300781 156.875 16.253906 156.875 17.199219 C 156.875 17.726562 156.921875 18.230469 157.007812 18.710938 C 157.097656 19.191406 157.222656 19.65625 157.386719 20.113281 C 157.550781 20.570312 157.75 21.019531 157.980469 21.464844 C 158.210938 21.90625 158.472656 22.351562 158.761719 22.800781 Z M 165.53125 12.949219 L 165.53125 12.074219 L 160.023438 12.074219 L 160.023438 13.035156 L 164.484375 13.035156 C 164.039062 13.507812 163.621094 14.023438 163.230469 14.582031 C 162.84375 15.140625 162.5 15.734375 162.207031 16.363281 C 161.910156 16.992188 161.667969 17.648438 161.480469 18.332031 C 161.292969 19.015625 161.175781 19.71875 161.125 20.4375 L 162.265625 20.4375 C 162.304688 19.773438 162.417969 19.089844 162.601562 18.386719 C 162.785156 17.683594 163.023438 16.996094 163.316406 16.332031 C 163.609375 15.667969 163.941406 15.046875 164.316406 14.460938 C 164.695312 13.878906 165.097656 13.375 165.53125 12.949219 Z M 166.621094 14.941406 L 167.640625 14.941406 C 167.632812 14.683594 167.660156 14.429688 167.71875 14.179688 C 167.78125 13.925781 167.878906 13.703125 168.015625 13.5 C 168.148438 13.300781 168.324219 13.140625 168.535156 13.015625 C 168.746094 12.890625 169 12.828125 169.296875 12.828125 C 169.519531 12.828125 169.734375 12.867188 169.933594 12.9375 C 170.132812 13.007812 170.308594 13.113281 170.457031 13.25 C 170.605469 13.386719 170.722656 13.546875 170.808594 13.734375 C 170.898438 13.921875 170.941406 14.132812 170.941406 14.367188 C 170.941406 14.660156 170.894531 14.921875 170.804688 15.144531 C 170.710938 15.371094 170.574219 15.578125 170.394531 15.769531 C 170.214844 15.960938 169.988281 16.152344 169.71875 16.339844 C 169.445312 16.527344 169.128906 16.734375 168.769531 16.957031 C 168.472656 17.132812 168.191406 17.320312 167.917969 17.523438 C 167.644531 17.722656 167.402344 17.953125 167.1875 18.21875 C 166.96875 18.480469 166.792969 18.792969 166.652344 19.148438 C 166.511719 19.503906 166.421875 19.933594 166.382812 20.4375 L 171.9375 20.4375 L 171.9375 19.539062 L 167.570312 19.539062 C 167.617188 19.273438 167.71875 19.039062 167.875 18.835938 C 168.03125 18.632812 168.21875 18.441406 168.441406 18.265625 C 168.660156 18.089844 168.902344 17.921875 169.164062 17.765625 C 169.429688 17.609375 169.695312 17.453125 169.957031 17.292969 C 170.222656 17.125 170.476562 16.949219 170.726562 16.765625 C 170.972656 16.582031 171.195312 16.375 171.386719 16.148438 C 171.578125 15.917969 171.730469 15.660156 171.847656 15.375 C 171.964844 15.085938 172.023438 14.753906 172.023438 14.378906 C 172.023438 13.976562 171.953125 13.625 171.8125 13.320312 C 171.671875 13.015625 171.480469 12.761719 171.242188 12.558594 C 171 12.355469 170.71875 12.199219 170.394531 12.089844 C 170.070312 11.984375 169.726562 11.929688 169.359375 11.929688 C 168.910156 11.929688 168.507812 12.003906 168.15625 12.15625 C 167.804688 12.308594 167.511719 12.519531 167.277344 12.789062 C 167.039062 13.054688 166.867188 13.375 166.753906 13.742188 C 166.640625 14.109375 166.597656 14.507812 166.621094 14.941406 Z M 173.761719 19.105469 L 173.761719 20.4375 L 175.09375 20.4375 L 175.09375 19.105469 Z M 180.375 20.4375 L 180.375 11.929688 L 179.59375 11.929688 C 179.539062 12.25 179.433594 12.511719 179.28125 12.722656 C 179.128906 12.929688 178.945312 13.09375 178.722656 13.214844 C 178.503906 13.332031 178.257812 13.414062 177.984375 13.460938 C 177.714844 13.503906 177.433594 13.527344 177.144531 13.527344 L 177.144531 14.339844 L 179.355469 14.339844 L 179.355469 20.4375 Z M 187.742188 14.101562 L 188.761719 14.101562 C 188.699219 13.398438 188.457031 12.859375 188.042969 12.488281 C 187.625 12.117188 187.066406 11.929688 186.363281 11.929688 C 185.753906 11.929688 185.25 12.058594 184.847656 12.3125 C 184.449219 12.570312 184.128906 12.910156 183.890625 13.332031 C 183.648438 13.757812 183.480469 14.242188 183.378906 14.792969 C 183.277344 15.339844 183.230469 15.90625 183.230469 16.488281 C 183.230469 16.9375 183.261719 17.402344 183.332031 17.882812 C 183.398438 18.363281 183.539062 18.800781 183.746094 19.203125 C 183.953125 19.601562 184.25 19.929688 184.632812 20.183594 C 185.015625 20.441406 185.527344 20.570312 186.15625 20.570312 C 186.691406 20.570312 187.144531 20.480469 187.507812 20.300781 C 187.871094 20.121094 188.164062 19.890625 188.382812 19.617188 C 188.601562 19.339844 188.761719 19.035156 188.859375 18.699219 C 188.953125 18.363281 189 18.039062 189 17.726562 C 189 17.332031 188.941406 16.96875 188.820312 16.632812 C 188.699219 16.296875 188.53125 16.003906 188.3125 15.757812 C 188.089844 15.507812 187.820312 15.316406 187.496094 15.175781 C 187.171875 15.035156 186.804688 14.964844 186.398438 14.964844 C 185.933594 14.964844 185.523438 15.054688 185.167969 15.230469 C 184.8125 15.40625 184.511719 15.691406 184.273438 16.082031 L 184.25 16.058594 C 184.257812 15.730469 184.289062 15.378906 184.34375 15 C 184.402344 14.625 184.503906 14.277344 184.652344 13.953125 C 184.800781 13.628906 185.003906 13.359375 185.269531 13.148438 C 185.535156 12.9375 185.882812 12.828125 186.3125 12.828125 C 186.722656 12.828125 187.050781 12.945312 187.296875 13.175781 C 187.546875 13.410156 187.695312 13.71875 187.742188 14.101562 Z M 186.207031 15.867188 C 186.492188 15.867188 186.746094 15.917969 186.960938 16.023438 C 187.175781 16.125 187.359375 16.261719 187.5 16.433594 C 187.644531 16.605469 187.75 16.8125 187.820312 17.046875 C 187.886719 17.285156 187.921875 17.535156 187.921875 17.796875 C 187.921875 18.046875 187.882812 18.285156 187.808594 18.511719 C 187.730469 18.738281 187.621094 18.941406 187.476562 19.117188 C 187.332031 19.292969 187.15625 19.429688 186.945312 19.53125 C 186.730469 19.632812 186.484375 19.679688 186.207031 19.679688 C 185.925781 19.679688 185.675781 19.632812 185.457031 19.53125 C 185.234375 19.429688 185.050781 19.296875 184.902344 19.128906 C 184.753906 18.960938 184.640625 18.761719 184.5625 18.53125 C 184.480469 18.296875 184.441406 18.050781 184.441406 17.785156 C 184.441406 17.519531 184.480469 17.273438 184.554688 17.035156 C 184.632812 16.800781 184.746094 16.59375 184.898438 16.421875 C 185.050781 16.25 185.234375 16.117188 185.449219 16.015625 C 185.664062 15.914062 185.917969 15.867188 186.207031 15.867188 Z M 191.449219 14.339844 C 191.449219 14.15625 191.460938 13.964844 191.484375 13.757812 C 191.507812 13.554688 191.558594 13.367188 191.636719 13.195312 C 191.710938 13.023438 191.816406 12.878906 191.953125 12.761719 C 192.089844 12.648438 192.269531 12.589844 192.492188 12.589844 C 192.726562 12.589844 192.90625 12.648438 193.039062 12.761719 C 193.171875 12.878906 193.273438 13.023438 193.34375 13.195312 C 193.417969 13.367188 193.464844 13.554688 193.484375 13.757812 C 193.503906 13.964844 193.511719 14.152344 193.511719 14.328125 C 193.511719 14.511719 193.5 14.710938 193.476562 14.917969 C 193.453125 15.125 193.402344 15.316406 193.328125 15.488281 C 193.25 15.660156 193.144531 15.800781 193.007812 15.914062 C 192.871094 16.027344 192.6875 16.082031 192.457031 16.082031 C 192.234375 16.082031 192.054688 16.023438 191.921875 15.90625 C 191.789062 15.792969 191.6875 15.648438 191.617188 15.476562 C 191.546875 15.304688 191.5 15.117188 191.480469 14.910156 C 191.460938 14.707031 191.449219 14.515625 191.449219 14.339844 Z M 190.550781 14.367188 C 190.550781 14.695312 190.582031 15 190.652344 15.289062 C 190.71875 15.578125 190.828125 15.828125 190.980469 16.046875 C 191.132812 16.261719 191.332031 16.429688 191.582031 16.554688 C 191.828125 16.679688 192.132812 16.742188 192.492188 16.742188 C 192.84375 16.742188 193.140625 16.671875 193.382812 16.539062 C 193.621094 16.402344 193.820312 16.222656 193.976562 16.003906 C 194.132812 15.785156 194.242188 15.527344 194.3125 15.234375 C 194.378906 14.941406 194.414062 14.640625 194.414062 14.328125 C 194.414062 14 194.382812 13.691406 194.324219 13.398438 C 194.261719 13.105469 194.160156 12.851562 194.011719 12.636719 C 193.863281 12.421875 193.667969 12.25 193.421875 12.121094 C 193.179688 11.992188 192.871094 11.929688 192.492188 11.929688 C 192.125 11.929688 191.816406 11.996094 191.570312 12.128906 C 191.320312 12.261719 191.121094 12.4375 190.96875 12.660156 C 190.816406 12.886719 190.710938 13.144531 190.644531 13.433594 C 190.582031 13.726562 190.550781 14.039062 190.550781 14.367188 Z M 197.378906 18.179688 C 197.378906 17.996094 197.390625 17.804688 197.414062 17.597656 C 197.4375 17.394531 197.488281 17.207031 197.5625 17.035156 C 197.640625 16.863281 197.746094 16.71875 197.882812 16.601562 C 198.019531 16.488281 198.199219 16.429688 198.421875 16.429688 C 198.652344 16.429688 198.835938 16.488281 198.96875 16.601562 C 199.101562 16.71875 199.203125 16.863281 199.273438 17.035156 C 199.34375 17.207031 199.390625 17.394531 199.410156 17.597656 C 199.429688 17.804688 199.441406 17.992188 199.441406 18.167969 C 199.441406 18.351562 199.429688 18.550781 199.40625 18.757812 C 199.382812 18.964844 199.332031 19.15625 199.253906 19.328125 C 199.179688 19.5 199.074219 19.640625 198.9375 19.753906 C 198.800781 19.867188 198.617188 19.921875 198.386719 19.921875 C 198.160156 19.921875 197.984375 19.863281 197.851562 19.746094 C 197.71875 19.632812 197.617188 19.488281 197.546875 19.316406 C 197.472656 19.144531 197.425781 18.957031 197.40625 18.75 C 197.386719 18.546875 197.378906 18.359375 197.378906 18.179688 Z M 196.476562 18.207031 C 196.476562 18.535156 196.511719 18.839844 196.578125 19.128906 C 196.648438 19.417969 196.757812 19.667969 196.910156 19.878906 C 197.0625 20.089844 197.261719 20.257812 197.507812 20.382812 C 197.757812 20.507812 198.0625 20.570312 198.421875 20.570312 C 198.773438 20.570312 199.070312 20.503906 199.308594 20.371094 C 199.550781 20.238281 199.746094 20.0625 199.902344 19.84375 C 200.058594 19.625 200.171875 19.367188 200.238281 19.074219 C 200.308594 18.78125 200.339844 18.480469 200.339844 18.167969 C 200.339844 17.839844 200.3125 17.53125 200.25 17.238281 C 200.191406 16.945312 200.085938 16.695312 199.9375 16.476562 C 199.789062 16.261719 199.59375 16.089844 199.351562 15.960938 C 199.105469 15.832031 198.796875 15.769531 198.421875 15.769531 C 198.054688 15.769531 197.746094 15.835938 197.496094 15.96875 C 197.25 16.101562 197.050781 16.277344 196.898438 16.5 C 196.746094 16.726562 196.636719 16.984375 196.574219 17.277344 C 196.507812 17.566406 196.476562 17.878906 196.476562 18.207031 Z M 198.15625 11.773438 L 191.703125 20.691406 L 192.734375 20.691406 L 199.175781 11.773438 Z M 201.335938 22.800781 L 202.105469 22.800781 C 202.730469 21.976562 203.199219 21.085938 203.515625 20.132812 C 203.832031 19.175781 203.988281 18.226562 203.988281 17.28125 C 203.988281 16.753906 203.945312 16.25 203.855469 15.769531 C 203.769531 15.289062 203.644531 14.820312 203.480469 14.359375 C 203.316406 13.898438 203.117188 13.449219 202.886719 13.003906 C 202.652344 12.558594 202.394531 12.113281 202.105469 11.664062 L 201.335938 11.664062 C 201.898438 12.585938 202.300781 13.5 202.542969 14.40625 C 202.789062 15.316406 202.910156 16.273438 202.910156 17.28125 C 202.910156 18.257812 202.789062 19.195312 202.550781 20.09375 C 202.308594 20.996094 201.90625 21.898438 201.335938 22.800781 Z M 96.082031 9.011719 "/>
<path fill-rule="nonzero" fill="rgb(47.058824%, 72.156863%, 70.980392%)" fill-opacity="1" stroke-width="2" stroke-linecap="butt" stroke-linejoin="miter" stroke="rgb(100%, 100%, 100%)" stroke-opacity="1" stroke-miterlimit="10" d="M 214.554688 10 L 254.554688 10 L 254.554688 22 L 214.554688 22 Z M 214.554688 10 "/>
<path fill-rule="nonzero" fill="rgb(40%, 40%, 40%)" fill-opacity="1" d="M 262.628906 15.972656 L 262.628906 12.828125 L 264.863281 12.828125 C 265.511719 12.828125 265.984375 12.964844 266.285156 13.230469 C 266.585938 13.5 266.734375 13.890625 266.734375 14.402344 C 266.734375 14.914062 266.585938 15.304688 266.285156 15.578125 C 265.984375 15.851562 265.511719 15.980469 264.863281 15.972656 Z M 261.492188 11.871094 L 261.492188 20.4375 L 262.628906 20.4375 L 262.628906 16.933594 L 265.246094 16.933594 C 266.109375 16.941406 266.765625 16.722656 267.207031 16.273438 C 267.652344 15.824219 267.875 15.203125 267.875 14.402344 C 267.875 13.601562 267.652344 12.980469 267.207031 12.535156 C 266.765625 12.089844 266.109375 11.871094 265.246094 11.871094 Z M 271.535156 21.265625 C 271.414062 21.570312 271.296875 21.824219 271.183594 22.035156 C 271.066406 22.242188 270.9375 22.410156 270.796875 22.542969 C 270.65625 22.675781 270.503906 22.773438 270.328125 22.832031 C 270.15625 22.890625 269.960938 22.921875 269.734375 22.921875 C 269.617188 22.921875 269.496094 22.914062 269.375 22.898438 C 269.253906 22.882812 269.140625 22.851562 269.027344 22.8125 L 269.027344 21.878906 C 269.117188 21.917969 269.21875 21.953125 269.335938 21.980469 C 269.449219 22.007812 269.546875 22.023438 269.628906 22.023438 C 269.835938 22.023438 270.011719 21.972656 270.148438 21.871094 C 270.289062 21.769531 270.394531 21.628906 270.46875 21.445312 L 270.886719 20.402344 L 268.429688 14.234375 L 269.578125 14.234375 L 271.390625 19.308594 L 271.417969 19.308594 L 273.15625 14.234375 L 274.234375 14.234375 Z M 276.515625 14.234375 L 276.515625 12.375 L 275.496094 12.375 L 275.496094 14.234375 L 274.441406 14.234375 L 274.441406 15.132812 L 275.496094 15.132812 L 275.496094 19.082031 C 275.496094 19.371094 275.523438 19.601562 275.578125 19.777344 C 275.636719 19.953125 275.722656 20.089844 275.839844 20.183594 C 275.953125 20.28125 276.105469 20.347656 276.292969 20.382812 C 276.480469 20.417969 276.707031 20.4375 276.972656 20.4375 L 277.753906 20.4375 L 277.753906 19.539062 L 277.285156 19.539062 C 277.125 19.539062 276.992188 19.53125 276.894531 19.519531 C 276.792969 19.507812 276.714844 19.480469 276.660156 19.441406 C 276.605469 19.402344 276.566406 19.34375 276.546875 19.273438 C 276.527344 19.203125 276.515625 19.105469 276.515625 18.984375 L 276.515625 15.132812 L 277.753906 15.132812 L 277.753906 14.234375 Z M 278.878906 11.871094 L 278.878906 20.4375 L 279.898438 20.4375 L 279.898438 16.933594 C 279.898438 16.652344 279.933594 16.394531 280.011719 16.160156 C 280.085938 15.921875 280.203125 15.71875 280.351562 15.542969 C 280.503906 15.367188 280.695312 15.230469 280.921875 15.132812 C 281.152344 15.039062 281.421875 14.988281 281.734375 14.988281 C 282.125 14.988281 282.433594 15.101562 282.65625 15.324219 C 282.882812 15.550781 282.992188 15.851562 282.992188 16.238281 L 282.992188 20.4375 L 284.011719 20.4375 L 284.011719 16.359375 C 284.011719 16.023438 283.980469 15.714844 283.910156 15.441406 C 283.84375 15.164062 283.726562 14.925781 283.558594 14.726562 C 283.390625 14.527344 283.167969 14.371094 282.898438 14.257812 C 282.625 14.144531 282.285156 14.089844 281.878906 14.089844 C 281.695312 14.089844 281.503906 14.109375 281.308594 14.148438 C 281.113281 14.1875 280.921875 14.25 280.742188 14.335938 C 280.5625 14.417969 280.402344 14.527344 280.257812 14.660156 C 280.113281 14.792969 280 14.953125 279.921875 15.144531 L 279.898438 15.144531 L 279.898438 11.871094 Z M 286.292969 17.339844 C 286.292969 16.964844 286.34375 16.632812 286.441406 16.339844 C 286.542969 16.046875 286.679688 15.800781 286.855469 15.601562 C 287.03125 15.402344 287.238281 15.25 287.476562 15.144531 C 287.710938 15.042969 287.960938 14.988281 288.226562 14.988281 C 288.488281 14.988281 288.738281 15.042969 288.976562 15.144531 C 289.210938 15.25 289.417969 15.402344 289.59375 15.601562 C 289.769531 15.800781 289.90625 16.046875 290.007812 16.339844 C 290.109375 16.632812 290.15625 16.964844 290.15625 17.339844 C 290.15625 17.71875 290.105469 18.050781 290.007812 18.34375 C 289.90625 18.636719 289.769531 18.878906 289.59375 19.074219 C 289.417969 19.269531 289.210938 19.421875 288.976562 19.527344 C 288.738281 19.628906 288.488281 19.679688 288.226562 19.679688 C 287.960938 19.679688 287.710938 19.628906 287.476562 19.527344 C 287.238281 19.421875 287.035156 19.273438 286.855469 19.074219 C 286.679688 18.878906 286.542969 18.636719 286.441406 18.34375 C 286.34375 18.050781 286.292969 17.71875 286.292969 17.339844 Z M 285.214844 17.339844 C 285.214844 17.796875 285.277344 18.222656 285.40625 18.613281 C 285.535156 19.003906 285.726562 19.347656 285.980469 19.640625 C 286.238281 19.933594 286.554688 20.160156 286.929688 20.324219 C 287.304688 20.488281 287.738281 20.570312 288.226562 20.570312 C 288.722656 20.570312 289.15625 20.488281 289.527344 20.324219 C 289.898438 20.160156 290.214844 19.929688 290.46875 19.640625 C 290.726562 19.347656 290.917969 19.003906 291.046875 18.613281 C 291.171875 18.222656 291.238281 17.796875 291.238281 17.339844 C 291.238281 16.886719 291.171875 16.460938 291.046875 16.0625 C 290.917969 15.667969 290.726562 15.324219 290.46875 15.03125 C 290.214844 14.738281 289.898438 14.507812 289.527344 14.339844 C 289.15625 14.171875 288.722656 14.089844 288.226562 14.089844 C 287.738281 14.089844 287.304688 14.171875 286.929688 14.339844 C 286.554688 14.507812 286.238281 14.738281 285.980469 15.03125 C 285.726562 15.324219 285.535156 15.667969 285.40625 16.0625 C 285.277344 16.460938 285.214844 16.886719 285.214844 17.339844 Z M 292.441406 14.234375 L 292.441406 20.4375 L 293.460938 20.4375 L 293.460938 16.933594 C 293.460938 16.652344 293.496094 16.394531 293.574219 16.160156 C 293.648438 15.921875 293.765625 15.71875 293.914062 15.542969 C 294.066406 15.367188 294.257812 15.230469 294.484375 15.132812 C 294.714844 15.039062 294.984375 14.988281 295.296875 14.988281 C 295.6875 14.988281 295.996094 15.101562 296.21875 15.324219 C 296.445312 15.550781 296.554688 15.851562 296.554688 16.238281 L 296.554688 20.4375 L 297.574219 20.4375 L 297.574219 16.359375 C 297.574219 16.023438 297.542969 15.714844 297.472656 15.441406 C 297.40625 15.164062 297.289062 14.925781 297.121094 14.726562 C 296.953125 14.527344 296.730469 14.371094 296.460938 14.257812 C 296.1875 14.144531 295.847656 14.089844 295.441406 14.089844 C 294.519531 14.089844 293.847656 14.464844 293.425781 15.21875 L 293.398438 15.21875 L 293.398438 14.234375 Z M 304.128906 22.800781 L 304.90625 22.800781 C 304.339844 21.882812 303.933594 20.96875 303.691406 20.066406 C 303.445312 19.160156 303.324219 18.207031 303.324219 17.199219 C 303.324219 16.214844 303.445312 15.273438 303.683594 14.378906 C 303.921875 13.480469 304.332031 12.578125 304.90625 11.664062 L 304.128906 11.664062 C 303.503906 12.488281 303.035156 13.382812 302.71875 14.339844 C 302.402344 15.300781 302.242188 16.253906 302.242188 17.199219 C 302.242188 17.726562 302.289062 18.230469 302.375 18.710938 C 302.464844 19.191406 302.589844 19.65625 302.753906 20.113281 C 302.917969 20.570312 303.117188 21.019531 303.347656 21.464844 C 303.578125 21.90625 303.839844 22.351562 304.128906 22.800781 Z M 305.316406 14.941406 L 306.335938 14.941406 C 306.328125 14.683594 306.355469 14.429688 306.414062 14.179688 C 306.476562 13.925781 306.574219 13.703125 306.710938 13.5 C 306.84375 13.300781 307.019531 13.140625 307.230469 13.015625 C 307.441406 12.890625 307.695312 12.828125 307.992188 12.828125 C 308.214844 12.828125 308.429688 12.867188 308.628906 12.9375 C 308.828125 13.007812 309.003906 13.113281 309.152344 13.25 C 309.300781 13.386719 309.417969 13.546875 309.503906 13.734375 C 309.59375 13.921875 309.636719 14.132812 309.636719 14.367188 C 309.636719 14.660156 309.589844 14.921875 309.5 15.144531 C 309.40625 15.371094 309.269531 15.578125 309.089844 15.769531 C 308.910156 15.960938 308.683594 16.152344 308.414062 16.339844 C 308.140625 16.527344 307.824219 16.734375 307.464844 16.957031 C 307.167969 17.132812 306.886719 17.320312 306.613281 17.523438 C 306.339844 17.722656 306.097656 17.953125 305.882812 18.21875 C 305.664062 18.480469 305.488281 18.792969 305.347656 19.148438 C 305.207031 19.503906 305.117188 19.933594 305.078125 20.4375 L 310.632812 20.4375 L 310.632812 19.539062 L 306.265625 19.539062 C 306.3125 19.273438 306.414062 19.039062 306.570312 18.835938 C 306.726562 18.632812 306.914062 18.441406 307.136719 18.265625 C 307.355469 18.089844 307.597656 17.921875 307.859375 17.765625 C 308.125 17.609375 308.390625 17.453125 308.652344 17.292969 C 308.917969 17.125 309.171875 16.949219 309.421875 16.765625 C 309.667969 16.582031 309.890625 16.375 310.082031 16.148438 C 310.273438 15.917969 310.425781 15.660156 310.542969 15.375 C 310.660156 15.085938 310.71875 14.753906 310.71875 14.378906 C 310.71875 13.976562 310.648438 13.625 310.507812 13.320312 C 310.367188 13.015625 310.175781 12.761719 309.9375 12.558594 C 309.695312 12.355469 309.414062 12.199219 309.089844 12.089844 C 308.765625 11.984375 308.421875 11.929688 308.054688 11.929688 C 307.605469 11.929688 307.203125 12.003906 306.851562 12.15625 C 306.5 12.308594 306.207031 12.519531 305.972656 12.789062 C 305.734375 13.054688 305.5625 13.375 305.449219 13.742188 C 305.335938 14.109375 305.292969 14.507812 305.316406 14.941406 Z M 315.734375 20.4375 L 315.734375 11.929688 L 314.953125 11.929688 C 314.898438 12.25 314.792969 12.511719 314.640625 12.722656 C 314.488281 12.929688 314.304688 13.09375 314.082031 13.214844 C 313.863281 13.332031 313.617188 13.414062 313.34375 13.460938 C 313.074219 13.503906 312.792969 13.527344 312.503906 13.527344 L 312.503906 14.339844 L 314.714844 14.339844 L 314.714844 20.4375 Z M 319.128906 19.105469 L 319.128906 20.4375 L 320.460938 20.4375 L 320.460938 19.105469 Z M 324.085938 15.578125 L 324.085938 16.441406 C 324.277344 16.417969 324.480469 16.40625 324.695312 16.40625 C 324.953125 16.40625 325.191406 16.441406 325.410156 16.507812 C 325.628906 16.574219 325.820312 16.679688 325.980469 16.820312 C 326.140625 16.960938 326.269531 17.132812 326.363281 17.335938 C 326.460938 17.539062 326.507812 17.773438 326.507812 18.039062 C 326.507812 18.292969 326.457031 18.523438 326.359375 18.726562 C 326.257812 18.929688 326.125 19.101562 325.957031 19.242188 C 325.789062 19.382812 325.59375 19.492188 325.367188 19.566406 C 325.144531 19.644531 324.910156 19.679688 324.660156 19.679688 C 324.078125 19.679688 323.632812 19.507812 323.328125 19.160156 C 323.023438 18.8125 322.863281 18.363281 322.847656 17.808594 L 321.828125 17.808594 C 321.820312 18.25 321.882812 18.640625 322.015625 18.984375 C 322.148438 19.328125 322.335938 19.621094 322.585938 19.855469 C 322.832031 20.089844 323.132812 20.269531 323.484375 20.390625 C 323.835938 20.511719 324.230469 20.570312 324.660156 20.570312 C 325.0625 20.570312 325.4375 20.515625 325.792969 20.40625 C 326.148438 20.300781 326.460938 20.136719 326.726562 19.921875 C 326.988281 19.707031 327.199219 19.433594 327.355469 19.113281 C 327.511719 18.789062 327.589844 18.414062 327.589844 17.988281 C 327.589844 17.476562 327.460938 17.035156 327.210938 16.65625 C 326.957031 16.28125 326.574219 16.039062 326.054688 15.925781 L 326.054688 15.902344 C 326.390625 15.75 326.667969 15.527344 326.894531 15.230469 C 327.117188 14.933594 327.230469 14.59375 327.230469 14.210938 C 327.230469 13.816406 327.164062 13.476562 327.03125 13.191406 C 326.898438 12.902344 326.714844 12.664062 326.484375 12.480469 C 326.253906 12.296875 325.980469 12.160156 325.664062 12.066406 C 325.347656 11.976562 325.003906 11.929688 324.636719 11.929688 C 324.210938 11.929688 323.839844 11.996094 323.515625 12.132812 C 323.191406 12.269531 322.921875 12.457031 322.703125 12.699219 C 322.488281 12.9375 322.324219 13.226562 322.207031 13.5625 C 322.089844 13.898438 322.023438 14.269531 322.007812 14.675781 L 323.027344 14.675781 C 323.027344 14.429688 323.0625 14.195312 323.125 13.96875 C 323.1875 13.746094 323.285156 13.550781 323.417969 13.382812 C 323.550781 13.214844 323.71875 13.078125 323.921875 12.980469 C 324.125 12.878906 324.363281 12.828125 324.636719 12.828125 C 325.070312 12.828125 325.429688 12.945312 325.714844 13.171875 C 326.003906 13.398438 326.148438 13.742188 326.148438 14.199219 C 326.148438 14.421875 326.105469 14.621094 326.015625 14.796875 C 325.929688 14.972656 325.8125 15.121094 325.664062 15.234375 C 325.515625 15.351562 325.34375 15.441406 325.148438 15.5 C 324.953125 15.558594 324.746094 15.589844 324.527344 15.589844 L 324.3125 15.589844 C 324.273438 15.589844 324.234375 15.589844 324.191406 15.589844 C 324.160156 15.589844 324.125 15.585938 324.085938 15.578125 Z M 330.757812 15.578125 L 330.757812 16.441406 C 330.949219 16.417969 331.152344 16.40625 331.367188 16.40625 C 331.625 16.40625 331.863281 16.441406 332.082031 16.507812 C 332.300781 16.574219 332.492188 16.679688 332.652344 16.820312 C 332.8125 16.960938 332.941406 17.132812 333.035156 17.335938 C 333.132812 17.539062 333.179688 17.773438 333.179688 18.039062 C 333.179688 18.292969 333.128906 18.523438 333.03125 18.726562 C 332.929688 18.929688 332.796875 19.101562 332.628906 19.242188 C 332.460938 19.382812 332.265625 19.492188 332.039062 19.566406 C 331.816406 19.644531 331.582031 19.679688 331.332031 19.679688 C 330.75 19.679688 330.304688 19.507812 330 19.160156 C 329.695312 18.8125 329.535156 18.363281 329.519531 17.808594 L 328.5 17.808594 C 328.492188 18.25 328.554688 18.640625 328.6875 18.984375 C 328.820312 19.328125 329.007812 19.621094 329.257812 19.855469 C 329.503906 20.089844 329.804688 20.269531 330.15625 20.390625 C 330.507812 20.511719 330.902344 20.570312 331.332031 20.570312 C 331.734375 20.570312 332.109375 20.515625 332.464844 20.40625 C 332.820312 20.300781 333.132812 20.136719 333.398438 19.921875 C 333.660156 19.707031 333.871094 19.433594 334.027344 19.113281 C 334.183594 18.789062 334.261719 18.414062 334.261719 17.988281 C 334.261719 17.476562 334.132812 17.035156 333.882812 16.65625 C 333.628906 16.28125 333.246094 16.039062 332.726562 15.925781 L 332.726562 15.902344 C 333.0625 15.75 333.339844 15.527344 333.566406 15.230469 C 333.789062 14.933594 333.902344 14.59375 333.902344 14.210938 C 333.902344 13.816406 333.835938 13.476562 333.703125 13.191406 C 333.570312 12.902344 333.386719 12.664062 333.15625 12.480469 C 332.925781 12.296875 332.652344 12.160156 332.335938 12.066406 C 332.019531 11.976562 331.675781 11.929688 331.308594 11.929688 C 330.882812 11.929688 330.511719 11.996094 330.1875 12.132812 C 329.863281 12.269531 329.59375 12.457031 329.375 12.699219 C 329.160156 12.9375 328.996094 13.226562 328.878906 13.5625 C 328.761719 13.898438 328.695312 14.269531 328.679688 14.675781 L 329.699219 14.675781 C 329.699219 14.429688 329.734375 14.195312 329.796875 13.96875 C 329.859375 13.746094 329.957031 13.550781 330.089844 13.382812 C 330.222656 13.214844 330.390625 13.078125 330.59375 12.980469 C 330.796875 12.878906 331.035156 12.828125 331.308594 12.828125 C 331.742188 12.828125 332.101562 12.945312 332.386719 13.171875 C 332.675781 13.398438 332.820312 13.742188 332.820312 14.199219 C 332.820312 14.421875 332.777344 14.621094 332.6875 14.796875 C 332.601562 14.972656 332.484375 15.121094 332.335938 15.234375 C 332.1875 15.351562 332.015625 15.441406 331.820312 15.5 C 331.625 15.558594 331.417969 15.589844 331.199219 15.589844 L 330.984375 15.589844 C 330.945312 15.589844 330.90625 15.589844 330.863281 15.589844 C 330.832031 15.589844 330.796875 15.585938 330.757812 15.578125 Z M 336.816406 14.339844 C 336.816406 14.15625 336.828125 13.964844 336.851562 13.757812 C 336.875 13.554688 336.925781 13.367188 337.003906 13.195312 C 337.078125 13.023438 337.183594 12.878906 337.320312 12.761719 C 337.457031 12.648438 337.636719 12.589844 337.859375 12.589844 C 338.09375 12.589844 338.273438 12.648438 338.40625 12.761719 C 338.539062 12.878906 338.640625 13.023438 338.710938 13.195312 C 338.785156 13.367188 338.832031 13.554688 338.851562 13.757812 C 338.871094 13.964844 338.878906 14.152344 338.878906 14.328125 C 338.878906 14.511719 338.867188 14.710938 338.84375 14.917969 C 338.820312 15.125 338.769531 15.316406 338.695312 15.488281 C 338.617188 15.660156 338.511719 15.800781 338.375 15.914062 C 338.238281 16.027344 338.054688 16.082031 337.824219 16.082031 C 337.601562 16.082031 337.421875 16.023438 337.289062 15.90625 C 337.15625 15.792969 337.054688 15.648438 336.984375 15.476562 C 336.914062 15.304688 336.867188 15.117188 336.847656 14.910156 C 336.828125 14.707031 336.816406 14.515625 336.816406 14.339844 Z M 335.917969 14.367188 C 335.917969 14.695312 335.949219 15 336.019531 15.289062 C 336.085938 15.578125 336.195312 15.828125 336.347656 16.046875 C 336.5 16.261719 336.699219 16.429688 336.949219 16.554688 C 337.195312 16.679688 337.5 16.742188 337.859375 16.742188 C 338.210938 16.742188 338.507812 16.671875 338.75 16.539062 C 338.988281 16.402344 339.1875 16.222656 339.34375 16.003906 C 339.5 15.785156 339.609375 15.527344 339.679688 15.234375 C 339.746094 14.941406 339.78125 14.640625 339.78125 14.328125 C 339.78125 14 339.75 13.691406 339.691406 13.398438 C 339.628906 13.105469 339.527344 12.851562 339.378906 12.636719 C 339.230469 12.421875 339.035156 12.25 338.789062 12.121094 C 338.546875 11.992188 338.238281 11.929688 337.859375 11.929688 C 337.492188 11.929688 337.183594 11.996094 336.9375 12.128906 C 336.6875 12.261719 336.488281 12.4375 336.335938 12.660156 C 336.183594 12.886719 336.078125 13.144531 336.011719 13.433594 C 335.949219 13.726562 335.917969 14.039062 335.917969 14.367188 Z M 342.746094 18.179688 C 342.746094 17.996094 342.757812 17.804688 342.78125 17.597656 C 342.804688 17.394531 342.855469 17.207031 342.929688 17.035156 C 343.007812 16.863281 343.113281 16.71875 343.25 16.601562 C 343.386719 16.488281 343.566406 16.429688 343.789062 16.429688 C 344.019531 16.429688 344.203125 16.488281 344.335938 16.601562 C 344.46875 16.71875 344.570312 16.863281 344.640625 17.035156 C 344.710938 17.207031 344.757812 17.394531 344.777344 17.597656 C 344.796875 17.804688 344.808594 17.992188 344.808594 18.167969 C 344.808594 18.351562 344.796875 18.550781 344.773438 18.757812 C 344.75 18.964844 344.699219 19.15625 344.621094 19.328125 C 344.546875 19.5 344.441406 19.640625 344.304688 19.753906 C 344.167969 19.867188 343.984375 19.921875 343.753906 19.921875 C 343.527344 19.921875 343.351562 19.863281 343.21875 19.746094 C 343.085938 19.632812 342.984375 19.488281 342.914062 19.316406 C 342.839844 19.144531 342.792969 18.957031 342.773438 18.75 C 342.753906 18.546875 342.746094 18.359375 342.746094 18.179688 Z M 341.84375 18.207031 C 341.84375 18.535156 341.878906 18.839844 341.945312 19.128906 C 342.015625 19.417969 342.125 19.667969 342.277344 19.878906 C 342.429688 20.089844 342.628906 20.257812 342.875 20.382812 C 343.125 20.507812 343.429688 20.570312 343.789062 20.570312 C 344.140625 20.570312 344.4375 20.503906 344.675781 20.371094 C 344.917969 20.238281 345.113281 20.0625 345.269531 19.84375 C 345.425781 19.625 345.539062 19.367188 345.605469 19.074219 C 345.675781 18.78125 345.707031 18.480469 345.707031 18.167969 C 345.707031 17.839844 345.679688 17.53125 345.617188 17.238281 C 345.558594 16.945312 345.453125 16.695312 345.304688 16.476562 C 345.15625 16.261719 344.960938 16.089844 344.71875 15.960938 C 344.472656 15.832031 344.164062 15.769531 343.789062 15.769531 C 343.421875 15.769531 343.113281 15.835938 342.863281 15.96875 C 342.617188 16.101562 342.417969 16.277344 342.265625 16.5 C 342.113281 16.726562 342.003906 16.984375 341.941406 17.277344 C 341.875 17.566406 341.84375 17.878906 341.84375 18.207031 Z M 343.523438 11.773438 L 337.070312 20.691406 L 338.101562 20.691406 L 344.542969 11.773438 Z M 346.703125 22.800781 L 347.472656 22.800781 C 348.097656 21.976562 348.566406 21.085938 348.882812 20.132812 C 349.199219 19.175781 349.355469 18.226562 349.355469 17.28125 C 349.355469 16.753906 349.3125 16.25 349.222656 15.769531 C 349.136719 15.289062 349.011719 14.820312 348.847656 14.359375 C 348.683594 13.898438 348.484375 13.449219 348.253906 13.003906 C 348.019531 12.558594 347.761719 12.113281 347.472656 11.664062 L 346.703125 11.664062 C 347.265625 12.585938 347.667969 13.5 347.910156 14.40625 C 348.15625 15.316406 348.277344 16.273438 348.277344 17.28125 C 348.277344 18.257812 348.15625 19.195312 347.917969 20.09375 C 347.675781 20.996094 347.273438 21.898438 346.703125 22.800781 Z M 260.554688 9.011719 "/>
<path fill-rule="nonzero" fill="rgb(90.980392%, 33.333333%, 37.254902%)" fill-opacity="1" stroke-width="2" stroke-linecap="butt" stroke-linejoin="miter" stroke="rgb(100%, 100%, 100%)" stroke-opacity="1" stroke-miterlimit="10" d="M 143.015625 32 L 183.015625 32 L 183.015625 44 L 143.015625 44 Z M 143.015625 32 "/>
<path fill-rule="nonzero" fill="rgb(40%, 40%, 40%)" fill-opacity="1" d="M 195.976562 36.449219 L 197.117188 36.449219 C 197.050781 35.992188 196.914062 35.589844 196.707031 35.242188 C 196.5 34.894531 196.238281 34.605469 195.925781 34.375 C 195.613281 34.140625 195.257812 33.964844 194.859375 33.84375 C 194.460938 33.726562 194.035156 33.664062 193.585938 33.664062 C 192.929688 33.664062 192.351562 33.785156 191.839844 34.019531 C 191.332031 34.253906 190.910156 34.578125 190.570312 34.984375 C 190.230469 35.394531 189.972656 35.871094 189.796875 36.417969 C 189.621094 36.96875 189.53125 37.554688 189.53125 38.175781 C 189.53125 38.800781 189.613281 39.386719 189.777344 39.929688 C 189.941406 40.472656 190.1875 40.945312 190.515625 41.34375 C 190.84375 41.746094 191.253906 42.058594 191.75 42.289062 C 192.246094 42.515625 192.828125 42.628906 193.492188 42.628906 C 194.585938 42.628906 195.453125 42.328125 196.082031 41.730469 C 196.714844 41.128906 197.085938 40.289062 197.199219 39.210938 L 196.058594 39.210938 C 196.035156 39.5625 195.964844 39.890625 195.84375 40.195312 C 195.722656 40.5 195.558594 40.757812 195.34375 40.980469 C 195.132812 41.199219 194.882812 41.371094 194.589844 41.496094 C 194.296875 41.621094 193.964844 41.679688 193.585938 41.679688 C 193.074219 41.679688 192.636719 41.585938 192.269531 41.394531 C 191.898438 41.203125 191.597656 40.945312 191.363281 40.621094 C 191.125 40.296875 190.953125 39.914062 190.839844 39.480469 C 190.726562 39.042969 190.671875 38.582031 190.671875 38.09375 C 190.671875 37.644531 190.726562 37.214844 190.839844 36.796875 C 190.953125 36.382812 191.125 36.011719 191.363281 35.6875 C 191.597656 35.363281 191.898438 35.105469 192.261719 34.914062 C 192.625 34.722656 193.0625 34.625 193.574219 34.625 C 194.175781 34.625 194.695312 34.777344 195.128906 35.082031 C 195.566406 35.386719 195.847656 35.839844 195.976562 36.449219 Z M 201.6875 38.992188 L 201.6875 36.367188 L 200.871094 36.367188 L 200.871094 38.992188 L 198.253906 38.992188 L 198.253906 39.808594 L 200.871094 39.808594 L 200.871094 42.4375 L 201.6875 42.4375 L 201.6875 39.808594 L 204.304688 39.808594 L 204.304688 38.992188 Z M 208.886719 38.992188 L 208.886719 36.367188 L 208.070312 36.367188 L 208.070312 38.992188 L 205.453125 38.992188 L 205.453125 39.808594 L 208.070312 39.808594 L 208.070312 42.4375 L 208.886719 42.4375 L 208.886719 39.808594 L 211.503906 39.808594 L 211.503906 38.992188 Z M 217.863281 44.800781 L 218.640625 44.800781 C 218.074219 43.882812 217.667969 42.96875 217.425781 42.066406 C 217.179688 41.160156 217.058594 40.207031 217.058594 39.199219 C 217.058594 38.214844 217.179688 37.273438 217.417969 36.378906 C 217.65625 35.480469 218.066406 34.578125 218.640625 33.664062 L 217.863281 33.664062 C 217.238281 34.488281 216.769531 35.382812 216.453125 36.339844 C 216.136719 37.300781 215.976562 38.253906 215.976562 39.199219 C 215.976562 39.726562 216.023438 40.230469 216.109375 40.710938 C 216.199219 41.191406 216.324219 41.65625 216.488281 42.113281 C 216.652344 42.570312 216.851562 43.019531 217.082031 43.464844 C 217.3125 43.90625 217.574219 44.351562 217.863281 44.800781 Z M 223.492188 36.101562 L 224.511719 36.101562 C 224.449219 35.398438 224.207031 34.859375 223.792969 34.488281 C 223.375 34.117188 222.816406 33.929688 222.113281 33.929688 C 221.503906 33.929688 221 34.058594 220.597656 34.3125 C 220.199219 34.570312 219.878906 34.910156 219.640625 35.332031 C 219.398438 35.757812 219.230469 36.242188 219.128906 36.792969 C 219.027344 37.339844 218.980469 37.90625 218.980469 38.488281 C 218.980469 38.9375 219.011719 39.402344 219.082031 39.882812 C 219.148438 40.363281 219.289062 40.800781 219.496094 41.203125 C 219.703125 41.601562 220 41.929688 220.382812 42.183594 C 220.765625 42.441406 221.277344 42.570312 221.90625 42.570312 C 222.441406 42.570312 222.894531 42.480469 223.257812 42.300781 C 223.621094 42.121094 223.914062 41.890625 224.132812 41.617188 C 224.351562 41.339844 224.511719 41.035156 224.609375 40.699219 C 224.703125 40.363281 224.75 40.039062 224.75 39.726562 C 224.75 39.332031 224.691406 38.96875 224.570312 38.632812 C 224.449219 38.296875 224.28125 38.003906 224.0625 37.757812 C 223.839844 37.507812 223.570312 37.316406 223.246094 37.175781 C 222.921875 37.035156 222.554688 36.964844 222.148438 36.964844 C 221.683594 36.964844 221.273438 37.054688 220.917969 37.230469 C 220.5625 37.40625 220.261719 37.691406 220.023438 38.082031 L 220 38.058594 C 220.007812 37.730469 220.039062 37.378906 220.09375 37 C 220.152344 36.625 220.253906 36.277344 220.402344 35.953125 C 220.550781 35.628906 220.753906 35.359375 221.019531 35.148438 C 221.285156 34.9375 221.632812 34.828125 222.0625 34.828125 C 222.472656 34.828125 222.800781 34.945312 223.046875 35.175781 C 223.296875 35.410156 223.445312 35.71875 223.492188 36.101562 Z M 221.957031 37.867188 C 222.242188 37.867188 222.496094 37.917969 222.710938 38.023438 C 222.925781 38.125 223.109375 38.261719 223.25 38.433594 C 223.394531 38.605469 223.5 38.8125 223.570312 39.046875 C 223.636719 39.285156 223.671875 39.535156 223.671875 39.796875 C 223.671875 40.046875 223.632812 40.285156 223.558594 40.511719 C 223.480469 40.738281 223.371094 40.941406 223.226562 41.117188 C 223.082031 41.292969 222.90625 41.429688 222.695312 41.53125 C 222.480469 41.632812 222.234375 41.679688 221.957031 41.679688 C 221.675781 41.679688 221.425781 41.632812 221.207031 41.53125 C 220.984375 41.429688 220.800781 41.296875 220.652344 41.128906 C 220.503906 40.960938 220.390625 40.761719 220.3125 40.53125 C 220.230469 40.296875 220.191406 40.050781 220.191406 39.785156 C 220.191406 39.519531 220.230469 39.273438 220.304688 39.035156 C 220.382812 38.800781 220.496094 38.59375 220.648438 38.421875 C 220.800781 38.25 220.984375 38.117188 221.199219 38.015625 C 221.414062 37.914062 221.667969 37.867188 221.957031 37.867188 Z M 226.191406 41.105469 L 226.191406 42.4375 L 227.523438 42.4375 L 227.523438 41.105469 Z M 234.171875 34.972656 L 234.171875 34.074219 L 229.972656 34.074219 L 229.179688 38.488281 L 230.054688 38.539062 C 230.253906 38.296875 230.484375 38.101562 230.746094 37.957031 C 231.003906 37.808594 231.304688 37.734375 231.640625 37.734375 C 231.925781 37.734375 232.1875 37.78125 232.425781 37.878906 C 232.660156 37.972656 232.863281 38.109375 233.03125 38.28125 C 233.199219 38.453125 233.328125 38.65625 233.421875 38.890625 C 233.511719 39.128906 233.558594 39.386719 233.558594 39.664062 C 233.558594 40 233.511719 40.296875 233.414062 40.546875 C 233.320312 40.800781 233.1875 41.007812 233.023438 41.175781 C 232.859375 41.34375 232.667969 41.472656 232.449219 41.554688 C 232.230469 41.640625 232 41.679688 231.757812 41.679688 C 231.503906 41.679688 231.269531 41.644531 231.058594 41.566406 C 230.84375 41.492188 230.660156 41.382812 230.503906 41.242188 C 230.347656 41.101562 230.226562 40.941406 230.132812 40.75 C 230.042969 40.5625 229.988281 40.363281 229.972656 40.144531 L 228.953125 40.144531 C 228.960938 40.527344 229.035156 40.875 229.179688 41.175781 C 229.324219 41.480469 229.519531 41.734375 229.765625 41.941406 C 230.015625 42.144531 230.300781 42.300781 230.625 42.40625 C 230.949219 42.515625 231.296875 42.570312 231.664062 42.570312 C 232.160156 42.570312 232.59375 42.492188 232.964844 42.335938 C 233.335938 42.179688 233.648438 41.96875 233.894531 41.707031 C 234.144531 41.441406 234.328125 41.140625 234.453125 40.800781 C 234.578125 40.460938 234.640625 40.109375 234.640625 39.75 C 234.640625 39.261719 234.566406 38.835938 234.421875 38.472656 C 234.277344 38.109375 234.082031 37.804688 233.835938 37.558594 C 233.585938 37.316406 233.296875 37.132812 232.960938 37.011719 C 232.625 36.894531 232.265625 36.832031 231.890625 36.832031 C 231.601562 36.832031 231.3125 36.882812 231.019531 36.984375 C 230.730469 37.082031 230.492188 37.238281 230.308594 37.445312 L 230.285156 37.421875 L 230.738281 34.972656 Z M 235.730469 36.941406 L 236.75 36.941406 C 236.742188 36.683594 236.769531 36.429688 236.828125 36.179688 C 236.890625 35.925781 236.988281 35.703125 237.125 35.5 C 237.257812 35.300781 237.433594 35.140625 237.644531 35.015625 C 237.855469 34.890625 238.109375 34.828125 238.40625 34.828125 C 238.628906 34.828125 238.84375 34.867188 239.042969 34.9375 C 239.242188 35.007812 239.417969 35.113281 239.566406 35.25 C 239.714844 35.386719 239.832031 35.546875 239.917969 35.734375 C 240.007812 35.921875 240.050781 36.132812 240.050781 36.367188 C 240.050781 36.660156 240.003906 36.921875 239.914062 37.144531 C 239.820312 37.371094 239.683594 37.578125 239.503906 37.769531 C 239.324219 37.960938 239.097656 38.152344 238.828125 38.339844 C 238.554688 38.527344 238.238281 38.734375 237.878906 38.957031 C 237.582031 39.132812 237.300781 39.320312 237.027344 39.523438 C 236.753906 39.722656 236.511719 39.953125 236.296875 40.21875 C 236.078125 40.480469 235.902344 40.792969 235.761719 41.148438 C 235.621094 41.503906 235.53125 41.933594 235.492188 42.4375 L 241.046875 42.4375 L 241.046875 41.539062 L 236.679688 41.539062 C 236.726562 41.273438 236.828125 41.039062 236.984375 40.835938 C 237.140625 40.632812 237.328125 40.441406 237.550781 40.265625 C 237.769531 40.089844 238.011719 39.921875 238.273438 39.765625 C 238.539062 39.609375 238.804688 39.453125 239.066406 39.292969 C 239.332031 39.125 239.585938 38.949219 239.835938 38.765625 C 240.082031 38.582031 240.304688 38.375 240.496094 38.148438 C 240.6875 37.917969 240.839844 37.660156 240.957031 37.375 C 241.074219 37.085938 241.132812 36.753906 241.132812 36.378906 C 241.132812 35.976562 241.0625 35.625 240.921875 35.320312 C 240.78125 35.015625 240.589844 34.761719 240.351562 34.558594 C 240.109375 34.355469 239.828125 34.199219 239.503906 34.089844 C 239.179688 33.984375 238.835938 33.929688 238.46875 33.929688 C 238.019531 33.929688 237.617188 34.003906 237.265625 34.15625 C 236.914062 34.308594 236.621094 34.519531 236.386719 34.789062 C 236.148438 35.054688 235.976562 35.375 235.863281 35.742188 C 235.75 36.109375 235.707031 36.507812 235.730469 36.941406 Z M 243.878906 36.339844 C 243.878906 36.15625 243.890625 35.964844 243.914062 35.757812 C 243.9375 35.554688 243.988281 35.367188 244.066406 35.195312 C 244.140625 35.023438 244.246094 34.878906 244.382812 34.761719 C 244.519531 34.648438 244.699219 34.589844 244.921875 34.589844 C 245.15625 34.589844 245.335938 34.648438 245.46875 34.761719 C 245.601562 34.878906 245.703125 35.023438 245.773438 35.195312 C 245.847656 35.367188 245.894531 35.554688 245.914062 35.757812 C 245.933594 35.964844 245.941406 36.152344 245.941406 36.328125 C 245.941406 36.511719 245.929688 36.710938 245.90625 36.917969 C 245.882812 37.125 245.832031 37.316406 245.757812 37.488281 C 245.679688 37.660156 245.574219 37.800781 245.4375 37.914062 C 245.300781 38.027344 245.117188 38.082031 244.886719 38.082031 C 244.664062 38.082031 244.484375 38.023438 244.351562 37.90625 C 244.21875 37.792969 244.117188 37.648438 244.046875 37.476562 C 243.976562 37.304688 243.929688 37.117188 243.910156 36.910156 C 243.890625 36.707031 243.878906 36.515625 243.878906 36.339844 Z M 242.980469 36.367188 C 242.980469 36.695312 243.011719 37 243.082031 37.289062 C 243.148438 37.578125 243.257812 37.828125 243.410156 38.046875 C 243.5625 38.261719 243.761719 38.429688 244.011719 38.554688 C 244.257812 38.679688 244.5625 38.742188 244.921875 38.742188 C 245.273438 38.742188 245.570312 38.671875 245.8125 38.539062 C 246.050781 38.402344 246.25 38.222656 246.40625 38.003906 C 246.5625 37.785156 246.671875 37.527344 246.742188 37.234375 C 246.808594 36.941406 246.84375 36.640625 246.84375 36.328125 C 246.84375 36 246.8125 35.691406 246.753906 35.398438 C 246.691406 35.105469 246.589844 34.851562 246.441406 34.636719 C 246.292969 34.421875 246.097656 34.25 245.851562 34.121094 C 245.609375 33.992188 245.300781 33.929688 244.921875 33.929688 C 244.554688 33.929688 244.246094 33.996094 244 34.128906 C 243.75 34.261719 243.550781 34.4375 243.398438 34.660156 C 243.246094 34.886719 243.140625 35.144531 243.074219 35.433594 C 243.011719 35.726562 242.980469 36.039062 242.980469 36.367188 Z M 249.808594 40.179688 C 249.808594 39.996094 249.820312 39.804688 249.84375 39.597656 C 249.867188 39.394531 249.917969 39.207031 249.992188 39.035156 C 250.070312 38.863281 250.175781 38.71875 250.3125 38.601562 C 250.449219 38.488281 250.628906 38.429688 250.851562 38.429688 C 251.082031 38.429688 251.265625 38.488281 251.398438 38.601562 C 251.53125 38.71875 251.632812 38.863281 251.703125 39.035156 C 251.773438 39.207031 251.820312 39.394531 251.839844 39.597656 C 251.859375 39.804688 251.871094 39.992188 251.871094 40.167969 C 251.871094 40.351562 251.859375 40.550781 251.835938 40.757812 C 251.8125 40.964844 251.761719 41.15625 251.683594 41.328125 C 251.609375 41.5 251.503906 41.640625 251.367188 41.753906 C 251.230469 41.867188 251.046875 41.921875 250.816406 41.921875 C 250.589844 41.921875 250.414062 41.863281 250.28125 41.746094 C 250.148438 41.632812 250.046875 41.488281 249.976562 41.316406 C 249.902344 41.144531 249.855469 40.957031 249.835938 40.75 C 249.816406 40.546875 249.808594 40.359375 249.808594 40.179688 Z M 248.90625 40.207031 C 248.90625 40.535156 248.941406 40.839844 249.007812 41.128906 C 249.078125 41.417969 249.1875 41.667969 249.339844 41.878906 C 249.492188 42.089844 249.691406 42.257812 249.9375 42.382812 C 250.1875 42.507812 250.492188 42.570312 250.851562 42.570312 C 251.203125 42.570312 251.5 42.503906 251.738281 42.371094 C 251.980469 42.238281 252.175781 42.0625 252.332031 41.84375 C 252.488281 41.625 252.601562 41.367188 252.667969 41.074219 C 252.738281 40.78125 252.769531 40.480469 252.769531 40.167969 C 252.769531 39.839844 252.742188 39.53125 252.679688 39.238281 C 252.621094 38.945312 252.515625 38.695312 252.367188 38.476562 C 252.21875 38.261719 252.023438 38.089844 251.78125 37.960938 C 251.535156 37.832031 251.226562 37.769531 250.851562 37.769531 C 250.484375 37.769531 250.175781 37.835938 249.925781 37.96875 C 249.679688 38.101562 249.480469 38.277344 249.328125 38.5 C 249.175781 38.726562 249.066406 38.984375 249.003906 39.277344 C 248.9375 39.566406 248.90625 39.878906 248.90625 40.207031 Z M 250.585938 33.773438 L 244.132812 42.691406 L 245.164062 42.691406 L 251.605469 33.773438 Z M 253.765625 44.800781 L 254.535156 44.800781 C 255.160156 43.976562 255.628906 43.085938 255.945312 42.132812 C 256.261719 41.175781 256.417969 40.226562 256.417969 39.28125 C 256.417969 38.753906 256.375 38.25 256.285156 37.769531 C 256.199219 37.289062 256.074219 36.820312 255.910156 36.359375 C 255.746094 35.898438 255.546875 35.449219 255.316406 35.003906 C 255.082031 34.558594 254.824219 34.113281 254.535156 33.664062 L 253.765625 33.664062 C 254.328125 34.585938 254.730469 35.5 254.972656 36.40625 C 255.21875 37.316406 255.339844 38.273438 255.339844 39.28125 C 255.339844 40.257812 255.21875 41.195312 254.980469 42.09375 C 254.738281 42.996094 254.335938 43.898438 253.765625 44.800781 Z M 189.015625 31.011719 "/>
<path fill-rule="nonzero" fill="rgb(96.862745%, 67.843137%, 0%)" fill-opacity="1" stroke-width="2" stroke-linecap="butt" stroke-linejoin="bevel" stroke="rgb(100%, 100%, 100%)" stroke-opacity="1" stroke-miterlimit="10" d="M 200 55 C 266.78125 55 327.523438 93.652344 355.808594 154.148438 C 384.09375 214.644531 374.808594 286.042969 331.988281 337.285156 C 289.167969 388.53125 220.558594 410.359375 156 393.277344 C 91.441406 376.191406 42.605469 323.285156 30.738281 257.566406 L 115.367188 242.285156 C 121.304688 275.144531 145.71875 301.597656 178 310.136719 C 210.277344 318.679688 244.585938 307.765625 265.992188 282.144531 C 287.402344 256.519531 292.046875 220.820312 277.90625 190.574219 C 263.761719 160.328125 233.390625 141 200 141 Z M 200 55 "/>
<path fill-rule="nonzero" fill="rgb(47.058824%, 72.156863%, 70.980392%)" fill-opacity="1" stroke-width="2" stroke-linecap="butt" stroke-linejoin="bevel" stroke="rgb(100%, 100%, 100%)" stroke-opacity="1" stroke-miterlimit="10" d="M 30.738281 257.566406 C 16.546875 178.996094 58.292969 100.992188 131.535156 69.210938 L 165.769531 148.105469 C 129.148438 163.996094 108.273438 203 115.367188 242.285156 Z M 30.738281 257.566406 "/>
<path fill-rule="nonzero" fill="rgb(90.980392%, 33.333333%, 37.254902%)" fill-opacity="1" stroke-width="2" stroke-linecap="butt" stroke-linejoin="bevel" stroke="rgb(100%, 100%, 100%)" stroke-opacity="1" stroke-miterlimit="10" d="M 131.535156 69.210938 C 153.144531 59.835938 176.445312 55 200 55 L 200 141 C 188.222656 141 176.570312 143.417969 165.769531 148.105469 Z M 131.535156 69.210938 "/>
</svg>
