<?xml version="1.0" encoding="UTF-8"?>
<svg xmlns="http://www.w3.org/2000/svg" xmlns:xlink="http://www.w3.org/1999/xlink" width="400" height="400" viewBox="0 0 400 400">
<path fill-rule="nonzero" fill="rgb(96.862745%, 67.843137%, 0%)" fill-opacity="1" stroke-width="2" stroke-linecap="butt" stroke-linejoin="miter" stroke="rgb(100%, 100%, 100%)" stroke-opacity="1" stroke-miterlimit="10" d="M 55.410156 10 L 95.410156 10 L 95.410156 22 L 55.410156 22 Z M 55.410156 10 "/>
<path fill-rule="nonzero" fill="rgb(40%, 40%, 40%)" fill-opacity="1" d="M 106.703125 18.300781 L 106.703125 11.871094 L 105.5625 11.871094 L 105.5625 18.132812 C 105.5625 18.605469 105.464844 18.980469 105.269531 19.261719 C 105.074219 19.542969 104.714844 19.679688 104.195312 19.679688 C 103.914062 19.679688 103.683594 19.640625 103.503906 19.554688 C 103.324219 19.472656 103.183594 19.351562 103.085938 19.203125 C 102.984375 19.050781 102.914062 18.871094 102.875 18.660156 C 102.835938 18.453125 102.8125 18.226562 102.8125 17.976562 L 102.8125 17.617188 L 101.675781 17.617188 L 101.675781 18.144531 C 101.675781 18.960938 101.890625 19.578125 102.320312 20 C 102.753906 20.417969 103.371094 20.628906 104.171875 20.628906 C 104.652344 20.628906 105.050781 20.5625 105.375 20.429688 C 105.699219 20.300781 105.960938 20.125 106.15625 19.902344 C 106.351562 19.683594 106.492188 19.433594 106.574219 19.152344 C 106.660156 18.875 106.703125 18.589844 106.703125 18.300781 Z M 113.902344 20.414062 C 113.726562 20.519531 113.480469 20.570312 113.167969 20.570312 C 112.90625 20.570312 112.695312 20.496094 112.539062 20.347656 C 112.382812 20.199219 112.304688 19.957031 112.304688 19.621094 C 112.023438 19.957031 111.699219 20.199219 111.328125 20.347656 C 110.957031 20.496094 110.550781 20.570312 110.121094 20.570312 C 109.839844 20.570312 109.574219 20.539062 109.324219 20.472656 C 109.070312 20.410156 108.851562 20.308594 108.667969 20.171875 C 108.484375 20.035156 108.339844 19.859375 108.230469 19.640625 C 108.121094 19.417969 108.070312 19.152344 108.070312 18.839844 C 108.070312 18.488281 108.128906 18.203125 108.25 17.976562 C 108.371094 17.753906 108.527344 17.570312 108.722656 17.429688 C 108.917969 17.289062 109.144531 17.183594 109.394531 17.113281 C 109.648438 17.042969 109.90625 16.980469 110.167969 16.933594 C 110.449219 16.878906 110.714844 16.835938 110.964844 16.808594 C 111.21875 16.78125 111.441406 16.738281 111.632812 16.6875 C 111.824219 16.636719 111.976562 16.558594 112.089844 16.460938 C 112.199219 16.359375 112.257812 16.214844 112.257812 16.023438 C 112.257812 15.796875 112.214844 15.617188 112.128906 15.480469 C 112.046875 15.34375 111.9375 15.242188 111.808594 15.167969 C 111.675781 15.097656 111.527344 15.050781 111.363281 15.027344 C 111.199219 15.003906 111.035156 14.988281 110.875 14.988281 C 110.445312 14.988281 110.085938 15.070312 109.796875 15.234375 C 109.507812 15.398438 109.351562 15.710938 109.328125 16.164062 L 108.308594 16.164062 C 108.324219 15.78125 108.40625 15.457031 108.546875 15.195312 C 108.691406 14.929688 108.882812 14.714844 109.125 14.550781 C 109.363281 14.386719 109.640625 14.269531 109.945312 14.199219 C 110.253906 14.125 110.585938 14.089844 110.9375 14.089844 C 111.21875 14.089844 111.496094 14.109375 111.769531 14.148438 C 112.046875 14.1875 112.296875 14.273438 112.519531 14.394531 C 112.746094 14.519531 112.925781 14.695312 113.0625 14.917969 C 113.199219 15.140625 113.265625 15.433594 113.265625 15.792969 L 113.265625 18.984375 C 113.265625 19.226562 113.277344 19.402344 113.308594 19.511719 C 113.335938 19.625 113.429688 19.679688 113.589844 19.679688 C 113.675781 19.679688 113.78125 19.660156 113.902344 19.621094 Z M 112.246094 17.234375 C 112.117188 17.328125 111.949219 17.398438 111.742188 17.445312 C 111.535156 17.488281 111.316406 17.523438 111.085938 17.550781 C 110.859375 17.578125 110.628906 17.613281 110.398438 17.648438 C 110.164062 17.683594 109.957031 17.742188 109.773438 17.820312 C 109.589844 17.902344 109.4375 18.015625 109.324219 18.164062 C 109.207031 18.3125 109.148438 18.511719 109.148438 18.769531 C 109.148438 18.9375 109.183594 19.078125 109.25 19.195312 C 109.320312 19.3125 109.40625 19.40625 109.515625 19.476562 C 109.621094 19.550781 109.75 19.601562 109.894531 19.632812 C 110.039062 19.664062 110.1875 19.679688 110.347656 19.679688 C 110.683594 19.679688 110.972656 19.636719 111.210938 19.542969 C 111.453125 19.453125 111.648438 19.335938 111.800781 19.195312 C 111.953125 19.054688 112.066406 18.902344 112.136719 18.738281 C 112.207031 18.574219 112.246094 18.421875 112.246094 18.277344 Z M 117.644531 20.4375 L 119.914062 14.234375 L 118.847656 14.234375 L 117.152344 19.40625 L 117.128906 19.40625 L 115.390625 14.234375 L 114.25 14.234375 L 116.554688 20.4375 Z M 126.347656 20.414062 C 126.171875 20.519531 125.925781 20.570312 125.613281 20.570312 C 125.351562 20.570312 125.140625 20.496094 124.984375 20.347656 C 124.828125 20.199219 124.75 19.957031 124.75 19.621094 C 124.46875 19.957031 124.144531 20.199219 123.773438 20.347656 C 123.402344 20.496094 122.996094 20.570312 122.566406 20.570312 C 122.285156 20.570312 122.019531 20.539062 121.769531 20.472656 C 121.515625 20.410156 121.296875 20.308594 121.113281 20.171875 C 120.929688 20.035156 120.785156 19.859375 120.675781 19.640625 C 120.566406 19.417969 120.515625 19.152344 120.515625 18.839844 C 120.515625 18.488281 120.574219 18.203125 120.695312 17.976562 C 120.816406 17.753906 120.972656 17.570312 121.167969 17.429688 C 121.363281 17.289062 121.589844 17.183594 121.839844 17.113281 C 122.09375 17.042969 122.351562 16.980469 122.613281 16.933594 C 122.894531 16.878906 123.160156 16.835938 123.410156 16.808594 C 123.664062 16.78125 123.886719 16.738281 124.078125 16.6875 C 124.269531 16.636719 124.421875 16.558594 124.535156 16.460938 C 124.644531 16.359375 124.703125 16.214844 124.703125 16.023438 C 124.703125 15.796875 124.660156 15.617188 124.574219 15.480469 C 124.492188 15.34375 124.382812 15.242188 124.253906 15.167969 C 124.121094 15.097656 123.972656 15.050781 123.808594 15.027344 C 123.644531 15.003906 123.480469 14.988281 123.320312 14.988281 C 122.890625 14.988281 122.53125 15.070312 122.242188 15.234375 C 121.953125 15.398438 121.796875 15.710938 121.773438 16.164062 L 120.753906 16.164062 C 120.769531 15.78125 120.851562 15.457031 120.992188 15.195312 C 121.136719 14.929688 121.328125 14.714844 121.570312 14.550781 C 121.808594 14.386719 122.085938 14.269531 122.390625 14.199219 C 122.699219 14.125 123.03125 14.089844 123.382812 14.089844 C 123.664062 14.089844 123.941406 14.109375 124.214844 14.148438 C 124.492188 14.1875 124.742188 14.273438 124.964844 14.394531 C 125.191406 14.519531 125.371094 14.695312 125.507812 14.917969 C 125.644531 15.140625 125.710938 15.433594 125.710938 15.792969 L 125.710938 18.984375 C 125.710938 19.226562 125.722656 19.402344 125.753906 19.511719 C 125.78125 19.625 125.875 19.679688 126.035156 19.679688 C 126.121094 19.679688 126.226562 19.660156 126.347656 19.621094 Z M 124.691406 17.234375 C 124.5625 17.328125 124.394531 17.398438 124.1875 17.445312 C 123.980469 17.488281 123.761719 17.523438 123.53125 17.550781 C 123.304688 17.578125 123.074219 17.613281 122.84375 17.648438 C 122.609375 17.683594 122.402344 17.742188 122.21875 17.820312 C 122.035156 17.902344 121.882812 18.015625 121.769531 18.164062 C 121.652344 18.3125 121.59375 18.511719 121.59375 18.769531 C 121.59375 18.9375 121.628906 19.078125 121.695312 19.195312 C 121.765625 19.3125 121.851562 19.40625 121.960938 19.476562 C 122.066406 19.550781 122.195312 19.601562 122.339844 19.632812 C 122.484375 19.664062 122.632812 19.679688 122.792969 19.679688 C 123.128906 19.679688 123.417969 19.636719 123.65625 19.542969 C 123.898438 19.453125 124.09375 19.335938 124.246094 19.195312 C 124.398438 19.054688 124.511719 18.902344 124.582031 18.738281 C 124.652344 18.574219 124.691406 18.421875 124.691406 18.277344 Z M 132.417969 14.378906 L 133.5 14.378906 C 133.484375 13.90625 133.394531 13.5 133.230469 13.160156 C 133.066406 12.820312 132.839844 12.539062 132.558594 12.3125 C 132.273438 12.089844 131.941406 11.925781 131.566406 11.820312 C 131.191406 11.71875 130.785156 11.664062 130.34375 11.664062 C 129.953125 11.664062 129.570312 11.714844 129.199219 11.816406 C 128.824219 11.914062 128.492188 12.066406 128.203125 12.273438 C 127.910156 12.476562 127.675781 12.734375 127.5 13.050781 C 127.324219 13.367188 127.234375 13.742188 127.234375 14.171875 C 127.234375 14.566406 127.3125 14.890625 127.46875 15.152344 C 127.625 15.410156 127.832031 15.625 128.09375 15.789062 C 128.351562 15.953125 128.648438 16.082031 128.976562 16.183594 C 129.304688 16.285156 129.636719 16.371094 129.976562 16.449219 C 130.316406 16.523438 130.652344 16.597656 130.980469 16.667969 C 131.308594 16.742188 131.601562 16.835938 131.863281 16.953125 C 132.121094 17.066406 132.328125 17.21875 132.484375 17.402344 C 132.640625 17.585938 132.71875 17.824219 132.71875 18.121094 C 132.71875 18.433594 132.65625 18.691406 132.527344 18.890625 C 132.398438 19.089844 132.230469 19.246094 132.023438 19.363281 C 131.816406 19.480469 131.582031 19.5625 131.320312 19.609375 C 131.0625 19.65625 130.804688 19.679688 130.546875 19.679688 C 130.226562 19.679688 129.914062 19.640625 129.613281 19.5625 C 129.308594 19.480469 129.042969 19.359375 128.8125 19.191406 C 128.585938 19.023438 128.402344 18.808594 128.261719 18.546875 C 128.121094 18.289062 128.050781 17.976562 128.050781 17.617188 L 126.972656 17.617188 C 126.972656 18.136719 127.066406 18.585938 127.253906 18.96875 C 127.441406 19.347656 127.699219 19.660156 128.019531 19.902344 C 128.34375 20.148438 128.722656 20.328125 129.148438 20.449219 C 129.578125 20.570312 130.03125 20.628906 130.511719 20.628906 C 130.902344 20.628906 131.296875 20.582031 131.691406 20.492188 C 132.089844 20.398438 132.449219 20.25 132.765625 20.046875 C 133.085938 19.84375 133.347656 19.578125 133.554688 19.253906 C 133.757812 18.929688 133.859375 18.542969 133.859375 18.085938 C 133.859375 17.660156 133.78125 17.308594 133.625 17.03125 C 133.46875 16.75 133.261719 16.515625 133 16.332031 C 132.742188 16.148438 132.449219 16.003906 132.121094 15.894531 C 131.792969 15.789062 131.457031 15.695312 131.117188 15.613281 C 130.777344 15.535156 130.441406 15.460938 130.117188 15.390625 C 129.789062 15.324219 129.492188 15.238281 129.234375 15.132812 C 128.972656 15.027344 128.765625 14.894531 128.609375 14.730469 C 128.453125 14.566406 128.375 14.351562 128.375 14.089844 C 128.375 13.808594 128.429688 13.574219 128.539062 13.386719 C 128.644531 13.199219 128.789062 13.050781 128.96875 12.9375 C 129.148438 12.824219 129.355469 12.746094 129.585938 12.699219 C 129.820312 12.648438 130.054688 12.625 130.296875 12.625 C 130.886719 12.625 131.375 12.761719 131.753906 13.039062 C 132.132812 13.316406 132.355469 13.761719 132.417969 14.378906 Z M 139.285156 16.226562 L 140.339844 16.226562 C 140.300781 15.859375 140.203125 15.539062 140.050781 15.273438 C 139.898438 15.003906 139.707031 14.78125 139.46875 14.605469 C 139.234375 14.429688 138.960938 14.300781 138.65625 14.214844 C 138.347656 14.132812 138.015625 14.089844 137.664062 14.089844 C 137.175781 14.089844 136.75 14.175781 136.378906 14.347656 C 136.011719 14.519531 135.707031 14.753906 135.460938 15.054688 C 135.21875 15.355469 135.035156 15.707031 134.917969 16.113281 C 134.796875 16.515625 134.738281 16.949219 134.738281 17.414062 C 134.738281 17.878906 134.796875 18.304688 134.921875 18.691406 C 135.046875 19.078125 135.230469 19.414062 135.476562 19.695312 C 135.71875 19.972656 136.023438 20.191406 136.386719 20.339844 C 136.75 20.492188 137.167969 20.570312 137.640625 20.570312 C 138.433594 20.570312 139.058594 20.363281 139.519531 19.945312 C 139.980469 19.53125 140.265625 18.9375 140.375 18.167969 L 139.332031 18.167969 C 139.269531 18.648438 139.09375 19.023438 138.8125 19.285156 C 138.527344 19.550781 138.132812 19.679688 137.628906 19.679688 C 137.308594 19.679688 137.03125 19.617188 136.800781 19.488281 C 136.570312 19.359375 136.378906 19.191406 136.238281 18.980469 C 136.09375 18.769531 135.988281 18.527344 135.917969 18.253906 C 135.851562 17.980469 135.816406 17.703125 135.816406 17.414062 C 135.816406 17.101562 135.847656 16.800781 135.914062 16.507812 C 135.976562 16.214844 136.082031 15.957031 136.230469 15.734375 C 136.378906 15.511719 136.578125 15.328125 136.824219 15.195312 C 137.074219 15.058594 137.378906 14.988281 137.75 14.988281 C 138.179688 14.988281 138.523438 15.097656 138.78125 15.3125 C 139.035156 15.527344 139.203125 15.832031 139.285156 16.226562 Z M 141.476562 14.234375 L 141.476562 20.4375 L 142.5 20.4375 L 142.5 17.675781 C 142.5 17.277344 142.539062 16.921875 142.617188 16.617188 C 142.699219 16.308594 142.824219 16.046875 143.003906 15.828125 C 143.179688 15.613281 143.410156 15.449219 143.699219 15.335938 C 143.988281 15.226562 144.335938 15.167969 144.742188 15.167969 L 144.742188 14.089844 C 144.191406 14.074219 143.734375 14.183594 143.375 14.425781 C 143.015625 14.664062 142.710938 15.039062 142.460938 15.542969 L 142.4375 15.542969 L 142.4375 14.234375 Z M 146.589844 13.117188 L 146.589844 11.871094 L 145.570312 11.871094 L 145.570312 13.117188 Z M 145.570312 14.234375 L 145.570312 20.4375 L 146.589844 20.4375 L 146.589844 14.234375 Z M 148.210938 14.234375 L 148.210938 22.800781 L 149.230469 22.800781 L 149.230469 19.609375 L 149.253906 19.609375 C 149.367188 19.792969 149.503906 19.949219 149.667969 20.070312 C 149.832031 20.195312 150.007812 20.292969 150.191406 20.367188 C 150.375 20.4375 150.558594 20.488281 150.75 20.523438 C 150.9375 20.554688 151.105469 20.570312 151.257812 20.570312 C 151.730469 20.570312 152.144531 20.484375 152.5 20.316406 C 152.855469 20.148438 153.152344 19.917969 153.386719 19.628906 C 153.625 19.335938 153.800781 18.992188 153.917969 18.601562 C 154.03125 18.210938 154.089844 17.792969 154.089844 17.351562 C 154.089844 16.914062 154.03125 16.496094 153.910156 16.105469 C 153.789062 15.714844 153.613281 15.367188 153.375 15.066406 C 153.140625 14.765625 152.84375 14.53125 152.488281 14.351562 C 152.132812 14.175781 151.714844 14.089844 151.234375 14.089844 C 150.800781 14.089844 150.40625 14.167969 150.046875 14.324219 C 149.6875 14.480469 149.421875 14.730469 149.253906 15.074219 L 149.230469 15.074219 L 149.230469 14.234375 Z M 153.011719 17.28125 C 153.011719 17.585938 152.976562 17.882812 152.914062 18.167969 C 152.851562 18.457031 152.746094 18.714844 152.601562 18.9375 C 152.457031 19.160156 152.269531 19.339844 152.03125 19.476562 C 151.796875 19.613281 151.503906 19.679688 151.148438 19.679688 C 150.796875 19.679688 150.5 19.617188 150.25 19.484375 C 150.003906 19.351562 149.800781 19.175781 149.644531 18.960938 C 149.488281 18.746094 149.375 18.496094 149.300781 18.210938 C 149.230469 17.925781 149.195312 17.632812 149.195312 17.328125 C 149.195312 17.042969 149.226562 16.757812 149.296875 16.476562 C 149.363281 16.195312 149.472656 15.949219 149.625 15.726562 C 149.777344 15.507812 149.972656 15.328125 150.214844 15.195312 C 150.453125 15.058594 150.746094 14.988281 151.089844 14.988281 C 151.417969 14.988281 151.703125 15.054688 151.949219 15.179688 C 152.191406 15.308594 152.390625 15.480469 152.546875 15.699219 C 152.703125 15.914062 152.820312 16.160156 152.894531 16.433594 C 152.972656 16.710938 153.011719 16.992188 153.011719 17.28125 Z M 156.707031 14.234375 L 156.707031 12.375 L 155.6875 12.375 L 155.6875 14.234375 L 154.632812 14.234375 L 154.632812 15.132812 L 155.6875 15.132812 L 155.6875 19.082031 C 155.6875 19.371094 155.714844 19.601562 155.769531 19.777344 C 155.828125 19.953125 155.914062 20.089844 156.03125 20.183594 C 156.144531 20.28125 156.296875 20.347656 156.484375 20.382812 C 156.671875 20.417969 156.898438 20.4375 157.164062 20.4375 L 157.945312 20.4375 L 157.945312 19.539062 L 157.476562 19.539062 C 157.316406 19.539062 157.183594 19.53125 157.085938 19.519531 C 156.984375 19.507812 156.90625 19.480469 156.851562 19.441406 C 156.796875 19.402344 156.757812 19.34375 156.738281 19.273438 C 156.71875 19.203125 156.707031 19.105469 156.707031 18.984375 L 156.707031 15.132812 L 157.945312 15.132812 L 157.945312 14.234375 Z M 164.089844 22.800781 L 164.867188 22.800781 C 164.300781 21.882812 163.894531 20.96875 163.652344 20.066406 C 163.40625 19.160156 163.285156 18.207031 163.285156 17.199219 C 163.285156 16.214844 163.40625 15.273438 163.644531 14.378906 C 163.882812 13.480469 164.292969 12.578125 164.867188 11.664062 L 164.089844 11.664062 C 163.464844 12.488281 162.996094 13.382812 162.679688 14.339844 C 162.363281 15.300781 162.203125 16.253906 162.203125 17.199219 C 162.203125 17.726562 162.25 18.230469 162.335938 18.710938 C 162.425781 19.191406 162.550781 19.65625 162.714844 20.113281 C 162.878906 20.570312 163.078125 21.019531 163.308594 21.464844 C 163.539062 21.90625 163.800781 22.351562 164.089844 22.800781 Z M 166.359375 18.386719 L 165.339844 18.386719 C 165.402344 19.121094 165.671875 19.667969 166.140625 20.03125 C 166.613281 20.390625 167.207031 20.570312 167.917969 20.570312 C 168.949219 20.570312 169.699219 20.175781 170.167969 19.386719 C 170.636719 18.597656 170.871094 17.46875 170.871094 15.996094 C 170.871094 15.1875 170.792969 14.523438 170.636719 14 C 170.480469 13.476562 170.269531 13.0625 170.007812 12.757812 C 169.742188 12.453125 169.433594 12.238281 169.082031 12.117188 C 168.730469 11.992188 168.355469 11.929688 167.953125 11.929688 C 167.546875 11.929688 167.171875 11.996094 166.824219 12.132812 C 166.480469 12.269531 166.1875 12.460938 165.9375 12.703125 C 165.691406 12.949219 165.496094 13.238281 165.363281 13.578125 C 165.226562 13.917969 165.15625 14.292969 165.15625 14.703125 C 165.15625 15.117188 165.214844 15.5 165.332031 15.851562 C 165.449219 16.203125 165.621094 16.503906 165.847656 16.753906 C 166.074219 17 166.359375 17.195312 166.695312 17.335938 C 167.03125 17.476562 167.414062 17.546875 167.847656 17.546875 C 168.261719 17.546875 168.644531 17.441406 168.996094 17.226562 C 169.347656 17.015625 169.621094 16.730469 169.8125 16.371094 L 169.839844 16.394531 C 169.804688 17.503906 169.632812 18.332031 169.320312 18.871094 C 169.007812 19.410156 168.542969 19.679688 167.917969 19.679688 C 167.511719 19.679688 167.15625 19.570312 166.863281 19.34375 C 166.566406 19.121094 166.398438 18.800781 166.359375 18.386719 Z M 169.65625 14.773438 C 169.65625 15.019531 169.617188 15.257812 169.539062 15.488281 C 169.457031 15.714844 169.34375 15.914062 169.191406 16.085938 C 169.039062 16.257812 168.855469 16.394531 168.636719 16.496094 C 168.421875 16.59375 168.183594 16.644531 167.917969 16.644531 C 167.671875 16.644531 167.445312 16.59375 167.238281 16.496094 C 167.035156 16.394531 166.859375 16.261719 166.710938 16.09375 C 166.5625 15.925781 166.449219 15.734375 166.363281 15.515625 C 166.28125 15.300781 166.238281 15.078125 166.238281 14.84375 C 166.238281 14.582031 166.269531 14.328125 166.328125 14.089844 C 166.386719 13.851562 166.484375 13.636719 166.617188 13.449219 C 166.75 13.261719 166.921875 13.109375 167.132812 12.996094 C 167.34375 12.886719 167.601562 12.828125 167.90625 12.828125 C 168.195312 12.828125 168.445312 12.882812 168.660156 12.984375 C 168.878906 13.089844 169.058594 13.230469 169.207031 13.410156 C 169.355469 13.589844 169.46875 13.796875 169.542969 14.03125 C 169.621094 14.261719 169.65625 14.507812 169.65625 14.773438 Z M 173.28125 14.136719 C 173.28125 13.921875 173.320312 13.734375 173.402344 13.574219 C 173.480469 13.414062 173.585938 13.277344 173.71875 13.164062 C 173.851562 13.054688 174.011719 12.96875 174.195312 12.914062 C 174.378906 12.859375 174.570312 12.828125 174.769531 12.828125 C 175.1875 12.828125 175.527344 12.941406 175.796875 13.160156 C 176.0625 13.378906 176.199219 13.707031 176.199219 14.136719 C 176.199219 14.570312 176.066406 14.90625 175.800781 15.144531 C 175.539062 15.386719 175.203125 15.503906 174.792969 15.503906 C 174.585938 15.503906 174.390625 15.476562 174.207031 15.421875 C 174.023438 15.367188 173.863281 15.28125 173.726562 15.167969 C 173.589844 15.058594 173.480469 14.914062 173.402344 14.742188 C 173.320312 14.570312 173.28125 14.371094 173.28125 14.136719 Z M 172.203125 14.101562 C 172.203125 14.484375 172.308594 14.839844 172.527344 15.164062 C 172.742188 15.488281 173.03125 15.722656 173.390625 15.867188 C 172.910156 16.035156 172.542969 16.304688 172.285156 16.675781 C 172.03125 17.046875 171.902344 17.484375 171.902344 17.988281 C 171.902344 18.421875 171.976562 18.800781 172.125 19.125 C 172.273438 19.449219 172.476562 19.71875 172.734375 19.933594 C 172.996094 20.148438 173.300781 20.308594 173.652344 20.414062 C 174.003906 20.519531 174.386719 20.570312 174.792969 20.570312 C 175.1875 20.570312 175.554688 20.511719 175.898438 20.402344 C 176.242188 20.289062 176.539062 20.125 176.792969 19.902344 C 177.042969 19.683594 177.242188 19.414062 177.390625 19.09375 C 177.539062 18.773438 177.613281 18.40625 177.613281 17.988281 C 177.613281 17.460938 177.488281 17.015625 177.242188 16.652344 C 176.992188 16.289062 176.613281 16.027344 176.101562 15.867188 C 176.460938 15.707031 176.746094 15.46875 176.960938 15.152344 C 177.171875 14.835938 177.277344 14.484375 177.277344 14.101562 C 177.277344 13.828125 177.230469 13.5625 177.132812 13.304688 C 177.039062 13.042969 176.886719 12.8125 176.683594 12.609375 C 176.480469 12.402344 176.214844 12.238281 175.886719 12.117188 C 175.558594 11.992188 175.160156 11.929688 174.699219 11.929688 C 174.371094 11.929688 174.054688 11.976562 173.757812 12.074219 C 173.457031 12.167969 173.191406 12.308594 172.957031 12.492188 C 172.726562 12.675781 172.542969 12.902344 172.40625 13.171875 C 172.269531 13.441406 172.203125 13.75 172.203125 14.101562 Z M 172.980469 18.039062 C 172.980469 17.789062 173.027344 17.566406 173.121094 17.367188 C 173.210938 17.167969 173.339844 16.992188 173.503906 16.847656 C 173.667969 16.703125 173.859375 16.59375 174.078125 16.519531 C 174.300781 16.445312 174.535156 16.40625 174.78125 16.40625 C 175.023438 16.40625 175.246094 16.449219 175.460938 16.53125 C 175.671875 16.617188 175.859375 16.730469 176.019531 16.875 C 176.179688 17.019531 176.304688 17.1875 176.394531 17.382812 C 176.488281 17.578125 176.535156 17.792969 176.535156 18.027344 C 176.535156 18.265625 176.492188 18.484375 176.40625 18.683594 C 176.324219 18.886719 176.203125 19.058594 176.046875 19.207031 C 175.890625 19.355469 175.707031 19.472656 175.496094 19.554688 C 175.285156 19.640625 175.050781 19.679688 174.792969 19.679688 C 174.265625 19.679688 173.832031 19.535156 173.492188 19.242188 C 173.152344 18.949219 172.980469 18.550781 172.980469 18.039062 Z M 179.089844 19.105469 L 179.089844 20.4375 L 180.421875 20.4375 L 180.421875 19.105469 Z M 183.015625 16.25 C 183.015625 16.042969 183.015625 15.8125 183.019531 15.558594 C 183.023438 15.308594 183.042969 15.054688 183.078125 14.804688 C 183.113281 14.550781 183.167969 14.304688 183.234375 14.066406 C 183.304688 13.824219 183.402344 13.617188 183.535156 13.433594 C 183.667969 13.253906 183.832031 13.109375 184.035156 12.996094 C 184.234375 12.886719 184.476562 12.828125 184.765625 12.828125 C 185.054688 12.828125 185.296875 12.886719 185.496094 12.996094 C 185.695312 13.109375 185.863281 13.253906 185.996094 13.433594 C 186.128906 13.613281 186.226562 13.824219 186.296875 14.066406 C 186.363281 14.304688 186.414062 14.550781 186.453125 14.804688 C 186.488281 15.054688 186.507812 15.308594 186.511719 15.558594 C 186.515625 15.8125 186.519531 16.042969 186.519531 16.25 C 186.519531 16.570312 186.507812 16.925781 186.488281 17.324219 C 186.46875 17.71875 186.402344 18.089844 186.296875 18.441406 C 186.1875 18.789062 186.015625 19.082031 185.773438 19.320312 C 185.535156 19.5625 185.199219 19.679688 184.765625 19.679688 C 184.332031 19.679688 183.996094 19.5625 183.757812 19.320312 C 183.519531 19.082031 183.34375 18.789062 183.234375 18.441406 C 183.128906 18.09375 183.0625 17.71875 183.042969 17.324219 C 183.023438 16.929688 183.015625 16.570312 183.015625 16.25 Z M 181.933594 16.261719 C 181.933594 16.574219 181.941406 16.898438 181.957031 17.234375 C 181.972656 17.570312 182.015625 17.898438 182.078125 18.21875 C 182.140625 18.539062 182.234375 18.839844 182.355469 19.125 C 182.472656 19.40625 182.636719 19.65625 182.84375 19.875 C 183.054688 20.089844 183.316406 20.257812 183.632812 20.382812 C 183.949219 20.507812 184.324219 20.570312 184.765625 20.570312 C 185.214844 20.570312 185.59375 20.507812 185.90625 20.382812 C 186.21875 20.257812 186.476562 20.089844 186.6875 19.875 C 186.894531 19.65625 187.058594 19.40625 187.175781 19.125 C 187.296875 18.839844 187.390625 18.539062 187.453125 18.21875 C 187.515625 17.898438 187.558594 17.570312 187.574219 17.234375 C 187.589844 16.898438 187.597656 16.574219 187.597656 16.261719 C 187.597656 15.949219 187.589844 15.625 187.574219 15.289062 C 187.558594 14.953125 187.519531 14.625 187.453125 14.304688 C 187.390625 13.984375 187.296875 13.679688 187.175781 13.394531 C 187.058594 13.105469 186.894531 12.851562 186.6875 12.636719 C 186.476562 12.421875 186.214844 12.25 185.898438 12.121094 C 185.582031 11.992188 185.207031 11.929688 184.765625 11.929688 C 184.324219 11.929688 183.949219 11.992188 183.632812 12.121094 C 183.316406 12.25 183.054688 12.421875 182.84375 12.636719 C 182.636719 12.851562 182.472656 13.105469 182.355469 13.394531 C 182.234375 13.683594 182.140625 13.984375 182.078125 14.304688 C 182.015625 14.625 181.972656 14.953125 181.957031 15.289062 C 181.941406 15.625 181.933594 15.949219 181.933594 16.261719 Z M 192.375 20.4375 L 192.375 11.929688 L 191.59375 11.929688 C 191.539062 12.25 191.433594 12.511719 191.28125 12.722656 C 191.128906 12.929688 190.945312 13.09375 190.722656 13.214844 C 190.503906 13.332031 190.257812 13.414062 189.984375 13.460938 C 189.714844 13.503906 189.433594 13.527344 189.144531 13.527344 L 189.144531 14.339844 L 191.355469 14.339844 L 191.355469 20.4375 Z M 195.542969 11.871094 L 195.542969 20.4375 L 196.5625 20.4375 L 196.5625 16.933594 C 196.5625 16.652344 196.597656 16.394531 196.675781 16.160156 C 196.75 15.921875 196.867188 15.71875 197.015625 15.542969 C 197.167969 15.367188 197.359375 15.230469 197.585938 15.132812 C 197.816406 15.039062 198.085938 14.988281 198.398438 14.988281 C 198.789062 14.988281 199.097656 15.101562 199.320312 15.324219 C 199.546875 15.550781 199.65625 15.851562 199.65625 16.238281 L 199.65625 20.4375 L 200.675781 20.4375 L 200.675781 16.359375 C 200.675781 16.023438 200.644531 15.714844 200.574219 15.441406 C 200.507812 15.164062 200.390625 14.925781 200.222656 14.726562 C 200.054688 14.527344 199.832031 14.371094 199.5625 14.257812 C 199.289062 14.144531 198.949219 14.089844 198.542969 14.089844 C 198.359375 14.089844 198.167969 14.109375 197.972656 14.148438 C 197.777344 14.1875 197.585938 14.25 197.40625 14.335938 C 197.226562 14.417969 197.066406 14.527344 196.921875 14.660156 C 196.777344 14.792969 196.664062 14.953125 196.585938 15.144531 L 196.5625 15.144531 L 196.5625 11.871094 Z M 201.335938 22.800781 L 202.105469 22.800781 C 202.730469 21.976562 203.199219 21.085938 203.515625 20.132812 C 203.832031 19.175781 203.988281 18.226562 203.988281 17.28125 C 203.988281 16.753906 203.945312 16.25 203.855469 15.769531 C 203.769531 15.289062 203.644531 14.820312 203.480469 14.359375 C 203.316406 13.898438 203.117188 13.449219 202.886719 13.003906 C 202.652344 12.558594 202.394531 12.113281 202.105469 11.664062 L 201.335938 11.664062 C 201.898438 12.585938 202.300781 13.5 202.542969 14.40625 C 202.789062 15.316406 202.910156 16.273438 202.910156 17.28125 C 202.910156 18.257812 202.789062 19.195312 202.550781 20.09375 C 202.308594 20.996094 201.90625 21.898438 201.335938 22.800781 Z M 101.410156 9.011719 "/>
<path fill-rule="nonzero" fill="rgb(47.058824%, 72.156863%, 70.980392%)" fill-opacity="1" stroke-width="2" stroke-linecap="butt" stroke-linejoin="miter" stroke="rgb(100%, 100%, 100%)" stroke-opacity="1" stroke-miterlimit="10" d="M 214.554688 10 L 254.554688 10 L 254.554688 22 L 214.554688 22 Z M 214.554688 10 "/>
<path fill-rule="nonzero" fill="rgb(40%, 40%, 40%)" fill-opacity="1" d="M 262.628906 15.972656 L 262.628906 12.828125 L 264.863281 12.828125 C 265.511719 12.828125 265.984375 12.964844 266.285156 13.230469 C 266.585938 13.5 266.734375 13.890625 266.734375 14.402344 C 266.734375 14.914062 266.585938 15.304688 266.285156 15.578125 C 265.984375 15.851562 265.511719 15.980469 264.863281 15.972656 Z M 261.492188 11.871094 L 261.492188 20.4375 L 262.628906 20.4375 L 262.628906 16.933594 L 265.246094 16.933594 C 266.109375 16.941406 266.765625 16.722656 267.207031 16.273438 C 267.652344 15.824219 267.875 15.203125 267.875 14.402344 C 267.875 13.601562 267.652344 12.980469 267.207031 12.535156 C 266.765625 12.089844 266.109375 11.871094 265.246094 11.871094 Z M 271.535156 21.265625 C 271.414062 21.570312 271.296875 21.824219 271.183594 22.035156 C 271.066406 22.242188 270.9375 22.410156 270.796875 22.542969 C 270.65625 22.675781 270.503906 22.773438 270.328125 22.832031 C 270.15625 22.890625 269.960938 22.921875 269.734375 22.921875 C 269.617188 22.921875 269.496094 22.914062 269.375 22.898438 C 269.253906 22.882812 269.140625 22.851562 269.027344 22.8125 L 269.027344 21.878906 C 269.117188 21.917969 269.21875 21.953125 269.335938 21.980469 C 269.449219 22.007812 269.546875 22.023438 269.628906 22.023438 C 269.835938 22.023438 270.011719 21.972656 270.148438 21.871094 C 270.289062 21.769531 270.394531 21.628906 270.46875 21.445312 L 270.886719 20.402344 L 268.429688 14.234375 L 269.578125 14.234375 L 271.390625 19.308594 L 271.417969 19.308594 L 273.15625 14.234375 L 274.234375 14.234375 Z M 276.515625 14.234375 L 276.515625 12.375 L 275.496094 12.375 L 275.496094 14.234375 L 274.441406 14.234375 L 274.441406 15.132812 L 275.496094 15.132812 L 275.496094 19.082031 C 275.496094 19.371094 275.523438 19.601562 275.578125 19.777344 C 275.636719 19.953125 275.722656 20.089844 275.839844 20.183594 C 275.953125 20.28125 276.105469 20.347656 276.292969 20.382812 C 276.480469 20.417969 276.707031 20.4375 276.972656 20.4375 L 277.753906 20.4375 L 277.753906 19.539062 L 277.285156 19.539062 C 277.125 19.539062 276.992188 19.53125 276.894531 19.519531 C 276.792969 19.507812 276.714844 19.480469 276.660156 19.441406 C 276.605469 19.402344 276.566406 19.34375 276.546875 19.273438 C 276.527344 19.203125 276.515625 19.105469 276.515625 18.984375 L 276.515625 15.132812 L 277.753906 15.132812 L 277.753906 14.234375 Z M 278.878906 11.871094 L 278.878906 20.4375 L 279.898438 20.4375 L 279.898438 16.933594 C 279.898438 16.652344 279.933594 16.394531 280.011719 16.160156 C 280.085938 15.921875 280.203125 15.71875 280.351562 15.542969 C 280.503906 15.367188 280.695312 15.230469 280.921875 15.132812 C 281.152344 15.039062 281.421875 14.988281 281.734375 14.988281 C 282.125 14.988281 282.433594 15.101562 282.65625 15.324219 C 282.882812 15.550781 282.992188 15.851562 282.992188 16.238281 L 282.992188 20.4375 L 284.011719 20.4375 L 284.011719 16.359375 C 284.011719 16.023438 283.980469 15.714844 283.910156 15.441406 C 283.84375 15.164062 283.726562 14.925781 283.558594 14.726562 C 283.390625 14.527344 283.167969 14.371094 282.898438 14.257812 C 282.625 14.144531 282.285156 14.089844 281.878906 14.089844 C 281.695312 14.089844 281.503906 14.109375 281.308594 14.148438 C 281.113281 14.1875 280.921875 14.25 280.742188 14.335938 C 280.5625 14.417969 280.402344 14.527344 280.257812 14.660156 C 280.113281 14.792969 280 14.953125 279.921875 15.144531 L 279.898438 15.144531 L 279.898438 11.871094 Z M 286.292969 17.339844 C 286.292969 16.964844 286.34375 16.632812 286.441406 16.339844 C 286.542969 16.046875 286.679688 15.800781 286.855469 15.601562 C 287.03125 15.402344 287.238281 15.25 287.476562 15.144531 C 287.710938 15.042969 287.960938 14.988281 288.226562 14.988281 C 288.488281 14.988281 288.738281 15.042969 288.976562 15.144531 C 289.210938 15.25 289.417969 15.402344 289.59375 15.601562 C 289.769531 15.800781 289.90625 16.046875 290.007812 16.339844 C 290.109375 16.632812 290.15625 16.964844 290.15625 17.339844 C 290.15625 17.71875 290.105469 18.050781 290.007812 18.34375 C 289.90625 18.636719 289.769531 18.878906 289.59375 19.074219 C 289.417969 19.269531 289.210938 19.421875 288.976562 19.527344 C 288.738281 19.628906 288.488281 19.679688 288.226562 19.679688 C 287.960938 19.679688 287.710938 19.628906 287.476562 19.527344 C 287.238281 19.421875 287.035156 19.273438 286.855469 19.074219 C 286.679688 18.878906 286.542969 18.636719 286.441406 18.34375 C 286.34375 18.050781 286.292969 17.71875 286.292969 17.339844 Z M 285.214844 17.339844 C 285.214844 17.796875 285.277344 18.222656 285.40625 18.613281 C 285.535156 19.003906 285.726562 19.347656 285.980469 19.640625 C 286.238281 19.933594 286.554688 20.160156 286.929688 20.324219 C 287.304688 20.488281 287.738281 20.570312 288.226562 20.570312 C 288.722656 20.570312 289.15625 20.488281 289.527344 20.324219 C 289.898438 20.160156 290.214844 19.929688 290.46875 19.640625 C 290.726562 19.347656 290.917969 19.003906 291.046875 18.613281 C 291.171875 18.222656 291.238281 17.796875 291.238281 17.339844 C 291.238281 16.886719 291.171875 16.460938 291.046875 16.0625 C 290.917969 15.667969 290.726562 15.324219 290.46875 15.03125 C 290.214844 14.738281 289.898438 14.507812 289.527344 14.339844 C 289.15625 14.171875 288.722656 14.089844 288.226562 14.089844 C 287.738281 14.089844 287.304688 14.171875 286.929688 14.339844 C 286.554688 14.507812 286.238281 14.738281 285.980469 15.03125 C 285.726562 15.324219 285.535156 15.667969 285.40625 16.0625 C 285.277344 16.460938 285.214844 16.886719 285.214844 17.339844 Z M 292.441406 14.234375 L 292.441406 20.4375 L 293.460938 20.4375 L 293.460938 16.933594 C 293.460938 16.652344 293.496094 16.394531 293.574219 16.160156 C 293.648438 15.921875 293.765625 15.71875 293.914062 15.542969 C 294.066406 15.367188 294.257812 15.230469 294.484375 15.132812 C 294.714844 15.039062 294.984375 14.988281 295.296875 14.988281 C 295.6875 14.988281 295.996094 15.101562 296.21875 15.324219 C 296.445312 15.550781 296.554688 15.851562 296.554688 16.238281 L 296.554688 20.4375 L 297.574219 20.4375 L 297.574219 16.359375 C 297.574219 16.023438 297.542969 15.714844 297.472656 15.441406 C 297.40625 15.164062 297.289062 14.925781 297.121094 14.726562 C 296.953125 14.527344 296.730469 14.371094 296.460938 14.257812 C 296.1875 14.144531 295.847656 14.089844 295.441406 14.089844 C 294.519531 14.089844 293.847656 14.464844 293.425781 15.21875 L 293.398438 15.21875 L 293.398438 14.234375 Z M 304.128906 22.800781 L 304.90625 22.800781 C 304.339844 21.882812 303.933594 20.96875 303.691406 20.066406 C 303.445312 19.160156 303.324219 18.207031 303.324219 17.199219 C 303.324219 16.214844 303.445312 15.273438 303.683594 14.378906 C 303.921875 13.480469 304.332031 12.578125 304.90625 11.664062 L 304.128906 11.664062 C 303.503906 12.488281 303.035156 13.382812 302.71875 14.339844 C 302.402344 15.300781 302.242188 16.253906 302.242188 17.199219 C 302.242188 17.726562 302.289062 18.230469 302.375 18.710938 C 302.464844 19.191406 302.589844 19.65625 302.753906 20.113281 C 302.917969 20.570312 303.117188 21.019531 303.347656 21.464844 C 303.578125 21.90625 303.839844 22.351562 304.128906 22.800781 Z M 305.316406 14.941406 L 306.335938 14.941406 C 306.328125 14.683594 306.355469 14.429688 306.414062 14.179688 C 306.476562 13.925781 306.574219 13.703125 306.710938 13.5 C 306.84375 13.300781 307.019531 13.140625 307.230469 13.015625 C 307.441406 12.890625 307.695312 12.828125 307.992188 12.828125 C 308.214844 12.828125 308.429688 12.867188 308.628906 12.9375 C 308.828125 13.007812 309.003906 13.113281 309.152344 13.25 C 309.300781 13.386719 309.417969 13.546875 309.503906 13.734375 C 309.59375 13.921875 309.636719 14.132812 309.636719 14.367188 C 309.636719 14.660156 309.589844 14.921875 309.5 15.144531 C 309.40625 15.371094 309.269531 15.578125 309.089844 15.769531 C 308.910156 15.960938 308.683594 16.152344 308.414062 16.339844 C 308.140625 16.527344 307.824219 16.734375 307.464844 16.957031 C 307.167969 17.132812 306.886719 17.320312 306.613281 17.523438 C 306.339844 17.722656 306.097656 17.953125 305.882812 18.21875 C 305.664062 18.480469 305.488281 18.792969 305.347656 19.148438 C 305.207031 19.503906 305.117188 19.933594 305.078125 20.4375 L 310.632812 20.4375 L 310.632812 19.539062 L 306.265625 19.539062 C 306.3125 19.273438 306.414062 19.039062 306.570312 18.835938 C 306.726562 18.632812 306.914062 18.441406 307.136719 18.265625 C 307.355469 18.089844 307.597656 17.921875 307.859375 17.765625 C 308.125 17.609375 308.390625 17.453125 308.652344 17.292969 C 308.917969 17.125 309.171875 16.949219 309.421875 16.765625 C 309.667969 16.582031 309.890625 16.375 310.082031 16.148438 C 310.273438 15.917969 310.425781 15.660156 310.542969 15.375 C 310.660156 15.085938 310.71875 14.753906 310.71875 14.378906 C 310.71875 13.976562 310.648438 13.625 310.507812 13.320312 C 310.367188 13.015625 310.175781 12.761719 309.9375 12.558594 C 309.695312 12.355469 309.414062 12.199219 309.089844 12.089844 C 308.765625 11.984375 308.421875 11.929688 308.054688 11.929688 C 307.605469 11.929688 307.203125 12.003906 306.851562 12.15625 C 306.5 12.308594 306.207031 12.519531 305.972656 12.789062 C 305.734375 13.054688 305.5625 13.375 305.449219 13.742188 C 305.335938 14.109375 305.292969 14.507812 305.316406 14.941406 Z M 313.320312 14.136719 C 313.320312 13.921875 313.359375 13.734375 313.441406 13.574219 C 313.519531 13.414062 313.625 13.277344 313.757812 13.164062 C 313.890625 13.054688 314.050781 12.96875 314.234375 12.914062 C 314.417969 12.859375 314.609375 12.828125 314.808594 12.828125 C 315.226562 12.828125 315.566406 12.941406 315.835938 13.160156 C 316.101562 13.378906 316.238281 13.707031 316.238281 14.136719 C 316.238281 14.570312 316.105469 14.90625 315.839844 15.144531 C 315.578125 15.386719 315.242188 15.503906 314.832031 15.503906 C 314.625 15.503906 314.429688 15.476562 314.246094 15.421875 C 314.0625 15.367188 313.902344 15.28125 313.765625 15.167969 C 313.628906 15.058594 313.519531 14.914062 313.441406 14.742188 C 313.359375 14.570312 313.320312 14.371094 313.320312 14.136719 Z M 312.242188 14.101562 C 312.242188 14.484375 312.347656 14.839844 312.566406 15.164062 C 312.78125 15.488281 313.070312 15.722656 313.429688 15.867188 C 312.949219 16.035156 312.582031 16.304688 312.324219 16.675781 C 312.070312 17.046875 311.941406 17.484375 311.941406 17.988281 C 311.941406 18.421875 312.015625 18.800781 312.164062 19.125 C 312.3125 19.449219 312.515625 19.71875 312.773438 19.933594 C 313.035156 20.148438 313.339844 20.308594 313.691406 20.414062 C 314.042969 20.519531 314.425781 20.570312 314.832031 20.570312 C 315.226562 20.570312 315.59375 20.511719 315.9375 20.402344 C 316.28125 20.289062 316.578125 20.125 316.832031 19.902344 C 317.082031 19.683594 317.28125 19.414062 317.429688 19.09375 C 317.578125 18.773438 317.652344 18.40625 317.652344 17.988281 C 317.652344 17.460938 317.527344 17.015625 317.28125 16.652344 C 317.03125 16.289062 316.652344 16.027344 316.140625 15.867188 C 316.5 15.707031 316.785156 15.46875 317 15.152344 C 317.210938 14.835938 317.316406 14.484375 317.316406 14.101562 C 317.316406 13.828125 317.269531 13.5625 317.171875 13.304688 C 317.078125 13.042969 316.925781 12.8125 316.722656 12.609375 C 316.519531 12.402344 316.253906 12.238281 315.925781 12.117188 C 315.597656 11.992188 315.199219 11.929688 314.738281 11.929688 C 314.410156 11.929688 314.09375 11.976562 313.796875 12.074219 C 313.496094 12.167969 313.230469 12.308594 312.996094 12.492188 C 312.765625 12.675781 312.582031 12.902344 312.445312 13.171875 C 312.308594 13.441406 312.242188 13.75 312.242188 14.101562 Z M 313.019531 18.039062 C 313.019531 17.789062 313.066406 17.566406 313.160156 17.367188 C 313.25 17.167969 313.378906 16.992188 313.542969 16.847656 C 313.707031 16.703125 313.898438 16.59375 314.117188 16.519531 C 314.339844 16.445312 314.574219 16.40625 314.820312 16.40625 C 315.0625 16.40625 315.285156 16.449219 315.5 16.53125 C 315.710938 16.617188 315.898438 16.730469 316.058594 16.875 C 316.21875 17.019531 316.34375 17.1875 316.433594 17.382812 C 316.527344 17.578125 316.574219 17.792969 316.574219 18.027344 C 316.574219 18.265625 316.53125 18.484375 316.445312 18.683594 C 316.363281 18.886719 316.242188 19.058594 316.085938 19.207031 C 315.929688 19.355469 315.746094 19.472656 315.535156 19.554688 C 315.324219 19.640625 315.089844 19.679688 314.832031 19.679688 C 314.304688 19.679688 313.871094 19.535156 313.53125 19.242188 C 313.191406 18.949219 313.019531 18.550781 313.019531 18.039062 Z M 319.128906 19.105469 L 319.128906 20.4375 L 320.460938 20.4375 L 320.460938 19.105469 Z M 323.078125 18.386719 L 322.058594 18.386719 C 322.121094 19.121094 322.390625 19.667969 322.859375 20.03125 C 323.332031 20.390625 323.925781 20.570312 324.636719 20.570312 C 325.667969 20.570312 326.417969 20.175781 326.886719 19.386719 C 327.355469 18.597656 327.589844 17.46875 327.589844 15.996094 C 327.589844 15.1875 327.511719 14.523438 327.355469 14 C 327.199219 13.476562 326.988281 13.0625 326.726562 12.757812 C 326.460938 12.453125 326.152344 12.238281 325.800781 12.117188 C 325.449219 11.992188 325.074219 11.929688 324.671875 11.929688 C 324.265625 11.929688 323.890625 11.996094 323.542969 12.132812 C 323.199219 12.269531 322.90625 12.460938 322.65625 12.703125 C 322.410156 12.949219 322.214844 13.238281 322.082031 13.578125 C 321.945312 13.917969 321.875 14.292969 321.875 14.703125 C 321.875 15.117188 321.933594 15.5 322.050781 15.851562 C 322.167969 16.203125 322.339844 16.503906 322.566406 16.753906 C 322.792969 17 323.078125 17.195312 323.414062 17.335938 C 323.75 17.476562 324.132812 17.546875 324.566406 17.546875 C 324.980469 17.546875 325.363281 17.441406 325.714844 17.226562 C 326.066406 17.015625 326.339844 16.730469 326.53125 16.371094 L 326.558594 16.394531 C 326.523438 17.503906 326.351562 18.332031 326.039062 18.871094 C 325.726562 19.410156 325.261719 19.679688 324.636719 19.679688 C 324.230469 19.679688 323.875 19.570312 323.582031 19.34375 C 323.285156 19.121094 323.117188 18.800781 323.078125 18.386719 Z M 326.375 14.773438 C 326.375 15.019531 326.335938 15.257812 326.257812 15.488281 C 326.175781 15.714844 326.0625 15.914062 325.910156 16.085938 C 325.757812 16.257812 325.574219 16.394531 325.355469 16.496094 C 325.140625 16.59375 324.902344 16.644531 324.636719 16.644531 C 324.390625 16.644531 324.164062 16.59375 323.957031 16.496094 C 323.753906 16.394531 323.578125 16.261719 323.429688 16.09375 C 323.28125 15.925781 323.167969 15.734375 323.082031 15.515625 C 323 15.300781 322.957031 15.078125 322.957031 14.84375 C 322.957031 14.582031 322.988281 14.328125 323.046875 14.089844 C 323.105469 13.851562 323.203125 13.636719 323.335938 13.449219 C 323.46875 13.261719 323.640625 13.109375 323.851562 12.996094 C 324.0625 12.886719 324.320312 12.828125 324.625 12.828125 C 324.914062 12.828125 325.164062 12.882812 325.378906 12.984375 C 325.597656 13.089844 325.777344 13.230469 325.925781 13.410156 C 326.074219 13.589844 326.1875 13.796875 326.261719 14.03125 C 326.339844 14.261719 326.375 14.507812 326.375 14.773438 Z M 334.25 12.949219 L 334.25 12.074219 L 328.742188 12.074219 L 328.742188 13.035156 L 333.203125 13.035156 C 332.757812 13.507812 332.339844 14.023438 331.949219 14.582031 C 331.5625 15.140625 331.21875 15.734375 330.925781 16.363281 C 330.628906 16.992188 330.386719 17.648438 330.199219 18.332031 C 330.011719 19.015625 329.894531 19.71875 329.84375 20.4375 L 330.984375 20.4375 C 331.023438 19.773438 331.136719 19.089844 331.320312 18.386719 C 331.503906 17.683594 331.742188 16.996094 332.035156 16.332031 C 332.328125 15.667969 332.660156 15.046875 333.035156 14.460938 C 333.414062 13.878906 333.816406 13.375 334.25 12.949219 Z M 335.582031 11.871094 L 335.582031 20.4375 L 336.601562 20.4375 L 336.601562 16.933594 C 336.601562 16.652344 336.636719 16.394531 336.714844 16.160156 C 336.789062 15.921875 336.90625 15.71875 337.054688 15.542969 C 337.207031 15.367188 337.398438 15.230469 337.625 15.132812 C 337.855469 15.039062 338.125 14.988281 338.4375 14.988281 C 338.828125 14.988281 339.136719 15.101562 339.359375 15.324219 C 339.585938 15.550781 339.695312 15.851562 339.695312 16.238281 L 339.695312 20.4375 L 340.714844 20.4375 L 340.714844 16.359375 C 340.714844 16.023438 340.683594 15.714844 340.613281 15.441406 C 340.546875 15.164062 340.429688 14.925781 340.261719 14.726562 C 340.09375 14.527344 339.871094 14.371094 339.601562 14.257812 C 339.328125 14.144531 338.988281 14.089844 338.582031 14.089844 C 338.398438 14.089844 338.207031 14.109375 338.011719 14.148438 C 337.816406 14.1875 337.625 14.25 337.445312 14.335938 C 337.265625 14.417969 337.105469 14.527344 336.960938 14.660156 C 336.816406 14.792969 336.703125 14.953125 336.625 15.144531 L 336.601562 15.144531 L 336.601562 11.871094 Z M 341.375 22.800781 L 342.144531 22.800781 C 342.769531 21.976562 343.238281 21.085938 343.554688 20.132812 C 343.871094 19.175781 344.027344 18.226562 344.027344 17.28125 C 344.027344 16.753906 343.984375 16.25 343.894531 15.769531 C 343.808594 15.289062 343.683594 14.820312 343.519531 14.359375 C 343.355469 13.898438 343.15625 13.449219 342.925781 13.003906 C 342.691406 12.558594 342.433594 12.113281 342.144531 11.664062 L 341.375 11.664062 C 341.9375 12.585938 342.339844 13.5 342.582031 14.40625 C 342.828125 15.316406 342.949219 16.273438 342.949219 17.28125 C 342.949219 18.257812 342.828125 19.195312 342.589844 20.09375 C 342.347656 20.996094 341.945312 21.898438 341.375 22.800781 Z M 260.554688 9.011719 "/>
<path fill-rule="nonzero" fill="rgb(90.980392%, 33.333333%, 37.254902%)" fill-opacity="1" stroke-width="2" stroke-linecap="butt" stroke-linejoin="miter" stroke="rgb(100%, 100%, 100%)" stroke-opacity="1" stroke-miterlimit="10" d="M 145.679688 32 L 185.679688 32 L 185.679688 44 L 145.679688 44 Z M 145.679688 32 "/>
<path fill-rule="nonzero" fill="rgb(40%, 40%, 40%)" fill-opacity="1" d="M 198.640625 36.449219 L 199.78125 36.449219 C 199.714844 35.992188 199.578125 35.589844 199.371094 35.242188 C 199.164062 34.894531 198.902344 34.605469 198.589844 34.375 C 198.277344 34.140625 197.921875 33.964844 197.523438 33.84375 C 197.125 33.726562 196.699219 33.664062 196.25 33.664062 C 195.59375 33.664062 195.015625 33.785156 194.503906 34.019531 C 193.996094 34.253906 193.574219 34.578125 193.234375 34.984375 C 192.894531 35.394531 192.636719 35.871094 192.460938 36.417969 C 192.285156 36.96875 192.195312 37.554688 192.195312 38.175781 C 192.195312 38.800781 192.277344 39.386719 192.441406 39.929688 C 192.605469 40.472656 192.851562 40.945312 193.179688 41.34375 C 193.507812 41.746094 193.917969 42.058594 194.414062 42.289062 C 194.910156 42.515625 195.492188 42.628906 196.15625 42.628906 C 197.25 42.628906 198.117188 42.328125 198.746094 41.730469 C 199.378906 41.128906 199.75 40.289062 199.863281 39.210938 L 198.722656 39.210938 C 198.699219 39.5625 198.628906 39.890625 198.507812 40.195312 C 198.386719 40.5 198.222656 40.757812 198.007812 40.980469 C 197.796875 41.199219 197.546875 41.371094 197.253906 41.496094 C 196.960938 41.621094 196.628906 41.679688 196.25 41.679688 C 195.738281 41.679688 195.300781 41.585938 194.933594 41.394531 C 194.5625 41.203125 194.261719 40.945312 194.027344 40.621094 C 193.789062 40.296875 193.617188 39.914062 193.503906 39.480469 C 193.390625 39.042969 193.335938 38.582031 193.335938 38.09375 C 193.335938 37.644531 193.390625 37.214844 193.503906 36.796875 C 193.617188 36.382812 193.789062 36.011719 194.027344 35.6875 C 194.261719 35.363281 194.5625 35.105469 194.925781 34.914062 C 195.289062 34.722656 195.726562 34.625 196.238281 34.625 C 196.839844 34.625 197.359375 34.777344 197.792969 35.082031 C 198.230469 35.386719 198.511719 35.839844 198.640625 36.449219 Z M 204.351562 38.992188 L 204.351562 36.367188 L 203.535156 36.367188 L 203.535156 38.992188 L 200.917969 38.992188 L 200.917969 39.808594 L 203.535156 39.808594 L 203.535156 42.4375 L 204.351562 42.4375 L 204.351562 39.808594 L 206.96875 39.808594 L 206.96875 38.992188 Z M 211.550781 38.992188 L 211.550781 36.367188 L 210.734375 36.367188 L 210.734375 38.992188 L 208.117188 38.992188 L 208.117188 39.808594 L 210.734375 39.808594 L 210.734375 42.4375 L 211.550781 42.4375 L 211.550781 39.808594 L 214.167969 39.808594 L 214.167969 38.992188 Z M 220.527344 44.800781 L 221.304688 44.800781 C 220.738281 43.882812 220.332031 42.96875 220.089844 42.066406 C 219.84375 41.160156 219.722656 40.207031 219.722656 39.199219 C 219.722656 38.214844 219.84375 37.273438 220.082031 36.378906 C 220.320312 35.480469 220.730469 34.578125 221.304688 33.664062 L 220.527344 33.664062 C 219.902344 34.488281 219.433594 35.382812 219.117188 36.339844 C 218.800781 37.300781 218.640625 38.253906 218.640625 39.199219 C 218.640625 39.726562 218.6875 40.230469 218.773438 40.710938 C 218.863281 41.191406 218.988281 41.65625 219.152344 42.113281 C 219.316406 42.570312 219.515625 43.019531 219.746094 43.464844 C 219.976562 43.90625 220.238281 44.351562 220.527344 44.800781 Z M 223.046875 36.136719 C 223.046875 35.921875 223.085938 35.734375 223.167969 35.574219 C 223.246094 35.414062 223.351562 35.277344 223.484375 35.164062 C 223.617188 35.054688 223.777344 34.96875 223.960938 34.914062 C 224.144531 34.859375 224.335938 34.828125 224.535156 34.828125 C 224.953125 34.828125 225.292969 34.941406 225.5625 35.160156 C 225.828125 35.378906 225.964844 35.707031 225.964844 36.136719 C 225.964844 36.570312 225.832031 36.90625 225.566406 37.144531 C 225.304688 37.386719 224.96875 37.503906 224.558594 37.503906 C 224.351562 37.503906 224.15625 37.476562 223.972656 37.421875 C 223.789062 37.367188 223.628906 37.28125 223.492188 37.167969 C 223.355469 37.058594 223.246094 36.914062 223.167969 36.742188 C 223.085938 36.570312 223.046875 36.371094 223.046875 36.136719 Z M 221.96875 36.101562 C 221.96875 36.484375 222.074219 36.839844 222.292969 37.164062 C 222.507812 37.488281 222.796875 37.722656 223.15625 37.867188 C 222.675781 38.035156 222.308594 38.304688 222.050781 38.675781 C 221.796875 39.046875 221.667969 39.484375 221.667969 39.988281 C 221.667969 40.421875 221.742188 40.800781 221.890625 41.125 C 222.039062 41.449219 222.242188 41.71875 222.5 41.933594 C 222.761719 42.148438 223.066406 42.308594 223.417969 42.414062 C 223.769531 42.519531 224.152344 42.570312 224.558594 42.570312 C 224.953125 42.570312 225.320312 42.511719 225.664062 42.402344 C 226.007812 42.289062 226.304688 42.125 226.558594 41.902344 C 226.808594 41.683594 227.007812 41.414062 227.15625 41.09375 C 227.304688 40.773438 227.378906 40.40625 227.378906 39.988281 C 227.378906 39.460938 227.253906 39.015625 227.007812 38.652344 C 226.757812 38.289062 226.378906 38.027344 225.867188 37.867188 C 226.226562 37.707031 226.511719 37.46875 226.726562 37.152344 C 226.9375 36.835938 227.042969 36.484375 227.042969 36.101562 C 227.042969 35.828125 226.996094 35.5625 226.898438 35.304688 C 226.804688 35.042969 226.652344 34.8125 226.449219 34.609375 C 226.246094 34.402344 225.980469 34.238281 225.652344 34.117188 C 225.324219 33.992188 224.925781 33.929688 224.464844 33.929688 C 224.136719 33.929688 223.820312 33.976562 223.523438 34.074219 C 223.222656 34.167969 222.957031 34.308594 222.722656 34.492188 C 222.492188 34.675781 222.308594 34.902344 222.171875 35.171875 C 222.035156 35.441406 221.96875 35.75 221.96875 36.101562 Z M 222.746094 40.039062 C 222.746094 39.789062 222.792969 39.566406 222.886719 39.367188 C 222.976562 39.167969 223.105469 38.992188 223.269531 38.847656 C 223.433594 38.703125 223.625 38.59375 223.84375 38.519531 C 224.066406 38.445312 224.300781 38.40625 224.546875 38.40625 C 224.789062 38.40625 225.011719 38.449219 225.226562 38.53125 C 225.4375 38.617188 225.625 38.730469 225.785156 38.875 C 225.945312 39.019531 226.070312 39.1875 226.160156 39.382812 C 226.253906 39.578125 226.300781 39.792969 226.300781 40.027344 C 226.300781 40.265625 226.257812 40.484375 226.171875 40.683594 C 226.089844 40.886719 225.96875 41.058594 225.8125 41.207031 C 225.65625 41.355469 225.472656 41.472656 225.261719 41.554688 C 225.050781 41.640625 224.816406 41.679688 224.558594 41.679688 C 224.03125 41.679688 223.597656 41.535156 223.257812 41.242188 C 222.917969 40.949219 222.746094 40.550781 222.746094 40.039062 Z M 228.855469 41.105469 L 228.855469 42.4375 L 230.1875 42.4375 L 230.1875 41.105469 Z M 233.054688 36.136719 C 233.054688 35.921875 233.09375 35.734375 233.175781 35.574219 C 233.253906 35.414062 233.359375 35.277344 233.492188 35.164062 C 233.625 35.054688 233.785156 34.96875 233.96875 34.914062 C 234.152344 34.859375 234.34375 34.828125 234.542969 34.828125 C 234.960938 34.828125 235.300781 34.941406 235.570312 35.160156 C 235.835938 35.378906 235.972656 35.707031 235.972656 36.136719 C 235.972656 36.570312 235.839844 36.90625 235.574219 37.144531 C 235.3125 37.386719 234.976562 37.503906 234.566406 37.503906 C 234.359375 37.503906 234.164062 37.476562 233.980469 37.421875 C 233.796875 37.367188 233.636719 37.28125 233.5 37.167969 C 233.363281 37.058594 233.253906 36.914062 233.175781 36.742188 C 233.09375 36.570312 233.054688 36.371094 233.054688 36.136719 Z M 231.976562 36.101562 C 231.976562 36.484375 232.082031 36.839844 232.300781 37.164062 C 232.515625 37.488281 232.804688 37.722656 233.164062 37.867188 C 232.683594 38.035156 232.316406 38.304688 232.058594 38.675781 C 231.804688 39.046875 231.675781 39.484375 231.675781 39.988281 C 231.675781 40.421875 231.75 40.800781 231.898438 41.125 C 232.046875 41.449219 232.25 41.71875 232.507812 41.933594 C 232.769531 42.148438 233.074219 42.308594 233.425781 42.414062 C 233.777344 42.519531 234.160156 42.570312 234.566406 42.570312 C 234.960938 42.570312 235.328125 42.511719 235.671875 42.402344 C 236.015625 42.289062 236.3125 42.125 236.566406 41.902344 C 236.816406 41.683594 237.015625 41.414062 237.164062 41.09375 C 237.3125 40.773438 237.386719 40.40625 237.386719 39.988281 C 237.386719 39.460938 237.261719 39.015625 237.015625 38.652344 C 236.765625 38.289062 236.386719 38.027344 235.875 37.867188 C 236.234375 37.707031 236.519531 37.46875 236.734375 37.152344 C 236.945312 36.835938 237.050781 36.484375 237.050781 36.101562 C 237.050781 35.828125 237.003906 35.5625 236.90625 35.304688 C 236.8125 35.042969 236.660156 34.8125 236.457031 34.609375 C 236.253906 34.402344 235.988281 34.238281 235.660156 34.117188 C 235.332031 33.992188 234.933594 33.929688 234.472656 33.929688 C 234.144531 33.929688 233.828125 33.976562 233.53125 34.074219 C 233.230469 34.167969 232.964844 34.308594 232.730469 34.492188 C 232.5 34.675781 232.316406 34.902344 232.179688 35.171875 C 232.042969 35.441406 231.976562 35.75 231.976562 36.101562 Z M 232.753906 40.039062 C 232.753906 39.789062 232.800781 39.566406 232.894531 39.367188 C 232.984375 39.167969 233.113281 38.992188 233.277344 38.847656 C 233.441406 38.703125 233.632812 38.59375 233.851562 38.519531 C 234.074219 38.445312 234.308594 38.40625 234.554688 38.40625 C 234.796875 38.40625 235.019531 38.449219 235.234375 38.53125 C 235.445312 38.617188 235.632812 38.730469 235.792969 38.875 C 235.953125 39.019531 236.078125 39.1875 236.167969 39.382812 C 236.261719 39.578125 236.308594 39.792969 236.308594 40.027344 C 236.308594 40.265625 236.265625 40.484375 236.179688 40.683594 C 236.097656 40.886719 235.976562 41.058594 235.820312 41.207031 C 235.664062 41.355469 235.480469 41.472656 235.269531 41.554688 C 235.058594 41.640625 234.824219 41.679688 234.566406 41.679688 C 234.039062 41.679688 233.605469 41.535156 233.265625 41.242188 C 232.925781 40.949219 232.753906 40.550781 232.753906 40.039062 Z M 243.507812 34.972656 L 243.507812 34.074219 L 239.308594 34.074219 L 238.515625 38.488281 L 239.390625 38.539062 C 239.589844 38.296875 239.820312 38.101562 240.082031 37.957031 C 240.339844 37.808594 240.640625 37.734375 240.976562 37.734375 C 241.261719 37.734375 241.523438 37.78125 241.761719 37.878906 C 241.996094 37.972656 242.199219 38.109375 242.367188 38.28125 C 242.535156 38.453125 242.664062 38.65625 242.757812 38.890625 C 242.847656 39.128906 242.894531 39.386719 242.894531 39.664062 C 242.894531 40 242.847656 40.296875 242.75 40.546875 C 242.65625 40.800781 242.523438 41.007812 242.359375 41.175781 C 242.195312 41.34375 242.003906 41.472656 241.785156 41.554688 C 241.566406 41.640625 241.335938 41.679688 241.09375 41.679688 C 240.839844 41.679688 240.605469 41.644531 240.394531 41.566406 C 240.179688 41.492188 239.996094 41.382812 239.839844 41.242188 C 239.683594 41.101562 239.5625 40.941406 239.46875 40.75 C 239.378906 40.5625 239.324219 40.363281 239.308594 40.144531 L 238.289062 40.144531 C 238.296875 40.527344 238.371094 40.875 238.515625 41.175781 C 238.660156 41.480469 238.855469 41.734375 239.101562 41.941406 C 239.351562 42.144531 239.636719 42.300781 239.960938 42.40625 C 240.285156 42.515625 240.632812 42.570312 241 42.570312 C 241.496094 42.570312 241.929688 42.492188 242.300781 42.335938 C 242.671875 42.179688 242.984375 41.96875 243.230469 41.707031 C 243.480469 41.441406 243.664062 41.140625 243.789062 40.800781 C 243.914062 40.460938 243.976562 40.109375 243.976562 39.75 C 243.976562 39.261719 243.902344 38.835938 243.757812 38.472656 C 243.613281 38.109375 243.417969 37.804688 243.171875 37.558594 C 242.921875 37.316406 242.632812 37.132812 242.296875 37.011719 C 241.960938 36.894531 241.601562 36.832031 241.226562 36.832031 C 240.9375 36.832031 240.648438 36.882812 240.355469 36.984375 C 240.066406 37.082031 239.828125 37.238281 239.644531 37.445312 L 239.621094 37.421875 L 240.074219 34.972656 Z M 245.308594 33.871094 L 245.308594 42.4375 L 246.328125 42.4375 L 246.328125 38.933594 C 246.328125 38.652344 246.363281 38.394531 246.441406 38.160156 C 246.515625 37.921875 246.632812 37.71875 246.78125 37.542969 C 246.933594 37.367188 247.125 37.230469 247.351562 37.132812 C 247.582031 37.039062 247.851562 36.988281 248.164062 36.988281 C 248.554688 36.988281 248.863281 37.101562 249.085938 37.324219 C 249.3125 37.550781 249.421875 37.851562 249.421875 38.238281 L 249.421875 42.4375 L 250.441406 42.4375 L 250.441406 38.359375 C 250.441406 38.023438 250.410156 37.714844 250.339844 37.441406 C 250.273438 37.164062 250.15625 36.925781 249.988281 36.726562 C 249.820312 36.527344 249.597656 36.371094 249.328125 36.257812 C 249.054688 36.144531 248.714844 36.089844 248.308594 36.089844 C 248.125 36.089844 247.933594 36.109375 247.738281 36.148438 C 247.542969 36.1875 247.351562 36.25 247.171875 36.335938 C 246.992188 36.417969 246.832031 36.527344 246.6875 36.660156 C 246.542969 36.792969 246.429688 36.953125 246.351562 37.144531 L 246.328125 37.144531 L 246.328125 33.871094 Z M 251.101562 44.800781 L 251.871094 44.800781 C 252.496094 43.976562 252.964844 43.085938 253.28125 42.132812 C 253.597656 41.175781 253.753906 40.226562 253.753906 39.28125 C 253.753906 38.753906 253.710938 38.25 253.621094 37.769531 C 253.535156 37.289062 253.410156 36.820312 253.246094 36.359375 C 253.082031 35.898438 252.882812 35.449219 252.652344 35.003906 C 252.417969 34.558594 252.160156 34.113281 251.871094 33.664062 L 251.101562 33.664062 C 251.664062 34.585938 252.066406 35.5 252.308594 36.40625 C 252.554688 37.316406 252.675781 38.273438 252.675781 39.28125 C 252.675781 40.257812 252.554688 41.195312 252.316406 42.09375 C 252.074219 42.996094 251.671875 43.898438 251.101562 44.800781 Z M 191.679688 31.011719 "/>
<path fill-rule="nonzero" fill="rgb(96.862745%, 67.843137%, 0%)" fill-opacity="1" stroke-width="2" stroke-linecap="butt" stroke-linejoin="bevel" stroke="rgb(100%, 100%, 100%)" stroke-opacity="1" stroke-miterlimit="10" d="M 200 55 C 266.78125 55 327.523438 93.652344 355.808594 154.148438 C 384.09375 214.644531 374.808594 286.042969 331.988281 337.285156 C 289.167969 388.53125 220.558594 410.359375 156 393.277344 C 91.441406 376.191406 42.605469 323.285156 30.738281 257.566406 L 115.367188 242.285156 C 121.304688 275.144531 145.71875 301.597656 178 310.136719 C 210.277344 318.679688 244.585938 307.765625 265.992188 282.144531 C 287.402344 256.519531 292.046875 220.820312 277.90625 190.574219 C 263.761719 160.328125 233.390625 141 200 141 Z M 200 55 "/>
<path fill-rule="nonzero" fill="rgb(47.058824%, 72.156863%, 70.980392%)" fill-opacity="1" stroke-width="2" stroke-linecap="butt" stroke-linejoin="bevel" stroke="rgb(100%, 100%, 100%)" stroke-opacity="1" stroke-miterlimit="10" d="M 30.738281 257.566406 C 16.546875 178.996094 58.292969 100.992188 131.535156 69.210938 L 165.769531 148.105469 C 129.148438 163.996094 108.273438 203 115.367188 242.285156 Z M 30.738281 257.566406 "/>
<path fill-rule="nonzero" fill="rgb(90.980392%, 33.333333%, 37.254902%)" fill-opacity="1" stroke-width="2" stroke-linecap="butt" stroke-linejoin="bevel" stroke="rgb(100%, 100%, 100%)" stroke-opacity="1" stroke-miterlimit="10" d="M 131.535156 69.210938 C 153.144531 59.835938 176.445312 55 200 55 L 200 141 C 188.222656 141 176.570312 143.417969 165.769531 148.105469 Z M 131.535156 69.210938 "/>
</svg>
