<?xml version="1.0" encoding="UTF-8"?>
<svg xmlns="http://www.w3.org/2000/svg" xmlns:xlink="http://www.w3.org/1999/xlink" width="400" height="400" viewBox="0 0 400 400">
<path fill-rule="nonzero" fill="rgb(96.862745%, 67.843137%, 0%)" fill-opacity="1" stroke-width="2" stroke-linecap="butt" stroke-linejoin="miter" stroke="rgb(100%, 100%, 100%)" stroke-opacity="1" stroke-miterlimit="10" d="M 37.855469 10 L 77.855469 10 L 77.855469 22 L 37.855469 22 Z M 37.855469 10 "/>
<path fill-rule="nonzero" fill="rgb(40%, 40%, 40%)" fill-opacity="1" d="M 89.746094 14.378906 L 90.828125 14.378906 C 90.8125 13.90625 90.722656 13.5 90.558594 13.160156 C 90.394531 12.820312 90.167969 12.539062 89.886719 12.3125 C 89.601562 12.089844 89.269531 11.925781 88.894531 11.820312 C 88.519531 11.71875 88.113281 11.664062 87.671875 11.664062 C 87.28125 11.664062 86.898438 11.714844 86.527344 11.816406 C 86.152344 11.914062 85.820312 12.066406 85.53125 12.273438 C 85.238281 12.476562 85.003906 12.734375 84.828125 13.050781 C 84.652344 13.367188 84.5625 13.742188 84.5625 14.171875 C 84.5625 14.566406 84.640625 14.890625 84.796875 15.152344 C 84.953125 15.410156 85.160156 15.625 85.421875 15.789062 C 85.679688 15.953125 85.976562 16.082031 86.304688 16.183594 C 86.632812 16.285156 86.964844 16.371094 87.304688 16.449219 C 87.644531 16.523438 87.980469 16.597656 88.308594 16.667969 C 88.636719 16.742188 88.929688 16.835938 89.191406 16.953125 C 89.449219 17.066406 89.65625 17.21875 89.8125 17.402344 C 89.96875 17.585938 90.046875 17.824219 90.046875 18.121094 C 90.046875 18.433594 89.984375 18.691406 89.855469 18.890625 C 89.726562 19.089844 89.558594 19.246094 89.351562 19.363281 C 89.144531 19.480469 88.910156 19.5625 88.648438 19.609375 C 88.390625 19.65625 88.132812 19.679688 87.875 19.679688 C 87.554688 19.679688 87.242188 19.640625 86.941406 19.5625 C 86.636719 19.480469 86.371094 19.359375 86.140625 19.191406 C 85.914062 19.023438 85.730469 18.808594 85.589844 18.546875 C 85.449219 18.289062 85.378906 17.976562 85.378906 17.617188 L 84.300781 17.617188 C 84.300781 18.136719 84.394531 18.585938 84.582031 18.96875 C 84.769531 19.347656 85.027344 19.660156 85.347656 19.902344 C 85.671875 20.148438 86.050781 20.328125 86.476562 20.449219 C 86.90625 20.570312 87.359375 20.628906 87.839844 20.628906 C 88.230469 20.628906 88.625 20.582031 89.019531 20.492188 C 89.417969 20.398438 89.777344 20.25 90.09375 20.046875 C 90.414062 19.84375 90.675781 19.578125 90.882812 19.253906 C 91.085938 18.929688 91.1875 18.542969 91.1875 18.085938 C 91.1875 17.660156 91.109375 17.308594 90.953125 17.03125 C 90.796875 16.75 90.589844 16.515625 90.328125 16.332031 C 90.070312 16.148438 89.777344 16.003906 89.449219 15.894531 C 89.121094 15.789062 88.785156 15.695312 88.445312 15.613281 C 88.105469 15.535156 87.769531 15.460938 87.445312 15.390625 C 87.117188 15.324219 86.820312 15.238281 86.5625 15.132812 C 86.300781 15.027344 86.09375 14.894531 85.9375 14.730469 C 85.78125 14.566406 85.703125 14.351562 85.703125 14.089844 C 85.703125 13.808594 85.757812 13.574219 85.867188 13.386719 C 85.972656 13.199219 86.117188 13.050781 86.296875 12.9375 C 86.476562 12.824219 86.683594 12.746094 86.914062 12.699219 C 87.148438 12.648438 87.382812 12.625 87.625 12.625 C 88.214844 12.625 88.703125 12.761719 89.082031 13.039062 C 89.460938 13.316406 89.683594 13.761719 89.746094 14.378906 Z M 93.144531 17.339844 C 93.144531 16.964844 93.195312 16.632812 93.292969 16.339844 C 93.394531 16.046875 93.53125 15.800781 93.707031 15.601562 C 93.882812 15.402344 94.089844 15.25 94.328125 15.144531 C 94.5625 15.042969 94.8125 14.988281 95.078125 14.988281 C 95.339844 14.988281 95.589844 15.042969 95.828125 15.144531 C 96.0625 15.25 96.269531 15.402344 96.445312 15.601562 C 96.621094 15.800781 96.757812 16.046875 96.859375 16.339844 C 96.960938 16.632812 97.007812 16.964844 97.007812 17.339844 C 97.007812 17.71875 96.957031 18.050781 96.859375 18.34375 C 96.757812 18.636719 96.621094 18.878906 96.445312 19.074219 C 96.269531 19.269531 96.0625 19.421875 95.828125 19.527344 C 95.589844 19.628906 95.339844 19.679688 95.078125 19.679688 C 94.8125 19.679688 94.5625 19.628906 94.328125 19.527344 C 94.089844 19.421875 93.886719 19.273438 93.707031 19.074219 C 93.53125 18.878906 93.394531 18.636719 93.292969 18.34375 C 93.195312 18.050781 93.144531 17.71875 93.144531 17.339844 Z M 92.066406 17.339844 C 92.066406 17.796875 92.128906 18.222656 92.257812 18.613281 C 92.386719 19.003906 92.578125 19.347656 92.832031 19.640625 C 93.089844 19.933594 93.40625 20.160156 93.78125 20.324219 C 94.15625 20.488281 94.589844 20.570312 95.078125 20.570312 C 95.574219 20.570312 96.007812 20.488281 96.378906 20.324219 C 96.75 20.160156 97.066406 19.929688 97.320312 19.640625 C 97.578125 19.347656 97.769531 19.003906 97.898438 18.613281 C 98.023438 18.222656 98.089844 17.796875 98.089844 17.339844 C 98.089844 16.886719 98.023438 16.460938 97.898438 16.0625 C 97.769531 15.667969 97.578125 15.324219 97.320312 15.03125 C 97.066406 14.738281 96.75 14.507812 96.378906 14.339844 C 96.007812 14.171875 95.574219 14.089844 95.078125 14.089844 C 94.589844 14.089844 94.15625 14.171875 93.78125 14.339844 C 93.40625 14.507812 93.089844 14.738281 92.832031 15.03125 C 92.578125 15.324219 92.386719 15.667969 92.257812 16.0625 C 92.128906 16.460938 92.066406 16.886719 92.066406 17.339844 Z M 99.707031 15.132812 L 99.707031 20.4375 L 100.726562 20.4375 L 100.726562 15.132812 L 101.925781 15.132812 L 101.925781 14.234375 L 100.726562 14.234375 L 100.726562 13.371094 C 100.726562 13.097656 100.796875 12.914062 100.929688 12.816406 C 101.066406 12.722656 101.257812 12.671875 101.507812 12.671875 C 101.59375 12.671875 101.691406 12.679688 101.796875 12.691406 C 101.898438 12.703125 101.996094 12.726562 102.082031 12.757812 L 102.082031 11.871094 C 101.988281 11.839844 101.878906 11.8125 101.753906 11.796875 C 101.628906 11.78125 101.519531 11.773438 101.421875 11.773438 C 100.863281 11.773438 100.4375 11.902344 100.144531 12.164062 C 99.851562 12.421875 99.707031 12.804688 99.707031 13.308594 L 99.707031 14.234375 L 98.664062 14.234375 L 98.664062 15.132812 Z M 104.253906 14.234375 L 104.253906 12.375 L 103.234375 12.375 L 103.234375 14.234375 L 102.179688 14.234375 L 102.179688 15.132812 L 103.234375 15.132812 L 103.234375 19.082031 C 103.234375 19.371094 103.261719 19.601562 103.316406 19.777344 C 103.375 19.953125 103.460938 20.089844 103.578125 20.183594 C 103.691406 20.28125 103.84375 20.347656 104.03125 20.382812 C 104.21875 20.417969 104.445312 20.4375 104.710938 20.4375 L 105.492188 20.4375 L 105.492188 19.539062 L 105.023438 19.539062 C 104.863281 19.539062 104.730469 19.53125 104.632812 19.519531 C 104.53125 19.507812 104.453125 19.480469 104.398438 19.441406 C 104.34375 19.402344 104.304688 19.34375 104.285156 19.273438 C 104.265625 19.203125 104.253906 19.105469 104.253906 18.984375 L 104.253906 15.132812 L 105.492188 15.132812 L 105.492188 14.234375 Z M 112.761719 20.4375 L 114.742188 14.234375 L 113.6875 14.234375 L 112.296875 19.308594 L 112.273438 19.308594 L 110.976562 14.234375 L 109.859375 14.234375 L 108.613281 19.308594 L 108.585938 19.308594 L 107.183594 14.234375 L 106.054688 14.234375 L 108.046875 20.4375 L 109.152344 20.4375 L 110.398438 15.503906 L 110.421875 15.503906 L 111.683594 20.4375 Z M 121.210938 20.414062 C 121.035156 20.519531 120.789062 20.570312 120.476562 20.570312 C 120.214844 20.570312 120.003906 20.496094 119.847656 20.347656 C 119.691406 20.199219 119.613281 19.957031 119.613281 19.621094 C 119.332031 19.957031 119.007812 20.199219 118.636719 20.347656 C 118.265625 20.496094 117.859375 20.570312 117.429688 20.570312 C 117.148438 20.570312 116.882812 20.539062 116.632812 20.472656 C 116.378906 20.410156 116.160156 20.308594 115.976562 20.171875 C 115.792969 20.035156 115.648438 19.859375 115.539062 19.640625 C 115.429688 19.417969 115.378906 19.152344 115.378906 18.839844 C 115.378906 18.488281 115.4375 18.203125 115.558594 17.976562 C 115.679688 17.753906 115.835938 17.570312 116.03125 17.429688 C 116.226562 17.289062 116.453125 17.183594 116.703125 17.113281 C 116.957031 17.042969 117.214844 16.980469 117.476562 16.933594 C 117.757812 16.878906 118.023438 16.835938 118.273438 16.808594 C 118.527344 16.78125 118.75 16.738281 118.941406 16.6875 C 119.132812 16.636719 119.285156 16.558594 119.398438 16.460938 C 119.507812 16.359375 119.566406 16.214844 119.566406 16.023438 C 119.566406 15.796875 119.523438 15.617188 119.4375 15.480469 C 119.355469 15.34375 119.246094 15.242188 119.117188 15.167969 C 118.984375 15.097656 118.835938 15.050781 118.671875 15.027344 C 118.507812 15.003906 118.34375 14.988281 118.183594 14.988281 C 117.753906 14.988281 117.394531 15.070312 117.105469 15.234375 C 116.816406 15.398438 116.660156 15.710938 116.636719 16.164062 L 115.617188 16.164062 C 115.632812 15.78125 115.714844 15.457031 115.855469 15.195312 C 116 14.929688 116.191406 14.714844 116.433594 14.550781 C 116.671875 14.386719 116.949219 14.269531 117.253906 14.199219 C 117.5625 14.125 117.894531 14.089844 118.246094 14.089844 C 118.527344 14.089844 118.804688 14.109375 119.078125 14.148438 C 119.355469 14.1875 119.605469 14.273438 119.828125 14.394531 C 120.054688 14.519531 120.234375 14.695312 120.371094 14.917969 C 120.507812 15.140625 120.574219 15.433594 120.574219 15.792969 L 120.574219 18.984375 C 120.574219 19.226562 120.585938 19.402344 120.617188 19.511719 C 120.644531 19.625 120.738281 19.679688 120.898438 19.679688 C 120.984375 19.679688 121.089844 19.660156 121.210938 19.621094 Z M 119.554688 17.234375 C 119.425781 17.328125 119.257812 17.398438 119.050781 17.445312 C 118.84375 17.488281 118.625 17.523438 118.394531 17.550781 C 118.167969 17.578125 117.9375 17.613281 117.707031 17.648438 C 117.472656 17.683594 117.265625 17.742188 117.082031 17.820312 C 116.898438 17.902344 116.746094 18.015625 116.632812 18.164062 C 116.515625 18.3125 116.457031 18.511719 116.457031 18.769531 C 116.457031 18.9375 116.492188 19.078125 116.558594 19.195312 C 116.628906 19.3125 116.714844 19.40625 116.824219 19.476562 C 116.929688 19.550781 117.058594 19.601562 117.203125 19.632812 C 117.347656 19.664062 117.496094 19.679688 117.65625 19.679688 C 117.992188 19.679688 118.28125 19.636719 118.519531 19.542969 C 118.761719 19.453125 118.957031 19.335938 119.109375 19.195312 C 119.261719 19.054688 119.375 18.902344 119.445312 18.738281 C 119.515625 18.574219 119.554688 18.421875 119.554688 18.277344 Z M 122.121094 14.234375 L 122.121094 20.4375 L 123.144531 20.4375 L 123.144531 17.675781 C 123.144531 17.277344 123.183594 16.921875 123.261719 16.617188 C 123.34375 16.308594 123.46875 16.046875 123.648438 15.828125 C 123.824219 15.613281 124.054688 15.449219 124.34375 15.335938 C 124.632812 15.226562 124.980469 15.167969 125.386719 15.167969 L 125.386719 14.089844 C 124.835938 14.074219 124.378906 14.183594 124.019531 14.425781 C 123.660156 14.664062 123.355469 15.039062 123.105469 15.542969 L 123.082031 15.542969 L 123.082031 14.234375 Z M 130.246094 16.742188 L 126.683594 16.742188 C 126.699219 16.5 126.75 16.277344 126.839844 16.0625 C 126.929688 15.851562 127.046875 15.664062 127.199219 15.503906 C 127.351562 15.34375 127.535156 15.21875 127.746094 15.128906 C 127.957031 15.035156 128.195312 14.988281 128.460938 14.988281 C 128.714844 14.988281 128.949219 15.035156 129.160156 15.128906 C 129.375 15.21875 129.558594 15.34375 129.714844 15.5 C 129.871094 15.65625 129.992188 15.839844 130.085938 16.058594 C 130.179688 16.273438 130.230469 16.5 130.246094 16.742188 Z M 131.230469 18.46875 L 130.222656 18.46875 C 130.136719 18.878906 129.953125 19.179688 129.679688 19.382812 C 129.402344 19.582031 129.046875 19.679688 128.617188 19.679688 C 128.28125 19.679688 127.988281 19.625 127.738281 19.511719 C 127.492188 19.402344 127.289062 19.25 127.128906 19.0625 C 126.96875 18.875 126.851562 18.660156 126.78125 18.414062 C 126.707031 18.171875 126.675781 17.914062 126.683594 17.640625 L 131.328125 17.640625 C 131.34375 17.265625 131.308594 16.871094 131.226562 16.453125 C 131.140625 16.039062 130.988281 15.652344 130.769531 15.300781 C 130.550781 14.949219 130.257812 14.660156 129.894531 14.429688 C 129.53125 14.203125 129.070312 14.089844 128.519531 14.089844 C 128.097656 14.089844 127.707031 14.167969 127.351562 14.328125 C 126.996094 14.488281 126.6875 14.714844 126.425781 15 C 126.164062 15.289062 125.964844 15.628906 125.820312 16.023438 C 125.675781 16.414062 125.605469 16.84375 125.605469 17.316406 C 125.621094 17.789062 125.691406 18.226562 125.8125 18.625 C 125.9375 19.023438 126.125 19.371094 126.371094 19.65625 C 126.621094 19.945312 126.925781 20.167969 127.289062 20.328125 C 127.652344 20.488281 128.082031 20.570312 128.578125 20.570312 C 129.285156 20.570312 129.867188 20.394531 130.332031 20.042969 C 130.796875 19.691406 131.097656 19.164062 131.230469 18.46875 Z M 137.402344 22.800781 L 138.179688 22.800781 C 137.613281 21.882812 137.207031 20.96875 136.964844 20.066406 C 136.71875 19.160156 136.597656 18.207031 136.597656 17.199219 C 136.597656 16.214844 136.71875 15.273438 136.957031 14.378906 C 137.195312 13.480469 137.605469 12.578125 138.179688 11.664062 L 137.402344 11.664062 C 136.777344 12.488281 136.308594 13.382812 135.992188 14.339844 C 135.675781 15.300781 135.515625 16.253906 135.515625 17.199219 C 135.515625 17.726562 135.5625 18.230469 135.648438 18.710938 C 135.738281 19.191406 135.863281 19.65625 136.027344 20.113281 C 136.191406 20.570312 136.390625 21.019531 136.621094 21.464844 C 136.851562 21.90625 137.113281 22.351562 137.402344 22.800781 Z M 142.335938 20.4375 L 142.335938 11.929688 L 141.554688 11.929688 C 141.5 12.25 141.394531 12.511719 141.242188 12.722656 C 141.089844 12.929688 140.90625 13.09375 140.683594 13.214844 C 140.464844 13.332031 140.21875 13.414062 139.945312 13.460938 C 139.675781 13.503906 139.394531 13.527344 139.105469 13.527344 L 139.105469 14.339844 L 141.316406 14.339844 L 141.316406 20.4375 Z M 147.351562 15.578125 L 147.351562 16.441406 C 147.542969 16.417969 147.746094 16.40625 147.960938 16.40625 C 148.21875 16.40625 148.457031 16.441406 148.675781 16.507812 C 148.894531 16.574219 149.085938 16.679688 149.246094 16.820312 C 149.40625 16.960938 149.535156 17.132812 149.628906 17.335938 C 149.726562 17.539062 149.773438 17.773438 149.773438 18.039062 C 149.773438 18.292969 149.722656 18.523438 149.625 18.726562 C 149.523438 18.929688 149.390625 19.101562 149.222656 19.242188 C 149.054688 19.382812 148.859375 19.492188 148.632812 19.566406 C 148.410156 19.644531 148.175781 19.679688 147.925781 19.679688 C 147.34375 19.679688 146.898438 19.507812 146.59375 19.160156 C 146.289062 18.8125 146.128906 18.363281 146.113281 17.808594 L 145.09375 17.808594 C 145.085938 18.25 145.148438 18.640625 145.28125 18.984375 C 145.414062 19.328125 145.601562 19.621094 145.851562 19.855469 C 146.097656 20.089844 146.398438 20.269531 146.75 20.390625 C 147.101562 20.511719 147.496094 20.570312 147.925781 20.570312 C 148.328125 20.570312 148.703125 20.515625 149.058594 20.40625 C 149.414062 20.300781 149.726562 20.136719 149.992188 19.921875 C 150.253906 19.707031 150.464844 19.433594 150.621094 19.113281 C 150.777344 18.789062 150.855469 18.414062 150.855469 17.988281 C 150.855469 17.476562 150.726562 17.035156 150.476562 16.65625 C 150.222656 16.28125 149.839844 16.039062 149.320312 15.925781 L 149.320312 15.902344 C 149.65625 15.75 149.933594 15.527344 150.160156 15.230469 C 150.382812 14.933594 150.496094 14.59375 150.496094 14.210938 C 150.496094 13.816406 150.429688 13.476562 150.296875 13.191406 C 150.164062 12.902344 149.980469 12.664062 149.75 12.480469 C 149.519531 12.296875 149.246094 12.160156 148.929688 12.066406 C 148.613281 11.976562 148.269531 11.929688 147.902344 11.929688 C 147.476562 11.929688 147.105469 11.996094 146.78125 12.132812 C 146.457031 12.269531 146.1875 12.457031 145.96875 12.699219 C 145.753906 12.9375 145.589844 13.226562 145.472656 13.5625 C 145.355469 13.898438 145.289062 14.269531 145.273438 14.675781 L 146.292969 14.675781 C 146.292969 14.429688 146.328125 14.195312 146.390625 13.96875 C 146.453125 13.746094 146.550781 13.550781 146.683594 13.382812 C 146.816406 13.214844 146.984375 13.078125 147.1875 12.980469 C 147.390625 12.878906 147.628906 12.828125 147.902344 12.828125 C 148.335938 12.828125 148.695312 12.945312 148.980469 13.171875 C 149.269531 13.398438 149.414062 13.742188 149.414062 14.199219 C 149.414062 14.421875 149.371094 14.621094 149.28125 14.796875 C 149.195312 14.972656 149.078125 15.121094 148.929688 15.234375 C 148.78125 15.351562 148.609375 15.441406 148.414062 15.5 C 148.21875 15.558594 148.011719 15.589844 147.792969 15.589844 L 147.578125 15.589844 C 147.539062 15.589844 147.5 15.589844 147.457031 15.589844 C 147.425781 15.589844 147.390625 15.585938 147.351562 15.578125 Z M 154.023438 15.578125 L 154.023438 16.441406 C 154.214844 16.417969 154.417969 16.40625 154.632812 16.40625 C 154.890625 16.40625 155.128906 16.441406 155.347656 16.507812 C 155.566406 16.574219 155.757812 16.679688 155.917969 16.820312 C 156.078125 16.960938 156.207031 17.132812 156.300781 17.335938 C 156.398438 17.539062 156.445312 17.773438 156.445312 18.039062 C 156.445312 18.292969 156.394531 18.523438 156.296875 18.726562 C 156.195312 18.929688 156.0625 19.101562 155.894531 19.242188 C 155.726562 19.382812 155.53125 19.492188 155.304688 19.566406 C 155.082031 19.644531 154.847656 19.679688 154.597656 19.679688 C 154.015625 19.679688 153.570312 19.507812 153.265625 19.160156 C 152.960938 18.8125 152.800781 18.363281 152.785156 17.808594 L 151.765625 17.808594 C 151.757812 18.25 151.820312 18.640625 151.953125 18.984375 C 152.085938 19.328125 152.273438 19.621094 152.523438 19.855469 C 152.769531 20.089844 153.070312 20.269531 153.421875 20.390625 C 153.773438 20.511719 154.167969 20.570312 154.597656 20.570312 C 155 20.570312 155.375 20.515625 155.730469 20.40625 C 156.085938 20.300781 156.398438 20.136719 156.664062 19.921875 C 156.925781 19.707031 157.136719 19.433594 157.292969 19.113281 C 157.449219 18.789062 157.527344 18.414062 157.527344 17.988281 C 157.527344 17.476562 157.398438 17.035156 157.148438 16.65625 C 156.894531 16.28125 156.511719 16.039062 155.992188 15.925781 L 155.992188 15.902344 C 156.328125 15.75 156.605469 15.527344 156.832031 15.230469 C 157.054688 14.933594 157.167969 14.59375 157.167969 14.210938 C 157.167969 13.816406 157.101562 13.476562 156.96875 13.191406 C 156.835938 12.902344 156.652344 12.664062 156.421875 12.480469 C 156.191406 12.296875 155.917969 12.160156 155.601562 12.066406 C 155.285156 11.976562 154.941406 11.929688 154.574219 11.929688 C 154.148438 11.929688 153.777344 11.996094 153.453125 12.132812 C 153.128906 12.269531 152.859375 12.457031 152.640625 12.699219 C 152.425781 12.9375 152.261719 13.226562 152.144531 13.5625 C 152.027344 13.898438 151.960938 14.269531 151.945312 14.675781 L 152.964844 14.675781 C 152.964844 14.429688 153 14.195312 153.0625 13.96875 C 153.125 13.746094 153.222656 13.550781 153.355469 13.382812 C 153.488281 13.214844 153.65625 13.078125 153.859375 12.980469 C 154.0625 12.878906 154.300781 12.828125 154.574219 12.828125 C 155.007812 12.828125 155.367188 12.945312 155.652344 13.171875 C 155.941406 13.398438 156.085938 13.742188 156.085938 14.199219 C 156.085938 14.421875 156.042969 14.621094 155.953125 14.796875 C 155.867188 14.972656 155.75 15.121094 155.601562 15.234375 C 155.453125 15.351562 155.28125 15.441406 155.085938 15.5 C 154.890625 15.558594 154.683594 15.589844 154.464844 15.589844 L 154.25 15.589844 C 154.210938 15.589844 154.171875 15.589844 154.128906 15.589844 C 154.097656 15.589844 154.0625 15.585938 154.023438 15.578125 Z M 159.074219 19.105469 L 159.074219 20.4375 L 160.40625 20.4375 L 160.40625 19.105469 Z M 165.6875 20.4375 L 165.6875 11.929688 L 164.90625 11.929688 C 164.851562 12.25 164.746094 12.511719 164.59375 12.722656 C 164.441406 12.929688 164.257812 13.09375 164.035156 13.214844 C 163.816406 13.332031 163.570312 13.414062 163.296875 13.460938 C 163.027344 13.503906 162.746094 13.527344 162.457031 13.527344 L 162.457031 14.339844 L 164.667969 14.339844 L 164.667969 20.4375 Z M 169.695312 18.386719 L 168.675781 18.386719 C 168.738281 19.121094 169.007812 19.667969 169.476562 20.03125 C 169.949219 20.390625 170.542969 20.570312 171.253906 20.570312 C 172.285156 20.570312 173.035156 20.175781 173.503906 19.386719 C 173.972656 18.597656 174.207031 17.46875 174.207031 15.996094 C 174.207031 15.1875 174.128906 14.523438 173.972656 14 C 173.816406 13.476562 173.605469 13.0625 173.34375 12.757812 C 173.078125 12.453125 172.769531 12.238281 172.417969 12.117188 C 172.066406 11.992188 171.691406 11.929688 171.289062 11.929688 C 170.882812 11.929688 170.507812 11.996094 170.160156 12.132812 C 169.816406 12.269531 169.523438 12.460938 169.273438 12.703125 C 169.027344 12.949219 168.832031 13.238281 168.699219 13.578125 C 168.5625 13.917969 168.492188 14.292969 168.492188 14.703125 C 168.492188 15.117188 168.550781 15.5 168.667969 15.851562 C 168.785156 16.203125 168.957031 16.503906 169.183594 16.753906 C 169.410156 17 169.695312 17.195312 170.03125 17.335938 C 170.367188 17.476562 170.75 17.546875 171.183594 17.546875 C 171.597656 17.546875 171.980469 17.441406 172.332031 17.226562 C 172.683594 17.015625 172.957031 16.730469 173.148438 16.371094 L 173.175781 16.394531 C 173.140625 17.503906 172.96875 18.332031 172.65625 18.871094 C 172.34375 19.410156 171.878906 19.679688 171.253906 19.679688 C 170.847656 19.679688 170.492188 19.570312 170.199219 19.34375 C 169.902344 19.121094 169.734375 18.800781 169.695312 18.386719 Z M 172.992188 14.773438 C 172.992188 15.019531 172.953125 15.257812 172.875 15.488281 C 172.792969 15.714844 172.679688 15.914062 172.527344 16.085938 C 172.375 16.257812 172.191406 16.394531 171.972656 16.496094 C 171.757812 16.59375 171.519531 16.644531 171.253906 16.644531 C 171.007812 16.644531 170.78125 16.59375 170.574219 16.496094 C 170.371094 16.394531 170.195312 16.261719 170.046875 16.09375 C 169.898438 15.925781 169.785156 15.734375 169.699219 15.515625 C 169.617188 15.300781 169.574219 15.078125 169.574219 14.84375 C 169.574219 14.582031 169.605469 14.328125 169.664062 14.089844 C 169.722656 13.851562 169.820312 13.636719 169.953125 13.449219 C 170.085938 13.261719 170.257812 13.109375 170.46875 12.996094 C 170.679688 12.886719 170.9375 12.828125 171.242188 12.828125 C 171.53125 12.828125 171.78125 12.882812 171.996094 12.984375 C 172.214844 13.089844 172.394531 13.230469 172.542969 13.410156 C 172.691406 13.589844 172.804688 13.796875 172.878906 14.03125 C 172.957031 14.261719 172.992188 14.507812 172.992188 14.773438 Z M 175.527344 11.871094 L 175.527344 20.4375 L 176.546875 20.4375 L 176.546875 16.933594 C 176.546875 16.652344 176.582031 16.394531 176.660156 16.160156 C 176.734375 15.921875 176.851562 15.71875 177 15.542969 C 177.152344 15.367188 177.34375 15.230469 177.570312 15.132812 C 177.800781 15.039062 178.070312 14.988281 178.382812 14.988281 C 178.773438 14.988281 179.082031 15.101562 179.304688 15.324219 C 179.53125 15.550781 179.640625 15.851562 179.640625 16.238281 L 179.640625 20.4375 L 180.660156 20.4375 L 180.660156 16.359375 C 180.660156 16.023438 180.628906 15.714844 180.558594 15.441406 C 180.492188 15.164062 180.375 14.925781 180.207031 14.726562 C 180.039062 14.527344 179.816406 14.371094 179.546875 14.257812 C 179.273438 14.144531 178.933594 14.089844 178.527344 14.089844 C 178.34375 14.089844 178.152344 14.109375 177.957031 14.148438 C 177.761719 14.1875 177.570312 14.25 177.390625 14.335938 C 177.210938 14.417969 177.050781 14.527344 176.90625 14.660156 C 176.761719 14.792969 176.648438 14.953125 176.570312 15.144531 L 176.546875 15.144531 L 176.546875 11.871094 Z M 181.320312 22.800781 L 182.089844 22.800781 C 182.714844 21.976562 183.183594 21.085938 183.5 20.132812 C 183.816406 19.175781 183.972656 18.226562 183.972656 17.28125 C 183.972656 16.753906 183.929688 16.25 183.839844 15.769531 C 183.753906 15.289062 183.628906 14.820312 183.464844 14.359375 C 183.300781 13.898438 183.101562 13.449219 182.871094 13.003906 C 182.636719 12.558594 182.378906 12.113281 182.089844 11.664062 L 181.320312 11.664062 C 181.882812 12.585938 182.285156 13.5 182.527344 14.40625 C 182.773438 15.316406 182.894531 16.273438 182.894531 17.28125 C 182.894531 18.257812 182.773438 19.195312 182.535156 20.09375 C 182.292969 20.996094 181.890625 21.898438 181.320312 22.800781 Z M 83.855469 9.011719 "/>
<path fill-rule="nonzero" fill="rgb(47.058824%, 72.156863%, 70.980392%)" fill-opacity="1" stroke-width="2" stroke-linecap="butt" stroke-linejoin="miter" stroke="rgb(100%, 100%, 100%)" stroke-opacity="1" stroke-miterlimit="10" d="M 194.535156 10 L 234.535156 10 L 234.535156 22 L 194.535156 22 Z M 194.535156 10 "/>
<path fill-rule="nonzero" fill="rgb(40%, 40%, 40%)" fill-opacity="1" d="M 242.609375 19.476562 L 242.609375 12.828125 L 244.53125 12.828125 C 245.058594 12.828125 245.503906 12.902344 245.863281 13.050781 C 246.222656 13.199219 246.515625 13.414062 246.746094 13.699219 C 246.972656 13.984375 247.136719 14.328125 247.238281 14.730469 C 247.335938 15.136719 247.386719 15.59375 247.386719 16.105469 C 247.386719 16.632812 247.332031 17.082031 247.226562 17.457031 C 247.117188 17.828125 246.980469 18.136719 246.8125 18.386719 C 246.644531 18.632812 246.453125 18.828125 246.242188 18.972656 C 246.03125 19.117188 245.816406 19.226562 245.597656 19.304688 C 245.382812 19.378906 245.179688 19.425781 244.988281 19.449219 C 244.796875 19.46875 244.636719 19.476562 244.507812 19.476562 Z M 241.472656 11.871094 L 241.472656 20.4375 L 244.410156 20.4375 C 245.121094 20.4375 245.738281 20.335938 246.257812 20.136719 C 246.777344 19.9375 247.207031 19.648438 247.542969 19.265625 C 247.878906 18.886719 248.128906 18.417969 248.289062 17.863281 C 248.449219 17.308594 248.527344 16.667969 248.527344 15.949219 C 248.527344 14.574219 248.171875 13.550781 247.460938 12.878906 C 246.746094 12.207031 245.730469 11.871094 244.410156 11.871094 Z M 250.496094 17.339844 C 250.496094 16.964844 250.546875 16.632812 250.644531 16.339844 C 250.746094 16.046875 250.882812 15.800781 251.058594 15.601562 C 251.234375 15.402344 251.441406 15.25 251.679688 15.144531 C 251.914062 15.042969 252.164062 14.988281 252.429688 14.988281 C 252.691406 14.988281 252.941406 15.042969 253.179688 15.144531 C 253.414062 15.25 253.621094 15.402344 253.796875 15.601562 C 253.972656 15.800781 254.109375 16.046875 254.210938 16.339844 C 254.3125 16.632812 254.359375 16.964844 254.359375 17.339844 C 254.359375 17.71875 254.308594 18.050781 254.210938 18.34375 C 254.109375 18.636719 253.972656 18.878906 253.796875 19.074219 C 253.621094 19.269531 253.414062 19.421875 253.179688 19.527344 C 252.941406 19.628906 252.691406 19.679688 252.429688 19.679688 C 252.164062 19.679688 251.914062 19.628906 251.679688 19.527344 C 251.441406 19.421875 251.238281 19.273438 251.058594 19.074219 C 250.882812 18.878906 250.746094 18.636719 250.644531 18.34375 C 250.546875 18.050781 250.496094 17.71875 250.496094 17.339844 Z M 249.417969 17.339844 C 249.417969 17.796875 249.480469 18.222656 249.609375 18.613281 C 249.738281 19.003906 249.929688 19.347656 250.183594 19.640625 C 250.441406 19.933594 250.757812 20.160156 251.132812 20.324219 C 251.507812 20.488281 251.941406 20.570312 252.429688 20.570312 C 252.925781 20.570312 253.359375 20.488281 253.730469 20.324219 C 254.101562 20.160156 254.417969 19.929688 254.671875 19.640625 C 254.929688 19.347656 255.121094 19.003906 255.25 18.613281 C 255.375 18.222656 255.441406 17.796875 255.441406 17.339844 C 255.441406 16.886719 255.375 16.460938 255.25 16.0625 C 255.121094 15.667969 254.929688 15.324219 254.671875 15.03125 C 254.417969 14.738281 254.101562 14.507812 253.730469 14.339844 C 253.359375 14.171875 252.925781 14.089844 252.429688 14.089844 C 251.941406 14.089844 251.507812 14.171875 251.132812 14.339844 C 250.757812 14.507812 250.441406 14.738281 250.183594 15.03125 C 249.929688 15.324219 249.738281 15.667969 249.609375 16.0625 C 249.480469 16.460938 249.417969 16.886719 249.417969 17.339844 Z M 260.851562 16.226562 L 261.90625 16.226562 C 261.867188 15.859375 261.769531 15.539062 261.617188 15.273438 C 261.464844 15.003906 261.273438 14.78125 261.035156 14.605469 C 260.800781 14.429688 260.527344 14.300781 260.222656 14.214844 C 259.914062 14.132812 259.582031 14.089844 259.230469 14.089844 C 258.742188 14.089844 258.316406 14.175781 257.945312 14.347656 C 257.578125 14.519531 257.273438 14.753906 257.027344 15.054688 C 256.785156 15.355469 256.601562 15.707031 256.484375 16.113281 C 256.363281 16.515625 256.304688 16.949219 256.304688 17.414062 C 256.304688 17.878906 256.363281 18.304688 256.488281 18.691406 C 256.613281 19.078125 256.796875 19.414062 257.042969 19.695312 C 257.285156 19.972656 257.589844 20.191406 257.953125 20.339844 C 258.316406 20.492188 258.734375 20.570312 259.207031 20.570312 C 260 20.570312 260.625 20.363281 261.085938 19.945312 C 261.546875 19.53125 261.832031 18.9375 261.941406 18.167969 L 260.898438 18.167969 C 260.835938 18.648438 260.660156 19.023438 260.378906 19.285156 C 260.09375 19.550781 259.699219 19.679688 259.195312 19.679688 C 258.875 19.679688 258.597656 19.617188 258.367188 19.488281 C 258.136719 19.359375 257.945312 19.191406 257.804688 18.980469 C 257.660156 18.769531 257.554688 18.527344 257.484375 18.253906 C 257.417969 17.980469 257.382812 17.703125 257.382812 17.414062 C 257.382812 17.101562 257.414062 16.800781 257.480469 16.507812 C 257.542969 16.214844 257.648438 15.957031 257.796875 15.734375 C 257.945312 15.511719 258.144531 15.328125 258.390625 15.195312 C 258.640625 15.058594 258.945312 14.988281 259.316406 14.988281 C 259.746094 14.988281 260.089844 15.097656 260.347656 15.3125 C 260.601562 15.527344 260.769531 15.832031 260.851562 16.226562 Z M 268.21875 20.4375 L 268.21875 14.234375 L 267.199219 14.234375 L 267.199219 17.738281 C 267.199219 18.019531 267.164062 18.277344 267.085938 18.511719 C 267.011719 18.746094 266.894531 18.953125 266.746094 19.128906 C 266.59375 19.304688 266.402344 19.441406 266.175781 19.539062 C 265.945312 19.632812 265.675781 19.679688 265.363281 19.679688 C 264.972656 19.679688 264.664062 19.570312 264.441406 19.34375 C 264.214844 19.121094 264.105469 18.816406 264.105469 18.433594 L 264.105469 14.234375 L 263.085938 14.234375 L 263.085938 18.3125 C 263.085938 18.648438 263.117188 18.957031 263.1875 19.230469 C 263.253906 19.507812 263.371094 19.746094 263.539062 19.945312 C 263.707031 20.144531 263.929688 20.300781 264.199219 20.40625 C 264.472656 20.515625 264.8125 20.570312 265.21875 20.570312 C 265.675781 20.570312 266.074219 20.480469 266.410156 20.300781 C 266.746094 20.121094 267.019531 19.835938 267.238281 19.453125 L 267.261719 19.453125 L 267.261719 20.4375 Z M 269.757812 14.234375 L 269.757812 20.4375 L 270.777344 20.4375 L 270.777344 16.574219 C 270.777344 16.453125 270.804688 16.304688 270.867188 16.125 C 270.925781 15.945312 271.023438 15.769531 271.152344 15.601562 C 271.285156 15.433594 271.457031 15.289062 271.671875 15.167969 C 271.882812 15.050781 272.136719 14.988281 272.433594 14.988281 C 272.664062 14.988281 272.855469 15.023438 273.003906 15.089844 C 273.152344 15.160156 273.269531 15.253906 273.355469 15.378906 C 273.445312 15.503906 273.507812 15.648438 273.542969 15.816406 C 273.578125 15.984375 273.597656 16.167969 273.597656 16.371094 L 273.597656 20.4375 L 274.617188 20.4375 L 274.617188 16.574219 C 274.617188 16.09375 274.761719 15.710938 275.046875 15.421875 C 275.335938 15.132812 275.730469 14.988281 276.234375 14.988281 C 276.484375 14.988281 276.6875 15.027344 276.84375 15.097656 C 277 15.167969 277.121094 15.265625 277.207031 15.390625 C 277.296875 15.515625 277.355469 15.660156 277.386719 15.828125 C 277.417969 15.996094 277.4375 16.175781 277.4375 16.371094 L 277.4375 20.4375 L 278.457031 20.4375 L 278.457031 15.890625 C 278.457031 15.570312 278.40625 15.296875 278.304688 15.066406 C 278.207031 14.839844 278.066406 14.652344 277.886719 14.507812 C 277.707031 14.363281 277.492188 14.257812 277.238281 14.191406 C 276.984375 14.125 276.703125 14.089844 276.390625 14.089844 C 275.984375 14.089844 275.609375 14.179688 275.269531 14.367188 C 274.929688 14.550781 274.65625 14.808594 274.449219 15.144531 C 274.320312 14.761719 274.101562 14.488281 273.789062 14.328125 C 273.476562 14.167969 273.128906 14.089844 272.746094 14.089844 C 271.871094 14.089844 271.203125 14.441406 270.742188 15.144531 L 270.714844 15.144531 L 270.714844 14.234375 Z M 284.296875 16.742188 L 280.734375 16.742188 C 280.75 16.5 280.800781 16.277344 280.890625 16.0625 C 280.980469 15.851562 281.097656 15.664062 281.25 15.503906 C 281.402344 15.34375 281.585938 15.21875 281.796875 15.128906 C 282.007812 15.035156 282.246094 14.988281 282.511719 14.988281 C 282.765625 14.988281 283 15.035156 283.210938 15.128906 C 283.425781 15.21875 283.609375 15.34375 283.765625 15.5 C 283.921875 15.65625 284.042969 15.839844 284.136719 16.058594 C 284.230469 16.273438 284.28125 16.5 284.296875 16.742188 Z M 285.28125 18.46875 L 284.273438 18.46875 C 284.1875 18.878906 284.003906 19.179688 283.730469 19.382812 C 283.453125 19.582031 283.097656 19.679688 282.667969 19.679688 C 282.332031 19.679688 282.039062 19.625 281.789062 19.511719 C 281.542969 19.402344 281.339844 19.25 281.179688 19.0625 C 281.019531 18.875 280.902344 18.660156 280.832031 18.414062 C 280.757812 18.171875 280.726562 17.914062 280.734375 17.640625 L 285.378906 17.640625 C 285.394531 17.265625 285.359375 16.871094 285.277344 16.453125 C 285.191406 16.039062 285.039062 15.652344 284.820312 15.300781 C 284.601562 14.949219 284.308594 14.660156 283.945312 14.429688 C 283.582031 14.203125 283.121094 14.089844 282.570312 14.089844 C 282.148438 14.089844 281.757812 14.167969 281.402344 14.328125 C 281.046875 14.488281 280.738281 14.714844 280.476562 15 C 280.214844 15.289062 280.015625 15.628906 279.871094 16.023438 C 279.726562 16.414062 279.65625 16.84375 279.65625 17.316406 C 279.671875 17.789062 279.742188 18.226562 279.863281 18.625 C 279.988281 19.023438 280.175781 19.371094 280.421875 19.65625 C 280.671875 19.945312 280.976562 20.167969 281.339844 20.328125 C 281.703125 20.488281 282.132812 20.570312 282.628906 20.570312 C 283.335938 20.570312 283.917969 20.394531 284.382812 20.042969 C 284.847656 19.691406 285.148438 19.164062 285.28125 18.46875 Z M 286.4375 14.234375 L 286.4375 20.4375 L 287.457031 20.4375 L 287.457031 16.933594 C 287.457031 16.652344 287.492188 16.394531 287.570312 16.160156 C 287.644531 15.921875 287.761719 15.71875 287.910156 15.542969 C 288.0625 15.367188 288.253906 15.230469 288.480469 15.132812 C 288.710938 15.039062 288.980469 14.988281 289.292969 14.988281 C 289.683594 14.988281 289.992188 15.101562 290.214844 15.324219 C 290.441406 15.550781 290.550781 15.851562 290.550781 16.238281 L 290.550781 20.4375 L 291.570312 20.4375 L 291.570312 16.359375 C 291.570312 16.023438 291.539062 15.714844 291.46875 15.441406 C 291.402344 15.164062 291.285156 14.925781 291.117188 14.726562 C 290.949219 14.527344 290.726562 14.371094 290.457031 14.257812 C 290.183594 14.144531 289.84375 14.089844 289.4375 14.089844 C 288.515625 14.089844 287.84375 14.464844 287.421875 15.21875 L 287.394531 15.21875 L 287.394531 14.234375 Z M 294.523438 14.234375 L 294.523438 12.375 L 293.503906 12.375 L 293.503906 14.234375 L 292.449219 14.234375 L 292.449219 15.132812 L 293.503906 15.132812 L 293.503906 19.082031 C 293.503906 19.371094 293.53125 19.601562 293.585938 19.777344 C 293.644531 19.953125 293.730469 20.089844 293.847656 20.183594 C 293.960938 20.28125 294.113281 20.347656 294.300781 20.382812 C 294.488281 20.417969 294.714844 20.4375 294.980469 20.4375 L 295.761719 20.4375 L 295.761719 19.539062 L 295.292969 19.539062 C 295.132812 19.539062 295 19.53125 294.902344 19.519531 C 294.800781 19.507812 294.722656 19.480469 294.667969 19.441406 C 294.613281 19.402344 294.574219 19.34375 294.554688 19.273438 C 294.535156 19.203125 294.523438 19.105469 294.523438 18.984375 L 294.523438 15.132812 L 295.761719 15.132812 L 295.761719 14.234375 Z M 302.386719 20.414062 C 302.210938 20.519531 301.964844 20.570312 301.652344 20.570312 C 301.390625 20.570312 301.179688 20.496094 301.023438 20.347656 C 300.867188 20.199219 300.789062 19.957031 300.789062 19.621094 C 300.507812 19.957031 300.183594 20.199219 299.8125 20.347656 C 299.441406 20.496094 299.035156 20.570312 298.605469 20.570312 C 298.324219 20.570312 298.058594 20.539062 297.808594 20.472656 C 297.554688 20.410156 297.335938 20.308594 297.152344 20.171875 C 296.96875 20.035156 296.824219 19.859375 296.714844 19.640625 C 296.605469 19.417969 296.554688 19.152344 296.554688 18.839844 C 296.554688 18.488281 296.613281 18.203125 296.734375 17.976562 C 296.855469 17.753906 297.011719 17.570312 297.207031 17.429688 C 297.402344 17.289062 297.628906 17.183594 297.878906 17.113281 C 298.132812 17.042969 298.390625 16.980469 298.652344 16.933594 C 298.933594 16.878906 299.199219 16.835938 299.449219 16.808594 C 299.703125 16.78125 299.925781 16.738281 300.117188 16.6875 C 300.308594 16.636719 300.460938 16.558594 300.574219 16.460938 C 300.683594 16.359375 300.742188 16.214844 300.742188 16.023438 C 300.742188 15.796875 300.699219 15.617188 300.613281 15.480469 C 300.53125 15.34375 300.421875 15.242188 300.292969 15.167969 C 300.160156 15.097656 300.011719 15.050781 299.847656 15.027344 C 299.683594 15.003906 299.519531 14.988281 299.359375 14.988281 C 298.929688 14.988281 298.570312 15.070312 298.28125 15.234375 C 297.992188 15.398438 297.835938 15.710938 297.8125 16.164062 L 296.792969 16.164062 C 296.808594 15.78125 296.890625 15.457031 297.03125 15.195312 C 297.175781 14.929688 297.367188 14.714844 297.609375 14.550781 C 297.847656 14.386719 298.125 14.269531 298.429688 14.199219 C 298.738281 14.125 299.070312 14.089844 299.421875 14.089844 C 299.703125 14.089844 299.980469 14.109375 300.253906 14.148438 C 300.53125 14.1875 300.78125 14.273438 301.003906 14.394531 C 301.230469 14.519531 301.410156 14.695312 301.546875 14.917969 C 301.683594 15.140625 301.75 15.433594 301.75 15.792969 L 301.75 18.984375 C 301.75 19.226562 301.761719 19.402344 301.792969 19.511719 C 301.820312 19.625 301.914062 19.679688 302.074219 19.679688 C 302.160156 19.679688 302.265625 19.660156 302.386719 19.621094 Z M 300.730469 17.234375 C 300.601562 17.328125 300.433594 17.398438 300.226562 17.445312 C 300.019531 17.488281 299.800781 17.523438 299.570312 17.550781 C 299.34375 17.578125 299.113281 17.613281 298.882812 17.648438 C 298.648438 17.683594 298.441406 17.742188 298.257812 17.820312 C 298.074219 17.902344 297.921875 18.015625 297.808594 18.164062 C 297.691406 18.3125 297.632812 18.511719 297.632812 18.769531 C 297.632812 18.9375 297.667969 19.078125 297.734375 19.195312 C 297.804688 19.3125 297.890625 19.40625 298 19.476562 C 298.105469 19.550781 298.234375 19.601562 298.378906 19.632812 C 298.523438 19.664062 298.671875 19.679688 298.832031 19.679688 C 299.167969 19.679688 299.457031 19.636719 299.695312 19.542969 C 299.9375 19.453125 300.132812 19.335938 300.285156 19.195312 C 300.4375 19.054688 300.550781 18.902344 300.621094 18.738281 C 300.691406 18.574219 300.730469 18.421875 300.730469 18.277344 Z M 304.746094 14.234375 L 304.746094 12.375 L 303.726562 12.375 L 303.726562 14.234375 L 302.671875 14.234375 L 302.671875 15.132812 L 303.726562 15.132812 L 303.726562 19.082031 C 303.726562 19.371094 303.753906 19.601562 303.808594 19.777344 C 303.867188 19.953125 303.953125 20.089844 304.070312 20.183594 C 304.183594 20.28125 304.335938 20.347656 304.523438 20.382812 C 304.710938 20.417969 304.9375 20.4375 305.203125 20.4375 L 305.984375 20.4375 L 305.984375 19.539062 L 305.515625 19.539062 C 305.355469 19.539062 305.222656 19.53125 305.125 19.519531 C 305.023438 19.507812 304.945312 19.480469 304.890625 19.441406 C 304.835938 19.402344 304.796875 19.34375 304.777344 19.273438 C 304.757812 19.203125 304.746094 19.105469 304.746094 18.984375 L 304.746094 15.132812 L 305.984375 15.132812 L 305.984375 14.234375 Z M 308.191406 13.117188 L 308.191406 11.871094 L 307.171875 11.871094 L 307.171875 13.117188 Z M 307.171875 14.234375 L 307.171875 20.4375 L 308.191406 20.4375 L 308.191406 14.234375 Z M 310.519531 17.339844 C 310.519531 16.964844 310.570312 16.632812 310.667969 16.339844 C 310.769531 16.046875 310.90625 15.800781 311.082031 15.601562 C 311.257812 15.402344 311.464844 15.25 311.703125 15.144531 C 311.9375 15.042969 312.1875 14.988281 312.453125 14.988281 C 312.714844 14.988281 312.964844 15.042969 313.203125 15.144531 C 313.4375 15.25 313.644531 15.402344 313.820312 15.601562 C 313.996094 15.800781 314.132812 16.046875 314.234375 16.339844 C 314.335938 16.632812 314.382812 16.964844 314.382812 17.339844 C 314.382812 17.71875 314.332031 18.050781 314.234375 18.34375 C 314.132812 18.636719 313.996094 18.878906 313.820312 19.074219 C 313.644531 19.269531 313.4375 19.421875 313.203125 19.527344 C 312.964844 19.628906 312.714844 19.679688 312.453125 19.679688 C 312.1875 19.679688 311.9375 19.628906 311.703125 19.527344 C 311.464844 19.421875 311.261719 19.273438 311.082031 19.074219 C 310.90625 18.878906 310.769531 18.636719 310.667969 18.34375 C 310.570312 18.050781 310.519531 17.71875 310.519531 17.339844 Z M 309.441406 17.339844 C 309.441406 17.796875 309.503906 18.222656 309.632812 18.613281 C 309.761719 19.003906 309.953125 19.347656 310.207031 19.640625 C 310.464844 19.933594 310.78125 20.160156 311.15625 20.324219 C 311.53125 20.488281 311.964844 20.570312 312.453125 20.570312 C 312.949219 20.570312 313.382812 20.488281 313.753906 20.324219 C 314.125 20.160156 314.441406 19.929688 314.695312 19.640625 C 314.953125 19.347656 315.144531 19.003906 315.273438 18.613281 C 315.398438 18.222656 315.464844 17.796875 315.464844 17.339844 C 315.464844 16.886719 315.398438 16.460938 315.273438 16.0625 C 315.144531 15.667969 314.953125 15.324219 314.695312 15.03125 C 314.441406 14.738281 314.125 14.507812 313.753906 14.339844 C 313.382812 14.171875 312.949219 14.089844 312.453125 14.089844 C 311.964844 14.089844 311.53125 14.171875 311.15625 14.339844 C 310.78125 14.507812 310.464844 14.738281 310.207031 15.03125 C 309.953125 15.324219 309.761719 15.667969 309.632812 16.0625 C 309.503906 16.460938 309.441406 16.886719 309.441406 17.339844 Z M 316.667969 14.234375 L 316.667969 20.4375 L 317.6875 20.4375 L 317.6875 16.933594 C 317.6875 16.652344 317.722656 16.394531 317.800781 16.160156 C 317.875 15.921875 317.992188 15.71875 318.140625 15.542969 C 318.292969 15.367188 318.484375 15.230469 318.710938 15.132812 C 318.941406 15.039062 319.210938 14.988281 319.523438 14.988281 C 319.914062 14.988281 320.222656 15.101562 320.445312 15.324219 C 320.671875 15.550781 320.78125 15.851562 320.78125 16.238281 L 320.78125 20.4375 L 321.800781 20.4375 L 321.800781 16.359375 C 321.800781 16.023438 321.769531 15.714844 321.699219 15.441406 C 321.632812 15.164062 321.515625 14.925781 321.347656 14.726562 C 321.179688 14.527344 320.957031 14.371094 320.6875 14.257812 C 320.414062 14.144531 320.074219 14.089844 319.667969 14.089844 C 318.746094 14.089844 318.074219 14.464844 317.652344 15.21875 L 317.625 15.21875 L 317.625 14.234375 Z M 328.355469 22.800781 L 329.132812 22.800781 C 328.566406 21.882812 328.160156 20.96875 327.917969 20.066406 C 327.671875 19.160156 327.550781 18.207031 327.550781 17.199219 C 327.550781 16.214844 327.671875 15.273438 327.910156 14.378906 C 328.148438 13.480469 328.558594 12.578125 329.132812 11.664062 L 328.355469 11.664062 C 327.730469 12.488281 327.261719 13.382812 326.945312 14.339844 C 326.628906 15.300781 326.46875 16.253906 326.46875 17.199219 C 326.46875 17.726562 326.515625 18.230469 326.601562 18.710938 C 326.691406 19.191406 326.816406 19.65625 326.980469 20.113281 C 327.144531 20.570312 327.34375 21.019531 327.574219 21.464844 C 327.804688 21.90625 328.066406 22.351562 328.355469 22.800781 Z M 334.652344 12.972656 L 334.652344 12.074219 L 330.453125 12.074219 L 329.660156 16.488281 L 330.535156 16.539062 C 330.734375 16.296875 330.964844 16.101562 331.226562 15.957031 C 331.484375 15.808594 331.785156 15.734375 332.121094 15.734375 C 332.40625 15.734375 332.667969 15.78125 332.90625 15.878906 C 333.140625 15.972656 333.34375 16.109375 333.511719 16.28125 C 333.679688 16.453125 333.808594 16.65625 333.902344 16.890625 C 333.992188 17.128906 334.039062 17.386719 334.039062 17.664062 C 334.039062 18 333.992188 18.296875 333.894531 18.546875 C 333.800781 18.800781 333.667969 19.007812 333.503906 19.175781 C 333.339844 19.34375 333.148438 19.472656 332.929688 19.554688 C 332.710938 19.640625 332.480469 19.679688 332.238281 19.679688 C 331.984375 19.679688 331.75 19.644531 331.539062 19.566406 C 331.324219 19.492188 331.140625 19.382812 330.984375 19.242188 C 330.828125 19.101562 330.707031 18.941406 330.613281 18.75 C 330.523438 18.5625 330.46875 18.363281 330.453125 18.144531 L 329.433594 18.144531 C 329.441406 18.527344 329.515625 18.875 329.660156 19.175781 C 329.804688 19.480469 330 19.734375 330.246094 19.941406 C 330.496094 20.144531 330.78125 20.300781 331.105469 20.40625 C 331.429688 20.515625 331.777344 20.570312 332.144531 20.570312 C 332.640625 20.570312 333.074219 20.492188 333.445312 20.335938 C 333.816406 20.179688 334.128906 19.96875 334.375 19.707031 C 334.625 19.441406 334.808594 19.140625 334.933594 18.800781 C 335.058594 18.460938 335.121094 18.109375 335.121094 17.75 C 335.121094 17.261719 335.046875 16.835938 334.902344 16.472656 C 334.757812 16.109375 334.5625 15.804688 334.316406 15.558594 C 334.066406 15.316406 333.777344 15.132812 333.441406 15.011719 C 333.105469 14.894531 332.746094 14.832031 332.371094 14.832031 C 332.082031 14.832031 331.792969 14.882812 331.5 14.984375 C 331.210938 15.082031 330.972656 15.238281 330.789062 15.445312 L 330.765625 15.421875 L 331.21875 12.972656 Z M 336.679688 19.105469 L 336.679688 20.4375 L 338.011719 20.4375 L 338.011719 19.105469 Z M 343.292969 20.4375 L 343.292969 11.929688 L 342.511719 11.929688 C 342.457031 12.25 342.351562 12.511719 342.199219 12.722656 C 342.046875 12.929688 341.863281 13.09375 341.640625 13.214844 C 341.421875 13.332031 341.175781 13.414062 340.902344 13.460938 C 340.632812 13.503906 340.351562 13.527344 340.0625 13.527344 L 340.0625 14.339844 L 342.273438 14.339844 L 342.273438 20.4375 Z M 349.964844 20.4375 L 349.964844 11.929688 L 349.183594 11.929688 C 349.128906 12.25 349.023438 12.511719 348.871094 12.722656 C 348.71875 12.929688 348.535156 13.09375 348.3125 13.214844 C 348.09375 13.332031 347.847656 13.414062 347.574219 13.460938 C 347.304688 13.503906 347.023438 13.527344 346.734375 13.527344 L 346.734375 14.339844 L 348.945312 14.339844 L 348.945312 20.4375 Z M 353.132812 11.871094 L 353.132812 20.4375 L 354.152344 20.4375 L 354.152344 16.933594 C 354.152344 16.652344 354.1875 16.394531 354.265625 16.160156 C 354.339844 15.921875 354.457031 15.71875 354.605469 15.542969 C 354.757812 15.367188 354.949219 15.230469 355.175781 15.132812 C 355.40625 15.039062 355.675781 14.988281 355.988281 14.988281 C 356.378906 14.988281 356.6875 15.101562 356.910156 15.324219 C 357.136719 15.550781 357.246094 15.851562 357.246094 16.238281 L 357.246094 20.4375 L 358.265625 20.4375 L 358.265625 16.359375 C 358.265625 16.023438 358.234375 15.714844 358.164062 15.441406 C 358.097656 15.164062 357.980469 14.925781 357.8125 14.726562 C 357.644531 14.527344 357.421875 14.371094 357.152344 14.257812 C 356.878906 14.144531 356.539062 14.089844 356.132812 14.089844 C 355.949219 14.089844 355.757812 14.109375 355.5625 14.148438 C 355.367188 14.1875 355.175781 14.25 354.996094 14.335938 C 354.816406 14.417969 354.65625 14.527344 354.511719 14.660156 C 354.367188 14.792969 354.253906 14.953125 354.175781 15.144531 L 354.152344 15.144531 L 354.152344 11.871094 Z M 358.925781 22.800781 L 359.695312 22.800781 C 360.320312 21.976562 360.789062 21.085938 361.105469 20.132812 C 361.421875 19.175781 361.578125 18.226562 361.578125 17.28125 C 361.578125 16.753906 361.535156 16.25 361.445312 15.769531 C 361.359375 15.289062 361.234375 14.820312 361.070312 14.359375 C 360.90625 13.898438 360.707031 13.449219 360.476562 13.003906 C 360.242188 12.558594 359.984375 12.113281 359.695312 11.664062 L 358.925781 11.664062 C 359.488281 12.585938 359.890625 13.5 360.132812 14.40625 C 360.378906 15.316406 360.5 16.273438 360.5 17.28125 C 360.5 18.257812 360.378906 19.195312 360.140625 20.09375 C 359.898438 20.996094 359.496094 21.898438 358.925781 22.800781 Z M 240.535156 9.011719 "/>
<path fill-rule="nonzero" fill="rgb(90.980392%, 33.333333%, 37.254902%)" fill-opacity="1" stroke-width="2" stroke-linecap="butt" stroke-linejoin="miter" stroke="rgb(100%, 100%, 100%)" stroke-opacity="1" stroke-miterlimit="10" d="M 66.304688 32 L 106.304688 32 L 106.304688 44 L 66.304688 44 Z M 66.304688 32 "/>
<path fill-rule="nonzero" fill="rgb(40%, 40%, 40%)" fill-opacity="1" d="M 114.714844 38.898438 L 116.167969 34.902344 L 116.191406 34.902344 L 117.621094 38.898438 Z M 115.570312 33.871094 L 112.234375 42.4375 L 113.398438 42.4375 L 114.355469 39.859375 L 117.980469 39.859375 L 118.917969 42.4375 L 120.175781 42.4375 L 116.828125 33.871094 Z M 121.59375 39.390625 C 121.59375 39.085938 121.625 38.789062 121.691406 38.5 C 121.753906 38.214844 121.859375 37.957031 122.003906 37.734375 C 122.148438 37.511719 122.339844 37.328125 122.578125 37.195312 C 122.816406 37.058594 123.109375 36.988281 123.453125 36.988281 C 123.804688 36.988281 124.105469 37.054688 124.355469 37.1875 C 124.601562 37.320312 124.804688 37.492188 124.960938 37.710938 C 125.117188 37.925781 125.230469 38.175781 125.300781 38.460938 C 125.375 38.742188 125.410156 39.039062 125.410156 39.339844 C 125.410156 39.628906 125.375 39.914062 125.308594 40.195312 C 125.238281 40.472656 125.128906 40.722656 124.976562 40.945312 C 124.824219 41.164062 124.628906 41.339844 124.390625 41.476562 C 124.148438 41.613281 123.859375 41.679688 123.515625 41.679688 C 123.1875 41.679688 122.898438 41.617188 122.65625 41.488281 C 122.410156 41.359375 122.210938 41.191406 122.054688 40.972656 C 121.898438 40.757812 121.785156 40.511719 121.707031 40.234375 C 121.632812 39.960938 121.59375 39.675781 121.59375 39.390625 Z M 126.394531 42.4375 L 126.394531 33.871094 L 125.375 33.871094 L 125.375 37.0625 L 125.351562 37.0625 C 125.238281 36.878906 125.101562 36.722656 124.9375 36.597656 C 124.773438 36.476562 124.597656 36.375 124.414062 36.300781 C 124.230469 36.222656 124.046875 36.167969 123.863281 36.136719 C 123.679688 36.105469 123.507812 36.089844 123.347656 36.089844 C 122.875 36.089844 122.460938 36.175781 122.105469 36.347656 C 121.75 36.519531 121.453125 36.75 121.214844 37.042969 C 120.980469 37.335938 120.804688 37.675781 120.6875 38.070312 C 120.570312 38.460938 120.515625 38.878906 120.515625 39.316406 C 120.515625 39.757812 120.574219 40.171875 120.695312 40.566406 C 120.816406 40.957031 120.992188 41.300781 121.226562 41.597656 C 121.464844 41.894531 121.761719 42.128906 122.117188 42.304688 C 122.472656 42.480469 122.890625 42.570312 123.371094 42.570312 C 123.800781 42.570312 124.199219 42.492188 124.558594 42.339844 C 124.917969 42.1875 125.183594 41.941406 125.351562 41.597656 L 125.375 41.597656 L 125.375 42.4375 Z M 127.964844 36.234375 L 127.964844 42.4375 L 128.984375 42.4375 L 128.984375 38.574219 C 128.984375 38.453125 129.011719 38.304688 129.074219 38.125 C 129.132812 37.945312 129.230469 37.769531 129.359375 37.601562 C 129.492188 37.433594 129.664062 37.289062 129.878906 37.167969 C 130.089844 37.050781 130.34375 36.988281 130.640625 36.988281 C 130.871094 36.988281 131.0625 37.023438 131.210938 37.089844 C 131.359375 37.160156 131.476562 37.253906 131.5625 37.378906 C 131.652344 37.503906 131.714844 37.648438 131.75 37.816406 C 131.785156 37.984375 131.804688 38.167969 131.804688 38.371094 L 131.804688 42.4375 L 132.824219 42.4375 L 132.824219 38.574219 C 132.824219 38.09375 132.96875 37.710938 133.253906 37.421875 C 133.542969 37.132812 133.9375 36.988281 134.441406 36.988281 C 134.691406 36.988281 134.894531 37.027344 135.050781 37.097656 C 135.207031 37.167969 135.328125 37.265625 135.414062 37.390625 C 135.503906 37.515625 135.5625 37.660156 135.59375 37.828125 C 135.625 37.996094 135.644531 38.175781 135.644531 38.371094 L 135.644531 42.4375 L 136.664062 42.4375 L 136.664062 37.890625 C 136.664062 37.570312 136.613281 37.296875 136.511719 37.066406 C 136.414062 36.839844 136.273438 36.652344 136.09375 36.507812 C 135.914062 36.363281 135.699219 36.257812 135.445312 36.191406 C 135.191406 36.125 134.910156 36.089844 134.597656 36.089844 C 134.191406 36.089844 133.816406 36.179688 133.476562 36.367188 C 133.136719 36.550781 132.863281 36.808594 132.65625 37.144531 C 132.527344 36.761719 132.308594 36.488281 131.996094 36.328125 C 131.683594 36.167969 131.335938 36.089844 130.953125 36.089844 C 130.078125 36.089844 129.410156 36.441406 128.949219 37.144531 L 128.921875 37.144531 L 128.921875 36.234375 Z M 139.28125 35.117188 L 139.28125 33.871094 L 138.261719 33.871094 L 138.261719 35.117188 Z M 138.261719 36.234375 L 138.261719 42.4375 L 139.28125 42.4375 L 139.28125 36.234375 Z M 140.867188 36.234375 L 140.867188 42.4375 L 141.886719 42.4375 L 141.886719 38.933594 C 141.886719 38.652344 141.921875 38.394531 142 38.160156 C 142.074219 37.921875 142.191406 37.71875 142.339844 37.542969 C 142.492188 37.367188 142.683594 37.230469 142.910156 37.132812 C 143.140625 37.039062 143.410156 36.988281 143.722656 36.988281 C 144.113281 36.988281 144.421875 37.101562 144.644531 37.324219 C 144.871094 37.550781 144.980469 37.851562 144.980469 38.238281 L 144.980469 42.4375 L 146 42.4375 L 146 38.359375 C 146 38.023438 145.96875 37.714844 145.898438 37.441406 C 145.832031 37.164062 145.714844 36.925781 145.546875 36.726562 C 145.378906 36.527344 145.15625 36.371094 144.886719 36.257812 C 144.613281 36.144531 144.273438 36.089844 143.867188 36.089844 C 142.945312 36.089844 142.273438 36.464844 141.851562 37.21875 L 141.824219 37.21875 L 141.824219 36.234375 Z M 152.554688 44.800781 L 153.332031 44.800781 C 152.765625 43.882812 152.359375 42.96875 152.117188 42.066406 C 151.871094 41.160156 151.75 40.207031 151.75 39.199219 C 151.75 38.214844 151.871094 37.273438 152.109375 36.378906 C 152.347656 35.480469 152.757812 34.578125 153.332031 33.664062 L 152.554688 33.664062 C 151.929688 34.488281 151.460938 35.382812 151.144531 36.339844 C 150.828125 37.300781 150.667969 38.253906 150.667969 39.199219 C 150.667969 39.726562 150.714844 40.230469 150.800781 40.710938 C 150.890625 41.191406 151.015625 41.65625 151.179688 42.113281 C 151.34375 42.570312 151.542969 43.019531 151.773438 43.464844 C 152.003906 43.90625 152.265625 44.351562 152.554688 44.800781 Z M 157.28125 39.546875 L 154.425781 39.546875 L 157.257812 35.382812 L 157.28125 35.382812 Z M 158.242188 39.546875 L 158.242188 33.929688 L 157.425781 33.929688 L 153.550781 39.460938 L 153.550781 40.445312 L 157.28125 40.445312 L 157.28125 42.4375 L 158.242188 42.4375 L 158.242188 40.445312 L 159.394531 40.445312 L 159.394531 39.546875 Z M 160.882812 41.105469 L 160.882812 42.4375 L 162.214844 42.4375 L 162.214844 41.105469 Z M 168.863281 34.972656 L 168.863281 34.074219 L 164.664062 34.074219 L 163.871094 38.488281 L 164.746094 38.539062 C 164.945312 38.296875 165.175781 38.101562 165.4375 37.957031 C 165.695312 37.808594 165.996094 37.734375 166.332031 37.734375 C 166.617188 37.734375 166.878906 37.78125 167.117188 37.878906 C 167.351562 37.972656 167.554688 38.109375 167.722656 38.28125 C 167.890625 38.453125 168.019531 38.65625 168.113281 38.890625 C 168.203125 39.128906 168.25 39.386719 168.25 39.664062 C 168.25 40 168.203125 40.296875 168.105469 40.546875 C 168.011719 40.800781 167.878906 41.007812 167.714844 41.175781 C 167.550781 41.34375 167.359375 41.472656 167.140625 41.554688 C 166.921875 41.640625 166.691406 41.679688 166.449219 41.679688 C 166.195312 41.679688 165.960938 41.644531 165.75 41.566406 C 165.535156 41.492188 165.351562 41.382812 165.195312 41.242188 C 165.039062 41.101562 164.917969 40.941406 164.824219 40.75 C 164.734375 40.5625 164.679688 40.363281 164.664062 40.144531 L 163.644531 40.144531 C 163.652344 40.527344 163.726562 40.875 163.871094 41.175781 C 164.015625 41.480469 164.210938 41.734375 164.457031 41.941406 C 164.707031 42.144531 164.992188 42.300781 165.316406 42.40625 C 165.640625 42.515625 165.988281 42.570312 166.355469 42.570312 C 166.851562 42.570312 167.285156 42.492188 167.65625 42.335938 C 168.027344 42.179688 168.339844 41.96875 168.585938 41.707031 C 168.835938 41.441406 169.019531 41.140625 169.144531 40.800781 C 169.269531 40.460938 169.332031 40.109375 169.332031 39.75 C 169.332031 39.261719 169.257812 38.835938 169.113281 38.472656 C 168.96875 38.109375 168.773438 37.804688 168.527344 37.558594 C 168.277344 37.316406 167.988281 37.132812 167.652344 37.011719 C 167.316406 36.894531 166.957031 36.832031 166.582031 36.832031 C 166.292969 36.832031 166.003906 36.882812 165.710938 36.984375 C 165.421875 37.082031 165.183594 37.238281 165 37.445312 L 164.976562 37.421875 L 165.429688 34.972656 Z M 173.960938 39.546875 L 171.105469 39.546875 L 173.9375 35.382812 L 173.960938 35.382812 Z M 174.921875 39.546875 L 174.921875 33.929688 L 174.105469 33.929688 L 170.230469 39.460938 L 170.230469 40.445312 L 173.960938 40.445312 L 173.960938 42.4375 L 174.921875 42.4375 L 174.921875 40.445312 L 176.074219 40.445312 L 176.074219 39.546875 Z M 177.335938 33.871094 L 177.335938 42.4375 L 178.355469 42.4375 L 178.355469 38.933594 C 178.355469 38.652344 178.390625 38.394531 178.46875 38.160156 C 178.542969 37.921875 178.660156 37.71875 178.808594 37.542969 C 178.960938 37.367188 179.152344 37.230469 179.378906 37.132812 C 179.609375 37.039062 179.878906 36.988281 180.191406 36.988281 C 180.582031 36.988281 180.890625 37.101562 181.113281 37.324219 C 181.339844 37.550781 181.449219 37.851562 181.449219 38.238281 L 181.449219 42.4375 L 182.46875 42.4375 L 182.46875 38.359375 C 182.46875 38.023438 182.4375 37.714844 182.367188 37.441406 C 182.300781 37.164062 182.183594 36.925781 182.015625 36.726562 C 181.847656 36.527344 181.625 36.371094 181.355469 36.257812 C 181.082031 36.144531 180.742188 36.089844 180.335938 36.089844 C 180.152344 36.089844 179.960938 36.109375 179.765625 36.148438 C 179.570312 36.1875 179.378906 36.25 179.199219 36.335938 C 179.019531 36.417969 178.859375 36.527344 178.714844 36.660156 C 178.570312 36.792969 178.457031 36.953125 178.378906 37.144531 L 178.355469 37.144531 L 178.355469 33.871094 Z M 183.128906 44.800781 L 183.898438 44.800781 C 184.523438 43.976562 184.992188 43.085938 185.308594 42.132812 C 185.625 41.175781 185.78125 40.226562 185.78125 39.28125 C 185.78125 38.753906 185.738281 38.25 185.648438 37.769531 C 185.5625 37.289062 185.4375 36.820312 185.273438 36.359375 C 185.109375 35.898438 184.910156 35.449219 184.679688 35.003906 C 184.445312 34.558594 184.1875 34.113281 183.898438 33.664062 L 183.128906 33.664062 C 183.691406 34.585938 184.09375 35.5 184.335938 36.40625 C 184.582031 37.316406 184.703125 38.273438 184.703125 39.28125 C 184.703125 40.257812 184.582031 41.195312 184.34375 42.09375 C 184.101562 42.996094 183.699219 43.898438 183.128906 44.800781 Z M 112.304688 31.011719 "/>
<path fill-rule="nonzero" fill="rgb(66.27451%, 78.823529%, 11.764706%)" fill-opacity="1" stroke-width="2" stroke-linecap="butt" stroke-linejoin="miter" stroke="rgb(100%, 100%, 100%)" stroke-opacity="1" stroke-miterlimit="10" d="M 196.347656 32 L 236.347656 32 L 236.347656 44 L 196.347656 44 Z M 196.347656 32 "/>
<path fill-rule="nonzero" fill="rgb(40%, 40%, 40%)" fill-opacity="1" d="M 243.285156 33.871094 L 243.285156 42.4375 L 244.421875 42.4375 L 244.421875 38.511719 L 248.9375 38.511719 L 248.9375 42.4375 L 250.074219 42.4375 L 250.074219 33.871094 L 248.9375 33.871094 L 248.9375 37.554688 L 244.421875 37.554688 L 244.421875 33.871094 Z M 257.277344 42.414062 C 257.101562 42.519531 256.855469 42.570312 256.542969 42.570312 C 256.28125 42.570312 256.070312 42.496094 255.914062 42.347656 C 255.757812 42.199219 255.679688 41.957031 255.679688 41.621094 C 255.398438 41.957031 255.074219 42.199219 254.703125 42.347656 C 254.332031 42.496094 253.925781 42.570312 253.496094 42.570312 C 253.214844 42.570312 252.949219 42.539062 252.699219 42.472656 C 252.445312 42.410156 252.226562 42.308594 252.042969 42.171875 C 251.859375 42.035156 251.714844 41.859375 251.605469 41.640625 C 251.496094 41.417969 251.445312 41.152344 251.445312 40.839844 C 251.445312 40.488281 251.503906 40.203125 251.625 39.976562 C 251.746094 39.753906 251.902344 39.570312 252.097656 39.429688 C 252.292969 39.289062 252.519531 39.183594 252.769531 39.113281 C 253.023438 39.042969 253.28125 38.980469 253.542969 38.933594 C 253.824219 38.878906 254.089844 38.835938 254.339844 38.808594 C 254.59375 38.78125 254.816406 38.738281 255.007812 38.6875 C 255.199219 38.636719 255.351562 38.558594 255.464844 38.460938 C 255.574219 38.359375 255.632812 38.214844 255.632812 38.023438 C 255.632812 37.796875 255.589844 37.617188 255.503906 37.480469 C 255.421875 37.34375 255.3125 37.242188 255.183594 37.167969 C 255.050781 37.097656 254.902344 37.050781 254.738281 37.027344 C 254.574219 37.003906 254.410156 36.988281 254.25 36.988281 C 253.820312 36.988281 253.460938 37.070312 253.171875 37.234375 C 252.882812 37.398438 252.726562 37.710938 252.703125 38.164062 L 251.683594 38.164062 C 251.699219 37.78125 251.78125 37.457031 251.921875 37.195312 C 252.066406 36.929688 252.257812 36.714844 252.5 36.550781 C 252.738281 36.386719 253.015625 36.269531 253.320312 36.199219 C 253.628906 36.125 253.960938 36.089844 254.3125 36.089844 C 254.59375 36.089844 254.871094 36.109375 255.144531 36.148438 C 255.421875 36.1875 255.671875 36.273438 255.894531 36.394531 C 256.121094 36.519531 256.300781 36.695312 256.4375 36.917969 C 256.574219 37.140625 256.640625 37.433594 256.640625 37.792969 L 256.640625 40.984375 C 256.640625 41.226562 256.652344 41.402344 256.683594 41.511719 C 256.710938 41.625 256.804688 41.679688 256.964844 41.679688 C 257.050781 41.679688 257.15625 41.660156 257.277344 41.621094 Z M 255.621094 39.234375 C 255.492188 39.328125 255.324219 39.398438 255.117188 39.445312 C 254.910156 39.488281 254.691406 39.523438 254.460938 39.550781 C 254.234375 39.578125 254.003906 39.613281 253.773438 39.648438 C 253.539062 39.683594 253.332031 39.742188 253.148438 39.820312 C 252.964844 39.902344 252.8125 40.015625 252.699219 40.164062 C 252.582031 40.3125 252.523438 40.511719 252.523438 40.769531 C 252.523438 40.9375 252.558594 41.078125 252.625 41.195312 C 252.695312 41.3125 252.78125 41.40625 252.890625 41.476562 C 252.996094 41.550781 253.125 41.601562 253.269531 41.632812 C 253.414062 41.664062 253.5625 41.679688 253.722656 41.679688 C 254.058594 41.679688 254.347656 41.636719 254.585938 41.542969 C 254.828125 41.453125 255.023438 41.335938 255.175781 41.195312 C 255.328125 41.054688 255.441406 40.902344 255.511719 40.738281 C 255.582031 40.574219 255.621094 40.421875 255.621094 40.277344 Z M 258.1875 36.234375 L 258.1875 42.4375 L 259.210938 42.4375 L 259.210938 39.675781 C 259.210938 39.277344 259.25 38.921875 259.328125 38.617188 C 259.410156 38.308594 259.535156 38.046875 259.714844 37.828125 C 259.890625 37.613281 260.121094 37.449219 260.410156 37.335938 C 260.699219 37.226562 261.046875 37.167969 261.453125 37.167969 L 261.453125 36.089844 C 260.902344 36.074219 260.445312 36.183594 260.085938 36.425781 C 259.726562 36.664062 259.421875 37.039062 259.171875 37.542969 L 259.148438 37.542969 L 259.148438 36.234375 Z M 262.746094 39.390625 C 262.746094 39.085938 262.777344 38.789062 262.84375 38.5 C 262.90625 38.214844 263.011719 37.957031 263.15625 37.734375 C 263.300781 37.511719 263.492188 37.328125 263.730469 37.195312 C 263.96875 37.058594 264.261719 36.988281 264.605469 36.988281 C 264.957031 36.988281 265.257812 37.054688 265.507812 37.1875 C 265.753906 37.320312 265.957031 37.492188 266.113281 37.710938 C 266.269531 37.925781 266.382812 38.175781 266.453125 38.460938 C 266.527344 38.742188 266.5625 39.039062 266.5625 39.339844 C 266.5625 39.628906 266.527344 39.914062 266.460938 40.195312 C 266.390625 40.472656 266.28125 40.722656 266.128906 40.945312 C 265.976562 41.164062 265.78125 41.339844 265.542969 41.476562 C 265.300781 41.613281 265.011719 41.679688 264.667969 41.679688 C 264.339844 41.679688 264.050781 41.617188 263.808594 41.488281 C 263.5625 41.359375 263.363281 41.191406 263.207031 40.972656 C 263.050781 40.757812 262.9375 40.511719 262.859375 40.234375 C 262.785156 39.960938 262.746094 39.675781 262.746094 39.390625 Z M 267.546875 42.4375 L 267.546875 33.871094 L 266.527344 33.871094 L 266.527344 37.0625 L 266.503906 37.0625 C 266.390625 36.878906 266.253906 36.722656 266.089844 36.597656 C 265.925781 36.476562 265.75 36.375 265.566406 36.300781 C 265.382812 36.222656 265.199219 36.167969 265.015625 36.136719 C 264.832031 36.105469 264.660156 36.089844 264.5 36.089844 C 264.027344 36.089844 263.613281 36.175781 263.257812 36.347656 C 262.902344 36.519531 262.605469 36.75 262.367188 37.042969 C 262.132812 37.335938 261.957031 37.675781 261.839844 38.070312 C 261.722656 38.460938 261.667969 38.878906 261.667969 39.316406 C 261.667969 39.757812 261.726562 40.171875 261.847656 40.566406 C 261.96875 40.957031 262.144531 41.300781 262.378906 41.597656 C 262.617188 41.894531 262.914062 42.128906 263.269531 42.304688 C 263.625 42.480469 264.042969 42.570312 264.523438 42.570312 C 264.953125 42.570312 265.351562 42.492188 265.710938 42.339844 C 266.070312 42.1875 266.335938 41.941406 266.503906 41.597656 L 266.527344 41.597656 L 266.527344 42.4375 Z M 275.261719 42.4375 L 277.242188 36.234375 L 276.1875 36.234375 L 274.796875 41.308594 L 274.773438 41.308594 L 273.476562 36.234375 L 272.359375 36.234375 L 271.113281 41.308594 L 271.085938 41.308594 L 269.683594 36.234375 L 268.554688 36.234375 L 270.546875 42.4375 L 271.652344 42.4375 L 272.898438 37.503906 L 272.921875 37.503906 L 274.183594 42.4375 Z M 283.714844 42.414062 C 283.539062 42.519531 283.292969 42.570312 282.980469 42.570312 C 282.71875 42.570312 282.507812 42.496094 282.351562 42.347656 C 282.195312 42.199219 282.117188 41.957031 282.117188 41.621094 C 281.835938 41.957031 281.511719 42.199219 281.140625 42.347656 C 280.769531 42.496094 280.363281 42.570312 279.933594 42.570312 C 279.652344 42.570312 279.386719 42.539062 279.136719 42.472656 C 278.882812 42.410156 278.664062 42.308594 278.480469 42.171875 C 278.296875 42.035156 278.152344 41.859375 278.042969 41.640625 C 277.933594 41.417969 277.882812 41.152344 277.882812 40.839844 C 277.882812 40.488281 277.941406 40.203125 278.0625 39.976562 C 278.183594 39.753906 278.339844 39.570312 278.535156 39.429688 C 278.730469 39.289062 278.957031 39.183594 279.207031 39.113281 C 279.460938 39.042969 279.71875 38.980469 279.980469 38.933594 C 280.261719 38.878906 280.527344 38.835938 280.777344 38.808594 C 281.03125 38.78125 281.253906 38.738281 281.445312 38.6875 C 281.636719 38.636719 281.789062 38.558594 281.902344 38.460938 C 282.011719 38.359375 282.070312 38.214844 282.070312 38.023438 C 282.070312 37.796875 282.027344 37.617188 281.941406 37.480469 C 281.859375 37.34375 281.75 37.242188 281.621094 37.167969 C 281.488281 37.097656 281.339844 37.050781 281.175781 37.027344 C 281.011719 37.003906 280.847656 36.988281 280.6875 36.988281 C 280.257812 36.988281 279.898438 37.070312 279.609375 37.234375 C 279.320312 37.398438 279.164062 37.710938 279.140625 38.164062 L 278.121094 38.164062 C 278.136719 37.78125 278.21875 37.457031 278.359375 37.195312 C 278.503906 36.929688 278.695312 36.714844 278.9375 36.550781 C 279.175781 36.386719 279.453125 36.269531 279.757812 36.199219 C 280.066406 36.125 280.398438 36.089844 280.75 36.089844 C 281.03125 36.089844 281.308594 36.109375 281.582031 36.148438 C 281.859375 36.1875 282.109375 36.273438 282.332031 36.394531 C 282.558594 36.519531 282.738281 36.695312 282.875 36.917969 C 283.011719 37.140625 283.078125 37.433594 283.078125 37.792969 L 283.078125 40.984375 C 283.078125 41.226562 283.089844 41.402344 283.121094 41.511719 C 283.148438 41.625 283.242188 41.679688 283.402344 41.679688 C 283.488281 41.679688 283.59375 41.660156 283.714844 41.621094 Z M 282.058594 39.234375 C 281.929688 39.328125 281.761719 39.398438 281.554688 39.445312 C 281.347656 39.488281 281.128906 39.523438 280.898438 39.550781 C 280.671875 39.578125 280.441406 39.613281 280.210938 39.648438 C 279.976562 39.683594 279.769531 39.742188 279.585938 39.820312 C 279.402344 39.902344 279.25 40.015625 279.136719 40.164062 C 279.019531 40.3125 278.960938 40.511719 278.960938 40.769531 C 278.960938 40.9375 278.996094 41.078125 279.0625 41.195312 C 279.132812 41.3125 279.21875 41.40625 279.328125 41.476562 C 279.433594 41.550781 279.5625 41.601562 279.707031 41.632812 C 279.851562 41.664062 280 41.679688 280.160156 41.679688 C 280.496094 41.679688 280.785156 41.636719 281.023438 41.542969 C 281.265625 41.453125 281.460938 41.335938 281.613281 41.195312 C 281.765625 41.054688 281.878906 40.902344 281.949219 40.738281 C 282.019531 40.574219 282.058594 40.421875 282.058594 40.277344 Z M 284.621094 36.234375 L 284.621094 42.4375 L 285.644531 42.4375 L 285.644531 39.675781 C 285.644531 39.277344 285.683594 38.921875 285.761719 38.617188 C 285.84375 38.308594 285.96875 38.046875 286.148438 37.828125 C 286.324219 37.613281 286.554688 37.449219 286.84375 37.335938 C 287.132812 37.226562 287.480469 37.167969 287.886719 37.167969 L 287.886719 36.089844 C 287.335938 36.074219 286.878906 36.183594 286.519531 36.425781 C 286.160156 36.664062 285.855469 37.039062 285.605469 37.542969 L 285.582031 37.542969 L 285.582031 36.234375 Z M 292.746094 38.742188 L 289.183594 38.742188 C 289.199219 38.5 289.25 38.277344 289.339844 38.0625 C 289.429688 37.851562 289.546875 37.664062 289.699219 37.503906 C 289.851562 37.34375 290.035156 37.21875 290.246094 37.128906 C 290.457031 37.035156 290.695312 36.988281 290.960938 36.988281 C 291.214844 36.988281 291.449219 37.035156 291.660156 37.128906 C 291.875 37.21875 292.058594 37.34375 292.214844 37.5 C 292.371094 37.65625 292.492188 37.839844 292.585938 38.058594 C 292.679688 38.273438 292.730469 38.5 292.746094 38.742188 Z M 293.730469 40.46875 L 292.722656 40.46875 C 292.636719 40.878906 292.453125 41.179688 292.179688 41.382812 C 291.902344 41.582031 291.546875 41.679688 291.117188 41.679688 C 290.78125 41.679688 290.488281 41.625 290.238281 41.511719 C 289.992188 41.402344 289.789062 41.25 289.628906 41.0625 C 289.46875 40.875 289.351562 40.660156 289.28125 40.414062 C 289.207031 40.171875 289.175781 39.914062 289.183594 39.640625 L 293.828125 39.640625 C 293.84375 39.265625 293.808594 38.871094 293.726562 38.453125 C 293.640625 38.039062 293.488281 37.652344 293.269531 37.300781 C 293.050781 36.949219 292.757812 36.660156 292.394531 36.429688 C 292.03125 36.203125 291.570312 36.089844 291.019531 36.089844 C 290.597656 36.089844 290.207031 36.167969 289.851562 36.328125 C 289.496094 36.488281 289.1875 36.714844 288.925781 37 C 288.664062 37.289062 288.464844 37.628906 288.320312 38.023438 C 288.175781 38.414062 288.105469 38.84375 288.105469 39.316406 C 288.121094 39.789062 288.191406 40.226562 288.3125 40.625 C 288.4375 41.023438 288.625 41.371094 288.871094 41.65625 C 289.121094 41.945312 289.425781 42.167969 289.789062 42.328125 C 290.152344 42.488281 290.582031 42.570312 291.078125 42.570312 C 291.785156 42.570312 292.367188 42.394531 292.832031 42.042969 C 293.296875 41.691406 293.597656 41.164062 293.730469 40.46875 Z M 299.902344 44.800781 L 300.679688 44.800781 C 300.113281 43.882812 299.707031 42.96875 299.464844 42.066406 C 299.21875 41.160156 299.097656 40.207031 299.097656 39.199219 C 299.097656 38.214844 299.21875 37.273438 299.457031 36.378906 C 299.695312 35.480469 300.105469 34.578125 300.679688 33.664062 L 299.902344 33.664062 C 299.277344 34.488281 298.808594 35.382812 298.492188 36.339844 C 298.175781 37.300781 298.015625 38.253906 298.015625 39.199219 C 298.015625 39.726562 298.0625 40.230469 298.148438 40.710938 C 298.238281 41.191406 298.363281 41.65625 298.527344 42.113281 C 298.691406 42.570312 298.890625 43.019531 299.121094 43.464844 C 299.351562 43.90625 299.613281 44.351562 299.902344 44.800781 Z M 302.148438 38.25 C 302.148438 38.042969 302.148438 37.8125 302.152344 37.558594 C 302.15625 37.308594 302.175781 37.054688 302.210938 36.804688 C 302.246094 36.550781 302.300781 36.304688 302.367188 36.066406 C 302.4375 35.824219 302.535156 35.617188 302.667969 35.433594 C 302.800781 35.253906 302.964844 35.109375 303.167969 34.996094 C 303.367188 34.886719 303.609375 34.828125 303.898438 34.828125 C 304.1875 34.828125 304.429688 34.886719 304.628906 34.996094 C 304.828125 35.109375 304.996094 35.253906 305.128906 35.433594 C 305.261719 35.613281 305.359375 35.824219 305.429688 36.066406 C 305.496094 36.304688 305.546875 36.550781 305.585938 36.804688 C 305.621094 37.054688 305.640625 37.308594 305.644531 37.558594 C 305.648438 37.8125 305.652344 38.042969 305.652344 38.25 C 305.652344 38.570312 305.640625 38.925781 305.621094 39.324219 C 305.601562 39.71875 305.535156 40.089844 305.429688 40.441406 C 305.320312 40.789062 305.148438 41.082031 304.90625 41.320312 C 304.667969 41.5625 304.332031 41.679688 303.898438 41.679688 C 303.464844 41.679688 303.128906 41.5625 302.890625 41.320312 C 302.652344 41.082031 302.476562 40.789062 302.367188 40.441406 C 302.261719 40.09375 302.195312 39.71875 302.175781 39.324219 C 302.15625 38.929688 302.148438 38.570312 302.148438 38.25 Z M 301.066406 38.261719 C 301.066406 38.574219 301.074219 38.898438 301.089844 39.234375 C 301.105469 39.570312 301.148438 39.898438 301.210938 40.21875 C 301.273438 40.539062 301.367188 40.839844 301.488281 41.125 C 301.605469 41.40625 301.769531 41.65625 301.976562 41.875 C 302.1875 42.089844 302.449219 42.257812 302.765625 42.382812 C 303.082031 42.507812 303.457031 42.570312 303.898438 42.570312 C 304.347656 42.570312 304.726562 42.507812 305.039062 42.382812 C 305.351562 42.257812 305.609375 42.089844 305.820312 41.875 C 306.027344 41.65625 306.191406 41.40625 306.308594 41.125 C 306.429688 40.839844 306.523438 40.539062 306.585938 40.21875 C 306.648438 39.898438 306.691406 39.570312 306.707031 39.234375 C 306.722656 38.898438 306.730469 38.574219 306.730469 38.261719 C 306.730469 37.949219 306.722656 37.625 306.707031 37.289062 C 306.691406 36.953125 306.652344 36.625 306.585938 36.304688 C 306.523438 35.984375 306.429688 35.679688 306.308594 35.394531 C 306.191406 35.105469 306.027344 34.851562 305.820312 34.636719 C 305.609375 34.421875 305.347656 34.25 305.03125 34.121094 C 304.714844 33.992188 304.339844 33.929688 303.898438 33.929688 C 303.457031 33.929688 303.082031 33.992188 302.765625 34.121094 C 302.449219 34.25 302.1875 34.421875 301.976562 34.636719 C 301.769531 34.851562 301.605469 35.105469 301.488281 35.394531 C 301.367188 35.683594 301.273438 35.984375 301.210938 36.304688 C 301.148438 36.625 301.105469 36.953125 301.089844 37.289062 C 301.074219 37.625 301.066406 37.949219 301.066406 38.261719 Z M 308.230469 41.105469 L 308.230469 42.4375 L 309.5625 42.4375 L 309.5625 41.105469 Z M 312.179688 40.386719 L 311.160156 40.386719 C 311.222656 41.121094 311.492188 41.667969 311.960938 42.03125 C 312.433594 42.390625 313.027344 42.570312 313.738281 42.570312 C 314.769531 42.570312 315.519531 42.175781 315.988281 41.386719 C 316.457031 40.597656 316.691406 39.46875 316.691406 37.996094 C 316.691406 37.1875 316.613281 36.523438 316.457031 36 C 316.300781 35.476562 316.089844 35.0625 315.828125 34.757812 C 315.5625 34.453125 315.253906 34.238281 314.902344 34.117188 C 314.550781 33.992188 314.175781 33.929688 313.773438 33.929688 C 313.367188 33.929688 312.992188 33.996094 312.644531 34.132812 C 312.300781 34.269531 312.007812 34.460938 311.757812 34.703125 C 311.511719 34.949219 311.316406 35.238281 311.183594 35.578125 C 311.046875 35.917969 310.976562 36.292969 310.976562 36.703125 C 310.976562 37.117188 311.035156 37.5 311.152344 37.851562 C 311.269531 38.203125 311.441406 38.503906 311.667969 38.753906 C 311.894531 39 312.179688 39.195312 312.515625 39.335938 C 312.851562 39.476562 313.234375 39.546875 313.667969 39.546875 C 314.082031 39.546875 314.464844 39.441406 314.816406 39.226562 C 315.167969 39.015625 315.441406 38.730469 315.632812 38.371094 L 315.660156 38.394531 C 315.625 39.503906 315.453125 40.332031 315.140625 40.871094 C 314.828125 41.410156 314.363281 41.679688 313.738281 41.679688 C 313.332031 41.679688 312.976562 41.570312 312.683594 41.34375 C 312.386719 41.121094 312.21875 40.800781 312.179688 40.386719 Z M 315.476562 36.773438 C 315.476562 37.019531 315.4375 37.257812 315.359375 37.488281 C 315.277344 37.714844 315.164062 37.914062 315.011719 38.085938 C 314.859375 38.257812 314.675781 38.394531 314.457031 38.496094 C 314.242188 38.59375 314.003906 38.644531 313.738281 38.644531 C 313.492188 38.644531 313.265625 38.59375 313.058594 38.496094 C 312.855469 38.394531 312.679688 38.261719 312.53125 38.09375 C 312.382812 37.925781 312.269531 37.734375 312.183594 37.515625 C 312.101562 37.300781 312.058594 37.078125 312.058594 36.84375 C 312.058594 36.582031 312.089844 36.328125 312.148438 36.089844 C 312.207031 35.851562 312.304688 35.636719 312.4375 35.449219 C 312.570312 35.261719 312.742188 35.109375 312.953125 34.996094 C 313.164062 34.886719 313.421875 34.828125 313.726562 34.828125 C 314.015625 34.828125 314.265625 34.882812 314.480469 34.984375 C 314.699219 35.089844 314.878906 35.230469 315.027344 35.410156 C 315.175781 35.589844 315.289062 35.796875 315.363281 36.03125 C 315.441406 36.261719 315.476562 36.507812 315.476562 36.773438 Z M 323.351562 34.949219 L 323.351562 34.074219 L 317.84375 34.074219 L 317.84375 35.035156 L 322.304688 35.035156 C 321.859375 35.507812 321.441406 36.023438 321.050781 36.582031 C 320.664062 37.140625 320.320312 37.734375 320.027344 38.363281 C 319.730469 38.992188 319.488281 39.648438 319.300781 40.332031 C 319.113281 41.015625 318.996094 41.71875 318.945312 42.4375 L 320.085938 42.4375 C 320.125 41.773438 320.238281 41.089844 320.421875 40.386719 C 320.605469 39.683594 320.84375 38.996094 321.136719 38.332031 C 321.429688 37.667969 321.761719 37.046875 322.136719 36.460938 C 322.515625 35.878906 322.917969 35.375 323.351562 34.949219 Z M 324.683594 33.871094 L 324.683594 42.4375 L 325.703125 42.4375 L 325.703125 38.933594 C 325.703125 38.652344 325.738281 38.394531 325.816406 38.160156 C 325.890625 37.921875 326.007812 37.71875 326.15625 37.542969 C 326.308594 37.367188 326.5 37.230469 326.726562 37.132812 C 326.957031 37.039062 327.226562 36.988281 327.539062 36.988281 C 327.929688 36.988281 328.238281 37.101562 328.460938 37.324219 C 328.6875 37.550781 328.796875 37.851562 328.796875 38.238281 L 328.796875 42.4375 L 329.816406 42.4375 L 329.816406 38.359375 C 329.816406 38.023438 329.785156 37.714844 329.714844 37.441406 C 329.648438 37.164062 329.53125 36.925781 329.363281 36.726562 C 329.195312 36.527344 328.972656 36.371094 328.703125 36.257812 C 328.429688 36.144531 328.089844 36.089844 327.683594 36.089844 C 327.5 36.089844 327.308594 36.109375 327.113281 36.148438 C 326.917969 36.1875 326.726562 36.25 326.546875 36.335938 C 326.367188 36.417969 326.207031 36.527344 326.0625 36.660156 C 325.917969 36.792969 325.804688 36.953125 325.726562 37.144531 L 325.703125 37.144531 L 325.703125 33.871094 Z M 330.476562 44.800781 L 331.246094 44.800781 C 331.871094 43.976562 332.339844 43.085938 332.65625 42.132812 C 332.972656 41.175781 333.128906 40.226562 333.128906 39.28125 C 333.128906 38.753906 333.085938 38.25 332.996094 37.769531 C 332.910156 37.289062 332.785156 36.820312 332.621094 36.359375 C 332.457031 35.898438 332.257812 35.449219 332.027344 35.003906 C 331.792969 34.558594 331.535156 34.113281 331.246094 33.664062 L 330.476562 33.664062 C 331.039062 34.585938 331.441406 35.5 331.683594 36.40625 C 331.929688 37.316406 332.050781 38.273438 332.050781 39.28125 C 332.050781 40.257812 331.929688 41.195312 331.691406 42.09375 C 331.449219 42.996094 331.046875 43.898438 330.476562 44.800781 Z M 242.347656 31.011719 "/>
<path fill-rule="nonzero" fill="rgb(96.862745%, 67.843137%, 0%)" fill-opacity="1" stroke-width="2" stroke-linecap="butt" stroke-linejoin="bevel" stroke="rgb(100%, 100%, 100%)" stroke-opacity="1" stroke-miterlimit="10" d="M 200 55 C 287.292969 55 360.742188 120.386719 370.84375 207.09375 C 380.945312 293.796875 324.5 374.320312 239.546875 394.390625 C 154.59375 414.460938 68.078125 367.714844 38.308594 285.65625 C 8.542969 203.59375 44.964844 112.25 123.027344 73.183594 L 161.511719 150.09375 C 122.480469 169.625 104.269531 215.296875 119.15625 256.328125 C 134.039062 297.355469 177.296875 320.730469 219.773438 310.695312 C 262.25 300.660156 290.472656 260.398438 285.421875 217.046875 C 280.371094 173.695312 243.644531 141 200 141 Z M 200 55 "/>
<path fill-rule="nonzero" fill="rgb(47.058824%, 72.156863%, 70.980392%)" fill-opacity="1" stroke-width="2" stroke-linecap="butt" stroke-linejoin="bevel" stroke="rgb(100%, 100%, 100%)" stroke-opacity="1" stroke-miterlimit="10" d="M 123.027344 73.183594 C 134.484375 67.449219 146.546875 63.015625 158.992188 59.960938 L 179.496094 143.480469 C 173.273438 145.007812 167.242188 147.226562 161.511719 150.09375 Z M 123.027344 73.183594 "/>
<path fill-rule="nonzero" fill="rgb(90.980392%, 33.333333%, 37.254902%)" fill-opacity="1" stroke-width="2" stroke-linecap="butt" stroke-linejoin="bevel" stroke="rgb(100%, 100%, 100%)" stroke-opacity="1" stroke-miterlimit="10" d="M 158.992188 59.960938 C 170.046875 57.246094 181.339844 55.636719 192.710938 55.15625 L 196.355469 141.078125 C 190.671875 141.316406 185.023438 142.125 179.496094 143.480469 Z M 158.992188 59.960938 "/>
<path fill-rule="nonzero" fill="rgb(66.27451%, 78.823529%, 11.764706%)" fill-opacity="1" stroke-width="2" stroke-linecap="butt" stroke-linejoin="bevel" stroke="rgb(100%, 100%, 100%)" stroke-opacity="1" stroke-miterlimit="10" d="M 192.710938 55.15625 C 195.140625 55.050781 197.570312 55 200 55 L 200 141 C 198.785156 141 197.570312 141.027344 196.355469 141.078125 Z M 192.710938 55.15625 "/>
</svg>
