<?xml version="1.0" encoding="UTF-8"?>
<svg xmlns="http://www.w3.org/2000/svg" xmlns:xlink="http://www.w3.org/1999/xlink" width="600" height="600" viewBox="0 0 600 600">
<path fill-rule="nonzero" fill="rgb(100%, 80.392157%, 33.72549%)" fill-opacity="1" stroke-width="2" stroke-linecap="butt" stroke-linejoin="miter" stroke="rgb(100%, 100%, 100%)" stroke-opacity="1" stroke-miterlimit="10" d="M 88.097656 10 L 128.097656 10 L 128.097656 22 L 88.097656 22 Z M 88.097656 10 "/>
<path fill-rule="nonzero" fill="rgb(40%, 40%, 40%)" fill-opacity="1" d="M 139.390625 18.300781 L 139.390625 11.871094 L 138.25 11.871094 L 138.25 18.132812 C 138.25 18.605469 138.152344 18.980469 137.957031 19.261719 C 137.761719 19.542969 137.402344 19.679688 136.882812 19.679688 C 136.601562 19.679688 136.371094 19.640625 136.191406 19.554688 C 136.011719 19.472656 135.871094 19.351562 135.773438 19.203125 C 135.671875 19.050781 135.601562 18.871094 135.5625 18.660156 C 135.523438 18.453125 135.5 18.226562 135.5 17.976562 L 135.5 17.617188 L 134.363281 17.617188 L 134.363281 18.144531 C 134.363281 18.960938 134.578125 19.578125 135.007812 20 C 135.441406 20.417969 136.058594 20.628906 136.859375 20.628906 C 137.339844 20.628906 137.738281 20.5625 138.0625 20.429688 C 138.386719 20.300781 138.648438 20.125 138.84375 19.902344 C 139.039062 19.683594 139.179688 19.433594 139.261719 19.152344 C 139.347656 18.875 139.390625 18.589844 139.390625 18.300781 Z M 146.589844 20.414062 C 146.414062 20.519531 146.167969 20.570312 145.855469 20.570312 C 145.59375 20.570312 145.382812 20.496094 145.226562 20.347656 C 145.070312 20.199219 144.992188 19.957031 144.992188 19.621094 C 144.710938 19.957031 144.386719 20.199219 144.015625 20.347656 C 143.644531 20.496094 143.238281 20.570312 142.808594 20.570312 C 142.527344 20.570312 142.261719 20.539062 142.011719 20.472656 C 141.757812 20.410156 141.539062 20.308594 141.355469 20.171875 C 141.171875 20.035156 141.027344 19.859375 140.917969 19.640625 C 140.808594 19.417969 140.757812 19.152344 140.757812 18.839844 C 140.757812 18.488281 140.816406 18.203125 140.9375 17.976562 C 141.058594 17.753906 141.214844 17.570312 141.410156 17.429688 C 141.605469 17.289062 141.832031 17.183594 142.082031 17.113281 C 142.335938 17.042969 142.59375 16.980469 142.855469 16.933594 C 143.136719 16.878906 143.402344 16.835938 143.652344 16.808594 C 143.90625 16.78125 144.128906 16.738281 144.320312 16.6875 C 144.511719 16.636719 144.664062 16.558594 144.777344 16.460938 C 144.886719 16.359375 144.945312 16.214844 144.945312 16.023438 C 144.945312 15.796875 144.902344 15.617188 144.816406 15.480469 C 144.734375 15.34375 144.625 15.242188 144.496094 15.167969 C 144.363281 15.097656 144.214844 15.050781 144.050781 15.027344 C 143.886719 15.003906 143.722656 14.988281 143.5625 14.988281 C 143.132812 14.988281 142.773438 15.070312 142.484375 15.234375 C 142.195312 15.398438 142.039062 15.710938 142.015625 16.164062 L 140.996094 16.164062 C 141.011719 15.78125 141.09375 15.457031 141.234375 15.195312 C 141.378906 14.929688 141.570312 14.714844 141.8125 14.550781 C 142.050781 14.386719 142.328125 14.269531 142.632812 14.199219 C 142.941406 14.125 143.273438 14.089844 143.625 14.089844 C 143.90625 14.089844 144.183594 14.109375 144.457031 14.148438 C 144.734375 14.1875 144.984375 14.273438 145.207031 14.394531 C 145.433594 14.519531 145.613281 14.695312 145.75 14.917969 C 145.886719 15.140625 145.953125 15.433594 145.953125 15.792969 L 145.953125 18.984375 C 145.953125 19.226562 145.964844 19.402344 145.996094 19.511719 C 146.023438 19.625 146.117188 19.679688 146.277344 19.679688 C 146.363281 19.679688 146.46875 19.660156 146.589844 19.621094 Z M 144.933594 17.234375 C 144.804688 17.328125 144.636719 17.398438 144.429688 17.445312 C 144.222656 17.488281 144.003906 17.523438 143.773438 17.550781 C 143.546875 17.578125 143.316406 17.613281 143.085938 17.648438 C 142.851562 17.683594 142.644531 17.742188 142.460938 17.820312 C 142.277344 17.902344 142.125 18.015625 142.011719 18.164062 C 141.894531 18.3125 141.835938 18.511719 141.835938 18.769531 C 141.835938 18.9375 141.871094 19.078125 141.9375 19.195312 C 142.007812 19.3125 142.09375 19.40625 142.203125 19.476562 C 142.308594 19.550781 142.4375 19.601562 142.582031 19.632812 C 142.726562 19.664062 142.875 19.679688 143.035156 19.679688 C 143.371094 19.679688 143.660156 19.636719 143.898438 19.542969 C 144.140625 19.453125 144.335938 19.335938 144.488281 19.195312 C 144.640625 19.054688 144.753906 18.902344 144.824219 18.738281 C 144.894531 18.574219 144.933594 18.421875 144.933594 18.277344 Z M 150.332031 20.4375 L 152.601562 14.234375 L 151.535156 14.234375 L 149.839844 19.40625 L 149.816406 19.40625 L 148.078125 14.234375 L 146.9375 14.234375 L 149.242188 20.4375 Z M 159.035156 20.414062 C 158.859375 20.519531 158.613281 20.570312 158.300781 20.570312 C 158.039062 20.570312 157.828125 20.496094 157.671875 20.347656 C 157.515625 20.199219 157.4375 19.957031 157.4375 19.621094 C 157.15625 19.957031 156.832031 20.199219 156.460938 20.347656 C 156.089844 20.496094 155.683594 20.570312 155.253906 20.570312 C 154.972656 20.570312 154.707031 20.539062 154.457031 20.472656 C 154.203125 20.410156 153.984375 20.308594 153.800781 20.171875 C 153.617188 20.035156 153.472656 19.859375 153.363281 19.640625 C 153.253906 19.417969 153.203125 19.152344 153.203125 18.839844 C 153.203125 18.488281 153.261719 18.203125 153.382812 17.976562 C 153.503906 17.753906 153.660156 17.570312 153.855469 17.429688 C 154.050781 17.289062 154.277344 17.183594 154.527344 17.113281 C 154.78125 17.042969 155.039062 16.980469 155.300781 16.933594 C 155.582031 16.878906 155.847656 16.835938 156.097656 16.808594 C 156.351562 16.78125 156.574219 16.738281 156.765625 16.6875 C 156.957031 16.636719 157.109375 16.558594 157.222656 16.460938 C 157.332031 16.359375 157.390625 16.214844 157.390625 16.023438 C 157.390625 15.796875 157.347656 15.617188 157.261719 15.480469 C 157.179688 15.34375 157.070312 15.242188 156.941406 15.167969 C 156.808594 15.097656 156.660156 15.050781 156.496094 15.027344 C 156.332031 15.003906 156.167969 14.988281 156.007812 14.988281 C 155.578125 14.988281 155.21875 15.070312 154.929688 15.234375 C 154.640625 15.398438 154.484375 15.710938 154.460938 16.164062 L 153.441406 16.164062 C 153.457031 15.78125 153.539062 15.457031 153.679688 15.195312 C 153.824219 14.929688 154.015625 14.714844 154.257812 14.550781 C 154.496094 14.386719 154.773438 14.269531 155.078125 14.199219 C 155.386719 14.125 155.71875 14.089844 156.070312 14.089844 C 156.351562 14.089844 156.628906 14.109375 156.902344 14.148438 C 157.179688 14.1875 157.429688 14.273438 157.652344 14.394531 C 157.878906 14.519531 158.058594 14.695312 158.195312 14.917969 C 158.332031 15.140625 158.398438 15.433594 158.398438 15.792969 L 158.398438 18.984375 C 158.398438 19.226562 158.410156 19.402344 158.441406 19.511719 C 158.46875 19.625 158.5625 19.679688 158.722656 19.679688 C 158.808594 19.679688 158.914062 19.660156 159.035156 19.621094 Z M 157.378906 17.234375 C 157.25 17.328125 157.082031 17.398438 156.875 17.445312 C 156.667969 17.488281 156.449219 17.523438 156.21875 17.550781 C 155.992188 17.578125 155.761719 17.613281 155.53125 17.648438 C 155.296875 17.683594 155.089844 17.742188 154.90625 17.820312 C 154.722656 17.902344 154.570312 18.015625 154.457031 18.164062 C 154.339844 18.3125 154.28125 18.511719 154.28125 18.769531 C 154.28125 18.9375 154.316406 19.078125 154.382812 19.195312 C 154.453125 19.3125 154.539062 19.40625 154.648438 19.476562 C 154.753906 19.550781 154.882812 19.601562 155.027344 19.632812 C 155.171875 19.664062 155.320312 19.679688 155.480469 19.679688 C 155.816406 19.679688 156.105469 19.636719 156.34375 19.542969 C 156.585938 19.453125 156.78125 19.335938 156.933594 19.195312 C 157.085938 19.054688 157.199219 18.902344 157.269531 18.738281 C 157.339844 18.574219 157.378906 18.421875 157.378906 18.277344 Z M 165.105469 14.378906 L 166.1875 14.378906 C 166.171875 13.90625 166.082031 13.5 165.917969 13.160156 C 165.753906 12.820312 165.527344 12.539062 165.246094 12.3125 C 164.960938 12.089844 164.628906 11.925781 164.253906 11.820312 C 163.878906 11.71875 163.472656 11.664062 163.03125 11.664062 C 162.640625 11.664062 162.257812 11.714844 161.886719 11.816406 C 161.511719 11.914062 161.179688 12.066406 160.890625 12.273438 C 160.597656 12.476562 160.363281 12.734375 160.1875 13.050781 C 160.011719 13.367188 159.921875 13.742188 159.921875 14.171875 C 159.921875 14.566406 160 14.890625 160.15625 15.152344 C 160.3125 15.410156 160.519531 15.625 160.78125 15.789062 C 161.039062 15.953125 161.335938 16.082031 161.664062 16.183594 C 161.992188 16.285156 162.324219 16.371094 162.664062 16.449219 C 163.003906 16.523438 163.339844 16.597656 163.667969 16.667969 C 163.996094 16.742188 164.289062 16.835938 164.550781 16.953125 C 164.808594 17.066406 165.015625 17.21875 165.171875 17.402344 C 165.328125 17.585938 165.40625 17.824219 165.40625 18.121094 C 165.40625 18.433594 165.34375 18.691406 165.214844 18.890625 C 165.085938 19.089844 164.917969 19.246094 164.710938 19.363281 C 164.503906 19.480469 164.269531 19.5625 164.007812 19.609375 C 163.75 19.65625 163.492188 19.679688 163.234375 19.679688 C 162.914062 19.679688 162.601562 19.640625 162.300781 19.5625 C 161.996094 19.480469 161.730469 19.359375 161.5 19.191406 C 161.273438 19.023438 161.089844 18.808594 160.949219 18.546875 C 160.808594 18.289062 160.738281 17.976562 160.738281 17.617188 L 159.660156 17.617188 C 159.660156 18.136719 159.753906 18.585938 159.941406 18.96875 C 160.128906 19.347656 160.386719 19.660156 160.707031 19.902344 C 161.03125 20.148438 161.410156 20.328125 161.835938 20.449219 C 162.265625 20.570312 162.71875 20.628906 163.199219 20.628906 C 163.589844 20.628906 163.984375 20.582031 164.378906 20.492188 C 164.777344 20.398438 165.136719 20.25 165.453125 20.046875 C 165.773438 19.84375 166.035156 19.578125 166.242188 19.253906 C 166.445312 18.929688 166.546875 18.542969 166.546875 18.085938 C 166.546875 17.660156 166.46875 17.308594 166.3125 17.03125 C 166.15625 16.75 165.949219 16.515625 165.6875 16.332031 C 165.429688 16.148438 165.136719 16.003906 164.808594 15.894531 C 164.480469 15.789062 164.144531 15.695312 163.804688 15.613281 C 163.464844 15.535156 163.128906 15.460938 162.804688 15.390625 C 162.476562 15.324219 162.179688 15.238281 161.921875 15.132812 C 161.660156 15.027344 161.453125 14.894531 161.296875 14.730469 C 161.140625 14.566406 161.0625 14.351562 161.0625 14.089844 C 161.0625 13.808594 161.117188 13.574219 161.226562 13.386719 C 161.332031 13.199219 161.476562 13.050781 161.65625 12.9375 C 161.835938 12.824219 162.042969 12.746094 162.273438 12.699219 C 162.507812 12.648438 162.742188 12.625 162.984375 12.625 C 163.574219 12.625 164.0625 12.761719 164.441406 13.039062 C 164.820312 13.316406 165.042969 13.761719 165.105469 14.378906 Z M 171.972656 16.226562 L 173.027344 16.226562 C 172.988281 15.859375 172.890625 15.539062 172.738281 15.273438 C 172.585938 15.003906 172.394531 14.78125 172.15625 14.605469 C 171.921875 14.429688 171.648438 14.300781 171.34375 14.214844 C 171.035156 14.132812 170.703125 14.089844 170.351562 14.089844 C 169.863281 14.089844 169.4375 14.175781 169.066406 14.347656 C 168.699219 14.519531 168.394531 14.753906 168.148438 15.054688 C 167.90625 15.355469 167.722656 15.707031 167.605469 16.113281 C 167.484375 16.515625 167.425781 16.949219 167.425781 17.414062 C 167.425781 17.878906 167.484375 18.304688 167.609375 18.691406 C 167.734375 19.078125 167.917969 19.414062 168.164062 19.695312 C 168.40625 19.972656 168.710938 20.191406 169.074219 20.339844 C 169.4375 20.492188 169.855469 20.570312 170.328125 20.570312 C 171.121094 20.570312 171.746094 20.363281 172.207031 19.945312 C 172.667969 19.53125 172.953125 18.9375 173.0625 18.167969 L 172.019531 18.167969 C 171.957031 18.648438 171.78125 19.023438 171.5 19.285156 C 171.214844 19.550781 170.820312 19.679688 170.316406 19.679688 C 169.996094 19.679688 169.71875 19.617188 169.488281 19.488281 C 169.257812 19.359375 169.066406 19.191406 168.925781 18.980469 C 168.78125 18.769531 168.675781 18.527344 168.605469 18.253906 C 168.539062 17.980469 168.503906 17.703125 168.503906 17.414062 C 168.503906 17.101562 168.535156 16.800781 168.601562 16.507812 C 168.664062 16.214844 168.769531 15.957031 168.917969 15.734375 C 169.066406 15.511719 169.265625 15.328125 169.511719 15.195312 C 169.761719 15.058594 170.066406 14.988281 170.4375 14.988281 C 170.867188 14.988281 171.210938 15.097656 171.46875 15.3125 C 171.722656 15.527344 171.890625 15.832031 171.972656 16.226562 Z M 174.164062 14.234375 L 174.164062 20.4375 L 175.1875 20.4375 L 175.1875 17.675781 C 175.1875 17.277344 175.226562 16.921875 175.304688 16.617188 C 175.386719 16.308594 175.511719 16.046875 175.691406 15.828125 C 175.867188 15.613281 176.097656 15.449219 176.386719 15.335938 C 176.675781 15.226562 177.023438 15.167969 177.429688 15.167969 L 177.429688 14.089844 C 176.878906 14.074219 176.421875 14.183594 176.0625 14.425781 C 175.703125 14.664062 175.398438 15.039062 175.148438 15.542969 L 175.125 15.542969 L 175.125 14.234375 Z M 179.277344 13.117188 L 179.277344 11.871094 L 178.257812 11.871094 L 178.257812 13.117188 Z M 178.257812 14.234375 L 178.257812 20.4375 L 179.277344 20.4375 L 179.277344 14.234375 Z M 180.898438 14.234375 L 180.898438 22.800781 L 181.917969 22.800781 L 181.917969 19.609375 L 181.941406 19.609375 C 182.054688 19.792969 182.191406 19.949219 182.355469 20.070312 C 182.519531 20.195312 182.695312 20.292969 182.878906 20.367188 C 183.0625 20.4375 183.246094 20.488281 183.4375 20.523438 C 183.625 20.554688 183.792969 20.570312 183.945312 20.570312 C 184.417969 20.570312 184.832031 20.484375 185.1875 20.316406 C 185.542969 20.148438 185.839844 19.917969 186.074219 19.628906 C 186.3125 19.335938 186.488281 18.992188 186.605469 18.601562 C 186.71875 18.210938 186.777344 17.792969 186.777344 17.351562 C 186.777344 16.914062 186.71875 16.496094 186.597656 16.105469 C 186.476562 15.714844 186.300781 15.367188 186.0625 15.066406 C 185.828125 14.765625 185.53125 14.53125 185.175781 14.351562 C 184.820312 14.175781 184.402344 14.089844 183.921875 14.089844 C 183.488281 14.089844 183.09375 14.167969 182.734375 14.324219 C 182.375 14.480469 182.109375 14.730469 181.941406 15.074219 L 181.917969 15.074219 L 181.917969 14.234375 Z M 185.699219 17.28125 C 185.699219 17.585938 185.664062 17.882812 185.601562 18.167969 C 185.539062 18.457031 185.433594 18.714844 185.289062 18.9375 C 185.144531 19.160156 184.957031 19.339844 184.71875 19.476562 C 184.484375 19.613281 184.191406 19.679688 183.835938 19.679688 C 183.484375 19.679688 183.1875 19.617188 182.9375 19.484375 C 182.691406 19.351562 182.488281 19.175781 182.332031 18.960938 C 182.175781 18.746094 182.0625 18.496094 181.988281 18.210938 C 181.917969 17.925781 181.882812 17.632812 181.882812 17.328125 C 181.882812 17.042969 181.914062 16.757812 181.984375 16.476562 C 182.050781 16.195312 182.160156 15.949219 182.3125 15.726562 C 182.464844 15.507812 182.660156 15.328125 182.902344 15.195312 C 183.140625 15.058594 183.433594 14.988281 183.777344 14.988281 C 184.105469 14.988281 184.390625 15.054688 184.636719 15.179688 C 184.878906 15.308594 185.078125 15.480469 185.234375 15.699219 C 185.390625 15.914062 185.507812 16.160156 185.582031 16.433594 C 185.660156 16.710938 185.699219 16.992188 185.699219 17.28125 Z M 189.394531 14.234375 L 189.394531 12.375 L 188.375 12.375 L 188.375 14.234375 L 187.320312 14.234375 L 187.320312 15.132812 L 188.375 15.132812 L 188.375 19.082031 C 188.375 19.371094 188.402344 19.601562 188.457031 19.777344 C 188.515625 19.953125 188.601562 20.089844 188.71875 20.183594 C 188.832031 20.28125 188.984375 20.347656 189.171875 20.382812 C 189.359375 20.417969 189.585938 20.4375 189.851562 20.4375 L 190.632812 20.4375 L 190.632812 19.539062 L 190.164062 19.539062 C 190.003906 19.539062 189.871094 19.53125 189.773438 19.519531 C 189.671875 19.507812 189.59375 19.480469 189.539062 19.441406 C 189.484375 19.402344 189.445312 19.34375 189.425781 19.273438 C 189.40625 19.203125 189.394531 19.105469 189.394531 18.984375 L 189.394531 15.132812 L 190.632812 15.132812 L 190.632812 14.234375 Z M 196.777344 22.800781 L 197.554688 22.800781 C 196.988281 21.882812 196.582031 20.96875 196.339844 20.066406 C 196.09375 19.160156 195.972656 18.207031 195.972656 17.199219 C 195.972656 16.214844 196.09375 15.273438 196.332031 14.378906 C 196.570312 13.480469 196.980469 12.578125 197.554688 11.664062 L 196.777344 11.664062 C 196.152344 12.488281 195.683594 13.382812 195.367188 14.339844 C 195.050781 15.300781 194.890625 16.253906 194.890625 17.199219 C 194.890625 17.726562 194.9375 18.230469 195.023438 18.710938 C 195.113281 19.191406 195.238281 19.65625 195.402344 20.113281 C 195.566406 20.570312 195.765625 21.019531 195.996094 21.464844 C 196.226562 21.90625 196.488281 22.351562 196.777344 22.800781 Z M 202.40625 14.101562 L 203.425781 14.101562 C 203.363281 13.398438 203.121094 12.859375 202.707031 12.488281 C 202.289062 12.117188 201.730469 11.929688 201.027344 11.929688 C 200.417969 11.929688 199.914062 12.058594 199.511719 12.3125 C 199.113281 12.570312 198.792969 12.910156 198.554688 13.332031 C 198.3125 13.757812 198.144531 14.242188 198.042969 14.792969 C 197.941406 15.339844 197.894531 15.90625 197.894531 16.488281 C 197.894531 16.9375 197.925781 17.402344 197.996094 17.882812 C 198.0625 18.363281 198.203125 18.800781 198.410156 19.203125 C 198.617188 19.601562 198.914062 19.929688 199.296875 20.183594 C 199.679688 20.441406 200.191406 20.570312 200.820312 20.570312 C 201.355469 20.570312 201.808594 20.480469 202.171875 20.300781 C 202.535156 20.121094 202.828125 19.890625 203.046875 19.617188 C 203.265625 19.339844 203.425781 19.035156 203.523438 18.699219 C 203.617188 18.363281 203.664062 18.039062 203.664062 17.726562 C 203.664062 17.332031 203.605469 16.96875 203.484375 16.632812 C 203.363281 16.296875 203.195312 16.003906 202.976562 15.757812 C 202.753906 15.507812 202.484375 15.316406 202.160156 15.175781 C 201.835938 15.035156 201.46875 14.964844 201.0625 14.964844 C 200.597656 14.964844 200.1875 15.054688 199.832031 15.230469 C 199.476562 15.40625 199.175781 15.691406 198.9375 16.082031 L 198.914062 16.058594 C 198.921875 15.730469 198.953125 15.378906 199.007812 15 C 199.066406 14.625 199.167969 14.277344 199.316406 13.953125 C 199.464844 13.628906 199.667969 13.359375 199.933594 13.148438 C 200.199219 12.9375 200.546875 12.828125 200.976562 12.828125 C 201.386719 12.828125 201.714844 12.945312 201.960938 13.175781 C 202.210938 13.410156 202.359375 13.71875 202.40625 14.101562 Z M 200.871094 15.867188 C 201.15625 15.867188 201.410156 15.917969 201.625 16.023438 C 201.839844 16.125 202.023438 16.261719 202.164062 16.433594 C 202.308594 16.605469 202.414062 16.8125 202.484375 17.046875 C 202.550781 17.285156 202.585938 17.535156 202.585938 17.796875 C 202.585938 18.046875 202.546875 18.285156 202.472656 18.511719 C 202.394531 18.738281 202.285156 18.941406 202.140625 19.117188 C 201.996094 19.292969 201.820312 19.429688 201.609375 19.53125 C 201.394531 19.632812 201.148438 19.679688 200.871094 19.679688 C 200.589844 19.679688 200.339844 19.632812 200.121094 19.53125 C 199.898438 19.429688 199.714844 19.296875 199.566406 19.128906 C 199.417969 18.960938 199.304688 18.761719 199.226562 18.53125 C 199.144531 18.296875 199.105469 18.050781 199.105469 17.785156 C 199.105469 17.519531 199.144531 17.273438 199.21875 17.035156 C 199.296875 16.800781 199.410156 16.59375 199.5625 16.421875 C 199.714844 16.25 199.898438 16.117188 200.113281 16.015625 C 200.328125 15.914062 200.582031 15.867188 200.871094 15.867188 Z M 210.21875 12.949219 L 210.21875 12.074219 L 204.710938 12.074219 L 204.710938 13.035156 L 209.171875 13.035156 C 208.726562 13.507812 208.308594 14.023438 207.917969 14.582031 C 207.53125 15.140625 207.1875 15.734375 206.894531 16.363281 C 206.597656 16.992188 206.355469 17.648438 206.167969 18.332031 C 205.980469 19.015625 205.863281 19.71875 205.8125 20.4375 L 206.953125 20.4375 C 206.992188 19.773438 207.105469 19.089844 207.289062 18.386719 C 207.472656 17.683594 207.710938 16.996094 208.003906 16.332031 C 208.296875 15.667969 208.628906 15.046875 209.003906 14.460938 C 209.382812 13.878906 209.785156 13.375 210.21875 12.949219 Z M 211.777344 19.105469 L 211.777344 20.4375 L 213.109375 20.4375 L 213.109375 19.105469 Z M 215.726562 18.386719 L 214.707031 18.386719 C 214.769531 19.121094 215.039062 19.667969 215.507812 20.03125 C 215.980469 20.390625 216.574219 20.570312 217.285156 20.570312 C 218.316406 20.570312 219.066406 20.175781 219.535156 19.386719 C 220.003906 18.597656 220.238281 17.46875 220.238281 15.996094 C 220.238281 15.1875 220.160156 14.523438 220.003906 14 C 219.847656 13.476562 219.636719 13.0625 219.375 12.757812 C 219.109375 12.453125 218.800781 12.238281 218.449219 12.117188 C 218.097656 11.992188 217.722656 11.929688 217.320312 11.929688 C 216.914062 11.929688 216.539062 11.996094 216.191406 12.132812 C 215.847656 12.269531 215.554688 12.460938 215.304688 12.703125 C 215.058594 12.949219 214.863281 13.238281 214.730469 13.578125 C 214.59375 13.917969 214.523438 14.292969 214.523438 14.703125 C 214.523438 15.117188 214.582031 15.5 214.699219 15.851562 C 214.816406 16.203125 214.988281 16.503906 215.214844 16.753906 C 215.441406 17 215.726562 17.195312 216.0625 17.335938 C 216.398438 17.476562 216.78125 17.546875 217.214844 17.546875 C 217.628906 17.546875 218.011719 17.441406 218.363281 17.226562 C 218.714844 17.015625 218.988281 16.730469 219.179688 16.371094 L 219.207031 16.394531 C 219.171875 17.503906 219 18.332031 218.6875 18.871094 C 218.375 19.410156 217.910156 19.679688 217.285156 19.679688 C 216.878906 19.679688 216.523438 19.570312 216.230469 19.34375 C 215.933594 19.121094 215.765625 18.800781 215.726562 18.386719 Z M 219.023438 14.773438 C 219.023438 15.019531 218.984375 15.257812 218.90625 15.488281 C 218.824219 15.714844 218.710938 15.914062 218.558594 16.085938 C 218.40625 16.257812 218.222656 16.394531 218.003906 16.496094 C 217.789062 16.59375 217.550781 16.644531 217.285156 16.644531 C 217.039062 16.644531 216.8125 16.59375 216.605469 16.496094 C 216.402344 16.394531 216.226562 16.261719 216.078125 16.09375 C 215.929688 15.925781 215.816406 15.734375 215.730469 15.515625 C 215.648438 15.300781 215.605469 15.078125 215.605469 14.84375 C 215.605469 14.582031 215.636719 14.328125 215.695312 14.089844 C 215.753906 13.851562 215.851562 13.636719 215.984375 13.449219 C 216.117188 13.261719 216.289062 13.109375 216.5 12.996094 C 216.710938 12.886719 216.96875 12.828125 217.273438 12.828125 C 217.5625 12.828125 217.8125 12.882812 218.027344 12.984375 C 218.246094 13.089844 218.425781 13.230469 218.574219 13.410156 C 218.722656 13.589844 218.835938 13.796875 218.910156 14.03125 C 218.988281 14.261719 219.023438 14.507812 219.023438 14.773438 Z M 226.429688 12.972656 L 226.429688 12.074219 L 222.230469 12.074219 L 221.4375 16.488281 L 222.3125 16.539062 C 222.511719 16.296875 222.742188 16.101562 223.003906 15.957031 C 223.261719 15.808594 223.5625 15.734375 223.898438 15.734375 C 224.183594 15.734375 224.445312 15.78125 224.683594 15.878906 C 224.917969 15.972656 225.121094 16.109375 225.289062 16.28125 C 225.457031 16.453125 225.585938 16.65625 225.679688 16.890625 C 225.769531 17.128906 225.816406 17.386719 225.816406 17.664062 C 225.816406 18 225.769531 18.296875 225.671875 18.546875 C 225.578125 18.800781 225.445312 19.007812 225.28125 19.175781 C 225.117188 19.34375 224.925781 19.472656 224.707031 19.554688 C 224.488281 19.640625 224.257812 19.679688 224.015625 19.679688 C 223.761719 19.679688 223.527344 19.644531 223.316406 19.566406 C 223.101562 19.492188 222.917969 19.382812 222.761719 19.242188 C 222.605469 19.101562 222.484375 18.941406 222.390625 18.75 C 222.300781 18.5625 222.246094 18.363281 222.230469 18.144531 L 221.210938 18.144531 C 221.21875 18.527344 221.292969 18.875 221.4375 19.175781 C 221.582031 19.480469 221.777344 19.734375 222.023438 19.941406 C 222.273438 20.144531 222.558594 20.300781 222.882812 20.40625 C 223.207031 20.515625 223.554688 20.570312 223.921875 20.570312 C 224.417969 20.570312 224.851562 20.492188 225.222656 20.335938 C 225.59375 20.179688 225.90625 19.96875 226.152344 19.707031 C 226.402344 19.441406 226.585938 19.140625 226.710938 18.800781 C 226.835938 18.460938 226.898438 18.109375 226.898438 17.75 C 226.898438 17.261719 226.824219 16.835938 226.679688 16.472656 C 226.535156 16.109375 226.339844 15.804688 226.09375 15.558594 C 225.84375 15.316406 225.554688 15.132812 225.21875 15.011719 C 224.882812 14.894531 224.523438 14.832031 224.148438 14.832031 C 223.859375 14.832031 223.570312 14.882812 223.277344 14.984375 C 222.988281 15.082031 222.75 15.238281 222.566406 15.445312 L 222.542969 15.421875 L 222.996094 12.972656 Z M 229.464844 14.339844 C 229.464844 14.15625 229.476562 13.964844 229.5 13.757812 C 229.523438 13.554688 229.574219 13.367188 229.652344 13.195312 C 229.726562 13.023438 229.832031 12.878906 229.96875 12.761719 C 230.105469 12.648438 230.285156 12.589844 230.507812 12.589844 C 230.742188 12.589844 230.921875 12.648438 231.054688 12.761719 C 231.1875 12.878906 231.289062 13.023438 231.359375 13.195312 C 231.433594 13.367188 231.480469 13.554688 231.5 13.757812 C 231.519531 13.964844 231.527344 14.152344 231.527344 14.328125 C 231.527344 14.511719 231.515625 14.710938 231.492188 14.917969 C 231.46875 15.125 231.417969 15.316406 231.34375 15.488281 C 231.265625 15.660156 231.160156 15.800781 231.023438 15.914062 C 230.886719 16.027344 230.703125 16.082031 230.472656 16.082031 C 230.25 16.082031 230.070312 16.023438 229.9375 15.90625 C 229.804688 15.792969 229.703125 15.648438 229.632812 15.476562 C 229.5625 15.304688 229.515625 15.117188 229.496094 14.910156 C 229.476562 14.707031 229.464844 14.515625 229.464844 14.339844 Z M 228.566406 14.367188 C 228.566406 14.695312 228.597656 15 228.667969 15.289062 C 228.734375 15.578125 228.84375 15.828125 228.996094 16.046875 C 229.148438 16.261719 229.347656 16.429688 229.597656 16.554688 C 229.84375 16.679688 230.148438 16.742188 230.507812 16.742188 C 230.859375 16.742188 231.15625 16.671875 231.398438 16.539062 C 231.636719 16.402344 231.835938 16.222656 231.992188 16.003906 C 232.148438 15.785156 232.257812 15.527344 232.328125 15.234375 C 232.394531 14.941406 232.429688 14.640625 232.429688 14.328125 C 232.429688 14 232.398438 13.691406 232.339844 13.398438 C 232.277344 13.105469 232.175781 12.851562 232.027344 12.636719 C 231.878906 12.421875 231.683594 12.25 231.4375 12.121094 C 231.195312 11.992188 230.886719 11.929688 230.507812 11.929688 C 230.140625 11.929688 229.832031 11.996094 229.585938 12.128906 C 229.335938 12.261719 229.136719 12.4375 228.984375 12.660156 C 228.832031 12.886719 228.726562 13.144531 228.660156 13.433594 C 228.597656 13.726562 228.566406 14.039062 228.566406 14.367188 Z M 235.394531 18.179688 C 235.394531 17.996094 235.40625 17.804688 235.429688 17.597656 C 235.453125 17.394531 235.503906 17.207031 235.578125 17.035156 C 235.65625 16.863281 235.761719 16.71875 235.898438 16.601562 C 236.035156 16.488281 236.214844 16.429688 236.4375 16.429688 C 236.667969 16.429688 236.851562 16.488281 236.984375 16.601562 C 237.117188 16.71875 237.21875 16.863281 237.289062 17.035156 C 237.359375 17.207031 237.40625 17.394531 237.425781 17.597656 C 237.445312 17.804688 237.457031 17.992188 237.457031 18.167969 C 237.457031 18.351562 237.445312 18.550781 237.421875 18.757812 C 237.398438 18.964844 237.347656 19.15625 237.269531 19.328125 C 237.195312 19.5 237.089844 19.640625 236.953125 19.753906 C 236.816406 19.867188 236.632812 19.921875 236.402344 19.921875 C 236.175781 19.921875 236 19.863281 235.867188 19.746094 C 235.734375 19.632812 235.632812 19.488281 235.5625 19.316406 C 235.488281 19.144531 235.441406 18.957031 235.421875 18.75 C 235.402344 18.546875 235.394531 18.359375 235.394531 18.179688 Z M 234.492188 18.207031 C 234.492188 18.535156 234.527344 18.839844 234.59375 19.128906 C 234.664062 19.417969 234.773438 19.667969 234.925781 19.878906 C 235.078125 20.089844 235.277344 20.257812 235.523438 20.382812 C 235.773438 20.507812 236.078125 20.570312 236.4375 20.570312 C 236.789062 20.570312 237.085938 20.503906 237.324219 20.371094 C 237.566406 20.238281 237.761719 20.0625 237.917969 19.84375 C 238.074219 19.625 238.1875 19.367188 238.253906 19.074219 C 238.324219 18.78125 238.355469 18.480469 238.355469 18.167969 C 238.355469 17.839844 238.328125 17.53125 238.265625 17.238281 C 238.207031 16.945312 238.101562 16.695312 237.953125 16.476562 C 237.804688 16.261719 237.609375 16.089844 237.367188 15.960938 C 237.121094 15.832031 236.8125 15.769531 236.4375 15.769531 C 236.070312 15.769531 235.761719 15.835938 235.511719 15.96875 C 235.265625 16.101562 235.066406 16.277344 234.914062 16.5 C 234.761719 16.726562 234.652344 16.984375 234.589844 17.277344 C 234.523438 17.566406 234.492188 17.878906 234.492188 18.207031 Z M 236.171875 11.773438 L 229.71875 20.691406 L 230.75 20.691406 L 237.191406 11.773438 Z M 239.351562 22.800781 L 240.121094 22.800781 C 240.746094 21.976562 241.214844 21.085938 241.53125 20.132812 C 241.847656 19.175781 242.003906 18.226562 242.003906 17.28125 C 242.003906 16.753906 241.960938 16.25 241.871094 15.769531 C 241.785156 15.289062 241.660156 14.820312 241.496094 14.359375 C 241.332031 13.898438 241.132812 13.449219 240.902344 13.003906 C 240.667969 12.558594 240.410156 12.113281 240.121094 11.664062 L 239.351562 11.664062 C 239.914062 12.585938 240.316406 13.5 240.558594 14.40625 C 240.804688 15.316406 240.925781 16.273438 240.925781 17.28125 C 240.925781 18.257812 240.804688 19.195312 240.566406 20.09375 C 240.324219 20.996094 239.921875 21.898438 239.351562 22.800781 Z M 134.097656 9.011719 "/>
<path fill-rule="nonzero" fill="rgb(21.176471%, 63.529412%, 92.156863%)" fill-opacity="1" stroke-width="2" stroke-linecap="butt" stroke-linejoin="miter" stroke="rgb(100%, 100%, 100%)" stroke-opacity="1" stroke-miterlimit="10" d="M 252.570312 10 L 292.570312 10 L 292.570312 22 L 252.570312 22 Z M 252.570312 10 "/>
<path fill-rule="nonzero" fill="rgb(40%, 40%, 40%)" fill-opacity="1" d="M 300.644531 15.972656 L 300.644531 12.828125 L 302.878906 12.828125 C 303.527344 12.828125 304 12.964844 304.300781 13.230469 C 304.601562 13.5 304.75 13.890625 304.75 14.402344 C 304.75 14.914062 304.601562 15.304688 304.300781 15.578125 C 304 15.851562 303.527344 15.980469 302.878906 15.972656 Z M 299.507812 11.871094 L 299.507812 20.4375 L 300.644531 20.4375 L 300.644531 16.933594 L 303.261719 16.933594 C 304.125 16.941406 304.78125 16.722656 305.222656 16.273438 C 305.667969 15.824219 305.890625 15.203125 305.890625 14.402344 C 305.890625 13.601562 305.667969 12.980469 305.222656 12.535156 C 304.78125 12.089844 304.125 11.871094 303.261719 11.871094 Z M 309.550781 21.265625 C 309.429688 21.570312 309.3125 21.824219 309.199219 22.035156 C 309.082031 22.242188 308.953125 22.410156 308.8125 22.542969 C 308.671875 22.675781 308.519531 22.773438 308.34375 22.832031 C 308.171875 22.890625 307.976562 22.921875 307.75 22.921875 C 307.632812 22.921875 307.511719 22.914062 307.390625 22.898438 C 307.269531 22.882812 307.15625 22.851562 307.042969 22.8125 L 307.042969 21.878906 C 307.132812 21.917969 307.234375 21.953125 307.351562 21.980469 C 307.464844 22.007812 307.5625 22.023438 307.644531 22.023438 C 307.851562 22.023438 308.027344 21.972656 308.164062 21.871094 C 308.304688 21.769531 308.410156 21.628906 308.484375 21.445312 L 308.902344 20.402344 L 306.445312 14.234375 L 307.59375 14.234375 L 309.40625 19.308594 L 309.433594 19.308594 L 311.171875 14.234375 L 312.25 14.234375 Z M 314.53125 14.234375 L 314.53125 12.375 L 313.511719 12.375 L 313.511719 14.234375 L 312.457031 14.234375 L 312.457031 15.132812 L 313.511719 15.132812 L 313.511719 19.082031 C 313.511719 19.371094 313.539062 19.601562 313.59375 19.777344 C 313.652344 19.953125 313.738281 20.089844 313.855469 20.183594 C 313.96875 20.28125 314.121094 20.347656 314.308594 20.382812 C 314.496094 20.417969 314.722656 20.4375 314.988281 20.4375 L 315.769531 20.4375 L 315.769531 19.539062 L 315.300781 19.539062 C 315.140625 19.539062 315.007812 19.53125 314.910156 19.519531 C 314.808594 19.507812 314.730469 19.480469 314.675781 19.441406 C 314.621094 19.402344 314.582031 19.34375 314.5625 19.273438 C 314.542969 19.203125 314.53125 19.105469 314.53125 18.984375 L 314.53125 15.132812 L 315.769531 15.132812 L 315.769531 14.234375 Z M 316.894531 11.871094 L 316.894531 20.4375 L 317.914062 20.4375 L 317.914062 16.933594 C 317.914062 16.652344 317.949219 16.394531 318.027344 16.160156 C 318.101562 15.921875 318.21875 15.71875 318.367188 15.542969 C 318.519531 15.367188 318.710938 15.230469 318.9375 15.132812 C 319.167969 15.039062 319.4375 14.988281 319.75 14.988281 C 320.140625 14.988281 320.449219 15.101562 320.671875 15.324219 C 320.898438 15.550781 321.007812 15.851562 321.007812 16.238281 L 321.007812 20.4375 L 322.027344 20.4375 L 322.027344 16.359375 C 322.027344 16.023438 321.996094 15.714844 321.925781 15.441406 C 321.859375 15.164062 321.742188 14.925781 321.574219 14.726562 C 321.40625 14.527344 321.183594 14.371094 320.914062 14.257812 C 320.640625 14.144531 320.300781 14.089844 319.894531 14.089844 C 319.710938 14.089844 319.519531 14.109375 319.324219 14.148438 C 319.128906 14.1875 318.9375 14.25 318.757812 14.335938 C 318.578125 14.417969 318.417969 14.527344 318.273438 14.660156 C 318.128906 14.792969 318.015625 14.953125 317.9375 15.144531 L 317.914062 15.144531 L 317.914062 11.871094 Z M 324.308594 17.339844 C 324.308594 16.964844 324.359375 16.632812 324.457031 16.339844 C 324.558594 16.046875 324.695312 15.800781 324.871094 15.601562 C 325.046875 15.402344 325.253906 15.25 325.492188 15.144531 C 325.726562 15.042969 325.976562 14.988281 326.242188 14.988281 C 326.503906 14.988281 326.753906 15.042969 326.992188 15.144531 C 327.226562 15.25 327.433594 15.402344 327.609375 15.601562 C 327.785156 15.800781 327.921875 16.046875 328.023438 16.339844 C 328.125 16.632812 328.171875 16.964844 328.171875 17.339844 C 328.171875 17.71875 328.121094 18.050781 328.023438 18.34375 C 327.921875 18.636719 327.785156 18.878906 327.609375 19.074219 C 327.433594 19.269531 327.226562 19.421875 326.992188 19.527344 C 326.753906 19.628906 326.503906 19.679688 326.242188 19.679688 C 325.976562 19.679688 325.726562 19.628906 325.492188 19.527344 C 325.253906 19.421875 325.050781 19.273438 324.871094 19.074219 C 324.695312 18.878906 324.558594 18.636719 324.457031 18.34375 C 324.359375 18.050781 324.308594 17.71875 324.308594 17.339844 Z M 323.230469 17.339844 C 323.230469 17.796875 323.292969 18.222656 323.421875 18.613281 C 323.550781 19.003906 323.742188 19.347656 323.996094 19.640625 C 324.253906 19.933594 324.570312 20.160156 324.945312 20.324219 C 325.320312 20.488281 325.753906 20.570312 326.242188 20.570312 C 326.738281 20.570312 327.171875 20.488281 327.542969 20.324219 C 327.914062 20.160156 328.230469 19.929688 328.484375 19.640625 C 328.742188 19.347656 328.933594 19.003906 329.0625 18.613281 C 329.1875 18.222656 329.253906 17.796875 329.253906 17.339844 C 329.253906 16.886719 329.1875 16.460938 329.0625 16.0625 C 328.933594 15.667969 328.742188 15.324219 328.484375 15.03125 C 328.230469 14.738281 327.914062 14.507812 327.542969 14.339844 C 327.171875 14.171875 326.738281 14.089844 326.242188 14.089844 C 325.753906 14.089844 325.320312 14.171875 324.945312 14.339844 C 324.570312 14.507812 324.253906 14.738281 323.996094 15.03125 C 323.742188 15.324219 323.550781 15.667969 323.421875 16.0625 C 323.292969 16.460938 323.230469 16.886719 323.230469 17.339844 Z M 330.457031 14.234375 L 330.457031 20.4375 L 331.476562 20.4375 L 331.476562 16.933594 C 331.476562 16.652344 331.511719 16.394531 331.589844 16.160156 C 331.664062 15.921875 331.78125 15.71875 331.929688 15.542969 C 332.082031 15.367188 332.273438 15.230469 332.5 15.132812 C 332.730469 15.039062 333 14.988281 333.3125 14.988281 C 333.703125 14.988281 334.011719 15.101562 334.234375 15.324219 C 334.460938 15.550781 334.570312 15.851562 334.570312 16.238281 L 334.570312 20.4375 L 335.589844 20.4375 L 335.589844 16.359375 C 335.589844 16.023438 335.558594 15.714844 335.488281 15.441406 C 335.421875 15.164062 335.304688 14.925781 335.136719 14.726562 C 334.96875 14.527344 334.746094 14.371094 334.476562 14.257812 C 334.203125 14.144531 333.863281 14.089844 333.457031 14.089844 C 332.535156 14.089844 331.863281 14.464844 331.441406 15.21875 L 331.414062 15.21875 L 331.414062 14.234375 Z M 342.144531 22.800781 L 342.921875 22.800781 C 342.355469 21.882812 341.949219 20.96875 341.707031 20.066406 C 341.460938 19.160156 341.339844 18.207031 341.339844 17.199219 C 341.339844 16.214844 341.460938 15.273438 341.699219 14.378906 C 341.9375 13.480469 342.347656 12.578125 342.921875 11.664062 L 342.144531 11.664062 C 341.519531 12.488281 341.050781 13.382812 340.734375 14.339844 C 340.417969 15.300781 340.257812 16.253906 340.257812 17.199219 C 340.257812 17.726562 340.304688 18.230469 340.390625 18.710938 C 340.480469 19.191406 340.605469 19.65625 340.769531 20.113281 C 340.933594 20.570312 341.132812 21.019531 341.363281 21.464844 C 341.59375 21.90625 341.855469 22.351562 342.144531 22.800781 Z M 343.332031 14.941406 L 344.351562 14.941406 C 344.34375 14.683594 344.371094 14.429688 344.429688 14.179688 C 344.492188 13.925781 344.589844 13.703125 344.726562 13.5 C 344.859375 13.300781 345.035156 13.140625 345.246094 13.015625 C 345.457031 12.890625 345.710938 12.828125 346.007812 12.828125 C 346.230469 12.828125 346.445312 12.867188 346.644531 12.9375 C 346.84375 13.007812 347.019531 13.113281 347.167969 13.25 C 347.316406 13.386719 347.433594 13.546875 347.519531 13.734375 C 347.609375 13.921875 347.652344 14.132812 347.652344 14.367188 C 347.652344 14.660156 347.605469 14.921875 347.515625 15.144531 C 347.421875 15.371094 347.285156 15.578125 347.105469 15.769531 C 346.925781 15.960938 346.699219 16.152344 346.429688 16.339844 C 346.15625 16.527344 345.839844 16.734375 345.480469 16.957031 C 345.183594 17.132812 344.902344 17.320312 344.628906 17.523438 C 344.355469 17.722656 344.113281 17.953125 343.898438 18.21875 C 343.679688 18.480469 343.503906 18.792969 343.363281 19.148438 C 343.222656 19.503906 343.132812 19.933594 343.09375 20.4375 L 348.648438 20.4375 L 348.648438 19.539062 L 344.28125 19.539062 C 344.328125 19.273438 344.429688 19.039062 344.585938 18.835938 C 344.742188 18.632812 344.929688 18.441406 345.152344 18.265625 C 345.371094 18.089844 345.613281 17.921875 345.875 17.765625 C 346.140625 17.609375 346.40625 17.453125 346.667969 17.292969 C 346.933594 17.125 347.1875 16.949219 347.4375 16.765625 C 347.683594 16.582031 347.90625 16.375 348.097656 16.148438 C 348.289062 15.917969 348.441406 15.660156 348.558594 15.375 C 348.675781 15.085938 348.734375 14.753906 348.734375 14.378906 C 348.734375 13.976562 348.664062 13.625 348.523438 13.320312 C 348.382812 13.015625 348.191406 12.761719 347.953125 12.558594 C 347.710938 12.355469 347.429688 12.199219 347.105469 12.089844 C 346.78125 11.984375 346.4375 11.929688 346.070312 11.929688 C 345.621094 11.929688 345.21875 12.003906 344.867188 12.15625 C 344.515625 12.308594 344.222656 12.519531 343.988281 12.789062 C 343.75 13.054688 343.578125 13.375 343.464844 13.742188 C 343.351562 14.109375 343.308594 14.507812 343.332031 14.941406 Z M 351.335938 14.136719 C 351.335938 13.921875 351.375 13.734375 351.457031 13.574219 C 351.535156 13.414062 351.640625 13.277344 351.773438 13.164062 C 351.90625 13.054688 352.066406 12.96875 352.25 12.914062 C 352.433594 12.859375 352.625 12.828125 352.824219 12.828125 C 353.242188 12.828125 353.582031 12.941406 353.851562 13.160156 C 354.117188 13.378906 354.253906 13.707031 354.253906 14.136719 C 354.253906 14.570312 354.121094 14.90625 353.855469 15.144531 C 353.59375 15.386719 353.257812 15.503906 352.847656 15.503906 C 352.640625 15.503906 352.445312 15.476562 352.261719 15.421875 C 352.078125 15.367188 351.917969 15.28125 351.78125 15.167969 C 351.644531 15.058594 351.535156 14.914062 351.457031 14.742188 C 351.375 14.570312 351.335938 14.371094 351.335938 14.136719 Z M 350.257812 14.101562 C 350.257812 14.484375 350.363281 14.839844 350.582031 15.164062 C 350.796875 15.488281 351.085938 15.722656 351.445312 15.867188 C 350.964844 16.035156 350.597656 16.304688 350.339844 16.675781 C 350.085938 17.046875 349.957031 17.484375 349.957031 17.988281 C 349.957031 18.421875 350.03125 18.800781 350.179688 19.125 C 350.328125 19.449219 350.53125 19.71875 350.789062 19.933594 C 351.050781 20.148438 351.355469 20.308594 351.707031 20.414062 C 352.058594 20.519531 352.441406 20.570312 352.847656 20.570312 C 353.242188 20.570312 353.609375 20.511719 353.953125 20.402344 C 354.296875 20.289062 354.59375 20.125 354.847656 19.902344 C 355.097656 19.683594 355.296875 19.414062 355.445312 19.09375 C 355.59375 18.773438 355.667969 18.40625 355.667969 17.988281 C 355.667969 17.460938 355.542969 17.015625 355.296875 16.652344 C 355.046875 16.289062 354.667969 16.027344 354.15625 15.867188 C 354.515625 15.707031 354.800781 15.46875 355.015625 15.152344 C 355.226562 14.835938 355.332031 14.484375 355.332031 14.101562 C 355.332031 13.828125 355.285156 13.5625 355.1875 13.304688 C 355.09375 13.042969 354.941406 12.8125 354.738281 12.609375 C 354.535156 12.402344 354.269531 12.238281 353.941406 12.117188 C 353.613281 11.992188 353.214844 11.929688 352.753906 11.929688 C 352.425781 11.929688 352.109375 11.976562 351.8125 12.074219 C 351.511719 12.167969 351.246094 12.308594 351.011719 12.492188 C 350.78125 12.675781 350.597656 12.902344 350.460938 13.171875 C 350.324219 13.441406 350.257812 13.75 350.257812 14.101562 Z M 351.035156 18.039062 C 351.035156 17.789062 351.082031 17.566406 351.175781 17.367188 C 351.265625 17.167969 351.394531 16.992188 351.558594 16.847656 C 351.722656 16.703125 351.914062 16.59375 352.132812 16.519531 C 352.355469 16.445312 352.589844 16.40625 352.835938 16.40625 C 353.078125 16.40625 353.300781 16.449219 353.515625 16.53125 C 353.726562 16.617188 353.914062 16.730469 354.074219 16.875 C 354.234375 17.019531 354.359375 17.1875 354.449219 17.382812 C 354.542969 17.578125 354.589844 17.792969 354.589844 18.027344 C 354.589844 18.265625 354.546875 18.484375 354.460938 18.683594 C 354.378906 18.886719 354.257812 19.058594 354.101562 19.207031 C 353.945312 19.355469 353.761719 19.472656 353.550781 19.554688 C 353.339844 19.640625 353.105469 19.679688 352.847656 19.679688 C 352.320312 19.679688 351.886719 19.535156 351.546875 19.242188 C 351.207031 18.949219 351.035156 18.550781 351.035156 18.039062 Z M 357.144531 19.105469 L 357.144531 20.4375 L 358.476562 20.4375 L 358.476562 19.105469 Z M 362.101562 15.578125 L 362.101562 16.441406 C 362.292969 16.417969 362.496094 16.40625 362.710938 16.40625 C 362.96875 16.40625 363.207031 16.441406 363.425781 16.507812 C 363.644531 16.574219 363.835938 16.679688 363.996094 16.820312 C 364.15625 16.960938 364.285156 17.132812 364.378906 17.335938 C 364.476562 17.539062 364.523438 17.773438 364.523438 18.039062 C 364.523438 18.292969 364.472656 18.523438 364.375 18.726562 C 364.273438 18.929688 364.140625 19.101562 363.972656 19.242188 C 363.804688 19.382812 363.609375 19.492188 363.382812 19.566406 C 363.160156 19.644531 362.925781 19.679688 362.675781 19.679688 C 362.09375 19.679688 361.648438 19.507812 361.34375 19.160156 C 361.039062 18.8125 360.878906 18.363281 360.863281 17.808594 L 359.84375 17.808594 C 359.835938 18.25 359.898438 18.640625 360.03125 18.984375 C 360.164062 19.328125 360.351562 19.621094 360.601562 19.855469 C 360.847656 20.089844 361.148438 20.269531 361.5 20.390625 C 361.851562 20.511719 362.246094 20.570312 362.675781 20.570312 C 363.078125 20.570312 363.453125 20.515625 363.808594 20.40625 C 364.164062 20.300781 364.476562 20.136719 364.742188 19.921875 C 365.003906 19.707031 365.214844 19.433594 365.371094 19.113281 C 365.527344 18.789062 365.605469 18.414062 365.605469 17.988281 C 365.605469 17.476562 365.476562 17.035156 365.226562 16.65625 C 364.972656 16.28125 364.589844 16.039062 364.070312 15.925781 L 364.070312 15.902344 C 364.40625 15.75 364.683594 15.527344 364.910156 15.230469 C 365.132812 14.933594 365.246094 14.59375 365.246094 14.210938 C 365.246094 13.816406 365.179688 13.476562 365.046875 13.191406 C 364.914062 12.902344 364.730469 12.664062 364.5 12.480469 C 364.269531 12.296875 363.996094 12.160156 363.679688 12.066406 C 363.363281 11.976562 363.019531 11.929688 362.652344 11.929688 C 362.226562 11.929688 361.855469 11.996094 361.53125 12.132812 C 361.207031 12.269531 360.9375 12.457031 360.71875 12.699219 C 360.503906 12.9375 360.339844 13.226562 360.222656 13.5625 C 360.105469 13.898438 360.039062 14.269531 360.023438 14.675781 L 361.042969 14.675781 C 361.042969 14.429688 361.078125 14.195312 361.140625 13.96875 C 361.203125 13.746094 361.300781 13.550781 361.433594 13.382812 C 361.566406 13.214844 361.734375 13.078125 361.9375 12.980469 C 362.140625 12.878906 362.378906 12.828125 362.652344 12.828125 C 363.085938 12.828125 363.445312 12.945312 363.730469 13.171875 C 364.019531 13.398438 364.164062 13.742188 364.164062 14.199219 C 364.164062 14.421875 364.121094 14.621094 364.03125 14.796875 C 363.945312 14.972656 363.828125 15.121094 363.679688 15.234375 C 363.53125 15.351562 363.359375 15.441406 363.164062 15.5 C 362.96875 15.558594 362.761719 15.589844 362.542969 15.589844 L 362.328125 15.589844 C 362.289062 15.589844 362.25 15.589844 362.207031 15.589844 C 362.175781 15.589844 362.140625 15.585938 362.101562 15.578125 Z M 371.125 14.101562 L 372.144531 14.101562 C 372.082031 13.398438 371.839844 12.859375 371.425781 12.488281 C 371.007812 12.117188 370.449219 11.929688 369.746094 11.929688 C 369.136719 11.929688 368.632812 12.058594 368.230469 12.3125 C 367.832031 12.570312 367.511719 12.910156 367.273438 13.332031 C 367.03125 13.757812 366.863281 14.242188 366.761719 14.792969 C 366.660156 15.339844 366.613281 15.90625 366.613281 16.488281 C 366.613281 16.9375 366.644531 17.402344 366.714844 17.882812 C 366.78125 18.363281 366.921875 18.800781 367.128906 19.203125 C 367.335938 19.601562 367.632812 19.929688 368.015625 20.183594 C 368.398438 20.441406 368.910156 20.570312 369.539062 20.570312 C 370.074219 20.570312 370.527344 20.480469 370.890625 20.300781 C 371.253906 20.121094 371.546875 19.890625 371.765625 19.617188 C 371.984375 19.339844 372.144531 19.035156 372.242188 18.699219 C 372.335938 18.363281 372.382812 18.039062 372.382812 17.726562 C 372.382812 17.332031 372.324219 16.96875 372.203125 16.632812 C 372.082031 16.296875 371.914062 16.003906 371.695312 15.757812 C 371.472656 15.507812 371.203125 15.316406 370.878906 15.175781 C 370.554688 15.035156 370.1875 14.964844 369.78125 14.964844 C 369.316406 14.964844 368.90625 15.054688 368.550781 15.230469 C 368.195312 15.40625 367.894531 15.691406 367.65625 16.082031 L 367.632812 16.058594 C 367.640625 15.730469 367.671875 15.378906 367.726562 15 C 367.785156 14.625 367.886719 14.277344 368.035156 13.953125 C 368.183594 13.628906 368.386719 13.359375 368.652344 13.148438 C 368.917969 12.9375 369.265625 12.828125 369.695312 12.828125 C 370.105469 12.828125 370.433594 12.945312 370.679688 13.175781 C 370.929688 13.410156 371.078125 13.71875 371.125 14.101562 Z M 369.589844 15.867188 C 369.875 15.867188 370.128906 15.917969 370.34375 16.023438 C 370.558594 16.125 370.742188 16.261719 370.882812 16.433594 C 371.027344 16.605469 371.132812 16.8125 371.203125 17.046875 C 371.269531 17.285156 371.304688 17.535156 371.304688 17.796875 C 371.304688 18.046875 371.265625 18.285156 371.191406 18.511719 C 371.113281 18.738281 371.003906 18.941406 370.859375 19.117188 C 370.714844 19.292969 370.539062 19.429688 370.328125 19.53125 C 370.113281 19.632812 369.867188 19.679688 369.589844 19.679688 C 369.308594 19.679688 369.058594 19.632812 368.839844 19.53125 C 368.617188 19.429688 368.433594 19.296875 368.285156 19.128906 C 368.136719 18.960938 368.023438 18.761719 367.945312 18.53125 C 367.863281 18.296875 367.824219 18.050781 367.824219 17.785156 C 367.824219 17.519531 367.863281 17.273438 367.9375 17.035156 C 368.015625 16.800781 368.128906 16.59375 368.28125 16.421875 C 368.433594 16.25 368.617188 16.117188 368.832031 16.015625 C 369.046875 15.914062 369.300781 15.867188 369.589844 15.867188 Z M 374.832031 14.339844 C 374.832031 14.15625 374.84375 13.964844 374.867188 13.757812 C 374.890625 13.554688 374.941406 13.367188 375.019531 13.195312 C 375.09375 13.023438 375.199219 12.878906 375.335938 12.761719 C 375.472656 12.648438 375.652344 12.589844 375.875 12.589844 C 376.109375 12.589844 376.289062 12.648438 376.421875 12.761719 C 376.554688 12.878906 376.65625 13.023438 376.726562 13.195312 C 376.800781 13.367188 376.847656 13.554688 376.867188 13.757812 C 376.886719 13.964844 376.894531 14.152344 376.894531 14.328125 C 376.894531 14.511719 376.882812 14.710938 376.859375 14.917969 C 376.835938 15.125 376.785156 15.316406 376.710938 15.488281 C 376.632812 15.660156 376.527344 15.800781 376.390625 15.914062 C 376.253906 16.027344 376.070312 16.082031 375.839844 16.082031 C 375.617188 16.082031 375.4375 16.023438 375.304688 15.90625 C 375.171875 15.792969 375.070312 15.648438 375 15.476562 C 374.929688 15.304688 374.882812 15.117188 374.863281 14.910156 C 374.84375 14.707031 374.832031 14.515625 374.832031 14.339844 Z M 373.933594 14.367188 C 373.933594 14.695312 373.964844 15 374.035156 15.289062 C 374.101562 15.578125 374.210938 15.828125 374.363281 16.046875 C 374.515625 16.261719 374.714844 16.429688 374.964844 16.554688 C 375.210938 16.679688 375.515625 16.742188 375.875 16.742188 C 376.226562 16.742188 376.523438 16.671875 376.765625 16.539062 C 377.003906 16.402344 377.203125 16.222656 377.359375 16.003906 C 377.515625 15.785156 377.625 15.527344 377.695312 15.234375 C 377.761719 14.941406 377.796875 14.640625 377.796875 14.328125 C 377.796875 14 377.765625 13.691406 377.707031 13.398438 C 377.644531 13.105469 377.542969 12.851562 377.394531 12.636719 C 377.246094 12.421875 377.050781 12.25 376.804688 12.121094 C 376.5625 11.992188 376.253906 11.929688 375.875 11.929688 C 375.507812 11.929688 375.199219 11.996094 374.953125 12.128906 C 374.703125 12.261719 374.503906 12.4375 374.351562 12.660156 C 374.199219 12.886719 374.09375 13.144531 374.027344 13.433594 C 373.964844 13.726562 373.933594 14.039062 373.933594 14.367188 Z M 380.761719 18.179688 C 380.761719 17.996094 380.773438 17.804688 380.796875 17.597656 C 380.820312 17.394531 380.871094 17.207031 380.945312 17.035156 C 381.023438 16.863281 381.128906 16.71875 381.265625 16.601562 C 381.402344 16.488281 381.582031 16.429688 381.804688 16.429688 C 382.035156 16.429688 382.21875 16.488281 382.351562 16.601562 C 382.484375 16.71875 382.585938 16.863281 382.65625 17.035156 C 382.726562 17.207031 382.773438 17.394531 382.792969 17.597656 C 382.8125 17.804688 382.824219 17.992188 382.824219 18.167969 C 382.824219 18.351562 382.8125 18.550781 382.789062 18.757812 C 382.765625 18.964844 382.714844 19.15625 382.636719 19.328125 C 382.5625 19.5 382.457031 19.640625 382.320312 19.753906 C 382.183594 19.867188 382 19.921875 381.769531 19.921875 C 381.542969 19.921875 381.367188 19.863281 381.234375 19.746094 C 381.101562 19.632812 381 19.488281 380.929688 19.316406 C 380.855469 19.144531 380.808594 18.957031 380.789062 18.75 C 380.769531 18.546875 380.761719 18.359375 380.761719 18.179688 Z M 379.859375 18.207031 C 379.859375 18.535156 379.894531 18.839844 379.960938 19.128906 C 380.03125 19.417969 380.140625 19.667969 380.292969 19.878906 C 380.445312 20.089844 380.644531 20.257812 380.890625 20.382812 C 381.140625 20.507812 381.445312 20.570312 381.804688 20.570312 C 382.15625 20.570312 382.453125 20.503906 382.691406 20.371094 C 382.933594 20.238281 383.128906 20.0625 383.285156 19.84375 C 383.441406 19.625 383.554688 19.367188 383.621094 19.074219 C 383.691406 18.78125 383.722656 18.480469 383.722656 18.167969 C 383.722656 17.839844 383.695312 17.53125 383.632812 17.238281 C 383.574219 16.945312 383.46875 16.695312 383.320312 16.476562 C 383.171875 16.261719 382.976562 16.089844 382.734375 15.960938 C 382.488281 15.832031 382.179688 15.769531 381.804688 15.769531 C 381.4375 15.769531 381.128906 15.835938 380.878906 15.96875 C 380.632812 16.101562 380.433594 16.277344 380.28125 16.5 C 380.128906 16.726562 380.019531 16.984375 379.957031 17.277344 C 379.890625 17.566406 379.859375 17.878906 379.859375 18.207031 Z M 381.539062 11.773438 L 375.085938 20.691406 L 376.117188 20.691406 L 382.558594 11.773438 Z M 384.71875 22.800781 L 385.488281 22.800781 C 386.113281 21.976562 386.582031 21.085938 386.898438 20.132812 C 387.214844 19.175781 387.371094 18.226562 387.371094 17.28125 C 387.371094 16.753906 387.328125 16.25 387.238281 15.769531 C 387.152344 15.289062 387.027344 14.820312 386.863281 14.359375 C 386.699219 13.898438 386.5 13.449219 386.269531 13.003906 C 386.035156 12.558594 385.777344 12.113281 385.488281 11.664062 L 384.71875 11.664062 C 385.28125 12.585938 385.683594 13.5 385.925781 14.40625 C 386.171875 15.316406 386.292969 16.273438 386.292969 17.28125 C 386.292969 18.257812 386.171875 19.195312 385.933594 20.09375 C 385.691406 20.996094 385.289062 21.898438 384.71875 22.800781 Z M 298.570312 9.011719 "/>
<path fill-rule="nonzero" fill="rgb(100%, 38.823529%, 51.764706%)" fill-opacity="1" stroke-width="2" stroke-linecap="butt" stroke-linejoin="miter" stroke="rgb(100%, 100%, 100%)" stroke-opacity="1" stroke-miterlimit="10" d="M 397.933594 10 L 437.933594 10 L 437.933594 22 L 397.933594 22 Z M 397.933594 10 "/>
<path fill-rule="nonzero" fill="rgb(40%, 40%, 40%)" fill-opacity="1" d="M 450.894531 14.449219 L 452.035156 14.449219 C 451.96875 13.992188 451.832031 13.589844 451.625 13.242188 C 451.417969 12.894531 451.15625 12.605469 450.84375 12.375 C 450.53125 12.140625 450.175781 11.964844 449.777344 11.84375 C 449.378906 11.726562 448.953125 11.664062 448.503906 11.664062 C 447.847656 11.664062 447.269531 11.785156 446.757812 12.019531 C 446.25 12.253906 445.828125 12.578125 445.488281 12.984375 C 445.148438 13.394531 444.890625 13.871094 444.714844 14.417969 C 444.539062 14.96875 444.449219 15.554688 444.449219 16.175781 C 444.449219 16.800781 444.53125 17.386719 444.695312 17.929688 C 444.859375 18.472656 445.105469 18.945312 445.433594 19.34375 C 445.761719 19.746094 446.171875 20.058594 446.667969 20.289062 C 447.164062 20.515625 447.746094 20.628906 448.410156 20.628906 C 449.503906 20.628906 450.371094 20.328125 451 19.730469 C 451.632812 19.128906 452.003906 18.289062 452.117188 17.210938 L 450.976562 17.210938 C 450.953125 17.5625 450.882812 17.890625 450.761719 18.195312 C 450.640625 18.5 450.476562 18.757812 450.261719 18.980469 C 450.050781 19.199219 449.800781 19.371094 449.507812 19.496094 C 449.214844 19.621094 448.882812 19.679688 448.503906 19.679688 C 447.992188 19.679688 447.554688 19.585938 447.1875 19.394531 C 446.816406 19.203125 446.515625 18.945312 446.28125 18.621094 C 446.042969 18.296875 445.871094 17.914062 445.757812 17.480469 C 445.644531 17.042969 445.589844 16.582031 445.589844 16.09375 C 445.589844 15.644531 445.644531 15.214844 445.757812 14.796875 C 445.871094 14.382812 446.042969 14.011719 446.28125 13.6875 C 446.515625 13.363281 446.816406 13.105469 447.179688 12.914062 C 447.542969 12.722656 447.980469 12.625 448.492188 12.625 C 449.09375 12.625 449.613281 12.777344 450.046875 13.082031 C 450.484375 13.386719 450.765625 13.839844 450.894531 14.449219 Z M 456.605469 16.992188 L 456.605469 14.367188 L 455.789062 14.367188 L 455.789062 16.992188 L 453.171875 16.992188 L 453.171875 17.808594 L 455.789062 17.808594 L 455.789062 20.4375 L 456.605469 20.4375 L 456.605469 17.808594 L 459.222656 17.808594 L 459.222656 16.992188 Z M 463.804688 16.992188 L 463.804688 14.367188 L 462.988281 14.367188 L 462.988281 16.992188 L 460.371094 16.992188 L 460.371094 17.808594 L 462.988281 17.808594 L 462.988281 20.4375 L 463.804688 20.4375 L 463.804688 17.808594 L 466.421875 17.808594 L 466.421875 16.992188 Z M 472.785156 22.800781 L 473.5625 22.800781 C 472.996094 21.882812 472.589844 20.96875 472.347656 20.066406 C 472.101562 19.160156 471.980469 18.207031 471.980469 17.199219 C 471.980469 16.214844 472.101562 15.273438 472.339844 14.378906 C 472.578125 13.480469 472.988281 12.578125 473.5625 11.664062 L 472.785156 11.664062 C 472.160156 12.488281 471.691406 13.382812 471.375 14.339844 C 471.058594 15.300781 470.898438 16.253906 470.898438 17.199219 C 470.898438 17.726562 470.945312 18.230469 471.03125 18.710938 C 471.121094 19.191406 471.246094 19.65625 471.410156 20.113281 C 471.574219 20.570312 471.773438 21.019531 472.003906 21.464844 C 472.234375 21.90625 472.496094 22.351562 472.785156 22.800781 Z M 476.058594 15.578125 L 476.058594 16.441406 C 476.25 16.417969 476.453125 16.40625 476.667969 16.40625 C 476.925781 16.40625 477.164062 16.441406 477.382812 16.507812 C 477.601562 16.574219 477.792969 16.679688 477.953125 16.820312 C 478.113281 16.960938 478.242188 17.132812 478.335938 17.335938 C 478.433594 17.539062 478.480469 17.773438 478.480469 18.039062 C 478.480469 18.292969 478.429688 18.523438 478.332031 18.726562 C 478.230469 18.929688 478.097656 19.101562 477.929688 19.242188 C 477.761719 19.382812 477.566406 19.492188 477.339844 19.566406 C 477.117188 19.644531 476.882812 19.679688 476.632812 19.679688 C 476.050781 19.679688 475.605469 19.507812 475.300781 19.160156 C 474.996094 18.8125 474.835938 18.363281 474.820312 17.808594 L 473.800781 17.808594 C 473.792969 18.25 473.855469 18.640625 473.988281 18.984375 C 474.121094 19.328125 474.308594 19.621094 474.558594 19.855469 C 474.804688 20.089844 475.105469 20.269531 475.457031 20.390625 C 475.808594 20.511719 476.203125 20.570312 476.632812 20.570312 C 477.035156 20.570312 477.410156 20.515625 477.765625 20.40625 C 478.121094 20.300781 478.433594 20.136719 478.699219 19.921875 C 478.960938 19.707031 479.171875 19.433594 479.328125 19.113281 C 479.484375 18.789062 479.5625 18.414062 479.5625 17.988281 C 479.5625 17.476562 479.433594 17.035156 479.183594 16.65625 C 478.929688 16.28125 478.546875 16.039062 478.027344 15.925781 L 478.027344 15.902344 C 478.363281 15.75 478.640625 15.527344 478.867188 15.230469 C 479.089844 14.933594 479.203125 14.59375 479.203125 14.210938 C 479.203125 13.816406 479.136719 13.476562 479.003906 13.191406 C 478.871094 12.902344 478.6875 12.664062 478.457031 12.480469 C 478.226562 12.296875 477.953125 12.160156 477.636719 12.066406 C 477.320312 11.976562 476.976562 11.929688 476.609375 11.929688 C 476.183594 11.929688 475.8125 11.996094 475.488281 12.132812 C 475.164062 12.269531 474.894531 12.457031 474.675781 12.699219 C 474.460938 12.9375 474.296875 13.226562 474.179688 13.5625 C 474.0625 13.898438 473.996094 14.269531 473.980469 14.675781 L 475 14.675781 C 475 14.429688 475.035156 14.195312 475.097656 13.96875 C 475.160156 13.746094 475.257812 13.550781 475.390625 13.382812 C 475.523438 13.214844 475.691406 13.078125 475.894531 12.980469 C 476.097656 12.878906 476.335938 12.828125 476.609375 12.828125 C 477.042969 12.828125 477.402344 12.945312 477.6875 13.171875 C 477.976562 13.398438 478.121094 13.742188 478.121094 14.199219 C 478.121094 14.421875 478.078125 14.621094 477.988281 14.796875 C 477.902344 14.972656 477.785156 15.121094 477.636719 15.234375 C 477.488281 15.351562 477.316406 15.441406 477.121094 15.5 C 476.925781 15.558594 476.71875 15.589844 476.5 15.589844 L 476.285156 15.589844 C 476.246094 15.589844 476.207031 15.589844 476.164062 15.589844 C 476.132812 15.589844 476.097656 15.585938 476.058594 15.578125 Z M 481.109375 19.105469 L 481.109375 20.4375 L 482.441406 20.4375 L 482.441406 19.105469 Z M 488.417969 14.101562 L 489.4375 14.101562 C 489.375 13.398438 489.132812 12.859375 488.71875 12.488281 C 488.300781 12.117188 487.742188 11.929688 487.039062 11.929688 C 486.429688 11.929688 485.925781 12.058594 485.523438 12.3125 C 485.125 12.570312 484.804688 12.910156 484.566406 13.332031 C 484.324219 13.757812 484.15625 14.242188 484.054688 14.792969 C 483.953125 15.339844 483.90625 15.90625 483.90625 16.488281 C 483.90625 16.9375 483.9375 17.402344 484.007812 17.882812 C 484.074219 18.363281 484.214844 18.800781 484.421875 19.203125 C 484.628906 19.601562 484.925781 19.929688 485.308594 20.183594 C 485.691406 20.441406 486.203125 20.570312 486.832031 20.570312 C 487.367188 20.570312 487.820312 20.480469 488.183594 20.300781 C 488.546875 20.121094 488.839844 19.890625 489.058594 19.617188 C 489.277344 19.339844 489.4375 19.035156 489.535156 18.699219 C 489.628906 18.363281 489.675781 18.039062 489.675781 17.726562 C 489.675781 17.332031 489.617188 16.96875 489.496094 16.632812 C 489.375 16.296875 489.207031 16.003906 488.988281 15.757812 C 488.765625 15.507812 488.496094 15.316406 488.171875 15.175781 C 487.847656 15.035156 487.480469 14.964844 487.074219 14.964844 C 486.609375 14.964844 486.199219 15.054688 485.84375 15.230469 C 485.488281 15.40625 485.1875 15.691406 484.949219 16.082031 L 484.925781 16.058594 C 484.933594 15.730469 484.964844 15.378906 485.019531 15 C 485.078125 14.625 485.179688 14.277344 485.328125 13.953125 C 485.476562 13.628906 485.679688 13.359375 485.945312 13.148438 C 486.210938 12.9375 486.558594 12.828125 486.988281 12.828125 C 487.398438 12.828125 487.726562 12.945312 487.972656 13.175781 C 488.222656 13.410156 488.371094 13.71875 488.417969 14.101562 Z M 486.882812 15.867188 C 487.167969 15.867188 487.421875 15.917969 487.636719 16.023438 C 487.851562 16.125 488.035156 16.261719 488.175781 16.433594 C 488.320312 16.605469 488.425781 16.8125 488.496094 17.046875 C 488.5625 17.285156 488.597656 17.535156 488.597656 17.796875 C 488.597656 18.046875 488.558594 18.285156 488.484375 18.511719 C 488.40625 18.738281 488.296875 18.941406 488.152344 19.117188 C 488.007812 19.292969 487.832031 19.429688 487.621094 19.53125 C 487.40625 19.632812 487.160156 19.679688 486.882812 19.679688 C 486.601562 19.679688 486.351562 19.632812 486.132812 19.53125 C 485.910156 19.429688 485.726562 19.296875 485.578125 19.128906 C 485.429688 18.960938 485.316406 18.761719 485.238281 18.53125 C 485.15625 18.296875 485.117188 18.050781 485.117188 17.785156 C 485.117188 17.519531 485.15625 17.273438 485.230469 17.035156 C 485.308594 16.800781 485.421875 16.59375 485.574219 16.421875 C 485.726562 16.25 485.910156 16.117188 486.125 16.015625 C 486.339844 15.914062 486.59375 15.867188 486.882812 15.867188 Z M 491.730469 18.386719 L 490.710938 18.386719 C 490.773438 19.121094 491.042969 19.667969 491.511719 20.03125 C 491.984375 20.390625 492.578125 20.570312 493.289062 20.570312 C 494.320312 20.570312 495.070312 20.175781 495.539062 19.386719 C 496.007812 18.597656 496.242188 17.46875 496.242188 15.996094 C 496.242188 15.1875 496.164062 14.523438 496.007812 14 C 495.851562 13.476562 495.640625 13.0625 495.378906 12.757812 C 495.113281 12.453125 494.804688 12.238281 494.453125 12.117188 C 494.101562 11.992188 493.726562 11.929688 493.324219 11.929688 C 492.917969 11.929688 492.542969 11.996094 492.195312 12.132812 C 491.851562 12.269531 491.558594 12.460938 491.308594 12.703125 C 491.0625 12.949219 490.867188 13.238281 490.734375 13.578125 C 490.597656 13.917969 490.527344 14.292969 490.527344 14.703125 C 490.527344 15.117188 490.585938 15.5 490.703125 15.851562 C 490.820312 16.203125 490.992188 16.503906 491.21875 16.753906 C 491.445312 17 491.730469 17.195312 492.066406 17.335938 C 492.402344 17.476562 492.785156 17.546875 493.21875 17.546875 C 493.632812 17.546875 494.015625 17.441406 494.367188 17.226562 C 494.71875 17.015625 494.992188 16.730469 495.183594 16.371094 L 495.210938 16.394531 C 495.175781 17.503906 495.003906 18.332031 494.691406 18.871094 C 494.378906 19.410156 493.914062 19.679688 493.289062 19.679688 C 492.882812 19.679688 492.527344 19.570312 492.234375 19.34375 C 491.9375 19.121094 491.769531 18.800781 491.730469 18.386719 Z M 495.027344 14.773438 C 495.027344 15.019531 494.988281 15.257812 494.910156 15.488281 C 494.828125 15.714844 494.714844 15.914062 494.5625 16.085938 C 494.410156 16.257812 494.226562 16.394531 494.007812 16.496094 C 493.792969 16.59375 493.554688 16.644531 493.289062 16.644531 C 493.042969 16.644531 492.816406 16.59375 492.609375 16.496094 C 492.40625 16.394531 492.230469 16.261719 492.082031 16.09375 C 491.933594 15.925781 491.820312 15.734375 491.734375 15.515625 C 491.652344 15.300781 491.609375 15.078125 491.609375 14.84375 C 491.609375 14.582031 491.640625 14.328125 491.699219 14.089844 C 491.757812 13.851562 491.855469 13.636719 491.988281 13.449219 C 492.121094 13.261719 492.292969 13.109375 492.503906 12.996094 C 492.714844 12.886719 492.972656 12.828125 493.277344 12.828125 C 493.566406 12.828125 493.816406 12.882812 494.03125 12.984375 C 494.25 13.089844 494.429688 13.230469 494.578125 13.410156 C 494.726562 13.589844 494.839844 13.796875 494.914062 14.03125 C 494.992188 14.261719 495.027344 14.507812 495.027344 14.773438 Z M 498.796875 14.339844 C 498.796875 14.15625 498.808594 13.964844 498.832031 13.757812 C 498.855469 13.554688 498.90625 13.367188 498.984375 13.195312 C 499.058594 13.023438 499.164062 12.878906 499.300781 12.761719 C 499.4375 12.648438 499.617188 12.589844 499.839844 12.589844 C 500.074219 12.589844 500.253906 12.648438 500.386719 12.761719 C 500.519531 12.878906 500.621094 13.023438 500.691406 13.195312 C 500.765625 13.367188 500.8125 13.554688 500.832031 13.757812 C 500.851562 13.964844 500.859375 14.152344 500.859375 14.328125 C 500.859375 14.511719 500.847656 14.710938 500.824219 14.917969 C 500.800781 15.125 500.75 15.316406 500.675781 15.488281 C 500.597656 15.660156 500.492188 15.800781 500.355469 15.914062 C 500.21875 16.027344 500.035156 16.082031 499.804688 16.082031 C 499.582031 16.082031 499.402344 16.023438 499.269531 15.90625 C 499.136719 15.792969 499.035156 15.648438 498.964844 15.476562 C 498.894531 15.304688 498.847656 15.117188 498.828125 14.910156 C 498.808594 14.707031 498.796875 14.515625 498.796875 14.339844 Z M 497.898438 14.367188 C 497.898438 14.695312 497.929688 15 498 15.289062 C 498.066406 15.578125 498.175781 15.828125 498.328125 16.046875 C 498.480469 16.261719 498.679688 16.429688 498.929688 16.554688 C 499.175781 16.679688 499.480469 16.742188 499.839844 16.742188 C 500.191406 16.742188 500.488281 16.671875 500.730469 16.539062 C 500.96875 16.402344 501.167969 16.222656 501.324219 16.003906 C 501.480469 15.785156 501.589844 15.527344 501.660156 15.234375 C 501.726562 14.941406 501.761719 14.640625 501.761719 14.328125 C 501.761719 14 501.730469 13.691406 501.671875 13.398438 C 501.609375 13.105469 501.507812 12.851562 501.359375 12.636719 C 501.210938 12.421875 501.015625 12.25 500.769531 12.121094 C 500.527344 11.992188 500.21875 11.929688 499.839844 11.929688 C 499.472656 11.929688 499.164062 11.996094 498.917969 12.128906 C 498.667969 12.261719 498.46875 12.4375 498.316406 12.660156 C 498.164062 12.886719 498.058594 13.144531 497.992188 13.433594 C 497.929688 13.726562 497.898438 14.039062 497.898438 14.367188 Z M 504.726562 18.179688 C 504.726562 17.996094 504.738281 17.804688 504.761719 17.597656 C 504.785156 17.394531 504.835938 17.207031 504.910156 17.035156 C 504.988281 16.863281 505.09375 16.71875 505.230469 16.601562 C 505.367188 16.488281 505.546875 16.429688 505.769531 16.429688 C 506 16.429688 506.183594 16.488281 506.316406 16.601562 C 506.449219 16.71875 506.550781 16.863281 506.621094 17.035156 C 506.691406 17.207031 506.738281 17.394531 506.757812 17.597656 C 506.777344 17.804688 506.789062 17.992188 506.789062 18.167969 C 506.789062 18.351562 506.777344 18.550781 506.753906 18.757812 C 506.730469 18.964844 506.679688 19.15625 506.601562 19.328125 C 506.527344 19.5 506.421875 19.640625 506.285156 19.753906 C 506.148438 19.867188 505.964844 19.921875 505.734375 19.921875 C 505.507812 19.921875 505.332031 19.863281 505.199219 19.746094 C 505.066406 19.632812 504.964844 19.488281 504.894531 19.316406 C 504.820312 19.144531 504.773438 18.957031 504.753906 18.75 C 504.734375 18.546875 504.726562 18.359375 504.726562 18.179688 Z M 503.824219 18.207031 C 503.824219 18.535156 503.859375 18.839844 503.925781 19.128906 C 503.996094 19.417969 504.105469 19.667969 504.257812 19.878906 C 504.410156 20.089844 504.609375 20.257812 504.855469 20.382812 C 505.105469 20.507812 505.410156 20.570312 505.769531 20.570312 C 506.121094 20.570312 506.417969 20.503906 506.65625 20.371094 C 506.898438 20.238281 507.09375 20.0625 507.25 19.84375 C 507.40625 19.625 507.519531 19.367188 507.585938 19.074219 C 507.65625 18.78125 507.6875 18.480469 507.6875 18.167969 C 507.6875 17.839844 507.660156 17.53125 507.597656 17.238281 C 507.539062 16.945312 507.433594 16.695312 507.285156 16.476562 C 507.136719 16.261719 506.941406 16.089844 506.699219 15.960938 C 506.453125 15.832031 506.144531 15.769531 505.769531 15.769531 C 505.402344 15.769531 505.09375 15.835938 504.84375 15.96875 C 504.597656 16.101562 504.398438 16.277344 504.246094 16.5 C 504.09375 16.726562 503.984375 16.984375 503.921875 17.277344 C 503.855469 17.566406 503.824219 17.878906 503.824219 18.207031 Z M 505.503906 11.773438 L 499.050781 20.691406 L 500.082031 20.691406 L 506.523438 11.773438 Z M 508.683594 22.800781 L 509.453125 22.800781 C 510.078125 21.976562 510.546875 21.085938 510.863281 20.132812 C 511.179688 19.175781 511.335938 18.226562 511.335938 17.28125 C 511.335938 16.753906 511.292969 16.25 511.203125 15.769531 C 511.117188 15.289062 510.992188 14.820312 510.828125 14.359375 C 510.664062 13.898438 510.464844 13.449219 510.234375 13.003906 C 510 12.558594 509.742188 12.113281 509.453125 11.664062 L 508.683594 11.664062 C 509.246094 12.585938 509.648438 13.5 509.890625 14.40625 C 510.136719 15.316406 510.257812 16.273438 510.257812 17.28125 C 510.257812 18.257812 510.136719 19.195312 509.898438 20.09375 C 509.65625 20.996094 509.253906 21.898438 508.683594 22.800781 Z M 443.933594 9.011719 "/>
<path fill-rule="nonzero" fill="rgb(100%, 80.392157%, 33.72549%)" fill-opacity="1" stroke-width="2" stroke-linecap="butt" stroke-linejoin="bevel" stroke="rgb(100%, 100%, 100%)" stroke-opacity="1" stroke-miterlimit="10" d="M 300 33 C 403.152344 33 498.132812 89.125 547.894531 179.480469 C 597.65625 269.835938 594.3125 380.113281 539.167969 467.289062 C 484.023438 554.460938 385.816406 604.730469 282.851562 598.480469 C 179.890625 592.230469 88.484375 530.453125 44.289062 437.25 L 172.144531 376.625 C 194.242188 423.226562 239.945312 454.113281 291.425781 457.238281 C 342.90625 460.363281 392.011719 435.230469 419.582031 391.644531 C 447.15625 348.054688 448.828125 292.917969 423.945312 247.742188 C 399.066406 202.5625 351.574219 174.5 300 174.5 Z M 300 33 "/>
<path fill-rule="nonzero" fill="rgb(21.176471%, 63.529412%, 92.156863%)" fill-opacity="1" stroke-width="2" stroke-linecap="butt" stroke-linejoin="bevel" stroke="rgb(100%, 100%, 100%)" stroke-opacity="1" stroke-miterlimit="10" d="M 44.289062 437.25 C 7.679688 360.035156 7.914062 270.414062 44.9375 193.398438 C 81.957031 116.378906 151.792969 60.214844 234.960938 40.574219 L 267.480469 178.289062 C 225.898438 188.105469 190.976562 216.191406 172.46875 254.699219 C 153.957031 293.207031 153.839844 338.019531 172.144531 376.625 Z M 44.289062 437.25 "/>
<path fill-rule="nonzero" fill="rgb(100%, 38.823529%, 51.764706%)" fill-opacity="1" stroke-width="2" stroke-linecap="butt" stroke-linejoin="bevel" stroke="rgb(100%, 100%, 100%)" stroke-opacity="1" stroke-miterlimit="10" d="M 234.960938 40.574219 C 256.273438 35.542969 278.101562 33 300 33 L 300 174.5 C 289.050781 174.5 278.136719 175.769531 267.480469 178.289062 Z M 234.960938 40.574219 "/>
</svg>
