<?xml version="1.0" encoding="UTF-8"?>
<svg xmlns="http://www.w3.org/2000/svg" xmlns:xlink="http://www.w3.org/1999/xlink" width="600" height="600" viewBox="0 0 600 600">
<path fill-rule="nonzero" fill="rgb(100%, 80.392157%, 33.72549%)" fill-opacity="1" stroke-width="2" stroke-linecap="butt" stroke-linejoin="miter" stroke="rgb(100%, 100%, 100%)" stroke-opacity="1" stroke-miterlimit="10" d="M 83.308594 10 L 123.308594 10 L 123.308594 22 L 83.308594 22 Z M 83.308594 10 "/>
<path fill-rule="nonzero" fill="rgb(40%, 40%, 40%)" fill-opacity="1" d="M 135.199219 14.378906 L 136.28125 14.378906 C 136.265625 13.90625 136.175781 13.5 136.011719 13.160156 C 135.847656 12.820312 135.621094 12.539062 135.339844 12.3125 C 135.054688 12.089844 134.722656 11.925781 134.347656 11.820312 C 133.972656 11.71875 133.566406 11.664062 133.125 11.664062 C 132.734375 11.664062 132.351562 11.714844 131.980469 11.816406 C 131.605469 11.914062 131.273438 12.066406 130.984375 12.273438 C 130.691406 12.476562 130.457031 12.734375 130.28125 13.050781 C 130.105469 13.367188 130.015625 13.742188 130.015625 14.171875 C 130.015625 14.566406 130.09375 14.890625 130.25 15.152344 C 130.40625 15.410156 130.613281 15.625 130.875 15.789062 C 131.132812 15.953125 131.429688 16.082031 131.757812 16.183594 C 132.085938 16.285156 132.417969 16.371094 132.757812 16.449219 C 133.097656 16.523438 133.433594 16.597656 133.761719 16.667969 C 134.089844 16.742188 134.382812 16.835938 134.644531 16.953125 C 134.902344 17.066406 135.109375 17.21875 135.265625 17.402344 C 135.421875 17.585938 135.5 17.824219 135.5 18.121094 C 135.5 18.433594 135.4375 18.691406 135.308594 18.890625 C 135.179688 19.089844 135.011719 19.246094 134.804688 19.363281 C 134.597656 19.480469 134.363281 19.5625 134.101562 19.609375 C 133.84375 19.65625 133.585938 19.679688 133.328125 19.679688 C 133.007812 19.679688 132.695312 19.640625 132.394531 19.5625 C 132.089844 19.480469 131.824219 19.359375 131.59375 19.191406 C 131.367188 19.023438 131.183594 18.808594 131.042969 18.546875 C 130.902344 18.289062 130.832031 17.976562 130.832031 17.617188 L 129.753906 17.617188 C 129.753906 18.136719 129.847656 18.585938 130.035156 18.96875 C 130.222656 19.347656 130.480469 19.660156 130.800781 19.902344 C 131.125 20.148438 131.503906 20.328125 131.929688 20.449219 C 132.359375 20.570312 132.8125 20.628906 133.292969 20.628906 C 133.683594 20.628906 134.078125 20.582031 134.472656 20.492188 C 134.871094 20.398438 135.230469 20.25 135.546875 20.046875 C 135.867188 19.84375 136.128906 19.578125 136.335938 19.253906 C 136.539062 18.929688 136.640625 18.542969 136.640625 18.085938 C 136.640625 17.660156 136.5625 17.308594 136.40625 17.03125 C 136.25 16.75 136.042969 16.515625 135.78125 16.332031 C 135.523438 16.148438 135.230469 16.003906 134.902344 15.894531 C 134.574219 15.789062 134.238281 15.695312 133.898438 15.613281 C 133.558594 15.535156 133.222656 15.460938 132.898438 15.390625 C 132.570312 15.324219 132.273438 15.238281 132.015625 15.132812 C 131.753906 15.027344 131.546875 14.894531 131.390625 14.730469 C 131.234375 14.566406 131.15625 14.351562 131.15625 14.089844 C 131.15625 13.808594 131.210938 13.574219 131.320312 13.386719 C 131.425781 13.199219 131.570312 13.050781 131.75 12.9375 C 131.929688 12.824219 132.136719 12.746094 132.367188 12.699219 C 132.601562 12.648438 132.835938 12.625 133.078125 12.625 C 133.667969 12.625 134.15625 12.761719 134.535156 13.039062 C 134.914062 13.316406 135.136719 13.761719 135.199219 14.378906 Z M 138.597656 17.339844 C 138.597656 16.964844 138.648438 16.632812 138.746094 16.339844 C 138.847656 16.046875 138.984375 15.800781 139.160156 15.601562 C 139.335938 15.402344 139.542969 15.25 139.78125 15.144531 C 140.015625 15.042969 140.265625 14.988281 140.53125 14.988281 C 140.792969 14.988281 141.042969 15.042969 141.28125 15.144531 C 141.515625 15.25 141.722656 15.402344 141.898438 15.601562 C 142.074219 15.800781 142.210938 16.046875 142.3125 16.339844 C 142.414062 16.632812 142.460938 16.964844 142.460938 17.339844 C 142.460938 17.71875 142.410156 18.050781 142.3125 18.34375 C 142.210938 18.636719 142.074219 18.878906 141.898438 19.074219 C 141.722656 19.269531 141.515625 19.421875 141.28125 19.527344 C 141.042969 19.628906 140.792969 19.679688 140.53125 19.679688 C 140.265625 19.679688 140.015625 19.628906 139.78125 19.527344 C 139.542969 19.421875 139.339844 19.273438 139.160156 19.074219 C 138.984375 18.878906 138.847656 18.636719 138.746094 18.34375 C 138.648438 18.050781 138.597656 17.71875 138.597656 17.339844 Z M 137.519531 17.339844 C 137.519531 17.796875 137.582031 18.222656 137.710938 18.613281 C 137.839844 19.003906 138.03125 19.347656 138.285156 19.640625 C 138.542969 19.933594 138.859375 20.160156 139.234375 20.324219 C 139.609375 20.488281 140.042969 20.570312 140.53125 20.570312 C 141.027344 20.570312 141.460938 20.488281 141.832031 20.324219 C 142.203125 20.160156 142.519531 19.929688 142.773438 19.640625 C 143.03125 19.347656 143.222656 19.003906 143.351562 18.613281 C 143.476562 18.222656 143.542969 17.796875 143.542969 17.339844 C 143.542969 16.886719 143.476562 16.460938 143.351562 16.0625 C 143.222656 15.667969 143.03125 15.324219 142.773438 15.03125 C 142.519531 14.738281 142.203125 14.507812 141.832031 14.339844 C 141.460938 14.171875 141.027344 14.089844 140.53125 14.089844 C 140.042969 14.089844 139.609375 14.171875 139.234375 14.339844 C 138.859375 14.507812 138.542969 14.738281 138.285156 15.03125 C 138.03125 15.324219 137.839844 15.667969 137.710938 16.0625 C 137.582031 16.460938 137.519531 16.886719 137.519531 17.339844 Z M 145.160156 15.132812 L 145.160156 20.4375 L 146.179688 20.4375 L 146.179688 15.132812 L 147.378906 15.132812 L 147.378906 14.234375 L 146.179688 14.234375 L 146.179688 13.371094 C 146.179688 13.097656 146.25 12.914062 146.382812 12.816406 C 146.519531 12.722656 146.710938 12.671875 146.960938 12.671875 C 147.046875 12.671875 147.144531 12.679688 147.25 12.691406 C 147.351562 12.703125 147.449219 12.726562 147.535156 12.757812 L 147.535156 11.871094 C 147.441406 11.839844 147.332031 11.8125 147.207031 11.796875 C 147.082031 11.78125 146.972656 11.773438 146.875 11.773438 C 146.316406 11.773438 145.890625 11.902344 145.597656 12.164062 C 145.304688 12.421875 145.160156 12.804688 145.160156 13.308594 L 145.160156 14.234375 L 144.117188 14.234375 L 144.117188 15.132812 Z M 149.707031 14.234375 L 149.707031 12.375 L 148.6875 12.375 L 148.6875 14.234375 L 147.632812 14.234375 L 147.632812 15.132812 L 148.6875 15.132812 L 148.6875 19.082031 C 148.6875 19.371094 148.714844 19.601562 148.769531 19.777344 C 148.828125 19.953125 148.914062 20.089844 149.03125 20.183594 C 149.144531 20.28125 149.296875 20.347656 149.484375 20.382812 C 149.671875 20.417969 149.898438 20.4375 150.164062 20.4375 L 150.945312 20.4375 L 150.945312 19.539062 L 150.476562 19.539062 C 150.316406 19.539062 150.183594 19.53125 150.085938 19.519531 C 149.984375 19.507812 149.90625 19.480469 149.851562 19.441406 C 149.796875 19.402344 149.757812 19.34375 149.738281 19.273438 C 149.71875 19.203125 149.707031 19.105469 149.707031 18.984375 L 149.707031 15.132812 L 150.945312 15.132812 L 150.945312 14.234375 Z M 158.214844 20.4375 L 160.195312 14.234375 L 159.140625 14.234375 L 157.75 19.308594 L 157.726562 19.308594 L 156.429688 14.234375 L 155.3125 14.234375 L 154.066406 19.308594 L 154.039062 19.308594 L 152.636719 14.234375 L 151.507812 14.234375 L 153.5 20.4375 L 154.605469 20.4375 L 155.851562 15.503906 L 155.875 15.503906 L 157.136719 20.4375 Z M 166.664062 20.414062 C 166.488281 20.519531 166.242188 20.570312 165.929688 20.570312 C 165.667969 20.570312 165.457031 20.496094 165.300781 20.347656 C 165.144531 20.199219 165.066406 19.957031 165.066406 19.621094 C 164.785156 19.957031 164.460938 20.199219 164.089844 20.347656 C 163.71875 20.496094 163.3125 20.570312 162.882812 20.570312 C 162.601562 20.570312 162.335938 20.539062 162.085938 20.472656 C 161.832031 20.410156 161.613281 20.308594 161.429688 20.171875 C 161.246094 20.035156 161.101562 19.859375 160.992188 19.640625 C 160.882812 19.417969 160.832031 19.152344 160.832031 18.839844 C 160.832031 18.488281 160.890625 18.203125 161.011719 17.976562 C 161.132812 17.753906 161.289062 17.570312 161.484375 17.429688 C 161.679688 17.289062 161.90625 17.183594 162.15625 17.113281 C 162.410156 17.042969 162.667969 16.980469 162.929688 16.933594 C 163.210938 16.878906 163.476562 16.835938 163.726562 16.808594 C 163.980469 16.78125 164.203125 16.738281 164.394531 16.6875 C 164.585938 16.636719 164.738281 16.558594 164.851562 16.460938 C 164.960938 16.359375 165.019531 16.214844 165.019531 16.023438 C 165.019531 15.796875 164.976562 15.617188 164.890625 15.480469 C 164.808594 15.34375 164.699219 15.242188 164.570312 15.167969 C 164.4375 15.097656 164.289062 15.050781 164.125 15.027344 C 163.960938 15.003906 163.796875 14.988281 163.636719 14.988281 C 163.207031 14.988281 162.847656 15.070312 162.558594 15.234375 C 162.269531 15.398438 162.113281 15.710938 162.089844 16.164062 L 161.070312 16.164062 C 161.085938 15.78125 161.167969 15.457031 161.308594 15.195312 C 161.453125 14.929688 161.644531 14.714844 161.886719 14.550781 C 162.125 14.386719 162.402344 14.269531 162.707031 14.199219 C 163.015625 14.125 163.347656 14.089844 163.699219 14.089844 C 163.980469 14.089844 164.257812 14.109375 164.53125 14.148438 C 164.808594 14.1875 165.058594 14.273438 165.28125 14.394531 C 165.507812 14.519531 165.6875 14.695312 165.824219 14.917969 C 165.960938 15.140625 166.027344 15.433594 166.027344 15.792969 L 166.027344 18.984375 C 166.027344 19.226562 166.039062 19.402344 166.070312 19.511719 C 166.097656 19.625 166.191406 19.679688 166.351562 19.679688 C 166.4375 19.679688 166.542969 19.660156 166.664062 19.621094 Z M 165.007812 17.234375 C 164.878906 17.328125 164.710938 17.398438 164.503906 17.445312 C 164.296875 17.488281 164.078125 17.523438 163.847656 17.550781 C 163.621094 17.578125 163.390625 17.613281 163.160156 17.648438 C 162.925781 17.683594 162.71875 17.742188 162.535156 17.820312 C 162.351562 17.902344 162.199219 18.015625 162.085938 18.164062 C 161.96875 18.3125 161.910156 18.511719 161.910156 18.769531 C 161.910156 18.9375 161.945312 19.078125 162.011719 19.195312 C 162.082031 19.3125 162.167969 19.40625 162.277344 19.476562 C 162.382812 19.550781 162.511719 19.601562 162.65625 19.632812 C 162.800781 19.664062 162.949219 19.679688 163.109375 19.679688 C 163.445312 19.679688 163.734375 19.636719 163.972656 19.542969 C 164.214844 19.453125 164.410156 19.335938 164.5625 19.195312 C 164.714844 19.054688 164.828125 18.902344 164.898438 18.738281 C 164.96875 18.574219 165.007812 18.421875 165.007812 18.277344 Z M 167.574219 14.234375 L 167.574219 20.4375 L 168.597656 20.4375 L 168.597656 17.675781 C 168.597656 17.277344 168.636719 16.921875 168.714844 16.617188 C 168.796875 16.308594 168.921875 16.046875 169.101562 15.828125 C 169.277344 15.613281 169.507812 15.449219 169.796875 15.335938 C 170.085938 15.226562 170.433594 15.167969 170.839844 15.167969 L 170.839844 14.089844 C 170.289062 14.074219 169.832031 14.183594 169.472656 14.425781 C 169.113281 14.664062 168.808594 15.039062 168.558594 15.542969 L 168.535156 15.542969 L 168.535156 14.234375 Z M 175.699219 16.742188 L 172.136719 16.742188 C 172.152344 16.5 172.203125 16.277344 172.292969 16.0625 C 172.382812 15.851562 172.5 15.664062 172.652344 15.503906 C 172.804688 15.34375 172.988281 15.21875 173.199219 15.128906 C 173.410156 15.035156 173.648438 14.988281 173.914062 14.988281 C 174.167969 14.988281 174.402344 15.035156 174.613281 15.128906 C 174.828125 15.21875 175.011719 15.34375 175.167969 15.5 C 175.324219 15.65625 175.445312 15.839844 175.539062 16.058594 C 175.632812 16.273438 175.683594 16.5 175.699219 16.742188 Z M 176.683594 18.46875 L 175.675781 18.46875 C 175.589844 18.878906 175.40625 19.179688 175.132812 19.382812 C 174.855469 19.582031 174.5 19.679688 174.070312 19.679688 C 173.734375 19.679688 173.441406 19.625 173.191406 19.511719 C 172.945312 19.402344 172.742188 19.25 172.582031 19.0625 C 172.421875 18.875 172.304688 18.660156 172.234375 18.414062 C 172.160156 18.171875 172.128906 17.914062 172.136719 17.640625 L 176.78125 17.640625 C 176.796875 17.265625 176.761719 16.871094 176.679688 16.453125 C 176.59375 16.039062 176.441406 15.652344 176.222656 15.300781 C 176.003906 14.949219 175.710938 14.660156 175.347656 14.429688 C 174.984375 14.203125 174.523438 14.089844 173.972656 14.089844 C 173.550781 14.089844 173.160156 14.167969 172.804688 14.328125 C 172.449219 14.488281 172.140625 14.714844 171.878906 15 C 171.617188 15.289062 171.417969 15.628906 171.273438 16.023438 C 171.128906 16.414062 171.058594 16.84375 171.058594 17.316406 C 171.074219 17.789062 171.144531 18.226562 171.265625 18.625 C 171.390625 19.023438 171.578125 19.371094 171.824219 19.65625 C 172.074219 19.945312 172.378906 20.167969 172.742188 20.328125 C 173.105469 20.488281 173.535156 20.570312 174.03125 20.570312 C 174.738281 20.570312 175.320312 20.394531 175.785156 20.042969 C 176.25 19.691406 176.550781 19.164062 176.683594 18.46875 Z M 182.855469 22.800781 L 183.632812 22.800781 C 183.066406 21.882812 182.660156 20.96875 182.417969 20.066406 C 182.171875 19.160156 182.050781 18.207031 182.050781 17.199219 C 182.050781 16.214844 182.171875 15.273438 182.410156 14.378906 C 182.648438 13.480469 183.058594 12.578125 183.632812 11.664062 L 182.855469 11.664062 C 182.230469 12.488281 181.761719 13.382812 181.445312 14.339844 C 181.128906 15.300781 180.96875 16.253906 180.96875 17.199219 C 180.96875 17.726562 181.015625 18.230469 181.101562 18.710938 C 181.191406 19.191406 181.316406 19.65625 181.480469 20.113281 C 181.644531 20.570312 181.84375 21.019531 182.074219 21.464844 C 182.304688 21.90625 182.566406 22.351562 182.855469 22.800781 Z M 185.125 18.386719 L 184.105469 18.386719 C 184.167969 19.121094 184.4375 19.667969 184.90625 20.03125 C 185.378906 20.390625 185.972656 20.570312 186.683594 20.570312 C 187.714844 20.570312 188.464844 20.175781 188.933594 19.386719 C 189.402344 18.597656 189.636719 17.46875 189.636719 15.996094 C 189.636719 15.1875 189.558594 14.523438 189.402344 14 C 189.246094 13.476562 189.035156 13.0625 188.773438 12.757812 C 188.507812 12.453125 188.199219 12.238281 187.847656 12.117188 C 187.496094 11.992188 187.121094 11.929688 186.71875 11.929688 C 186.3125 11.929688 185.9375 11.996094 185.589844 12.132812 C 185.246094 12.269531 184.953125 12.460938 184.703125 12.703125 C 184.457031 12.949219 184.261719 13.238281 184.128906 13.578125 C 183.992188 13.917969 183.921875 14.292969 183.921875 14.703125 C 183.921875 15.117188 183.980469 15.5 184.097656 15.851562 C 184.214844 16.203125 184.386719 16.503906 184.613281 16.753906 C 184.839844 17 185.125 17.195312 185.460938 17.335938 C 185.796875 17.476562 186.179688 17.546875 186.613281 17.546875 C 187.027344 17.546875 187.410156 17.441406 187.761719 17.226562 C 188.113281 17.015625 188.386719 16.730469 188.578125 16.371094 L 188.605469 16.394531 C 188.570312 17.503906 188.398438 18.332031 188.085938 18.871094 C 187.773438 19.410156 187.308594 19.679688 186.683594 19.679688 C 186.277344 19.679688 185.921875 19.570312 185.628906 19.34375 C 185.332031 19.121094 185.164062 18.800781 185.125 18.386719 Z M 188.421875 14.773438 C 188.421875 15.019531 188.382812 15.257812 188.304688 15.488281 C 188.222656 15.714844 188.109375 15.914062 187.957031 16.085938 C 187.804688 16.257812 187.621094 16.394531 187.402344 16.496094 C 187.1875 16.59375 186.949219 16.644531 186.683594 16.644531 C 186.4375 16.644531 186.210938 16.59375 186.003906 16.496094 C 185.800781 16.394531 185.625 16.261719 185.476562 16.09375 C 185.328125 15.925781 185.214844 15.734375 185.128906 15.515625 C 185.046875 15.300781 185.003906 15.078125 185.003906 14.84375 C 185.003906 14.582031 185.035156 14.328125 185.09375 14.089844 C 185.152344 13.851562 185.25 13.636719 185.382812 13.449219 C 185.515625 13.261719 185.6875 13.109375 185.898438 12.996094 C 186.109375 12.886719 186.367188 12.828125 186.671875 12.828125 C 186.960938 12.828125 187.210938 12.882812 187.425781 12.984375 C 187.644531 13.089844 187.824219 13.230469 187.972656 13.410156 C 188.121094 13.589844 188.234375 13.796875 188.308594 14.03125 C 188.386719 14.261719 188.421875 14.507812 188.421875 14.773438 Z M 195.15625 14.101562 L 196.175781 14.101562 C 196.113281 13.398438 195.871094 12.859375 195.457031 12.488281 C 195.039062 12.117188 194.480469 11.929688 193.777344 11.929688 C 193.167969 11.929688 192.664062 12.058594 192.261719 12.3125 C 191.863281 12.570312 191.542969 12.910156 191.304688 13.332031 C 191.0625 13.757812 190.894531 14.242188 190.792969 14.792969 C 190.691406 15.339844 190.644531 15.90625 190.644531 16.488281 C 190.644531 16.9375 190.675781 17.402344 190.746094 17.882812 C 190.8125 18.363281 190.953125 18.800781 191.160156 19.203125 C 191.367188 19.601562 191.664062 19.929688 192.046875 20.183594 C 192.429688 20.441406 192.941406 20.570312 193.570312 20.570312 C 194.105469 20.570312 194.558594 20.480469 194.921875 20.300781 C 195.285156 20.121094 195.578125 19.890625 195.796875 19.617188 C 196.015625 19.339844 196.175781 19.035156 196.273438 18.699219 C 196.367188 18.363281 196.414062 18.039062 196.414062 17.726562 C 196.414062 17.332031 196.355469 16.96875 196.234375 16.632812 C 196.113281 16.296875 195.945312 16.003906 195.726562 15.757812 C 195.503906 15.507812 195.234375 15.316406 194.910156 15.175781 C 194.585938 15.035156 194.21875 14.964844 193.8125 14.964844 C 193.347656 14.964844 192.9375 15.054688 192.582031 15.230469 C 192.226562 15.40625 191.925781 15.691406 191.6875 16.082031 L 191.664062 16.058594 C 191.671875 15.730469 191.703125 15.378906 191.757812 15 C 191.816406 14.625 191.917969 14.277344 192.066406 13.953125 C 192.214844 13.628906 192.417969 13.359375 192.683594 13.148438 C 192.949219 12.9375 193.296875 12.828125 193.726562 12.828125 C 194.136719 12.828125 194.464844 12.945312 194.710938 13.175781 C 194.960938 13.410156 195.109375 13.71875 195.15625 14.101562 Z M 193.621094 15.867188 C 193.90625 15.867188 194.160156 15.917969 194.375 16.023438 C 194.589844 16.125 194.773438 16.261719 194.914062 16.433594 C 195.058594 16.605469 195.164062 16.8125 195.234375 17.046875 C 195.300781 17.285156 195.335938 17.535156 195.335938 17.796875 C 195.335938 18.046875 195.296875 18.285156 195.222656 18.511719 C 195.144531 18.738281 195.035156 18.941406 194.890625 19.117188 C 194.746094 19.292969 194.570312 19.429688 194.359375 19.53125 C 194.144531 19.632812 193.898438 19.679688 193.621094 19.679688 C 193.339844 19.679688 193.089844 19.632812 192.871094 19.53125 C 192.648438 19.429688 192.464844 19.296875 192.316406 19.128906 C 192.167969 18.960938 192.054688 18.761719 191.976562 18.53125 C 191.894531 18.296875 191.855469 18.050781 191.855469 17.785156 C 191.855469 17.519531 191.894531 17.273438 191.96875 17.035156 C 192.046875 16.800781 192.160156 16.59375 192.3125 16.421875 C 192.464844 16.25 192.648438 16.117188 192.863281 16.015625 C 193.078125 15.914062 193.332031 15.867188 193.621094 15.867188 Z M 197.855469 19.105469 L 197.855469 20.4375 L 199.1875 20.4375 L 199.1875 19.105469 Z M 206.304688 12.949219 L 206.304688 12.074219 L 200.796875 12.074219 L 200.796875 13.035156 L 205.257812 13.035156 C 204.8125 13.507812 204.394531 14.023438 204.003906 14.582031 C 203.617188 15.140625 203.273438 15.734375 202.980469 16.363281 C 202.683594 16.992188 202.441406 17.648438 202.253906 18.332031 C 202.066406 19.015625 201.949219 19.71875 201.898438 20.4375 L 203.039062 20.4375 C 203.078125 19.773438 203.191406 19.089844 203.375 18.386719 C 203.558594 17.683594 203.796875 16.996094 204.089844 16.332031 C 204.382812 15.667969 204.714844 15.046875 205.089844 14.460938 C 205.46875 13.878906 205.871094 13.375 206.304688 12.949219 Z M 208.726562 14.136719 C 208.726562 13.921875 208.765625 13.734375 208.847656 13.574219 C 208.925781 13.414062 209.03125 13.277344 209.164062 13.164062 C 209.296875 13.054688 209.457031 12.96875 209.640625 12.914062 C 209.824219 12.859375 210.015625 12.828125 210.214844 12.828125 C 210.632812 12.828125 210.972656 12.941406 211.242188 13.160156 C 211.507812 13.378906 211.644531 13.707031 211.644531 14.136719 C 211.644531 14.570312 211.511719 14.90625 211.246094 15.144531 C 210.984375 15.386719 210.648438 15.503906 210.238281 15.503906 C 210.03125 15.503906 209.835938 15.476562 209.652344 15.421875 C 209.46875 15.367188 209.308594 15.28125 209.171875 15.167969 C 209.035156 15.058594 208.925781 14.914062 208.847656 14.742188 C 208.765625 14.570312 208.726562 14.371094 208.726562 14.136719 Z M 207.648438 14.101562 C 207.648438 14.484375 207.753906 14.839844 207.972656 15.164062 C 208.1875 15.488281 208.476562 15.722656 208.835938 15.867188 C 208.355469 16.035156 207.988281 16.304688 207.730469 16.675781 C 207.476562 17.046875 207.347656 17.484375 207.347656 17.988281 C 207.347656 18.421875 207.421875 18.800781 207.570312 19.125 C 207.71875 19.449219 207.921875 19.71875 208.179688 19.933594 C 208.441406 20.148438 208.746094 20.308594 209.097656 20.414062 C 209.449219 20.519531 209.832031 20.570312 210.238281 20.570312 C 210.632812 20.570312 211 20.511719 211.34375 20.402344 C 211.6875 20.289062 211.984375 20.125 212.238281 19.902344 C 212.488281 19.683594 212.6875 19.414062 212.835938 19.09375 C 212.984375 18.773438 213.058594 18.40625 213.058594 17.988281 C 213.058594 17.460938 212.933594 17.015625 212.6875 16.652344 C 212.4375 16.289062 212.058594 16.027344 211.546875 15.867188 C 211.90625 15.707031 212.191406 15.46875 212.40625 15.152344 C 212.617188 14.835938 212.722656 14.484375 212.722656 14.101562 C 212.722656 13.828125 212.675781 13.5625 212.578125 13.304688 C 212.484375 13.042969 212.332031 12.8125 212.128906 12.609375 C 211.925781 12.402344 211.660156 12.238281 211.332031 12.117188 C 211.003906 11.992188 210.605469 11.929688 210.144531 11.929688 C 209.816406 11.929688 209.5 11.976562 209.203125 12.074219 C 208.902344 12.167969 208.636719 12.308594 208.402344 12.492188 C 208.171875 12.675781 207.988281 12.902344 207.851562 13.171875 C 207.714844 13.441406 207.648438 13.75 207.648438 14.101562 Z M 208.425781 18.039062 C 208.425781 17.789062 208.472656 17.566406 208.566406 17.367188 C 208.65625 17.167969 208.785156 16.992188 208.949219 16.847656 C 209.113281 16.703125 209.304688 16.59375 209.523438 16.519531 C 209.746094 16.445312 209.980469 16.40625 210.226562 16.40625 C 210.46875 16.40625 210.691406 16.449219 210.90625 16.53125 C 211.117188 16.617188 211.304688 16.730469 211.464844 16.875 C 211.625 17.019531 211.75 17.1875 211.839844 17.382812 C 211.933594 17.578125 211.980469 17.792969 211.980469 18.027344 C 211.980469 18.265625 211.9375 18.484375 211.851562 18.683594 C 211.769531 18.886719 211.648438 19.058594 211.492188 19.207031 C 211.335938 19.355469 211.152344 19.472656 210.941406 19.554688 C 210.730469 19.640625 210.496094 19.679688 210.238281 19.679688 C 209.710938 19.679688 209.277344 19.535156 208.9375 19.242188 C 208.597656 18.949219 208.425781 18.550781 208.425781 18.039062 Z M 215.542969 14.339844 C 215.542969 14.15625 215.554688 13.964844 215.578125 13.757812 C 215.601562 13.554688 215.652344 13.367188 215.730469 13.195312 C 215.804688 13.023438 215.910156 12.878906 216.046875 12.761719 C 216.183594 12.648438 216.363281 12.589844 216.585938 12.589844 C 216.820312 12.589844 217 12.648438 217.132812 12.761719 C 217.265625 12.878906 217.367188 13.023438 217.4375 13.195312 C 217.511719 13.367188 217.558594 13.554688 217.578125 13.757812 C 217.597656 13.964844 217.605469 14.152344 217.605469 14.328125 C 217.605469 14.511719 217.59375 14.710938 217.570312 14.917969 C 217.546875 15.125 217.496094 15.316406 217.421875 15.488281 C 217.34375 15.660156 217.238281 15.800781 217.101562 15.914062 C 216.964844 16.027344 216.78125 16.082031 216.550781 16.082031 C 216.328125 16.082031 216.148438 16.023438 216.015625 15.90625 C 215.882812 15.792969 215.78125 15.648438 215.710938 15.476562 C 215.640625 15.304688 215.59375 15.117188 215.574219 14.910156 C 215.554688 14.707031 215.542969 14.515625 215.542969 14.339844 Z M 214.644531 14.367188 C 214.644531 14.695312 214.675781 15 214.746094 15.289062 C 214.8125 15.578125 214.921875 15.828125 215.074219 16.046875 C 215.226562 16.261719 215.425781 16.429688 215.675781 16.554688 C 215.921875 16.679688 216.226562 16.742188 216.585938 16.742188 C 216.9375 16.742188 217.234375 16.671875 217.476562 16.539062 C 217.714844 16.402344 217.914062 16.222656 218.070312 16.003906 C 218.226562 15.785156 218.335938 15.527344 218.40625 15.234375 C 218.472656 14.941406 218.507812 14.640625 218.507812 14.328125 C 218.507812 14 218.476562 13.691406 218.417969 13.398438 C 218.355469 13.105469 218.253906 12.851562 218.105469 12.636719 C 217.957031 12.421875 217.761719 12.25 217.515625 12.121094 C 217.273438 11.992188 216.964844 11.929688 216.585938 11.929688 C 216.21875 11.929688 215.910156 11.996094 215.664062 12.128906 C 215.414062 12.261719 215.214844 12.4375 215.0625 12.660156 C 214.910156 12.886719 214.804688 13.144531 214.738281 13.433594 C 214.675781 13.726562 214.644531 14.039062 214.644531 14.367188 Z M 221.472656 18.179688 C 221.472656 17.996094 221.484375 17.804688 221.507812 17.597656 C 221.53125 17.394531 221.582031 17.207031 221.65625 17.035156 C 221.734375 16.863281 221.839844 16.71875 221.976562 16.601562 C 222.113281 16.488281 222.292969 16.429688 222.515625 16.429688 C 222.746094 16.429688 222.929688 16.488281 223.0625 16.601562 C 223.195312 16.71875 223.296875 16.863281 223.367188 17.035156 C 223.4375 17.207031 223.484375 17.394531 223.503906 17.597656 C 223.523438 17.804688 223.535156 17.992188 223.535156 18.167969 C 223.535156 18.351562 223.523438 18.550781 223.5 18.757812 C 223.476562 18.964844 223.425781 19.15625 223.347656 19.328125 C 223.273438 19.5 223.167969 19.640625 223.03125 19.753906 C 222.894531 19.867188 222.710938 19.921875 222.480469 19.921875 C 222.253906 19.921875 222.078125 19.863281 221.945312 19.746094 C 221.8125 19.632812 221.710938 19.488281 221.640625 19.316406 C 221.566406 19.144531 221.519531 18.957031 221.5 18.75 C 221.480469 18.546875 221.472656 18.359375 221.472656 18.179688 Z M 220.570312 18.207031 C 220.570312 18.535156 220.605469 18.839844 220.671875 19.128906 C 220.742188 19.417969 220.851562 19.667969 221.003906 19.878906 C 221.15625 20.089844 221.355469 20.257812 221.601562 20.382812 C 221.851562 20.507812 222.15625 20.570312 222.515625 20.570312 C 222.867188 20.570312 223.164062 20.503906 223.402344 20.371094 C 223.644531 20.238281 223.839844 20.0625 223.996094 19.84375 C 224.152344 19.625 224.265625 19.367188 224.332031 19.074219 C 224.402344 18.78125 224.433594 18.480469 224.433594 18.167969 C 224.433594 17.839844 224.40625 17.53125 224.34375 17.238281 C 224.285156 16.945312 224.179688 16.695312 224.03125 16.476562 C 223.882812 16.261719 223.6875 16.089844 223.445312 15.960938 C 223.199219 15.832031 222.890625 15.769531 222.515625 15.769531 C 222.148438 15.769531 221.839844 15.835938 221.589844 15.96875 C 221.34375 16.101562 221.144531 16.277344 220.992188 16.5 C 220.839844 16.726562 220.730469 16.984375 220.667969 17.277344 C 220.601562 17.566406 220.570312 17.878906 220.570312 18.207031 Z M 222.25 11.773438 L 215.796875 20.691406 L 216.828125 20.691406 L 223.269531 11.773438 Z M 225.429688 22.800781 L 226.199219 22.800781 C 226.824219 21.976562 227.292969 21.085938 227.609375 20.132812 C 227.925781 19.175781 228.082031 18.226562 228.082031 17.28125 C 228.082031 16.753906 228.039062 16.25 227.949219 15.769531 C 227.863281 15.289062 227.738281 14.820312 227.574219 14.359375 C 227.410156 13.898438 227.210938 13.449219 226.980469 13.003906 C 226.746094 12.558594 226.488281 12.113281 226.199219 11.664062 L 225.429688 11.664062 C 225.992188 12.585938 226.394531 13.5 226.636719 14.40625 C 226.882812 15.316406 227.003906 16.273438 227.003906 17.28125 C 227.003906 18.257812 226.882812 19.195312 226.644531 20.09375 C 226.402344 20.996094 226 21.898438 225.429688 22.800781 Z M 129.308594 9.011719 "/>
<path fill-rule="nonzero" fill="rgb(21.176471%, 63.529412%, 92.156863%)" fill-opacity="1" stroke-width="2" stroke-linecap="butt" stroke-linejoin="miter" stroke="rgb(100%, 100%, 100%)" stroke-opacity="1" stroke-miterlimit="10" d="M 238.648438 10 L 278.648438 10 L 278.648438 22 L 238.648438 22 Z M 238.648438 10 "/>
<path fill-rule="nonzero" fill="rgb(40%, 40%, 40%)" fill-opacity="1" d="M 287.058594 16.898438 L 288.511719 12.902344 L 288.535156 12.902344 L 289.964844 16.898438 Z M 287.914062 11.871094 L 284.578125 20.4375 L 285.742188 20.4375 L 286.699219 17.859375 L 290.324219 17.859375 L 291.261719 20.4375 L 292.519531 20.4375 L 289.171875 11.871094 Z M 293.9375 17.390625 C 293.9375 17.085938 293.96875 16.789062 294.035156 16.5 C 294.097656 16.214844 294.203125 15.957031 294.347656 15.734375 C 294.492188 15.511719 294.683594 15.328125 294.921875 15.195312 C 295.160156 15.058594 295.453125 14.988281 295.796875 14.988281 C 296.148438 14.988281 296.449219 15.054688 296.699219 15.1875 C 296.945312 15.320312 297.148438 15.492188 297.304688 15.710938 C 297.460938 15.925781 297.574219 16.175781 297.644531 16.460938 C 297.71875 16.742188 297.753906 17.039062 297.753906 17.339844 C 297.753906 17.628906 297.71875 17.914062 297.652344 18.195312 C 297.582031 18.472656 297.472656 18.722656 297.320312 18.945312 C 297.167969 19.164062 296.972656 19.339844 296.734375 19.476562 C 296.492188 19.613281 296.203125 19.679688 295.859375 19.679688 C 295.53125 19.679688 295.242188 19.617188 295 19.488281 C 294.753906 19.359375 294.554688 19.191406 294.398438 18.972656 C 294.242188 18.757812 294.128906 18.511719 294.050781 18.234375 C 293.976562 17.960938 293.9375 17.675781 293.9375 17.390625 Z M 298.738281 20.4375 L 298.738281 11.871094 L 297.71875 11.871094 L 297.71875 15.0625 L 297.695312 15.0625 C 297.582031 14.878906 297.445312 14.722656 297.28125 14.597656 C 297.117188 14.476562 296.941406 14.375 296.757812 14.300781 C 296.574219 14.222656 296.390625 14.167969 296.207031 14.136719 C 296.023438 14.105469 295.851562 14.089844 295.691406 14.089844 C 295.21875 14.089844 294.804688 14.175781 294.449219 14.347656 C 294.09375 14.519531 293.796875 14.75 293.558594 15.042969 C 293.324219 15.335938 293.148438 15.675781 293.03125 16.070312 C 292.914062 16.460938 292.859375 16.878906 292.859375 17.316406 C 292.859375 17.757812 292.917969 18.171875 293.039062 18.566406 C 293.160156 18.957031 293.335938 19.300781 293.570312 19.597656 C 293.808594 19.894531 294.105469 20.128906 294.460938 20.304688 C 294.816406 20.480469 295.234375 20.570312 295.714844 20.570312 C 296.144531 20.570312 296.542969 20.492188 296.902344 20.339844 C 297.261719 20.1875 297.527344 19.941406 297.695312 19.597656 L 297.71875 19.597656 L 297.71875 20.4375 Z M 300.308594 14.234375 L 300.308594 20.4375 L 301.328125 20.4375 L 301.328125 16.574219 C 301.328125 16.453125 301.355469 16.304688 301.417969 16.125 C 301.476562 15.945312 301.574219 15.769531 301.703125 15.601562 C 301.835938 15.433594 302.007812 15.289062 302.222656 15.167969 C 302.433594 15.050781 302.6875 14.988281 302.984375 14.988281 C 303.214844 14.988281 303.40625 15.023438 303.554688 15.089844 C 303.703125 15.160156 303.820312 15.253906 303.90625 15.378906 C 303.996094 15.503906 304.058594 15.648438 304.09375 15.816406 C 304.128906 15.984375 304.148438 16.167969 304.148438 16.371094 L 304.148438 20.4375 L 305.167969 20.4375 L 305.167969 16.574219 C 305.167969 16.09375 305.3125 15.710938 305.597656 15.421875 C 305.886719 15.132812 306.28125 14.988281 306.785156 14.988281 C 307.035156 14.988281 307.238281 15.027344 307.394531 15.097656 C 307.550781 15.167969 307.671875 15.265625 307.757812 15.390625 C 307.847656 15.515625 307.90625 15.660156 307.9375 15.828125 C 307.96875 15.996094 307.988281 16.175781 307.988281 16.371094 L 307.988281 20.4375 L 309.007812 20.4375 L 309.007812 15.890625 C 309.007812 15.570312 308.957031 15.296875 308.855469 15.066406 C 308.757812 14.839844 308.617188 14.652344 308.4375 14.507812 C 308.257812 14.363281 308.042969 14.257812 307.789062 14.191406 C 307.535156 14.125 307.253906 14.089844 306.941406 14.089844 C 306.535156 14.089844 306.160156 14.179688 305.820312 14.367188 C 305.480469 14.550781 305.207031 14.808594 305 15.144531 C 304.871094 14.761719 304.652344 14.488281 304.339844 14.328125 C 304.027344 14.167969 303.679688 14.089844 303.296875 14.089844 C 302.421875 14.089844 301.753906 14.441406 301.292969 15.144531 L 301.265625 15.144531 L 301.265625 14.234375 Z M 311.625 13.117188 L 311.625 11.871094 L 310.605469 11.871094 L 310.605469 13.117188 Z M 310.605469 14.234375 L 310.605469 20.4375 L 311.625 20.4375 L 311.625 14.234375 Z M 313.210938 14.234375 L 313.210938 20.4375 L 314.230469 20.4375 L 314.230469 16.933594 C 314.230469 16.652344 314.265625 16.394531 314.34375 16.160156 C 314.417969 15.921875 314.535156 15.71875 314.683594 15.542969 C 314.835938 15.367188 315.027344 15.230469 315.253906 15.132812 C 315.484375 15.039062 315.753906 14.988281 316.066406 14.988281 C 316.457031 14.988281 316.765625 15.101562 316.988281 15.324219 C 317.214844 15.550781 317.324219 15.851562 317.324219 16.238281 L 317.324219 20.4375 L 318.34375 20.4375 L 318.34375 16.359375 C 318.34375 16.023438 318.3125 15.714844 318.242188 15.441406 C 318.175781 15.164062 318.058594 14.925781 317.890625 14.726562 C 317.722656 14.527344 317.5 14.371094 317.230469 14.257812 C 316.957031 14.144531 316.617188 14.089844 316.210938 14.089844 C 315.289062 14.089844 314.617188 14.464844 314.195312 15.21875 L 314.167969 15.21875 L 314.167969 14.234375 Z M 324.898438 22.800781 L 325.675781 22.800781 C 325.109375 21.882812 324.703125 20.96875 324.460938 20.066406 C 324.214844 19.160156 324.09375 18.207031 324.09375 17.199219 C 324.09375 16.214844 324.214844 15.273438 324.453125 14.378906 C 324.691406 13.480469 325.101562 12.578125 325.675781 11.664062 L 324.898438 11.664062 C 324.273438 12.488281 323.804688 13.382812 323.488281 14.339844 C 323.171875 15.300781 323.011719 16.253906 323.011719 17.199219 C 323.011719 17.726562 323.058594 18.230469 323.144531 18.710938 C 323.234375 19.191406 323.359375 19.65625 323.523438 20.113281 C 323.6875 20.570312 323.886719 21.019531 324.117188 21.464844 C 324.347656 21.90625 324.609375 22.351562 324.898438 22.800781 Z M 326.085938 14.941406 L 327.105469 14.941406 C 327.097656 14.683594 327.125 14.429688 327.183594 14.179688 C 327.246094 13.925781 327.34375 13.703125 327.480469 13.5 C 327.613281 13.300781 327.789062 13.140625 328 13.015625 C 328.210938 12.890625 328.464844 12.828125 328.761719 12.828125 C 328.984375 12.828125 329.199219 12.867188 329.398438 12.9375 C 329.597656 13.007812 329.773438 13.113281 329.921875 13.25 C 330.070312 13.386719 330.1875 13.546875 330.273438 13.734375 C 330.363281 13.921875 330.40625 14.132812 330.40625 14.367188 C 330.40625 14.660156 330.359375 14.921875 330.269531 15.144531 C 330.175781 15.371094 330.039062 15.578125 329.859375 15.769531 C 329.679688 15.960938 329.453125 16.152344 329.183594 16.339844 C 328.910156 16.527344 328.59375 16.734375 328.234375 16.957031 C 327.9375 17.132812 327.65625 17.320312 327.382812 17.523438 C 327.109375 17.722656 326.867188 17.953125 326.652344 18.21875 C 326.433594 18.480469 326.257812 18.792969 326.117188 19.148438 C 325.976562 19.503906 325.886719 19.933594 325.847656 20.4375 L 331.402344 20.4375 L 331.402344 19.539062 L 327.035156 19.539062 C 327.082031 19.273438 327.183594 19.039062 327.339844 18.835938 C 327.496094 18.632812 327.683594 18.441406 327.90625 18.265625 C 328.125 18.089844 328.367188 17.921875 328.628906 17.765625 C 328.894531 17.609375 329.160156 17.453125 329.421875 17.292969 C 329.6875 17.125 329.941406 16.949219 330.191406 16.765625 C 330.4375 16.582031 330.660156 16.375 330.851562 16.148438 C 331.042969 15.917969 331.195312 15.660156 331.3125 15.375 C 331.429688 15.085938 331.488281 14.753906 331.488281 14.378906 C 331.488281 13.976562 331.417969 13.625 331.277344 13.320312 C 331.136719 13.015625 330.945312 12.761719 330.707031 12.558594 C 330.464844 12.355469 330.183594 12.199219 329.859375 12.089844 C 329.535156 11.984375 329.191406 11.929688 328.824219 11.929688 C 328.375 11.929688 327.972656 12.003906 327.621094 12.15625 C 327.269531 12.308594 326.976562 12.519531 326.742188 12.789062 C 326.503906 13.054688 326.332031 13.375 326.21875 13.742188 C 326.105469 14.109375 326.0625 14.507812 326.085938 14.941406 Z M 333.226562 19.105469 L 333.226562 20.4375 L 334.558594 20.4375 L 334.558594 19.105469 Z M 340.535156 14.101562 L 341.554688 14.101562 C 341.492188 13.398438 341.25 12.859375 340.835938 12.488281 C 340.417969 12.117188 339.859375 11.929688 339.15625 11.929688 C 338.546875 11.929688 338.042969 12.058594 337.640625 12.3125 C 337.242188 12.570312 336.921875 12.910156 336.683594 13.332031 C 336.441406 13.757812 336.273438 14.242188 336.171875 14.792969 C 336.070312 15.339844 336.023438 15.90625 336.023438 16.488281 C 336.023438 16.9375 336.054688 17.402344 336.125 17.882812 C 336.191406 18.363281 336.332031 18.800781 336.539062 19.203125 C 336.746094 19.601562 337.042969 19.929688 337.425781 20.183594 C 337.808594 20.441406 338.320312 20.570312 338.949219 20.570312 C 339.484375 20.570312 339.9375 20.480469 340.300781 20.300781 C 340.664062 20.121094 340.957031 19.890625 341.175781 19.617188 C 341.394531 19.339844 341.554688 19.035156 341.652344 18.699219 C 341.746094 18.363281 341.792969 18.039062 341.792969 17.726562 C 341.792969 17.332031 341.734375 16.96875 341.613281 16.632812 C 341.492188 16.296875 341.324219 16.003906 341.105469 15.757812 C 340.882812 15.507812 340.613281 15.316406 340.289062 15.175781 C 339.964844 15.035156 339.597656 14.964844 339.191406 14.964844 C 338.726562 14.964844 338.316406 15.054688 337.960938 15.230469 C 337.605469 15.40625 337.304688 15.691406 337.066406 16.082031 L 337.042969 16.058594 C 337.050781 15.730469 337.082031 15.378906 337.136719 15 C 337.195312 14.625 337.296875 14.277344 337.445312 13.953125 C 337.59375 13.628906 337.796875 13.359375 338.0625 13.148438 C 338.328125 12.9375 338.675781 12.828125 339.105469 12.828125 C 339.515625 12.828125 339.84375 12.945312 340.089844 13.175781 C 340.339844 13.410156 340.488281 13.71875 340.535156 14.101562 Z M 339 15.867188 C 339.285156 15.867188 339.539062 15.917969 339.753906 16.023438 C 339.96875 16.125 340.152344 16.261719 340.292969 16.433594 C 340.4375 16.605469 340.542969 16.8125 340.613281 17.046875 C 340.679688 17.285156 340.714844 17.535156 340.714844 17.796875 C 340.714844 18.046875 340.675781 18.285156 340.601562 18.511719 C 340.523438 18.738281 340.414062 18.941406 340.269531 19.117188 C 340.125 19.292969 339.949219 19.429688 339.738281 19.53125 C 339.523438 19.632812 339.277344 19.679688 339 19.679688 C 338.71875 19.679688 338.46875 19.632812 338.25 19.53125 C 338.027344 19.429688 337.84375 19.296875 337.695312 19.128906 C 337.546875 18.960938 337.433594 18.761719 337.355469 18.53125 C 337.273438 18.296875 337.234375 18.050781 337.234375 17.785156 C 337.234375 17.519531 337.273438 17.273438 337.347656 17.035156 C 337.425781 16.800781 337.539062 16.59375 337.691406 16.421875 C 337.84375 16.25 338.027344 16.117188 338.242188 16.015625 C 338.457031 15.914062 338.710938 15.867188 339 15.867188 Z M 344.855469 15.578125 L 344.855469 16.441406 C 345.046875 16.417969 345.25 16.40625 345.464844 16.40625 C 345.722656 16.40625 345.960938 16.441406 346.179688 16.507812 C 346.398438 16.574219 346.589844 16.679688 346.75 16.820312 C 346.910156 16.960938 347.039062 17.132812 347.132812 17.335938 C 347.230469 17.539062 347.277344 17.773438 347.277344 18.039062 C 347.277344 18.292969 347.226562 18.523438 347.128906 18.726562 C 347.027344 18.929688 346.894531 19.101562 346.726562 19.242188 C 346.558594 19.382812 346.363281 19.492188 346.136719 19.566406 C 345.914062 19.644531 345.679688 19.679688 345.429688 19.679688 C 344.847656 19.679688 344.402344 19.507812 344.097656 19.160156 C 343.792969 18.8125 343.632812 18.363281 343.617188 17.808594 L 342.597656 17.808594 C 342.589844 18.25 342.652344 18.640625 342.785156 18.984375 C 342.917969 19.328125 343.105469 19.621094 343.355469 19.855469 C 343.601562 20.089844 343.902344 20.269531 344.253906 20.390625 C 344.605469 20.511719 345 20.570312 345.429688 20.570312 C 345.832031 20.570312 346.207031 20.515625 346.5625 20.40625 C 346.917969 20.300781 347.230469 20.136719 347.496094 19.921875 C 347.757812 19.707031 347.96875 19.433594 348.125 19.113281 C 348.28125 18.789062 348.359375 18.414062 348.359375 17.988281 C 348.359375 17.476562 348.230469 17.035156 347.980469 16.65625 C 347.726562 16.28125 347.34375 16.039062 346.824219 15.925781 L 346.824219 15.902344 C 347.160156 15.75 347.4375 15.527344 347.664062 15.230469 C 347.886719 14.933594 348 14.59375 348 14.210938 C 348 13.816406 347.933594 13.476562 347.800781 13.191406 C 347.667969 12.902344 347.484375 12.664062 347.253906 12.480469 C 347.023438 12.296875 346.75 12.160156 346.433594 12.066406 C 346.117188 11.976562 345.773438 11.929688 345.40625 11.929688 C 344.980469 11.929688 344.609375 11.996094 344.285156 12.132812 C 343.960938 12.269531 343.691406 12.457031 343.472656 12.699219 C 343.257812 12.9375 343.09375 13.226562 342.976562 13.5625 C 342.859375 13.898438 342.792969 14.269531 342.777344 14.675781 L 343.796875 14.675781 C 343.796875 14.429688 343.832031 14.195312 343.894531 13.96875 C 343.957031 13.746094 344.054688 13.550781 344.1875 13.382812 C 344.320312 13.214844 344.488281 13.078125 344.691406 12.980469 C 344.894531 12.878906 345.132812 12.828125 345.40625 12.828125 C 345.839844 12.828125 346.199219 12.945312 346.484375 13.171875 C 346.773438 13.398438 346.917969 13.742188 346.917969 14.199219 C 346.917969 14.421875 346.875 14.621094 346.785156 14.796875 C 346.699219 14.972656 346.582031 15.121094 346.433594 15.234375 C 346.285156 15.351562 346.113281 15.441406 345.917969 15.5 C 345.722656 15.558594 345.515625 15.589844 345.296875 15.589844 L 345.082031 15.589844 C 345.042969 15.589844 345.003906 15.589844 344.960938 15.589844 C 344.929688 15.589844 344.894531 15.585938 344.855469 15.578125 Z M 350.914062 14.339844 C 350.914062 14.15625 350.925781 13.964844 350.949219 13.757812 C 350.972656 13.554688 351.023438 13.367188 351.101562 13.195312 C 351.175781 13.023438 351.28125 12.878906 351.417969 12.761719 C 351.554688 12.648438 351.734375 12.589844 351.957031 12.589844 C 352.191406 12.589844 352.371094 12.648438 352.503906 12.761719 C 352.636719 12.878906 352.738281 13.023438 352.808594 13.195312 C 352.882812 13.367188 352.929688 13.554688 352.949219 13.757812 C 352.96875 13.964844 352.976562 14.152344 352.976562 14.328125 C 352.976562 14.511719 352.964844 14.710938 352.941406 14.917969 C 352.917969 15.125 352.867188 15.316406 352.792969 15.488281 C 352.714844 15.660156 352.609375 15.800781 352.472656 15.914062 C 352.335938 16.027344 352.152344 16.082031 351.921875 16.082031 C 351.699219 16.082031 351.519531 16.023438 351.386719 15.90625 C 351.253906 15.792969 351.152344 15.648438 351.082031 15.476562 C 351.011719 15.304688 350.964844 15.117188 350.945312 14.910156 C 350.925781 14.707031 350.914062 14.515625 350.914062 14.339844 Z M 350.015625 14.367188 C 350.015625 14.695312 350.046875 15 350.117188 15.289062 C 350.183594 15.578125 350.292969 15.828125 350.445312 16.046875 C 350.597656 16.261719 350.796875 16.429688 351.046875 16.554688 C 351.292969 16.679688 351.597656 16.742188 351.957031 16.742188 C 352.308594 16.742188 352.605469 16.671875 352.847656 16.539062 C 353.085938 16.402344 353.285156 16.222656 353.441406 16.003906 C 353.597656 15.785156 353.707031 15.527344 353.777344 15.234375 C 353.84375 14.941406 353.878906 14.640625 353.878906 14.328125 C 353.878906 14 353.847656 13.691406 353.789062 13.398438 C 353.726562 13.105469 353.625 12.851562 353.476562 12.636719 C 353.328125 12.421875 353.132812 12.25 352.886719 12.121094 C 352.644531 11.992188 352.335938 11.929688 351.957031 11.929688 C 351.589844 11.929688 351.28125 11.996094 351.035156 12.128906 C 350.785156 12.261719 350.585938 12.4375 350.433594 12.660156 C 350.28125 12.886719 350.175781 13.144531 350.109375 13.433594 C 350.046875 13.726562 350.015625 14.039062 350.015625 14.367188 Z M 356.84375 18.179688 C 356.84375 17.996094 356.855469 17.804688 356.878906 17.597656 C 356.902344 17.394531 356.953125 17.207031 357.027344 17.035156 C 357.105469 16.863281 357.210938 16.71875 357.347656 16.601562 C 357.484375 16.488281 357.664062 16.429688 357.886719 16.429688 C 358.117188 16.429688 358.300781 16.488281 358.433594 16.601562 C 358.566406 16.71875 358.667969 16.863281 358.738281 17.035156 C 358.808594 17.207031 358.855469 17.394531 358.875 17.597656 C 358.894531 17.804688 358.90625 17.992188 358.90625 18.167969 C 358.90625 18.351562 358.894531 18.550781 358.871094 18.757812 C 358.847656 18.964844 358.796875 19.15625 358.71875 19.328125 C 358.644531 19.5 358.539062 19.640625 358.402344 19.753906 C 358.265625 19.867188 358.082031 19.921875 357.851562 19.921875 C 357.625 19.921875 357.449219 19.863281 357.316406 19.746094 C 357.183594 19.632812 357.082031 19.488281 357.011719 19.316406 C 356.9375 19.144531 356.890625 18.957031 356.871094 18.75 C 356.851562 18.546875 356.84375 18.359375 356.84375 18.179688 Z M 355.941406 18.207031 C 355.941406 18.535156 355.976562 18.839844 356.042969 19.128906 C 356.113281 19.417969 356.222656 19.667969 356.375 19.878906 C 356.527344 20.089844 356.726562 20.257812 356.972656 20.382812 C 357.222656 20.507812 357.527344 20.570312 357.886719 20.570312 C 358.238281 20.570312 358.535156 20.503906 358.773438 20.371094 C 359.015625 20.238281 359.210938 20.0625 359.367188 19.84375 C 359.523438 19.625 359.636719 19.367188 359.703125 19.074219 C 359.773438 18.78125 359.804688 18.480469 359.804688 18.167969 C 359.804688 17.839844 359.777344 17.53125 359.714844 17.238281 C 359.65625 16.945312 359.550781 16.695312 359.402344 16.476562 C 359.253906 16.261719 359.058594 16.089844 358.816406 15.960938 C 358.570312 15.832031 358.261719 15.769531 357.886719 15.769531 C 357.519531 15.769531 357.210938 15.835938 356.960938 15.96875 C 356.714844 16.101562 356.515625 16.277344 356.363281 16.5 C 356.210938 16.726562 356.101562 16.984375 356.039062 17.277344 C 355.972656 17.566406 355.941406 17.878906 355.941406 18.207031 Z M 357.621094 11.773438 L 351.167969 20.691406 L 352.199219 20.691406 L 358.640625 11.773438 Z M 360.800781 22.800781 L 361.570312 22.800781 C 362.195312 21.976562 362.664062 21.085938 362.980469 20.132812 C 363.296875 19.175781 363.453125 18.226562 363.453125 17.28125 C 363.453125 16.753906 363.410156 16.25 363.320312 15.769531 C 363.234375 15.289062 363.109375 14.820312 362.945312 14.359375 C 362.78125 13.898438 362.582031 13.449219 362.351562 13.003906 C 362.117188 12.558594 361.859375 12.113281 361.570312 11.664062 L 360.800781 11.664062 C 361.363281 12.585938 361.765625 13.5 362.007812 14.40625 C 362.253906 15.316406 362.375 16.273438 362.375 17.28125 C 362.375 18.257812 362.253906 19.195312 362.015625 20.09375 C 361.773438 20.996094 361.371094 21.898438 360.800781 22.800781 Z M 284.648438 9.011719 "/>
<path fill-rule="nonzero" fill="rgb(100%, 38.823529%, 51.764706%)" fill-opacity="1" stroke-width="2" stroke-linecap="butt" stroke-linejoin="miter" stroke="rgb(100%, 100%, 100%)" stroke-opacity="1" stroke-miterlimit="10" d="M 374.015625 10 L 414.015625 10 L 414.015625 22 L 374.015625 22 Z M 374.015625 10 "/>
<path fill-rule="nonzero" fill="rgb(40%, 40%, 40%)" fill-opacity="1" d="M 420.953125 11.871094 L 420.953125 20.4375 L 422.089844 20.4375 L 422.089844 16.511719 L 426.605469 16.511719 L 426.605469 20.4375 L 427.742188 20.4375 L 427.742188 11.871094 L 426.605469 11.871094 L 426.605469 15.554688 L 422.089844 15.554688 L 422.089844 11.871094 Z M 434.945312 20.414062 C 434.769531 20.519531 434.523438 20.570312 434.210938 20.570312 C 433.949219 20.570312 433.738281 20.496094 433.582031 20.347656 C 433.425781 20.199219 433.347656 19.957031 433.347656 19.621094 C 433.066406 19.957031 432.742188 20.199219 432.371094 20.347656 C 432 20.496094 431.59375 20.570312 431.164062 20.570312 C 430.882812 20.570312 430.617188 20.539062 430.367188 20.472656 C 430.113281 20.410156 429.894531 20.308594 429.710938 20.171875 C 429.527344 20.035156 429.382812 19.859375 429.273438 19.640625 C 429.164062 19.417969 429.113281 19.152344 429.113281 18.839844 C 429.113281 18.488281 429.171875 18.203125 429.292969 17.976562 C 429.414062 17.753906 429.570312 17.570312 429.765625 17.429688 C 429.960938 17.289062 430.1875 17.183594 430.4375 17.113281 C 430.691406 17.042969 430.949219 16.980469 431.210938 16.933594 C 431.492188 16.878906 431.757812 16.835938 432.007812 16.808594 C 432.261719 16.78125 432.484375 16.738281 432.675781 16.6875 C 432.867188 16.636719 433.019531 16.558594 433.132812 16.460938 C 433.242188 16.359375 433.300781 16.214844 433.300781 16.023438 C 433.300781 15.796875 433.257812 15.617188 433.171875 15.480469 C 433.089844 15.34375 432.980469 15.242188 432.851562 15.167969 C 432.71875 15.097656 432.570312 15.050781 432.40625 15.027344 C 432.242188 15.003906 432.078125 14.988281 431.917969 14.988281 C 431.488281 14.988281 431.128906 15.070312 430.839844 15.234375 C 430.550781 15.398438 430.394531 15.710938 430.371094 16.164062 L 429.351562 16.164062 C 429.367188 15.78125 429.449219 15.457031 429.589844 15.195312 C 429.734375 14.929688 429.925781 14.714844 430.167969 14.550781 C 430.40625 14.386719 430.683594 14.269531 430.988281 14.199219 C 431.296875 14.125 431.628906 14.089844 431.980469 14.089844 C 432.261719 14.089844 432.539062 14.109375 432.8125 14.148438 C 433.089844 14.1875 433.339844 14.273438 433.5625 14.394531 C 433.789062 14.519531 433.96875 14.695312 434.105469 14.917969 C 434.242188 15.140625 434.308594 15.433594 434.308594 15.792969 L 434.308594 18.984375 C 434.308594 19.226562 434.320312 19.402344 434.351562 19.511719 C 434.378906 19.625 434.472656 19.679688 434.632812 19.679688 C 434.71875 19.679688 434.824219 19.660156 434.945312 19.621094 Z M 433.289062 17.234375 C 433.160156 17.328125 432.992188 17.398438 432.785156 17.445312 C 432.578125 17.488281 432.359375 17.523438 432.128906 17.550781 C 431.902344 17.578125 431.671875 17.613281 431.441406 17.648438 C 431.207031 17.683594 431 17.742188 430.816406 17.820312 C 430.632812 17.902344 430.480469 18.015625 430.367188 18.164062 C 430.25 18.3125 430.191406 18.511719 430.191406 18.769531 C 430.191406 18.9375 430.226562 19.078125 430.292969 19.195312 C 430.363281 19.3125 430.449219 19.40625 430.558594 19.476562 C 430.664062 19.550781 430.792969 19.601562 430.9375 19.632812 C 431.082031 19.664062 431.230469 19.679688 431.390625 19.679688 C 431.726562 19.679688 432.015625 19.636719 432.253906 19.542969 C 432.496094 19.453125 432.691406 19.335938 432.84375 19.195312 C 432.996094 19.054688 433.109375 18.902344 433.179688 18.738281 C 433.25 18.574219 433.289062 18.421875 433.289062 18.277344 Z M 435.855469 14.234375 L 435.855469 20.4375 L 436.878906 20.4375 L 436.878906 17.675781 C 436.878906 17.277344 436.917969 16.921875 436.996094 16.617188 C 437.078125 16.308594 437.203125 16.046875 437.382812 15.828125 C 437.558594 15.613281 437.789062 15.449219 438.078125 15.335938 C 438.367188 15.226562 438.714844 15.167969 439.121094 15.167969 L 439.121094 14.089844 C 438.570312 14.074219 438.113281 14.183594 437.753906 14.425781 C 437.394531 14.664062 437.089844 15.039062 436.839844 15.542969 L 436.816406 15.542969 L 436.816406 14.234375 Z M 440.417969 17.390625 C 440.417969 17.085938 440.449219 16.789062 440.515625 16.5 C 440.578125 16.214844 440.683594 15.957031 440.828125 15.734375 C 440.972656 15.511719 441.164062 15.328125 441.402344 15.195312 C 441.640625 15.058594 441.933594 14.988281 442.277344 14.988281 C 442.628906 14.988281 442.929688 15.054688 443.179688 15.1875 C 443.425781 15.320312 443.628906 15.492188 443.785156 15.710938 C 443.941406 15.925781 444.054688 16.175781 444.125 16.460938 C 444.199219 16.742188 444.234375 17.039062 444.234375 17.339844 C 444.234375 17.628906 444.199219 17.914062 444.132812 18.195312 C 444.0625 18.472656 443.953125 18.722656 443.800781 18.945312 C 443.648438 19.164062 443.453125 19.339844 443.214844 19.476562 C 442.972656 19.613281 442.683594 19.679688 442.339844 19.679688 C 442.011719 19.679688 441.722656 19.617188 441.480469 19.488281 C 441.234375 19.359375 441.035156 19.191406 440.878906 18.972656 C 440.722656 18.757812 440.609375 18.511719 440.53125 18.234375 C 440.457031 17.960938 440.417969 17.675781 440.417969 17.390625 Z M 445.21875 20.4375 L 445.21875 11.871094 L 444.199219 11.871094 L 444.199219 15.0625 L 444.175781 15.0625 C 444.0625 14.878906 443.925781 14.722656 443.761719 14.597656 C 443.597656 14.476562 443.421875 14.375 443.238281 14.300781 C 443.054688 14.222656 442.871094 14.167969 442.6875 14.136719 C 442.503906 14.105469 442.332031 14.089844 442.171875 14.089844 C 441.699219 14.089844 441.285156 14.175781 440.929688 14.347656 C 440.574219 14.519531 440.277344 14.75 440.039062 15.042969 C 439.804688 15.335938 439.628906 15.675781 439.511719 16.070312 C 439.394531 16.460938 439.339844 16.878906 439.339844 17.316406 C 439.339844 17.757812 439.398438 18.171875 439.519531 18.566406 C 439.640625 18.957031 439.816406 19.300781 440.050781 19.597656 C 440.289062 19.894531 440.585938 20.128906 440.941406 20.304688 C 441.296875 20.480469 441.714844 20.570312 442.195312 20.570312 C 442.625 20.570312 443.023438 20.492188 443.382812 20.339844 C 443.742188 20.1875 444.007812 19.941406 444.175781 19.597656 L 444.199219 19.597656 L 444.199219 20.4375 Z M 452.929688 20.4375 L 454.910156 14.234375 L 453.855469 14.234375 L 452.464844 19.308594 L 452.441406 19.308594 L 451.144531 14.234375 L 450.027344 14.234375 L 448.78125 19.308594 L 448.753906 19.308594 L 447.351562 14.234375 L 446.222656 14.234375 L 448.214844 20.4375 L 449.320312 20.4375 L 450.566406 15.503906 L 450.589844 15.503906 L 451.851562 20.4375 Z M 461.382812 20.414062 C 461.207031 20.519531 460.960938 20.570312 460.648438 20.570312 C 460.386719 20.570312 460.175781 20.496094 460.019531 20.347656 C 459.863281 20.199219 459.785156 19.957031 459.785156 19.621094 C 459.503906 19.957031 459.179688 20.199219 458.808594 20.347656 C 458.4375 20.496094 458.03125 20.570312 457.601562 20.570312 C 457.320312 20.570312 457.054688 20.539062 456.804688 20.472656 C 456.550781 20.410156 456.332031 20.308594 456.148438 20.171875 C 455.964844 20.035156 455.820312 19.859375 455.710938 19.640625 C 455.601562 19.417969 455.550781 19.152344 455.550781 18.839844 C 455.550781 18.488281 455.609375 18.203125 455.730469 17.976562 C 455.851562 17.753906 456.007812 17.570312 456.203125 17.429688 C 456.398438 17.289062 456.625 17.183594 456.875 17.113281 C 457.128906 17.042969 457.386719 16.980469 457.648438 16.933594 C 457.929688 16.878906 458.195312 16.835938 458.445312 16.808594 C 458.699219 16.78125 458.921875 16.738281 459.113281 16.6875 C 459.304688 16.636719 459.457031 16.558594 459.570312 16.460938 C 459.679688 16.359375 459.738281 16.214844 459.738281 16.023438 C 459.738281 15.796875 459.695312 15.617188 459.609375 15.480469 C 459.527344 15.34375 459.417969 15.242188 459.289062 15.167969 C 459.15625 15.097656 459.007812 15.050781 458.84375 15.027344 C 458.679688 15.003906 458.515625 14.988281 458.355469 14.988281 C 457.925781 14.988281 457.566406 15.070312 457.277344 15.234375 C 456.988281 15.398438 456.832031 15.710938 456.808594 16.164062 L 455.789062 16.164062 C 455.804688 15.78125 455.886719 15.457031 456.027344 15.195312 C 456.171875 14.929688 456.363281 14.714844 456.605469 14.550781 C 456.84375 14.386719 457.121094 14.269531 457.425781 14.199219 C 457.734375 14.125 458.066406 14.089844 458.417969 14.089844 C 458.699219 14.089844 458.976562 14.109375 459.25 14.148438 C 459.527344 14.1875 459.777344 14.273438 460 14.394531 C 460.226562 14.519531 460.40625 14.695312 460.542969 14.917969 C 460.679688 15.140625 460.746094 15.433594 460.746094 15.792969 L 460.746094 18.984375 C 460.746094 19.226562 460.757812 19.402344 460.789062 19.511719 C 460.816406 19.625 460.910156 19.679688 461.070312 19.679688 C 461.15625 19.679688 461.261719 19.660156 461.382812 19.621094 Z M 459.726562 17.234375 C 459.597656 17.328125 459.429688 17.398438 459.222656 17.445312 C 459.015625 17.488281 458.796875 17.523438 458.566406 17.550781 C 458.339844 17.578125 458.109375 17.613281 457.878906 17.648438 C 457.644531 17.683594 457.4375 17.742188 457.253906 17.820312 C 457.070312 17.902344 456.917969 18.015625 456.804688 18.164062 C 456.6875 18.3125 456.628906 18.511719 456.628906 18.769531 C 456.628906 18.9375 456.664062 19.078125 456.730469 19.195312 C 456.800781 19.3125 456.886719 19.40625 456.996094 19.476562 C 457.101562 19.550781 457.230469 19.601562 457.375 19.632812 C 457.519531 19.664062 457.667969 19.679688 457.828125 19.679688 C 458.164062 19.679688 458.453125 19.636719 458.691406 19.542969 C 458.933594 19.453125 459.128906 19.335938 459.28125 19.195312 C 459.433594 19.054688 459.546875 18.902344 459.617188 18.738281 C 459.6875 18.574219 459.726562 18.421875 459.726562 18.277344 Z M 462.292969 14.234375 L 462.292969 20.4375 L 463.316406 20.4375 L 463.316406 17.675781 C 463.316406 17.277344 463.355469 16.921875 463.433594 16.617188 C 463.515625 16.308594 463.640625 16.046875 463.820312 15.828125 C 463.996094 15.613281 464.226562 15.449219 464.515625 15.335938 C 464.804688 15.226562 465.152344 15.167969 465.558594 15.167969 L 465.558594 14.089844 C 465.007812 14.074219 464.550781 14.183594 464.191406 14.425781 C 463.832031 14.664062 463.527344 15.039062 463.277344 15.542969 L 463.253906 15.542969 L 463.253906 14.234375 Z M 470.414062 16.742188 L 466.851562 16.742188 C 466.867188 16.5 466.917969 16.277344 467.007812 16.0625 C 467.097656 15.851562 467.214844 15.664062 467.367188 15.503906 C 467.519531 15.34375 467.703125 15.21875 467.914062 15.128906 C 468.125 15.035156 468.363281 14.988281 468.628906 14.988281 C 468.882812 14.988281 469.117188 15.035156 469.328125 15.128906 C 469.542969 15.21875 469.726562 15.34375 469.882812 15.5 C 470.039062 15.65625 470.160156 15.839844 470.253906 16.058594 C 470.347656 16.273438 470.398438 16.5 470.414062 16.742188 Z M 471.398438 18.46875 L 470.390625 18.46875 C 470.304688 18.878906 470.121094 19.179688 469.847656 19.382812 C 469.570312 19.582031 469.214844 19.679688 468.785156 19.679688 C 468.449219 19.679688 468.15625 19.625 467.90625 19.511719 C 467.660156 19.402344 467.457031 19.25 467.296875 19.0625 C 467.136719 18.875 467.019531 18.660156 466.949219 18.414062 C 466.875 18.171875 466.84375 17.914062 466.851562 17.640625 L 471.496094 17.640625 C 471.511719 17.265625 471.476562 16.871094 471.394531 16.453125 C 471.308594 16.039062 471.15625 15.652344 470.9375 15.300781 C 470.71875 14.949219 470.425781 14.660156 470.0625 14.429688 C 469.699219 14.203125 469.238281 14.089844 468.6875 14.089844 C 468.265625 14.089844 467.875 14.167969 467.519531 14.328125 C 467.164062 14.488281 466.855469 14.714844 466.59375 15 C 466.332031 15.289062 466.132812 15.628906 465.988281 16.023438 C 465.84375 16.414062 465.773438 16.84375 465.773438 17.316406 C 465.789062 17.789062 465.859375 18.226562 465.980469 18.625 C 466.105469 19.023438 466.292969 19.371094 466.539062 19.65625 C 466.789062 19.945312 467.09375 20.167969 467.457031 20.328125 C 467.820312 20.488281 468.25 20.570312 468.746094 20.570312 C 469.453125 20.570312 470.035156 20.394531 470.5 20.042969 C 470.964844 19.691406 471.265625 19.164062 471.398438 18.46875 Z M 477.570312 22.800781 L 478.347656 22.800781 C 477.78125 21.882812 477.375 20.96875 477.132812 20.066406 C 476.886719 19.160156 476.765625 18.207031 476.765625 17.199219 C 476.765625 16.214844 476.886719 15.273438 477.125 14.378906 C 477.363281 13.480469 477.773438 12.578125 478.347656 11.664062 L 477.570312 11.664062 C 476.945312 12.488281 476.476562 13.382812 476.160156 14.339844 C 475.84375 15.300781 475.683594 16.253906 475.683594 17.199219 C 475.683594 17.726562 475.730469 18.230469 475.816406 18.710938 C 475.90625 19.191406 476.03125 19.65625 476.195312 20.113281 C 476.359375 20.570312 476.558594 21.019531 476.789062 21.464844 C 477.019531 21.90625 477.28125 22.351562 477.570312 22.800781 Z M 479.816406 16.25 C 479.816406 16.042969 479.816406 15.8125 479.820312 15.558594 C 479.824219 15.308594 479.84375 15.054688 479.878906 14.804688 C 479.914062 14.550781 479.96875 14.304688 480.035156 14.066406 C 480.105469 13.824219 480.203125 13.617188 480.335938 13.433594 C 480.46875 13.253906 480.632812 13.109375 480.835938 12.996094 C 481.035156 12.886719 481.277344 12.828125 481.566406 12.828125 C 481.855469 12.828125 482.097656 12.886719 482.296875 12.996094 C 482.496094 13.109375 482.664062 13.253906 482.796875 13.433594 C 482.929688 13.613281 483.027344 13.824219 483.097656 14.066406 C 483.164062 14.304688 483.214844 14.550781 483.253906 14.804688 C 483.289062 15.054688 483.308594 15.308594 483.3125 15.558594 C 483.316406 15.8125 483.320312 16.042969 483.320312 16.25 C 483.320312 16.570312 483.308594 16.925781 483.289062 17.324219 C 483.269531 17.71875 483.203125 18.089844 483.097656 18.441406 C 482.988281 18.789062 482.816406 19.082031 482.574219 19.320312 C 482.335938 19.5625 482 19.679688 481.566406 19.679688 C 481.132812 19.679688 480.796875 19.5625 480.558594 19.320312 C 480.320312 19.082031 480.144531 18.789062 480.035156 18.441406 C 479.929688 18.09375 479.863281 17.71875 479.84375 17.324219 C 479.824219 16.929688 479.816406 16.570312 479.816406 16.25 Z M 478.734375 16.261719 C 478.734375 16.574219 478.742188 16.898438 478.757812 17.234375 C 478.773438 17.570312 478.816406 17.898438 478.878906 18.21875 C 478.941406 18.539062 479.035156 18.839844 479.15625 19.125 C 479.273438 19.40625 479.4375 19.65625 479.644531 19.875 C 479.855469 20.089844 480.117188 20.257812 480.433594 20.382812 C 480.75 20.507812 481.125 20.570312 481.566406 20.570312 C 482.015625 20.570312 482.394531 20.507812 482.707031 20.382812 C 483.019531 20.257812 483.277344 20.089844 483.488281 19.875 C 483.695312 19.65625 483.859375 19.40625 483.976562 19.125 C 484.097656 18.839844 484.191406 18.539062 484.253906 18.21875 C 484.316406 17.898438 484.359375 17.570312 484.375 17.234375 C 484.390625 16.898438 484.398438 16.574219 484.398438 16.261719 C 484.398438 15.949219 484.390625 15.625 484.375 15.289062 C 484.359375 14.953125 484.320312 14.625 484.253906 14.304688 C 484.191406 13.984375 484.097656 13.679688 483.976562 13.394531 C 483.859375 13.105469 483.695312 12.851562 483.488281 12.636719 C 483.277344 12.421875 483.015625 12.25 482.699219 12.121094 C 482.382812 11.992188 482.007812 11.929688 481.566406 11.929688 C 481.125 11.929688 480.75 11.992188 480.433594 12.121094 C 480.117188 12.25 479.855469 12.421875 479.644531 12.636719 C 479.4375 12.851562 479.273438 13.105469 479.15625 13.394531 C 479.035156 13.683594 478.941406 13.984375 478.878906 14.304688 C 478.816406 14.625 478.773438 14.953125 478.757812 15.289062 C 478.742188 15.625 478.734375 15.949219 478.734375 16.261719 Z M 485.898438 19.105469 L 485.898438 20.4375 L 487.230469 20.4375 L 487.230469 19.105469 Z M 493.878906 12.972656 L 493.878906 12.074219 L 489.679688 12.074219 L 488.886719 16.488281 L 489.761719 16.539062 C 489.960938 16.296875 490.191406 16.101562 490.453125 15.957031 C 490.710938 15.808594 491.011719 15.734375 491.347656 15.734375 C 491.632812 15.734375 491.894531 15.78125 492.132812 15.878906 C 492.367188 15.972656 492.570312 16.109375 492.738281 16.28125 C 492.90625 16.453125 493.035156 16.65625 493.128906 16.890625 C 493.21875 17.128906 493.265625 17.386719 493.265625 17.664062 C 493.265625 18 493.21875 18.296875 493.121094 18.546875 C 493.027344 18.800781 492.894531 19.007812 492.730469 19.175781 C 492.566406 19.34375 492.375 19.472656 492.15625 19.554688 C 491.9375 19.640625 491.707031 19.679688 491.464844 19.679688 C 491.210938 19.679688 490.976562 19.644531 490.765625 19.566406 C 490.550781 19.492188 490.367188 19.382812 490.210938 19.242188 C 490.054688 19.101562 489.933594 18.941406 489.839844 18.75 C 489.75 18.5625 489.695312 18.363281 489.679688 18.144531 L 488.660156 18.144531 C 488.667969 18.527344 488.742188 18.875 488.886719 19.175781 C 489.03125 19.480469 489.226562 19.734375 489.472656 19.941406 C 489.722656 20.144531 490.007812 20.300781 490.332031 20.40625 C 490.65625 20.515625 491.003906 20.570312 491.371094 20.570312 C 491.867188 20.570312 492.300781 20.492188 492.671875 20.335938 C 493.042969 20.179688 493.355469 19.96875 493.601562 19.707031 C 493.851562 19.441406 494.035156 19.140625 494.160156 18.800781 C 494.285156 18.460938 494.347656 18.109375 494.347656 17.75 C 494.347656 17.261719 494.273438 16.835938 494.128906 16.472656 C 493.984375 16.109375 493.789062 15.804688 493.542969 15.558594 C 493.292969 15.316406 493.003906 15.132812 492.667969 15.011719 C 492.332031 14.894531 491.972656 14.832031 491.597656 14.832031 C 491.308594 14.832031 491.019531 14.882812 490.726562 14.984375 C 490.4375 15.082031 490.199219 15.238281 490.015625 15.445312 L 489.992188 15.421875 L 490.445312 12.972656 Z M 496.519531 18.386719 L 495.5 18.386719 C 495.5625 19.121094 495.832031 19.667969 496.300781 20.03125 C 496.773438 20.390625 497.367188 20.570312 498.078125 20.570312 C 499.109375 20.570312 499.859375 20.175781 500.328125 19.386719 C 500.796875 18.597656 501.03125 17.46875 501.03125 15.996094 C 501.03125 15.1875 500.953125 14.523438 500.796875 14 C 500.640625 13.476562 500.429688 13.0625 500.167969 12.757812 C 499.902344 12.453125 499.59375 12.238281 499.242188 12.117188 C 498.890625 11.992188 498.515625 11.929688 498.113281 11.929688 C 497.707031 11.929688 497.332031 11.996094 496.984375 12.132812 C 496.640625 12.269531 496.347656 12.460938 496.097656 12.703125 C 495.851562 12.949219 495.65625 13.238281 495.523438 13.578125 C 495.386719 13.917969 495.316406 14.292969 495.316406 14.703125 C 495.316406 15.117188 495.375 15.5 495.492188 15.851562 C 495.609375 16.203125 495.78125 16.503906 496.007812 16.753906 C 496.234375 17 496.519531 17.195312 496.855469 17.335938 C 497.191406 17.476562 497.574219 17.546875 498.007812 17.546875 C 498.421875 17.546875 498.804688 17.441406 499.15625 17.226562 C 499.507812 17.015625 499.78125 16.730469 499.972656 16.371094 L 500 16.394531 C 499.964844 17.503906 499.792969 18.332031 499.480469 18.871094 C 499.167969 19.410156 498.703125 19.679688 498.078125 19.679688 C 497.671875 19.679688 497.316406 19.570312 497.023438 19.34375 C 496.726562 19.121094 496.558594 18.800781 496.519531 18.386719 Z M 499.816406 14.773438 C 499.816406 15.019531 499.777344 15.257812 499.699219 15.488281 C 499.617188 15.714844 499.503906 15.914062 499.351562 16.085938 C 499.199219 16.257812 499.015625 16.394531 498.796875 16.496094 C 498.582031 16.59375 498.34375 16.644531 498.078125 16.644531 C 497.832031 16.644531 497.605469 16.59375 497.398438 16.496094 C 497.195312 16.394531 497.019531 16.261719 496.871094 16.09375 C 496.722656 15.925781 496.609375 15.734375 496.523438 15.515625 C 496.441406 15.300781 496.398438 15.078125 496.398438 14.84375 C 496.398438 14.582031 496.429688 14.328125 496.488281 14.089844 C 496.546875 13.851562 496.644531 13.636719 496.777344 13.449219 C 496.910156 13.261719 497.082031 13.109375 497.292969 12.996094 C 497.503906 12.886719 497.761719 12.828125 498.066406 12.828125 C 498.355469 12.828125 498.605469 12.882812 498.820312 12.984375 C 499.039062 13.089844 499.21875 13.230469 499.367188 13.410156 C 499.515625 13.589844 499.628906 13.796875 499.703125 14.03125 C 499.78125 14.261719 499.816406 14.507812 499.816406 14.773438 Z M 503.585938 14.339844 C 503.585938 14.15625 503.597656 13.964844 503.621094 13.757812 C 503.644531 13.554688 503.695312 13.367188 503.773438 13.195312 C 503.847656 13.023438 503.953125 12.878906 504.089844 12.761719 C 504.226562 12.648438 504.40625 12.589844 504.628906 12.589844 C 504.863281 12.589844 505.042969 12.648438 505.175781 12.761719 C 505.308594 12.878906 505.410156 13.023438 505.480469 13.195312 C 505.554688 13.367188 505.601562 13.554688 505.621094 13.757812 C 505.640625 13.964844 505.648438 14.152344 505.648438 14.328125 C 505.648438 14.511719 505.636719 14.710938 505.613281 14.917969 C 505.589844 15.125 505.539062 15.316406 505.464844 15.488281 C 505.386719 15.660156 505.28125 15.800781 505.144531 15.914062 C 505.007812 16.027344 504.824219 16.082031 504.59375 16.082031 C 504.371094 16.082031 504.191406 16.023438 504.058594 15.90625 C 503.925781 15.792969 503.824219 15.648438 503.753906 15.476562 C 503.683594 15.304688 503.636719 15.117188 503.617188 14.910156 C 503.597656 14.707031 503.585938 14.515625 503.585938 14.339844 Z M 502.6875 14.367188 C 502.6875 14.695312 502.71875 15 502.789062 15.289062 C 502.855469 15.578125 502.964844 15.828125 503.117188 16.046875 C 503.269531 16.261719 503.46875 16.429688 503.71875 16.554688 C 503.964844 16.679688 504.269531 16.742188 504.628906 16.742188 C 504.980469 16.742188 505.277344 16.671875 505.519531 16.539062 C 505.757812 16.402344 505.957031 16.222656 506.113281 16.003906 C 506.269531 15.785156 506.378906 15.527344 506.449219 15.234375 C 506.515625 14.941406 506.550781 14.640625 506.550781 14.328125 C 506.550781 14 506.519531 13.691406 506.460938 13.398438 C 506.398438 13.105469 506.296875 12.851562 506.148438 12.636719 C 506 12.421875 505.804688 12.25 505.558594 12.121094 C 505.316406 11.992188 505.007812 11.929688 504.628906 11.929688 C 504.261719 11.929688 503.953125 11.996094 503.707031 12.128906 C 503.457031 12.261719 503.257812 12.4375 503.105469 12.660156 C 502.953125 12.886719 502.847656 13.144531 502.78125 13.433594 C 502.71875 13.726562 502.6875 14.039062 502.6875 14.367188 Z M 509.515625 18.179688 C 509.515625 17.996094 509.527344 17.804688 509.550781 17.597656 C 509.574219 17.394531 509.625 17.207031 509.699219 17.035156 C 509.777344 16.863281 509.882812 16.71875 510.019531 16.601562 C 510.15625 16.488281 510.335938 16.429688 510.558594 16.429688 C 510.789062 16.429688 510.972656 16.488281 511.105469 16.601562 C 511.238281 16.71875 511.339844 16.863281 511.410156 17.035156 C 511.480469 17.207031 511.527344 17.394531 511.546875 17.597656 C 511.566406 17.804688 511.578125 17.992188 511.578125 18.167969 C 511.578125 18.351562 511.566406 18.550781 511.542969 18.757812 C 511.519531 18.964844 511.46875 19.15625 511.390625 19.328125 C 511.316406 19.5 511.210938 19.640625 511.074219 19.753906 C 510.9375 19.867188 510.753906 19.921875 510.523438 19.921875 C 510.296875 19.921875 510.121094 19.863281 509.988281 19.746094 C 509.855469 19.632812 509.753906 19.488281 509.683594 19.316406 C 509.609375 19.144531 509.5625 18.957031 509.542969 18.75 C 509.523438 18.546875 509.515625 18.359375 509.515625 18.179688 Z M 508.613281 18.207031 C 508.613281 18.535156 508.648438 18.839844 508.714844 19.128906 C 508.785156 19.417969 508.894531 19.667969 509.046875 19.878906 C 509.199219 20.089844 509.398438 20.257812 509.644531 20.382812 C 509.894531 20.507812 510.199219 20.570312 510.558594 20.570312 C 510.910156 20.570312 511.207031 20.503906 511.445312 20.371094 C 511.6875 20.238281 511.882812 20.0625 512.039062 19.84375 C 512.195312 19.625 512.308594 19.367188 512.375 19.074219 C 512.445312 18.78125 512.476562 18.480469 512.476562 18.167969 C 512.476562 17.839844 512.449219 17.53125 512.386719 17.238281 C 512.328125 16.945312 512.222656 16.695312 512.074219 16.476562 C 511.925781 16.261719 511.730469 16.089844 511.488281 15.960938 C 511.242188 15.832031 510.933594 15.769531 510.558594 15.769531 C 510.191406 15.769531 509.882812 15.835938 509.632812 15.96875 C 509.386719 16.101562 509.1875 16.277344 509.035156 16.5 C 508.882812 16.726562 508.773438 16.984375 508.710938 17.277344 C 508.644531 17.566406 508.613281 17.878906 508.613281 18.207031 Z M 510.292969 11.773438 L 503.839844 20.691406 L 504.871094 20.691406 L 511.3125 11.773438 Z M 513.472656 22.800781 L 514.242188 22.800781 C 514.867188 21.976562 515.335938 21.085938 515.652344 20.132812 C 515.96875 19.175781 516.125 18.226562 516.125 17.28125 C 516.125 16.753906 516.082031 16.25 515.992188 15.769531 C 515.90625 15.289062 515.78125 14.820312 515.617188 14.359375 C 515.453125 13.898438 515.253906 13.449219 515.023438 13.003906 C 514.789062 12.558594 514.53125 12.113281 514.242188 11.664062 L 513.472656 11.664062 C 514.035156 12.585938 514.4375 13.5 514.679688 14.40625 C 514.925781 15.316406 515.046875 16.273438 515.046875 17.28125 C 515.046875 18.257812 514.925781 19.195312 514.6875 20.09375 C 514.445312 20.996094 514.042969 21.898438 513.472656 22.800781 Z M 420.015625 9.011719 "/>
<path fill-rule="nonzero" fill="rgb(100%, 80.392157%, 33.72549%)" fill-opacity="1" stroke-width="2" stroke-linecap="butt" stroke-linejoin="bevel" stroke="rgb(100%, 100%, 100%)" stroke-opacity="1" stroke-miterlimit="10" d="M 300 33 C 450.734375 33 575.015625 151.148438 582.636719 301.691406 C 590.257812 452.234375 478.546875 582.332031 328.582031 597.554688 C 178.617188 612.777344 43.039062 507.78125 20.253906 358.777344 C -2.535156 209.777344 95.472656 69.0625 243.132812 38.773438 L 271.566406 177.386719 C 197.734375 192.53125 148.734375 262.886719 160.125 337.390625 C 171.519531 411.890625 239.308594 464.386719 314.289062 456.777344 C 389.273438 449.164062 445.128906 384.117188 441.320312 308.847656 C 437.507812 233.574219 375.367188 174.5 300 174.5 Z M 300 33 "/>
<path fill-rule="nonzero" fill="rgb(21.176471%, 63.529412%, 92.156863%)" fill-opacity="1" stroke-width="2" stroke-linecap="butt" stroke-linejoin="bevel" stroke="rgb(100%, 100%, 100%)" stroke-opacity="1" stroke-miterlimit="10" d="M 243.132812 38.773438 C 258.390625 35.640625 273.882812 33.777344 289.449219 33.195312 L 294.726562 174.597656 C 286.941406 174.890625 279.195312 175.820312 271.566406 177.386719 Z M 243.132812 38.773438 "/>
<path fill-rule="nonzero" fill="rgb(100%, 38.823529%, 51.764706%)" fill-opacity="1" stroke-width="2" stroke-linecap="butt" stroke-linejoin="bevel" stroke="rgb(100%, 100%, 100%)" stroke-opacity="1" stroke-miterlimit="10" d="M 289.449219 33.195312 C 292.964844 33.066406 296.480469 33 300 33 L 300 174.5 C 298.242188 174.5 296.484375 174.53125 294.726562 174.597656 Z M 289.449219 33.195312 "/>
</svg>
